<svg width="512" height="512" viewBox="0 0 512 512" fill="none" xmlns="http://www.w3.org/2000/svg">

<g transform="translate(0.000000,512.000000) scale(0.100000,-0.100000)"
fill="#959595" fill-opacity="0.7804" stroke="none">
<path d="M2595 5068 c-183 -213 -309 -680 -350 -1295 l-6 -93 401 0 401 0 -6
93 c-32 485 -113 863 -242 1124 -43 87 -125 202 -149 210 -7 2 -28 -15 -49
-39z"/>
<path d="M2162 3172 c-34 -191 -62 -353 -62 -359 0 -19 1080 -19 1080 0 0 6
-28 168 -62 359 l-63 348 -415 0 -415 0 -63 -348z"/>
<path d="M492 3343 c-18 -9 -45 -32 -60 -51 l-27 -35 -3 -949 -2 -948 560 0
560 0 0 935 c0 1035 4 978 -66 1031 l-37 29 -446 2 c-398 3 -450 1 -479 -14z"/>
<path d="M4155 3271 c-107 -28 -190 -94 -266 -209 -105 -160 -168 -396 -204
-764 l-5 -58 560 0 560 0 -5 58 c-55 549 -181 848 -401 949 -59 27 -182 39
-239 24z"/>
<path d="M2080 1800 l0 -840 560 0 560 0 0 840 0 840 -360 0 -360 0 0 -415 0
-416 -25 -24 c-32 -33 -78 -33 -110 0 l-25 24 0 416 0 415 -120 0 -120 0 0
-840z"/>
<path d="M3680 1480 l0 -600 360 0 360 0 0 335 0 336 25 24 c32 33 78 33 110
0 l25 -24 0 -336 0 -335 120 0 120 0 0 600 0 600 -560 0 -560 0 0 -600z"/>
<path d="M400 840 l0 -360 560 0 560 0 0 360 0 360 -560 0 -560 0 0 -360z"/>
<path d="M2175 643 l63 -158 402 0 402 0 63 158 63 157 -528 0 -528 0 63 -157z"/>
<path d="M3780 600 l60 -120 400 0 400 0 60 120 60 120 -520 0 -520 0 60 -120z"/>
<path d="M240 160 l0 -160 720 0 720 0 0 160 0 160 -720 0 -720 0 0 -160z"/>
<path d="M2080 160 l0 -160 560 0 560 0 0 160 0 160 -560 0 -560 0 0 -160z"/>
<path d="M3680 160 l0 -160 560 0 560 0 0 160 0 160 -560 0 -560 0 0 -160z"/>
</g>
</svg>
