<svg id="Layer_1" viewBox="0 0 512 512" xmlns="http://www.w3.org/2000/svg" data-name="Layer 1">
<path d="M0 0 C2.47320926 0.97878201 3.85584557 2.31610272 5.74204504 4.19142437 C6.48943442 4.92746395 7.23682379 5.66350353 8.00686133 6.42184734 C9.22194373 7.64132565 9.22194373 7.64132565 10.46157324 8.88543987 C11.32207785 9.73747494 12.18258246 10.58951 13.06916296 11.46736431 C15.42591075 13.8047151 17.77563621 16.1486908 20.12174499 18.49669385 C22.08011584 20.45518433 24.04280816 22.40931604 26.00540191 24.36357325 C30.63327832 28.97221655 35.25293511 33.58898907 39.86782324 38.21063519 C44.63298696 42.98244794 49.41273594 47.73928949 54.19971269 52.4892109 C58.30723307 56.56608196 62.40507311 60.65250885 66.49534732 64.74668235 C68.93934863 67.19275521 71.38700858 69.63486878 73.84422743 72.06766987 C76.58101759 74.77815716 79.29753723 77.50840463 82.01235449 80.24090862 C82.83253058 81.04782146 83.65270667 81.85473431 84.49773657 82.68609905 C85.59767195 83.80284763 85.59767195 83.80284763 86.71982825 84.94215679 C87.36449703 85.58611306 88.00916581 86.23006933 88.67337 86.89353943 C89.91347754 88.75726604 89.91347754 88.75726604 89.67074358 90.67004526 C88.80510475 93.05596944 87.82393054 94.22467748 86.03732836 96.01652527 C85.42124309 96.64166718 84.80515782 97.26680909 84.1704033 97.91089469 C83.48734677 98.58862329 82.80429025 99.2663519 82.10053504 99.96461773 C81.37971411 100.69152976 80.65889318 101.4184418 79.91622919 102.16738147 C77.48974817 104.61056248 75.05261891 107.04283578 72.61538184 109.47528362 C70.87729333 111.22070823 69.13983043 112.96675601 67.40294898 114.71338177 C63.16788844 118.96839724 58.92572142 123.21620351 54.67978521 127.46035764 C51.23025815 130.90857808 47.7832941 134.35934019 44.33813918 137.81192875 C43.34650599 138.80566107 42.35487203 139.79939263 41.36323732 140.79312342 C40.86971428 141.28768999 40.37619124 141.78225656 39.86771295 142.29181 C30.53143196 151.64699761 21.18518921 160.99218422 11.8360422 170.33451142 C3.27594625 178.88902792 -5.27086231 187.4566823 -13.811604 196.03051809 C-22.57561019 204.82822032 -31.34882121 213.61664599 -40.13200575 222.39520282 C-45.0653008 227.32624951 -49.99475221 232.26100155 -54.91448915 237.2055788 C-59.5379152 241.85214948 -64.17411553 246.48568543 -68.81932962 251.11049175 C-70.52650309 252.81423609 -72.22937779 254.52229982 -73.92771089 256.23485661 C-76.23803793 258.56319955 -78.56305408 260.87577206 -80.89262903 263.18483257 C-81.56899339 263.87371478 -82.24535775 264.56259699 -82.94221801 265.27235442 C-83.56612652 265.8844576 -84.19003503 266.49656077 -84.83284986 267.12721252 C-85.36847289 267.66310794 -85.90409593 268.19900336 -86.45594996 268.75113803 C-88.08652246 269.75726604 -88.08652246 269.75726604 -90.17304492 269.51453209 C-92.64625418 268.53575008 -94.02889049 267.19842937 -95.91508996 265.32310772 C-96.66247934 264.58706814 -97.40986871 263.85102856 -98.17990625 263.09268475 C-99.39498865 261.87320644 -99.39498865 261.87320644 -100.63461816 260.62909222 C-101.49512277 259.77705715 -102.35562738 258.92502209 -103.24220788 258.04716778 C-105.59895567 255.70981699 -107.94868113 253.36584129 -110.29478991 251.01783824 C-112.25316076 249.05934776 -114.21585308 247.10521605 -116.17844683 245.15095884 C-120.80632324 240.54231554 -125.42598003 235.92554302 -130.04086816 231.3038969 C-134.80603188 226.53208415 -139.58578086 221.7752426 -144.37275761 217.02532119 C-148.48027799 212.94845013 -152.57811803 208.86202324 -156.66839224 204.76784974 C-159.11239355 202.32177688 -161.5600535 199.87966331 -164.01727235 197.44686222 C-166.75406251 194.73637493 -169.47058215 192.00612746 -172.18539941 189.27362347 C-173.0055755 188.46671062 -173.82575159 187.65979778 -174.67078149 186.82843304 C-175.77071687 185.71168446 -175.77071687 185.71168446 -176.89287317 184.5723753 C-177.85987634 183.60644089 -177.85987634 183.60644089 -178.84641492 182.62099266 C-180.08652246 180.75726604 -180.08652246 180.75726604 -179.8437885 178.84448683 C-178.97814967 176.45856265 -177.99697546 175.28985461 -176.21037328 173.49800682 C-175.59428801 172.87286491 -174.97820274 172.247723 -174.34344822 171.6036374 C-173.66039169 170.92590879 -172.97733517 170.24818019 -172.27357996 169.54991436 C-171.55275903 168.82300233 -170.8319381 168.09609029 -170.08927411 167.34715062 C-167.66279309 164.90396961 -165.22566383 162.47169631 -162.78842676 160.03924847 C-161.05033825 158.29382386 -159.31287535 156.54777608 -157.5759939 154.80115032 C-153.34093336 150.54613485 -149.09876634 146.29832858 -144.85283013 142.05417445 C-141.40330307 138.60595401 -137.95633902 135.15519189 -134.5111841 131.70260334 C-133.51955091 130.70887102 -132.52791695 129.71513946 -131.53628224 128.72140867 C-131.0427592 128.2268421 -130.54923616 127.73227553 -130.04075787 127.22272209 C-120.70447688 117.86753448 -111.35823413 108.52234787 -102.00908712 99.18002067 C-93.44899117 90.62550417 -84.90218261 82.05784979 -76.36144092 73.484014 C-67.59743473 64.68631177 -58.82422371 55.8978861 -50.04103917 47.11932927 C-45.10774412 42.18828258 -40.17829271 37.25353054 -35.25855577 32.30895329 C-30.63512972 27.66238261 -25.99892939 23.02884666 -21.3537153 18.40404034 C-19.64654183 16.70029599 -17.94366713 14.99223226 -16.24533403 13.27967548 C-13.93500699 10.95133253 -11.60999084 8.63876003 -9.28041589 6.32969952 C-8.60405153 5.64081731 -7.92768717 4.95193509 -7.23082691 4.24217767 C-6.6069184 3.63007449 -5.98300989 3.01797132 -5.34019506 2.38731956 C-4.80457203 1.85142415 -4.26894899 1.31552873 -3.71709496 0.76339406 C-2.08652246 -0.24273396 -2.08652246 -0.24273396 0 0 Z M-20.15683496 70.45648479 C-21.12510029 71.41576629 -22.09343444 72.37497832 -23.06183374 73.33412457 C-25.08435038 75.34021495 -27.10248883 77.35060104 -29.11826074 79.36346722 C-31.68631108 81.92613657 -34.27012493 84.47225416 -36.85820711 87.01466942 C-38.86232707 88.98886958 -40.85492523 90.97440494 -42.84463632 92.96311665 C-44.24821485 94.36051277 -45.66335343 95.74626721 -47.07874048 97.13170147 C-54.14420822 104.24702959 -58.58638645 111.04204991 -59.16855371 121.22210979 C-58.8881777 129.88706362 -55.45281982 135.48102585 -49.47714746 141.62054729 C-43.48904983 146.97265417 -37.13611431 149.07341316 -29.08652246 148.75726604 C-17.64752343 146.69892109 -11.01274872 140.00791979 -3.01620996 132.05804729 C-2.04794463 131.0987658 -1.07961048 130.13955377 -0.11121118 129.18040752 C1.91130546 127.17431714 3.92944391 125.16393105 5.94521582 123.15106487 C8.51326616 120.58839552 11.09708001 118.04227793 13.68516219 115.49986267 C15.68928215 113.5256625 17.68188031 111.54012715 19.6715914 109.55141544 C21.07516993 108.15401932 22.49030851 106.76826488 23.90569556 105.38283062 C30.7926493 98.44727626 35.24050618 91.8797303 35.94863379 81.94867229 C35.82938411 74.51544219 32.99620995 67.92659207 27.82754004 62.61273479 C10.37246469 46.52043111 -5.68533361 56.06943635 -20.15683496 70.45648479 Z " transform="translate(228.08652245998383,194.2427339553833)"/>
<path d="M0 0 C4.30658047 1.65900406 7.18572455 4.91389585 10.36541748 8.12490845 C11.0017858 8.75956791 11.63815411 9.39422738 12.29380631 10.04811895 C14.42819369 12.17920809 16.55534717 14.31737436 18.68261719 16.45556641 C20.20985183 17.98336509 21.7375268 19.51072372 23.26560974 21.03767395 C27.4164254 25.18791481 31.56103745 29.34430171 35.70458508 33.5017972 C40.03453364 37.84423201 44.37013098 42.1810193 48.70513916 46.5184021 C56.91489797 54.73438186 65.11954439 62.95544746 73.3223784 71.17834032 C82.66055421 80.53885596 92.00439668 89.89370621 101.3487258 99.24807858 C120.57214113 118.49240986 139.78840865 137.74386535 159 157 C151.86912829 171.96035657 129.24241938 182.62446139 115 190 C114.35160156 190.3398291 113.70320312 190.6796582 113.03515625 191.02978516 C96.66362611 199.50326771 79.12575033 205.16446523 61.125 209 C60.15747803 209.20778076 59.18995605 209.41556152 58.19311523 209.62963867 C55.44595963 210.17496493 52.78478181 210.68736146 50 211 C49.29396385 211.10683798 48.5879277 211.21367596 47.86049652 211.32375145 C43.90405216 211.67129981 41.07612204 211.65206627 37.61935234 209.55746841 C35.08461693 207.38600658 32.75084663 205.10204333 30.41943359 202.71337891 C29.52064484 201.83211334 28.62185608 200.95084778 27.6958313 200.0428772 C25.24306554 197.63551491 22.82277253 195.19781378 20.40858412 192.75183916 C17.87182157 190.18966099 15.31063687 187.65208098 12.75332642 185.11044312 C8.463723 180.83900503 4.19557094 176.54697979 -0.06103516 172.24267578 C-4.97440209 167.27488892 -9.92276247 162.34415903 -14.89084113 157.43113387 C-19.16433578 153.20310042 -23.41793192 148.95578771 -27.65567148 144.69191682 C-30.18282793 142.1492136 -32.71615086 139.61364509 -35.26762772 137.09532547 C-38.11219688 134.28515952 -40.91392842 131.43568151 -43.71337891 128.58056641 C-44.5579364 127.75625122 -45.4024939 126.93193604 -46.27264404 126.0826416 C-50.13476081 122.077163 -52.49340796 119.40574621 -52.55941772 113.69174194 C-52.42580447 112.12242793 -52.24055598 110.5565127 -52 109 C-51.88822229 108.18419275 -51.77644459 107.36838551 -51.66127968 106.52785683 C-51.31395657 104.20452664 -50.86162521 101.92309516 -50.375 99.625 C-50.19751221 98.76994873 -50.02002441 97.91489746 -49.8371582 97.03393555 C-42.26154017 61.87496836 -26.23329416 25.33433392 0 0 Z " transform="translate(289,64)"/>
<path d="M0 0 C1.28132813 -0.03738281 2.56265625 -0.07476562 3.8828125 -0.11328125 C14.59616975 0.55768885 21.49900834 9.36777209 28.56152344 16.48144531 C29.82630807 17.74080419 31.09194083 18.99931176 32.35835266 20.2570343 C35.78271134 23.66321092 39.19436003 27.08185492 42.60327816 30.50347614 C46.17884132 34.0891934 49.76418465 37.66511026 53.34796143 41.24261475 C59.36369996 47.25108392 65.37097356 53.26791962 71.37353516 59.28955078 C78.30524851 66.24303136 85.25125393 73.18198491 92.20485854 80.11356854 C98.18354792 86.07408376 104.15437905 92.04238664 110.11875749 98.01722217 C113.67716429 101.58185276 117.23818918 105.14375496 120.80632782 108.69864655 C124.16104068 112.04177233 127.50575556 115.39459424 130.84313011 118.75502586 C132.0667452 119.98391271 133.29374496 121.20944045 134.52441597 122.43126106 C149.42675142 137.2363056 149.42675142 137.2363056 149.5 148.6875 C149.2919222 155.8984722 147.67987164 160.90584404 142.875 166.3125 C140.565 168.2925 138.255 170.2725 135.875 172.3125 C83.405 119.8425 30.935 67.3725 -23.125 13.3125 C-16.37169604 5.43364537 -16.37169604 5.43364537 -12.875 3.4375 C-12.20984375 3.04820313 -11.5446875 2.65890625 -10.859375 2.2578125 C-7.07262476 0.19386304 -4.36582845 0.082456 0 0 Z " transform="translate(323.125,39.6875)"/>
<path d="M0 0 C5.48332769 4.57105419 10.56298829 9.42594541 15.59741211 14.48388672 C16.42748779 15.31381638 17.25756348 16.14374603 18.11279297 16.99882507 C20.83668894 19.72341379 23.55703263 22.45151995 26.27734375 25.1796875 C28.17284179 27.07705199 30.06853607 28.97421834 31.9644928 30.87112427 C36.43222586 35.34195434 40.89740564 39.81532534 45.36165386 44.28963482 C50.44799929 49.38719227 55.53721486 54.48188019 60.62666309 59.57633948 C71.08761876 70.04772258 81.54499952 80.52267093 92 91 C91.04237909 92.11989023 90.0843796 93.23945674 89.1262207 94.35888672 C88.32605278 95.29412674 88.32605278 95.29412674 87.50971985 96.2482605 C81.42381636 103.30978093 74.57103507 110.31198676 65 112 C55.21441225 112.65237252 46.27987987 112.98232678 38.24334717 106.60630798 C32.30870861 101.39206977 26.68207122 95.88175671 21.078125 90.31640625 C20.57192375 89.81428053 20.0657225 89.31215481 19.54418182 88.79481316 C16.87174861 86.14306862 14.20248092 83.48818311 11.53564453 80.83081055 C8.79836125 78.10463662 6.04958295 75.39035984 3.29814529 72.67848301 C1.16551307 70.57208444 -0.95810032 68.45676286 -3.07944489 66.33900261 C-4.0886877 65.33459762 -5.10127626 64.33354185 -6.11739349 63.336092 C-15.15034593 54.45905042 -20.18142793 46.9170673 -21 34 C-20.37991109 18.84916104 -10.33214302 9.78027781 0 0 Z " transform="translate(36,384)"/>
<path d="M0 0 C0.515625 1.19625 1.03125 2.3925 1.5625 3.625 C4.35386115 9.2077223 8.31004282 12.74087111 13.9375 15.375 C14.618125 15.58125 15.29875 15.7875 16 16 C14.41984958 19.82050448 11.99849247 22.25979726 9.09765625 25.16796875 C8.38010414 25.88839104 8.38010414 25.88839104 7.64805603 26.62336731 C6.63932849 27.63345145 5.62808837 28.6410319 4.61450195 29.64624023 C3.06419691 31.18581484 1.52487407 32.73579337 -0.01367188 34.28710938 C-0.996755 35.26887128 -1.98045816 36.2500128 -2.96484375 37.23046875 C-3.8580835 38.12145264 -4.75132324 39.01243652 -5.67163086 39.93041992 C-8.63116757 42.56101578 -10.44263579 42.95871376 -14.375 43.25 C-19.00568692 42.93064228 -21.29828614 41.45861188 -24.75 38.5 C-27.60617912 35.07258506 -27.29222982 31.23733241 -27 27 C-24.94382262 22.89893144 -22.18976935 19.93228884 -18.96484375 16.69921875 C-18.48551895 16.2179805 -18.00619415 15.73674225 -17.51234436 15.24092102 C-16.50539536 14.23261872 -15.49594707 13.22680673 -14.48413086 12.22338867 C-12.93168514 10.68172552 -11.39028784 9.12958525 -9.84960938 7.57617188 C-8.86782876 6.59571162 -7.88542858 5.61587129 -6.90234375 4.63671875 C-6.01023193 3.74686279 -5.11812012 2.85700684 -4.19897461 1.94018555 C-2 0 -2 0 0 0 Z " transform="translate(211,285)"/>
<path d="M0 0 C2.5 2.125 2.5 2.125 4 5 C4.20306453 8.5874734 3.83800139 10.87702325 1.65820312 13.7980957 C-2.98840225 18.96240812 -7.77745623 23.96064539 -12.6875 28.875 C-13.43322266 29.63296875 -14.17894531 30.3909375 -14.94726562 31.171875 C-15.66978516 31.89632812 -16.39230469 32.62078125 -17.13671875 33.3671875 C-17.78342529 34.01800293 -18.43013184 34.66881836 -19.09643555 35.33935547 C-22.31194345 38.14452217 -24.18984549 39.01446704 -28.5 38.9375 C-32 38 -32 38 -34.5 35.9375 C-36.46470751 32.0899478 -36.19577039 29.04006989 -35 25 C-33.21961165 22.59638367 -31.67462774 20.80093864 -29.5390625 18.78515625 C-28.99269135 18.24394638 -28.44632019 17.70273651 -27.88339233 17.14512634 C-26.73309916 16.01188769 -25.5745144 14.88700995 -24.40820312 13.77026367 C-22.6213319 12.05898708 -20.85994915 10.32447333 -19.1015625 8.58398438 C-17.97795133 7.48295589 -16.85299657 6.38329653 -15.7265625 5.28515625 C-15.19833893 4.76856949 -14.67011536 4.25198273 -14.12588501 3.71974182 C-9.35670292 -0.83410866 -6.46161595 -1.58706357 0 0 Z " transform="translate(470,39)"/>
<path d="M0 0 C0.87269531 -0.0038269 1.74539063 -0.00765381 2.64453125 -0.01159668 C4.48699092 -0.0143149 6.32948924 -0.00695994 8.171875 0.00976562 C10.99045934 0.03117752 13.80649485 0.00996199 16.625 -0.015625 C18.41667229 -0.01298171 20.20834299 -0.00785669 22 0 C22.84175781 -0.00809692 23.68351562 -0.01619385 24.55078125 -0.02453613 C30.38715618 0.06889601 30.38715618 0.06889601 33.52929688 2.43945312 C35.12144695 4.7039853 35.542797 5.7922417 35.5 8.53125 C35.5103125 9.19125 35.520625 9.85125 35.53125 10.53125 C34.72011424 13.58493756 33.53019712 14.62236769 31 16.53125 C28.00263779 17.13239553 25.04890723 17.09182764 22 17.0625 C21.12730469 17.0663269 20.25460937 17.07015381 19.35546875 17.07409668 C17.51300908 17.0768149 15.67051076 17.06945994 13.828125 17.05273438 C11.00954066 17.03132248 8.19350515 17.05253801 5.375 17.078125 C3.58332771 17.07548171 1.79165701 17.07035669 0 17.0625 C-0.84175781 17.07059692 -1.68351562 17.07869385 -2.55078125 17.08703613 C-8.38715618 16.99360399 -8.38715618 16.99360399 -11.52929688 14.62304688 C-13.12144695 12.3585147 -13.542797 11.2702583 -13.5 8.53125 C-13.51546875 7.54125 -13.51546875 7.54125 -13.53125 6.53125 C-11.69061453 -0.39820116 -5.94975317 -0.05723107 0 0 Z " transform="translate(461,103.46875)"/>
<path d="M0 0 C0.66 -0.0103125 1.32 -0.020625 2 -0.03125 C5.05368756 0.77988576 6.09111769 1.96980288 8 4.5 C8.60114553 7.49736221 8.56057764 10.45109277 8.53125 13.5 C8.5350769 14.37269531 8.53890381 15.24539062 8.54284668 16.14453125 C8.5455649 17.98699092 8.53820994 19.82948924 8.52148438 21.671875 C8.50007248 24.49045934 8.52128801 27.30649485 8.546875 30.125 C8.54423171 31.91667229 8.53910669 33.70834299 8.53125 35.5 C8.53934692 36.34175781 8.54744385 37.18351562 8.55578613 38.05078125 C8.46235399 43.88715618 8.46235399 43.88715618 6.09179688 47.02929688 C3.8272647 48.62144695 2.7390083 49.042797 0 49 C-0.99 49.01546875 -0.99 49.01546875 -2 49.03125 C-5.05368756 48.22011424 -6.09111769 47.03019712 -8 44.5 C-8.60114553 41.50263779 -8.56057764 38.54890723 -8.53125 35.5 C-8.5350769 34.62730469 -8.53890381 33.75460938 -8.54284668 32.85546875 C-8.5455649 31.01300908 -8.53820994 29.17051076 -8.52148438 27.328125 C-8.50007248 24.50954066 -8.52128801 21.69350515 -8.546875 18.875 C-8.54423171 17.08332771 -8.53910669 15.29165701 -8.53125 13.5 C-8.53934692 12.65824219 -8.54744385 11.81648438 -8.55578613 10.94921875 C-8.46235399 5.11284382 -8.46235399 5.11284382 -6.09179688 1.97070312 C-3.8272647 0.37855305 -2.7390083 -0.042797 0 0 Z " transform="translate(400,15.5)"/>
<path d="M0 0 C3.55597803 2.84478243 6.07729627 5.48900397 7 10 C6.71943202 14.95971783 5.66013511 18.19133449 2.5 22.0625 C-0.9812278 24.51130485 -4.42117278 24.70120282 -8.58984375 24.5 C-12.5271311 23.68318836 -14.28634241 21.92240049 -17 19 C-18.86705779 15.26588442 -18.54880053 11.066113 -18 7 C-16.26726251 3.32540152 -13.755266 1.377633 -10.125 -0.4375 C-6.32058708 -1.12229433 -3.73866859 -1.01963689 0 0 Z " fill="#000000" transform="translate(242,264)"/>
</svg>
