<svg width="512" height="512" viewBox="0 0 512 512" fill="none" xmlns="http://www.w3.org/2000/svg">
<g clip-path="url(#clip0_922_127)">
<path d="M496.502 184.682C495.865 212.054 473.331 233.824 445.953 233.517L300.029 231.877C287.954 231.741 277.509 240.256 275.207 252.11L238.627 440.531C237.258 447.582 231.084 452.673 223.902 452.673H28.8018C19.8469 452.673 12.8875 444.877 13.8984 435.979L20.0977 381.425L25.7646 344.991L33.8613 310.986L75.9619 174.968V136.726C75.9618 121.577 64.6678 108.805 49.6328 106.951L16.8584 102.91V60H499.401L496.502 184.682ZM120 423.389L220.246 433.301L224.062 427.299C225.65 424.799 226.782 422.037 227.404 419.142L228.22 415.344L123.543 404.994L120 423.389ZM125.624 394.186L230.539 404.559L234.485 386.204L129.169 375.791L125.624 394.186ZM131.25 364.983L236.803 375.42L240.749 357.064L134.793 346.588L131.25 364.983ZM140.666 317.41C140.061 319.677 139.536 321.965 139.092 324.271L136.875 335.78L243.067 346.28L243.206 345.636L246.867 327.911L140.666 317.41ZM144.141 306.739L249.096 317.117L252.891 298.747L150.785 288.651L144.141 306.739ZM154.688 278.023L255.121 287.954L258.914 269.584L161.333 259.936L154.688 278.023ZM174.205 231.449C171.164 235.418 168.71 239.851 166.958 244.622L165.236 249.308L261.136 258.79C262.38 252.029 260.779 245.108 256.807 239.617L174.205 231.449ZM363.876 160.352C363.876 176.92 377.308 190.351 393.876 190.352H421.555C438.345 190.352 451.867 176.572 451.55 159.785L451.062 133.964C450.754 117.619 437.415 104.53 421.067 104.53H363.876V160.352ZM277.245 165.351C277.245 179.158 288.438 190.351 302.245 190.351H350.922L340.935 186.877C335.359 184.938 330.649 181.088 327.64 176.01L322.839 167.908C320.553 164.05 319.346 159.648 319.346 155.163V133.72C319.345 117.151 305.914 103.72 289.346 103.72H277.245V165.351Z" fill="#959595" fill-opacity="0.7804"/>
</g>
<defs>
<clipPath id="clip0_922_127">
<rect width="512" height="512" fill="white"/>
</clipPath>
</defs>
</svg>
