<svg id="Layer_1" viewBox="0 0 512 512" xmlns="http://www.w3.org/2000/svg" data-name="Layer 1">
<path d="M0 0 C4.38063042 3.41892595 8.21216523 7.29571686 12.08984375 11.265625 C13.20672715 12.38541882 14.3248805 13.50394728 15.44422913 14.62127686 C17.77382695 16.95407338 20.09117723 19.29816409 22.3996582 21.65185547 C25.34521034 24.65417042 28.31451246 27.63155385 31.29268551 30.60147476 C33.59894923 32.90492929 35.89483941 35.21849831 38.18753242 37.5354538 C39.2785771 38.63664082 40.37212473 39.73535423 41.46830559 40.83142853 C49.1851882 48.56847295 55.33892937 55.33158074 56.3125 66.625 C55.94520782 79.26209243 47.18169866 86.64386711 38.77368164 94.9074707 C37.40062186 96.278836 36.02888597 97.6515279 34.65837097 99.0254364 C30.94856201 102.73696139 27.22059049 106.42973762 23.48900914 110.11935449 C19.58080869 113.98992019 15.68971363 117.87760631 11.79673767 121.76347351 C4.42348768 129.11809851 -2.96491246 136.45730512 -10.35893017 143.79104441 C-18.75815168 152.12326123 -27.14040525 160.47245844 -35.52123058 168.82317221 C-49.84693822 183.09681719 -64.18524446 197.35770268 -78.53775024 211.60440063 C-79.1436773 212.20589013 -79.74960436 212.80737962 -80.37389284 213.42709607 C-81.4854977 214.53049036 -82.59719338 215.63379317 -83.70900577 216.73697835 C-86.05030639 219.06078322 -88.38655332 221.38897768 -90.71183109 223.72883892 C-96.68842669 229.66101082 -101.30028737 232.28114981 -109.8125 232.375 C-110.97394531 232.40335938 -112.13539062 232.43171875 -113.33203125 232.4609375 C-123.7170135 231.15590246 -130.06477203 223.52488002 -137.05078125 216.48046875 C-138.19743089 215.33651816 -139.34467336 214.19316154 -140.49247742 213.05036926 C-142.88671034 210.6620095 -145.27362038 208.26662718 -147.65551758 205.8659668 C-150.69942077 202.79924986 -153.76096842 199.75087933 -156.82822895 196.70754528 C-159.1973159 194.35295317 -161.55674332 191.98886638 -163.91341209 189.62185097 C-165.03834223 188.49426509 -166.16621655 187.3696081 -167.29714394 186.24803734 C-168.87899098 184.67641947 -170.44733798 183.09241946 -172.01293945 181.50463867 C-172.90592239 180.60847336 -173.79890533 179.71230804 -174.71894836 178.78898621 C-180.58627421 171.61514998 -180.89824761 163.99292082 -180 155 C-178.15533768 147.65824397 -172.10076764 142.28118064 -167 137 C-165.85917969 135.81664062 -165.85917969 135.81664062 -164.6953125 134.609375 C-161.43384726 131.29148303 -158.13297263 128.108572 -154.58796692 125.09611511 C-148.83325883 120.06748262 -143.52287442 114.59763381 -138.15893555 109.16137695 C-136.98377763 107.97445667 -135.80833424 106.78781896 -134.63262939 105.60144043 C-132.1144831 103.05992024 -129.59766054 100.51709897 -127.08167076 97.97344398 C-123.09703698 93.94640693 -119.10517269 89.92659032 -115.11152649 85.90849304 C-114.43546394 85.22824218 -113.75940138 84.54799131 -113.06285208 83.84712678 C-111.68119045 82.45696277 -110.29950517 81.06682226 -108.91779673 79.67670476 C-99.63056741 70.33268354 -90.34748385 60.9847073 -81.0871582 51.61401367 C-74.82543762 45.27777037 -68.5513018 38.9541166 -62.26259834 32.64464921 C-58.94137858 29.31148312 -55.62673792 25.97232701 -52.32721519 22.61767006 C-49.22402352 19.46283649 -46.1046404 16.3249503 -42.97241211 13.19895172 C-41.83075309 12.05378997 -40.69502808 10.90267424 -39.56601906 9.74503899 C-27.94704652 -2.15476922 -15.96975702 -8.13584461 0 0 Z M-38 73 C-40.40777323 75.88932788 -40.96115399 77.69478136 -41.4375 81.4375 C-40.91606726 85.68345227 -39.73082959 87.73817577 -37 91 C-33.5905957 93.58644464 -30.1613551 93.36503115 -26 93 C-22.54354054 91.58599386 -21.23337006 90.34227609 -19.125 87.25 C-17.74455456 83.2620465 -17.89314289 81.05847606 -19 77 C-21.43371465 73.08867288 -23.54901763 71.22402015 -28 70 C-32.43338303 70 -34.27033452 70.69871705 -38 73 Z " transform="translate(212,248)"/>
<path d="M0 0 C2.5 1.5 2.5 1.5 4 4 C4.60820535 7.31748373 4.85289528 8.86526101 4 12 C2.6656335 13.89655262 2.6656335 13.89655262 0.926404 15.78831577 C0.28949528 16.48444135 -0.34741343 17.18056692 -1.00362241 17.89778721 C-4.12934894 21.18921981 -7.29490407 24.43270421 -10.50996399 27.63694763 C-11.23323905 28.36178268 -11.9565141 29.08661773 -12.70170659 29.83341748 C-15.10517271 32.2408451 -17.51216464 34.64471487 -19.91918945 37.04858398 C-21.65115207 38.78190272 -23.38290212 40.51543389 -25.11445618 42.24916077 C-29.31598333 46.45476384 -33.51983512 50.65803406 -37.72485361 54.86014556 C-41.14088744 58.27391592 -44.55593778 61.68866725 -47.97029686 65.10411263 C-48.45723456 65.59120356 -48.94417227 66.0782945 -49.44586566 66.58014577 C-50.43515769 67.56975753 -51.42444748 68.55937154 -52.41373505 69.54898775 C-61.67174619 78.80984485 -70.93281045 88.06764385 -80.19493469 97.32438702 C-88.14512537 105.270102 -96.09267875 113.21844698 -104.03833008 121.16870117 C-113.27251696 130.40823487 -122.50831757 139.64615051 -131.74671525 148.88147408 C-132.73073958 149.86517987 -133.71476183 150.84888774 -134.69878197 151.83259773 C-135.18291904 152.31658053 -135.66705611 152.80056332 -136.16586399 153.29921226 C-139.5808379 156.71332196 -142.9946485 160.12859223 -146.4080143 163.54430962 C-150.99471197 168.13409793 -155.5840428 172.72124137 -160.17518425 177.30658531 C-161.86357153 178.99364539 -163.55109927 180.68156617 -165.2377243 182.37038803 C-167.53117254 184.66654904 -169.82764658 186.95963917 -172.12495422 189.25193787 C-173.13626379 190.26659352 -173.13626379 190.26659352 -174.16800386 191.30174726 C-174.78074668 191.91188234 -175.39348951 192.52201742 -176.0248003 193.15064144 C-176.55489258 193.68057136 -177.08498485 194.21050129 -177.63114053 194.75648969 C-180.4838696 197.34798873 -183.25069011 197.3449862 -187.0234375 197.26953125 C-189 197 -189 197 -191.5 195.5 C-193.19139658 192.6810057 -193.74766351 190.42502419 -193.5788185 187.12739474 C-192.86313979 184.49698273 -191.76688024 183.21357365 -189.926404 181.21168423 C-189.28949528 180.51555865 -188.65258657 179.81943308 -187.99637759 179.10221279 C-184.87065106 175.81078019 -181.70509593 172.56729579 -178.49003601 169.36305237 C-177.76676095 168.63821732 -177.0434859 167.91338227 -176.29829341 167.16658252 C-173.89482729 164.7591549 -171.48783536 162.35528513 -169.08081055 159.95141602 C-167.34884793 158.21809728 -165.61709788 156.48456611 -163.88554382 154.75083923 C-159.68401667 150.54523616 -155.48016488 146.34196594 -151.27514639 142.13985444 C-147.85911256 138.72608408 -144.44406222 135.31133275 -141.02970314 131.89588737 C-140.54276544 131.40879644 -140.05582773 130.9217055 -139.55413434 130.41985423 C-138.56484231 129.43024247 -137.57555252 128.44062846 -136.58626495 127.45101225 C-127.32825381 118.19015515 -118.06718955 108.93235615 -108.80506531 99.67561298 C-100.85487463 91.729898 -92.90732125 83.78155302 -84.96166992 75.83129883 C-75.72748304 66.59176513 -66.49168243 57.35384949 -57.25328475 48.11852592 C-56.26926042 47.13482013 -55.28523817 46.15111226 -54.30121803 45.16740227 C-53.81708096 44.68341947 -53.33294389 44.19943668 -52.83413601 43.70078774 C-49.4191621 40.28667804 -46.0053515 36.87140777 -42.5919857 33.45569038 C-38.00528803 28.86590207 -33.4159572 24.27875863 -28.82481575 19.69341469 C-27.13642847 18.00635461 -25.44890073 16.31843383 -23.7622757 14.62961197 C-21.46882746 12.33345096 -19.17235342 10.04036083 -16.87504578 7.74806213 C-16.2008394 7.07162503 -15.52663302 6.39518793 -14.83199614 5.69825274 C-14.21925332 5.08811766 -13.60651049 4.47798258 -12.9751997 3.84935856 C-12.44510742 3.31942864 -11.91501515 2.78949871 -11.36885947 2.24351031 C-8.08979899 -0.73528013 -4.19310514 -0.57178706 0 0 Z " transform="translate(476,32)"/>
<path d="M0 0 C6.68233717 3.93283386 11.93547663 8.77225963 14.25 16.32421875 C16.38193934 26.98391547 14.61734193 34.98095457 8.84765625 44.08203125 C6.87043747 46.85690552 4.80085114 49.07346775 2.25 51.32421875 C-1.02196452 49.89163103 -3.18203956 48.13596559 -5.69238281 45.60888672 C-6.45286926 44.84824921 -7.21335571 44.08761169 -7.99688721 43.30392456 C-8.80744568 42.48304352 -9.61800415 41.66216248 -10.453125 40.81640625 C-11.29091492 39.97578644 -12.12870483 39.13516663 -12.99188232 38.26907349 C-15.66598431 35.58377874 -18.33304724 32.8916122 -21 30.19921875 C-22.81204062 28.3771472 -24.62453518 26.55552698 -26.4375 24.734375 C-30.88028036 20.26954623 -35.31730165 15.79905592 -39.75 11.32421875 C-38.81469089 10.21429591 -37.87665151 9.10667352 -36.9375 8 C-36.41542969 7.38294189 -35.89335937 6.76588379 -35.35546875 6.13012695 C-26.26479867 -4.09549448 -12.31757797 -5.77386468 0 0 Z " transform="translate(267.75,232.67578125)"/>
<path d="M0 0 C6.74312072 1.84262914 11.38842559 12.38598743 14.89331055 17.88110352 C15.47790039 18.78666992 16.06249023 19.69223633 16.66479492 20.62524414 C22.7418599 30.06828486 22.7418599 30.06828486 22.08081055 36.56860352 C19.65936547 39.91589524 18.20650208 41.32909468 14.14331055 42.19360352 C9.315044 41.208243 6.38938054 38.34426864 3.53710938 34.47387695 C1.95807383 32.05469248 0.44576369 29.60610241 -1.04418945 27.13110352 C-2.06706247 25.46539217 -3.09048784 23.80001986 -4.11450195 22.13500977 C-4.59250244 21.34876221 -5.07050293 20.56251465 -5.56298828 19.75244141 C-6.74484303 17.84934677 -7.97548593 16.0029956 -9.2512207 14.16235352 C-11.32346681 10.93993802 -11.63913942 9.32834225 -10.91918945 5.56860352 C-7.94480747 1.29292942 -5.15539989 -0.47190614 0 0 Z " transform="translate(221.919189453125,178.431396484375)"/>
<path d="M0 0 C2.7914775 1.19933348 5.23538125 2.80519234 7.75 4.5 C8.44303223 4.95052734 9.13606445 5.40105469 9.85009766 5.86523438 C24.43008154 15.43008154 24.43008154 15.43008154 29 20 C29.32186689 23.99114942 29.53560433 26.77126065 27.9375 30.4375 C25.75225545 32.19979399 23.93789028 33.05300427 21.1171875 33.26953125 C13.02276982 32.2390611 5.53946948 25.42025639 -1 20.875 C-1.74233887 20.36042236 -2.48467773 19.84584473 -3.24951172 19.31567383 C-10.22938054 14.35376157 -10.22938054 14.35376157 -12 11 C-12.29640295 8.19225569 -11.82849673 5.69118595 -11 3 C-7.94001165 -0.76613951 -4.60253526 -0.41244715 0 0 Z " transform="translate(304,268)"/>
<path d="M0 0 C1.88612608 3.42932014 2.38935425 6.68125457 1.375 10.5 C-1.66139 14.22420598 -4.17450182 15.22452537 -8.82421875 16.203125 C-10.03400391 16.4609375 -11.24378906 16.71875 -12.49023438 16.984375 C-13.75158203 17.23703125 -15.01292969 17.4896875 -16.3125 17.75 C-17.55451172 18.018125 -18.79652344 18.28625 -20.07617188 18.5625 C-26.69776273 19.9380504 -32.86072916 20.99871571 -39.625 20.5 C-42.44539198 18.59623541 -43.32623492 17.25687152 -44.5625 14.125 C-44.65337023 10.3084505 -43.90254793 8.58138837 -41.625 5.5 C-35.73997642 2.72932807 -29.03108993 1.57336822 -22.6875 0.3125 C-21.85798828 0.13525391 -21.02847656 -0.04199219 -20.17382812 -0.22460938 C-5.54498725 -3.16856414 -5.54498725 -3.16856414 0 0 Z " transform="translate(349.625,231.5)"/>
<path d="M0 0 C1.90625 0.3671875 1.90625 0.3671875 4.40625 1.7421875 C8.81513704 9.45773982 4.90912279 20.71029174 3.15625 28.8046875 C2.90359375 30.06990234 2.6509375 31.33511719 2.390625 32.63867188 C2.1328125 33.84716797 1.875 35.05566406 1.609375 36.30078125 C1.26374512 37.9413147 1.26374512 37.9413147 0.91113281 39.61499023 C-0.234478 42.75261673 -1.22558399 43.73606551 -4.09375 45.3671875 C-7.98343824 46.21045976 -11.14667052 45.9117582 -14.59375 43.9296875 C-18.86671477 36.63003936 -15.00679112 25.75824574 -13.34375 18.0546875 C-13.09109375 16.79333984 -12.8384375 15.53199219 -12.578125 14.23242188 C-12.19140625 12.41774414 -12.19140625 12.41774414 -11.796875 10.56640625 C-11.56645508 9.47158936 -11.33603516 8.37677246 -11.09863281 7.2487793 C-9.05247721 1.38124418 -5.89599643 -0.37399977 0 0 Z " transform="translate(276.09375,160.6328125)"/>
</svg>
