<svg id="Layer_1" viewBox="0 0 512 512" xmlns="http://www.w3.org/2000/svg" data-name="Layer 1">
<path fill="#959595c7" d="M0 0 C1.41133756 -0.0067786 2.82266627 -0.0156831 4.23397827 -0.02655029 C8.06056324 -0.04932219 11.88647333 -0.04051657 15.71306992 -0.02465487 C19.7199458 -0.01198469 23.72676439 -0.02373907 27.73364258 -0.03158569 C34.46218223 -0.04067905 41.19044736 -0.02870277 47.91894531 -0.00488281 C55.69503561 0.02232811 63.47047042 0.0135137 71.24654484 -0.01401484 C77.92613105 -0.03671404 84.60552008 -0.03990211 91.28513241 -0.02682149 C95.27317485 -0.01903134 99.2609093 -0.0179731 103.24893188 -0.03450394 C106.99862941 -0.04896154 110.74748293 -0.03890486 114.49708939 -0.01003265 C115.87210311 -0.00342852 117.24718803 -0.00530822 118.62217331 -0.01634598 C130.30524483 -0.10147659 130.30524483 -0.10147659 133.59619141 2.93122864 C135.17248368 5.45413262 135.95417079 6.82794704 136.1484375 9.74584961 C136.21222092 10.52431747 136.27600433 11.30278534 136.34172058 12.10484314 C136.38750748 12.93987869 136.43329437 13.77491425 136.48046875 14.63525391 C136.54837112 15.51794449 136.6162735 16.40063507 136.68623352 17.31007385 C136.83095487 19.20560594 136.96613438 21.10188619 137.09268188 22.99871826 C137.4316528 28.00957918 137.85455979 33.01335275 138.2734375 38.01806641 C138.35587204 39.01807678 138.43830658 40.01808716 138.52323914 41.04840088 C141.40332237 75.11765682 149.48959056 108.27372543 160.29296875 140.64697266 C160.65116699 141.72285645 161.00936523 142.79874023 161.37841797 143.90722656 C180.19528987 199.73778973 210.34513078 253.53120974 248.29296875 298.64697266 C249.79432308 300.50004286 251.29430279 302.35422756 252.79296875 304.20947266 C256.39245402 308.6116306 260.12054653 312.86832689 263.95703125 317.06494141 C265.87442864 319.18433885 267.76023628 321.32363426 269.63671875 323.47900391 C280.81997289 336.28100494 292.76185833 348.16966677 305.29296875 359.64697266 C305.8235791 360.13343262 306.35418945 360.61989258 306.90087891 361.12109375 C310.98683883 364.85584087 315.12330785 368.51651407 319.35546875 372.08447266 C322.67014682 374.97600034 323.11632216 375.54293149 323.79296875 379.77197266 C323.07352503 385.34766151 320.18514059 387.79172845 316.29296875 391.64697266 C315.64457031 392.31986328 314.99617188 392.99275391 314.328125 393.68603516 C310.48648215 397.62657178 306.46469935 401.28064167 302.29296875 404.86572266 C300.20959797 406.72122476 298.25015668 408.65920366 296.29296875 410.64697266 C293.73306741 413.24679449 291.12517335 415.70965663 288.35546875 418.08447266 C285.36495159 420.65362536 282.56180191 423.34014522 279.79296875 426.14697266 C276.41055476 429.57580056 272.91226433 432.76745784 269.2578125 435.90087891 C267.18476551 437.74312941 265.23861073 439.67098928 263.29296875 441.64697266 C260.73306741 444.24679449 258.12517335 446.70965663 255.35546875 449.08447266 C252.36495159 451.65362536 249.56180191 454.34014522 246.79296875 457.14697266 C243.41700337 460.56926347 239.92747546 463.75683491 236.27734375 466.88134766 C233.4022169 469.43953139 230.73125277 472.18432242 228.0546875 474.94775391 C225.21732036 477.68446058 223.12151873 478.97252599 219.22265625 479.12353516 C213.28389738 478.97248881 209.25502396 476.23356882 204.41796875 473.02197266 C203.50958252 472.43802734 202.60119629 471.85408203 201.6652832 471.25244141 C183.64251325 459.51770251 166.39414287 446.28168805 150.5546875 431.72509766 C149.07317989 430.3638506 147.57613814 429.0192751 146.0625 427.69384766 C140.36785579 422.69553347 134.97182415 417.4317636 129.60546875 412.08447266 C128.89253662 411.37613281 128.17960449 410.66779297 127.44506836 409.93798828 C122.85684735 405.33644027 118.52301946 400.57787531 114.29296875 395.64697266 C113.34340953 394.56409742 112.39293826 393.48202104 111.44140625 392.40087891 C103.63992846 383.45707666 96.38130419 374.16276246 89.29296875 364.64697266 C88.75526855 363.93025391 88.21756836 363.21353516 87.66357422 362.47509766 C67.47128112 335.47920956 50.19447949 305.60821829 36.41796875 274.83447266 C36.11893646 274.16889343 35.81990417 273.50331421 35.5118103 272.81756592 C0.02967442 193.65220677 -17.36269739 106.30213888 -19.08203125 16.77197266 C-19.11941406 15.75490234 -19.15679687 14.73783203 -19.1953125 13.68994141 C-19.20691406 12.70896484 -19.21851562 11.72798828 -19.23046875 10.71728516 C-19.26019775 9.42975342 -19.26019775 9.42975342 -19.29052734 8.11621094 C-18.64035896 5.3648289 -17.69658685 3.66807713 -15.63930702 1.71634102 C-11.00738276 -0.84707841 -5.1596115 -0.04141902 0 0 Z M9.91796875 20.33447266 C6.63369715 25.00824378 7.07888536 29.77120216 7.7265625 35.26416016 C8.60499887 38.95965107 10.17572177 40.568808 13.29296875 42.64697266 C16.33605166 43.39712461 16.33605166 43.39712461 19.29296875 42.64697266 C21.59572431 40.77987355 22.97120746 39.29049525 24.29296875 36.64697266 C24.77253134 30.34574323 24.63418988 25.22041544 21.10546875 19.83447266 C17.34559115 17.37110457 13.47353179 17.80815155 9.91796875 20.33447266 Z M51.29296875 21.64697266 C49.57719348 26.79429845 49.70434039 32.34151157 51.04296875 37.58447266 C52.55922897 40.08630201 53.69602935 41.27636575 56.29296875 42.64697266 C59.9618725 43.18202112 61.58341317 43.16475646 64.60546875 40.95947266 C68.00960673 36.29454283 67.457164 31.55605685 66.7890625 26.02978516 C66.07109226 22.58126668 65.06119035 20.83241076 62.29296875 18.64697266 C57.62352208 17.97990885 54.63429343 18.17713549 51.29296875 21.64697266 Z M95.08984375 20.76025391 C92.94189558 24.21097934 92.81520494 26.17832879 92.91796875 30.20947266 C92.93085938 31.32451172 92.94375 32.43955078 92.95703125 33.58837891 C93.27992937 36.52825362 93.65171809 38.21814198 95.29296875 40.64697266 C98.81121386 42.9924694 100.15072569 43.22688668 104.29296875 42.64697266 C107.43363972 41.09509946 107.43363972 41.09509946 109.29296875 37.64697266 C110.19587042 30.99446133 110.40182072 25.20600767 106.29296875 19.64697266 C102.21692445 17.6089505 98.40515997 17.58013676 95.08984375 20.76025391 Z M55.29296875 63.64697266 C51.59137201 71.05016613 55.01751505 82.73173322 56.35546875 90.45947266 C56.46523041 91.10292633 56.57499207 91.74638 56.68807983 92.40933228 C67.60536941 156.09400864 90.87447376 216.46207683 124.29296875 271.64697266 C124.74768555 272.40155762 125.20240234 273.15614258 125.67089844 273.93359375 C142.21963814 301.28798631 161.41465776 327.71423036 183.09765625 351.24072266 C184.95558862 353.27717522 186.7706758 355.33944364 188.578125 357.42041016 C192.24704668 361.62438292 196.03145261 365.70920014 199.85546875 369.77197266 C200.80583008 370.78710938 200.80583008 370.78710938 201.77539062 371.82275391 C204.70620561 374.94372475 207.65519193 378.00103068 210.7578125 380.95166016 C213.29296875 383.64697266 213.29296875 383.64697266 213.29296875 386.64697266 C211.7890625 388.22509766 211.7890625 388.22509766 209.73046875 389.89697266 C206.15574289 392.85798452 203.01376264 395.99054458 199.93359375 399.45947266 C198.29296875 400.64697266 198.29296875 400.64697266 196.51391602 400.52416992 C193.32776812 399.26575183 191.52149229 397.22864132 189.1171875 394.79931641 C188.62893997 394.30919571 188.14069244 393.81907501 187.63764954 393.31410217 C186.6045982 392.27433448 185.57514807 391.23097815 184.54907227 390.18432617 C183.00313004 388.60758541 181.44711528 387.0414264 179.88867188 385.47705078 C174.48815706 380.03396276 169.28216892 374.47158984 164.29296875 368.64697266 C162.87973325 367.10216006 161.46356466 365.56001941 160.04296875 364.02197266 C155.4949411 358.9814344 151.3260478 353.698188 147.171875 348.33447266 C145.27520643 345.88915959 143.347496 343.47546161 141.3828125 341.08447266 C134.03421016 332.1228515 127.41079567 322.7956341 120.97705078 313.15917969 C119.28352468 310.6328846 117.56972333 308.1214078 115.8515625 305.61181641 C102.14199336 285.48140704 90.21802927 264.4028809 79.29296875 242.64697266 C78.79555176 241.66148437 78.29813477 240.67599609 77.78564453 239.66064453 C52.25135756 188.77252492 35.39964099 132.80204041 28.62231445 76.26269531 C28.48784912 75.19583496 28.35338379 74.12897461 28.21484375 73.02978516 C28.05387207 71.64364014 28.05387207 71.64364014 27.88964844 70.22949219 C27.19599696 67.22726415 26.0615695 65.15882649 24.29296875 62.64697266 C21.20123123 61.1011039 18.69867323 61.35337744 15.29296875 61.64697266 C12.65059029 62.87132421 12.65059029 62.87132421 11.29296875 65.64697266 C10.31397918 73.92053862 12.09682849 82.3797568 13.41796875 90.52197266 C13.5290094 91.21816711 13.64005005 91.91436157 13.75445557 92.63165283 C24.22580466 158.03527902 46.49028174 221.10442212 79.29296875 278.64697266 C79.76879395 279.48276855 80.24461914 280.31856445 80.73486328 281.1796875 C96.46227141 308.56471596 114.72678544 334.60193057 134.86035156 358.91015625 C136.92179007 361.40931671 138.94713582 363.93742637 140.98046875 366.45947266 C144.81631789 371.14695069 148.84785165 375.62866643 152.94921875 380.08447266 C154.97910542 382.30381541 156.95792373 384.553693 158.91796875 386.83447266 C161.8971375 390.26820941 165.07508716 393.45025118 168.31640625 396.63525391 C170.27938641 398.63314874 172.10217546 400.70271533 173.91796875 402.83447266 C176.79480753 406.18747786 179.81287066 408.93079854 183.29296875 411.64697266 C182.85324965 414.61507655 182.22164663 415.72668561 180.16796875 418.02197266 C177.99629509 420.52467045 177.99629509 420.52467045 178.29296875 423.70947266 C179.44861387 427.10418021 180.35788932 428.58448441 183.29296875 430.64697266 C186.11788073 431.56652868 186.11788073 431.56652868 189.29296875 430.64697266 C191.16628827 429.2865328 191.16628827 429.2865328 193.02734375 427.54150391 C193.73149414 426.90575439 194.43564453 426.27000488 195.16113281 425.61499023 C195.86463867 424.96554443 196.56814453 424.31609863 197.29296875 423.64697266 C197.91655273 423.07293701 198.54013672 422.49890137 199.18261719 421.9074707 C201.06159246 420.16317371 202.9287328 418.40700843 204.79296875 416.64697266 C206.19918455 415.32401963 207.60543555 414.00110403 209.01171875 412.67822266 C209.72199219 412.00919922 210.43226563 411.34017578 211.1640625 410.65087891 C214.53534001 407.47754796 217.91439916 404.31253552 221.29296875 401.14697266 C222.62763969 399.89570847 223.96227505 398.64440631 225.296875 397.39306641 C227.95009487 394.9056323 230.60377694 392.41869266 233.2578125 389.93212891 C236.57651338 386.82268239 239.89384223 383.71177739 243.21044922 380.60009766 C244.64651726 379.25325776 246.08307014 377.9069347 247.52001953 376.56103516 C249.7788521 374.44510535 252.03604214 372.32743512 254.29296875 370.20947266 C254.97480225 369.57146729 255.65663574 368.93346191 256.35913086 368.27612305 C258.34648044 366.40932201 260.32291976 364.53201831 262.29296875 362.64697266 C263.40067627 361.58953857 263.40067627 361.58953857 264.53076172 360.51074219 C265.25408691 359.80675293 265.97741211 359.10276367 266.72265625 358.37744141 C267.37991699 357.74088623 268.03717773 357.10433105 268.71435547 356.44848633 C270.9374716 353.91146593 271.44508622 351.99355696 271.29296875 348.64697266 C270.17277976 345.2864057 269.34762776 344.683412 266.29296875 342.64697266 C263.23982816 342.17203968 261.21523634 342.04676677 258.5703125 343.76806641 C257.09254644 345.00128489 255.68674529 346.31956642 254.29296875 347.64697266 C246.54330255 344.40458358 240.6758791 336.28665105 235.3125 330.00634766 C233.7018705 328.12468379 232.07330735 326.26519279 230.4296875 324.41259766 C222.83432996 315.81381673 215.74456684 306.92704737 208.87060547 297.74365234 C207.35027075 295.72312704 205.81144602 293.71835122 204.265625 291.71728516 C196.34068139 281.40563888 189.20197581 270.66105488 182.29296875 259.64697266 C181.54297607 258.456604 181.54297607 258.456604 180.77783203 257.2421875 C171.75197656 242.82998241 163.91849527 227.83790935 156.29296875 212.64697266 C155.82084961 211.71208008 155.34873047 210.7771875 154.86230469 209.81396484 C134.61400532 169.48125963 120.29065217 123.74321347 114.52734375 78.95947266 C114.41092529 78.08846924 114.29450684 77.21746582 114.17456055 76.32006836 C113.96947974 74.72257202 113.78673427 73.12196281 113.63208008 71.51879883 C113.13170297 67.58969625 112.32534285 65.23455302 109.390625 62.64306641 C106.46850043 60.38917589 106.46850043 60.38917589 103.16796875 60.52197266 C99.30715716 62.03272502 98.14042521 62.87816148 96.29296875 66.64697266 C96.18660286 130.18494822 128.80100223 202.61636076 160.29296875 255.64697266 C160.82390137 256.54109863 161.35483398 257.43522461 161.90185547 258.35644531 C175.87005068 281.71038434 191.77572042 303.82289684 209.29296875 324.64697266 C209.73962891 325.1785498 210.18628906 325.71012695 210.64648438 326.2578125 C220.08472425 337.46173121 229.81076055 348.40299646 240.29296875 358.64697266 C238.83960655 361.9882074 236.99701359 364.21239231 234.41796875 366.77197266 C233.73992187 367.45517578 233.061875 368.13837891 232.36328125 368.84228516 C230.40561206 370.54878169 228.66222785 371.61639807 226.29296875 372.64697266 C219.52190586 367.17037767 213.75031875 360.85575678 207.91796875 354.42480469 C206.27651827 352.628975 204.61668378 350.852248 202.94921875 349.08056641 C196.4299403 342.15080431 190.23947413 335.08010438 184.29296875 327.64697266 C183.30002654 326.44362127 182.30510366 325.2419025 181.30859375 324.04150391 C123.46688319 254.13664273 83.75740862 167.28030288 71.72387695 77.19750977 C70.65148198 69.54992305 70.65148198 69.54992305 67.29296875 62.64697266 C62.41855436 59.93896466 59.86298139 60.67115047 55.29296875 63.64697266 Z M266.28881836 386.61865234 C262.68456051 390.28122829 259.00544408 393.75428078 255.08203125 397.07666016 C252.34794969 399.47644353 249.84033603 402.09106944 247.2890625 404.68212891 C245.37189698 406.56928009 243.39721553 408.33382641 241.35546875 410.08447266 C238.36495159 412.65362536 235.56180191 415.34014522 232.79296875 418.14697266 C229.41184409 421.57449354 225.91530328 424.76532877 222.26171875 427.89697266 C219.46578579 430.3822464 216.8746942 433.05378865 214.25390625 435.72119141 C211.83015646 438.10148752 209.27208783 440.27447919 206.640625 442.42041016 C204.54674797 444.32614172 204.29359615 445.64226712 203.91796875 448.45947266 C204.04464036 451.80857442 204.04464036 451.80857442 206.41796875 454.52197266 C209.85192293 457.0601127 211.11704922 457.1585228 215.29296875 456.64697266 C217.88342426 454.99854176 217.88342426 454.99854176 220.16796875 452.64697266 C221.0290625 451.82455078 221.89015625 451.00212891 222.77734375 450.15478516 C224.02257812 448.91341797 224.02257812 448.91341797 225.29296875 447.64697266 C225.999375 446.94314453 226.70578125 446.23931641 227.43359375 445.51416016 C228.74742727 444.19515406 230.05738978 442.8722798 231.36328125 441.54541016 C233.90276271 439.0470539 236.59222008 436.74917854 239.29296875 434.42822266 C241.37633953 432.57272055 243.33578082 430.63474165 245.29296875 428.64697266 C247.85287009 426.04715082 250.46076415 423.58428868 253.23046875 421.20947266 C256.22098591 418.64031995 259.02413559 415.95380009 261.79296875 413.14697266 C265.17538274 409.71814475 268.67367317 406.52648748 272.328125 403.39306641 C275.10584071 400.92459937 277.67899661 398.27057573 280.28515625 395.62353516 C282.26765466 393.67189275 284.31232955 391.83938748 286.41796875 390.02197266 C287.39636719 389.16539062 287.39636719 389.16539062 288.39453125 388.29150391 C289.6226326 387.22765479 290.86671915 386.18186861 292.12890625 385.15869141 C294.33669554 383.23594533 296.06016973 381.50950138 296.8359375 378.63525391 C297.08689609 376.21518985 297.08689609 376.21518985 296.29296875 372.64697266 C293.93991193 369.95776486 292.48243553 368.80792361 288.92578125 368.32666016 C280.49450465 369.35242378 272.07101336 380.74087745 266.28881836 386.61865234 Z " transform="translate(103.70703125,16.35302734375)"/>
</svg>
