<svg id="Layer_1" viewBox="0 0 512 512" xmlns="http://www.w3.org/2000/svg" data-name="Layer 1">
<path fill="#959595c7" d="M0 0 C9.9 0 19.8 0 30 0 C30 10.23 30 20.46 30 31 C36.93 31.495 36.93 31.495 44 32 C93.37199803 38.74621731 137.15534669 60.6378604 173 95 C173.94746094 95.89460938 174.89492188 96.78921875 175.87109375 97.7109375 C182.50510369 104.12851875 188.23120527 111.00202695 193.76708984 118.36132812 C194.8618291 119.81635582 195.97092206 121.26055923 197.08203125 122.703125 C221.68851254 155.37812663 240 199.58093667 240 241 C250.23 241 260.46 241 271 241 C271 250.9 271 260.8 271 271 C260.77 271 250.54 271 240 271 C239.67 275.62 239.34 280.24 239 285 C232.25378269 334.37199803 210.3621396 378.15534669 176 414 C175.10539062 414.94746094 174.21078125 415.89492188 173.2890625 416.87109375 C166.87148125 423.50510369 159.99797305 429.23120527 152.63867188 434.76708984 C151.18364418 435.8618291 149.73944077 436.97092206 148.296875 438.08203125 C115.62187337 462.68851254 71.41906333 481 30 481 C30 491.23 30 501.46 30 512 C20.1 512 10.2 512 0 512 C0 501.77 0 491.54 0 481 C-4.62 480.67 -9.24 480.34 -14 480 C-63.37199803 473.25378269 -107.15534669 451.3621396 -143 417 C-143.94746094 416.10539062 -144.89492187 415.21078125 -145.87109375 414.2890625 C-152.50510369 407.87148125 -158.23120527 400.99797305 -163.76708984 393.63867188 C-164.8618291 392.18364418 -165.97092206 390.73944077 -167.08203125 389.296875 C-191.68851254 356.62187337 -210 312.41906333 -210 271 C-220.23 271 -230.46 271 -241 271 C-241 261.1 -241 251.2 -241 241 C-230.77 241 -220.54 241 -210 241 C-209.67 236.38 -209.34 231.76 -209 227 C-202.25378269 177.62800197 -180.3621396 133.84465331 -146 98 C-144.65808594 96.57880859 -144.65808594 96.57880859 -143.2890625 95.12890625 C-136.87148125 88.49489631 -129.99797305 82.76879473 -122.63867188 77.23291016 C-121.18364418 76.1381709 -119.73944077 75.02907794 -118.296875 73.91796875 C-85.62187337 49.31148746 -41.41906333 31 0 31 C0 20.77 0 10.54 0 0 Z M30 62 C29.97687179 69.67536627 29.95908247 77.35072896 29.94818783 85.02612209 C29.94296005 88.58977422 29.93586431 92.15340257 29.92456055 95.71704102 C29.91165824 99.81006097 29.90677094 103.9030558 29.90234375 107.99609375 C29.89718246 109.28148544 29.89202118 110.56687714 29.88670349 111.89122009 C29.88662796 113.07236893 29.88655243 114.25351776 29.88647461 115.47045898 C29.884254 116.51636703 29.88203339 117.56227509 29.87974548 118.63987732 C29.73349015 120.95689295 29.73349015 120.95689295 31 122 C32.33308234 122.28322855 33.67694694 122.51611037 35.0234375 122.7265625 C57.47360808 126.46042531 77.77256731 134.1373151 96 148 C96.79535156 148.59167969 97.59070313 149.18335938 98.41015625 149.79296875 C109.21267985 158.0960178 118.49286964 167.6131342 126 179 C126.98226562 180.45792969 126.98226562 180.45792969 127.984375 181.9453125 C138.51702636 198.2341803 144.79360879 215.86228741 148.05004883 234.93603516 C148.38651668 238.25312182 148.38651668 238.25312182 150 241 C151.84118029 241.09381302 153.68597641 241.11743954 155.52954102 241.11352539 C156.71068985 241.11344986 157.89183868 241.11337433 159.10877991 241.11329651 C161.03686745 241.10555458 161.03686745 241.10555458 163.00390625 241.09765625 C164.31205795 241.0962413 165.62020966 241.09482635 166.96800232 241.09336853 C170.45162859 241.0895441 173.93521339 241.07971446 177.41882324 241.06866455 C180.97126708 241.05844882 184.52371759 241.05387056 188.07617188 241.04882812 C195.05079832 241.03809212 202.02539717 241.0210166 209 241 C208.03562496 230.55555914 207.06255475 220.29439545 204.375 210.125 C204.11412598 209.12090088 203.85325195 208.11680176 203.58447266 207.08227539 C197.0853888 182.92462169 186.47192816 159.74186404 171 140 C170.33613281 139.12730469 169.67226563 138.25460938 168.98828125 137.35546875 C163.70890703 130.55546342 157.89169055 124.26661632 152 118 C151.12601563 117.04480469 151.12601563 117.04480469 150.234375 116.0703125 C144.96228613 110.5053298 138.79241972 105.94209105 132.71191406 101.30615234 C131.2051389 100.15651642 129.7073086 98.99517685 128.2109375 97.83203125 C102.91172226 78.6856463 70.50078424 65.95824693 38.9765625 62.89453125 C38.10813721 62.80675415 37.23971191 62.71897705 36.3449707 62.62854004 C34.23034978 62.41533153 32.11522436 62.20713633 30 62 Z M-101 100 C-101.87527344 100.66515625 -102.75054687 101.3303125 -103.65234375 102.015625 C-110.44730326 107.29701533 -116.73530938 113.11011993 -123 119 C-123.95519531 119.87398437 -123.95519531 119.87398437 -124.9296875 120.765625 C-130.4946702 126.03771387 -135.05790895 132.20758028 -139.69384766 138.28808594 C-140.84348358 139.7948611 -142.00482315 141.2926914 -143.16796875 142.7890625 C-162.3143537 168.08827774 -175.04175307 200.49921576 -178.10546875 232.0234375 C-178.19324585 232.89186279 -178.28102295 233.76028809 -178.37145996 234.6550293 C-178.58466847 236.76965022 -178.79286367 238.88477564 -179 241 C-171.32463373 241.02312821 -163.64927104 241.04091753 -155.97387791 241.05181217 C-152.41022578 241.05703995 -148.84659743 241.06413569 -145.28295898 241.07543945 C-141.18993903 241.08834176 -137.0969442 241.09322906 -133.00390625 241.09765625 C-131.71851456 241.10281754 -130.43312286 241.10797882 -129.10877991 241.11329651 C-127.92763107 241.11337204 -126.74648224 241.11344757 -125.52954102 241.11352539 C-124.48363297 241.115746 -123.43772491 241.11796661 -122.36012268 241.12025452 C-120.04310705 241.26650985 -120.04310705 241.26650985 -119 240 C-118.71677145 238.66691766 -118.48388963 237.32305306 -118.2734375 235.9765625 C-114.53957469 213.52639192 -106.8626849 193.22743269 -93 175 C-92.40832031 174.20464844 -91.81664062 173.40929687 -91.20703125 172.58984375 C-82.9039822 161.78732015 -73.3868658 152.50713036 -62 145 C-60.54207031 144.01773438 -60.54207031 144.01773438 -59.0546875 143.015625 C-42.7658197 132.48297364 -25.13771259 126.20639121 -6.06396484 122.94995117 C-2.74687818 122.61348332 -2.74687818 122.61348332 0 121 C0.09381302 119.15881971 0.11743954 117.31402359 0.11352539 115.47045898 C0.11344986 114.28931015 0.11337433 113.10816132 0.11329651 111.89122009 C0.10813522 110.6058284 0.10297394 109.32043671 0.09765625 107.99609375 C0.0962413 106.68794205 0.09482635 105.37979034 0.09336853 104.03199768 C0.0895441 100.54837141 0.07971446 97.06478661 0.06866455 93.58117676 C0.05844882 90.02873292 0.05387056 86.47628241 0.04882812 82.92382812 C0.03809212 75.94920168 0.0210166 68.97460283 0 62 C-35.17810326 62 -73.64058504 78.74027208 -101 100 Z M-60.1875 182.75 C-75.4825498 198.89659433 -85.53911312 218.85201804 -88 241 C-78.76 241 -69.52 241 -60 241 C-60 250.9 -60 260.8 -60 271 C-69.24 271 -78.48 271 -88 271 C-85.58052114 292.77530974 -76.20742689 310.59862263 -62 327 C-61.35675781 327.74507812 -60.71351563 328.49015625 -60.05078125 329.2578125 C-44.49129436 345.93110214 -22.47007701 356.50332478 0 359 C0 349.76 0 340.52 0 331 C9.9 331 19.8 331 30 331 C30 340.24 30 349.48 30 359 C51.77530974 356.58052114 69.59862263 347.20742689 86 333 C86.74507812 332.35675781 87.49015625 331.71351563 88.2578125 331.05078125 C104.93110214 315.49129436 115.50332478 293.47007701 118 271 C108.76 271 99.52 271 90 271 C90 261.1 90 251.2 90 241 C99.24 241 108.48 241 118 241 C115.58052114 219.22469026 106.20742689 201.40137737 92 185 C91.03513672 183.88238281 91.03513672 183.88238281 90.05078125 182.7421875 C74.49129436 166.06889786 52.47007701 155.49667522 30 153 C30 162.24 30 171.48 30 181 C20.1 181 10.2 181 0 181 C0 171.76 0 162.52 0 153 C-22.34488183 153 -44.4357673 167.96661152 -60.1875 182.75 Z M-179 271 C-178.03562496 281.44444086 -177.06255475 291.70560455 -174.375 301.875 C-174.11412598 302.87909912 -173.85325195 303.88319824 -173.58447266 304.91772461 C-167.0853888 329.07537831 -156.47192816 352.25813596 -141 372 C-140.33613281 372.87269531 -139.67226562 373.74539063 -138.98828125 374.64453125 C-133.70890703 381.44453658 -127.89169055 387.73338368 -122 394 C-121.12601563 394.95519531 -121.12601563 394.95519531 -120.234375 395.9296875 C-114.96228613 401.4946702 -108.79241972 406.05790895 -102.71191406 410.69384766 C-101.2051389 411.84348358 -99.7073086 413.00482315 -98.2109375 414.16796875 C-72.91172226 433.3143537 -40.50078424 446.04175307 -8.9765625 449.10546875 C-8.10813721 449.19324585 -7.23971191 449.28102295 -6.3449707 449.37145996 C-4.23034978 449.58466847 -2.11522436 449.79286367 0 450 C0.02312821 442.32463373 0.04091753 434.64927104 0.05181217 426.97387791 C0.05703995 423.41022578 0.06413569 419.84659743 0.07543945 416.28295898 C0.08834176 412.18993903 0.09322906 408.0969442 0.09765625 404.00390625 C0.10281754 402.71851456 0.10797882 401.43312286 0.11329651 400.10877991 C0.11337204 398.92763107 0.11344757 397.74648224 0.11352539 396.52954102 C0.115746 395.48363297 0.11796661 394.43772491 0.12025452 393.36012268 C0.26650985 391.04310705 0.26650985 391.04310705 -1 390 C-2.33308234 389.71677145 -3.67694694 389.48388963 -5.0234375 389.2734375 C-27.47360808 385.53957469 -47.77256731 377.8626849 -66 364 C-66.79535156 363.40832031 -67.59070313 362.81664062 -68.41015625 362.20703125 C-79.21267985 353.9039822 -88.49286964 344.3868658 -96 333 C-96.98226562 331.54207031 -96.98226562 331.54207031 -97.984375 330.0546875 C-108.51702636 313.7658197 -114.79360879 296.13771259 -118.05004883 277.06396484 C-118.38651668 273.74687818 -118.38651668 273.74687818 -120 271 C-121.84118029 270.90618698 -123.68597641 270.88256046 -125.52954102 270.88647461 C-127.30126427 270.88658791 -127.30126427 270.88658791 -129.10877991 270.88670349 C-131.03686745 270.89444542 -131.03686745 270.89444542 -133.00390625 270.90234375 C-134.31205795 270.9037587 -135.62020966 270.90517365 -136.96800232 270.90663147 C-140.45162859 270.9104559 -143.93521339 270.92028554 -147.41882324 270.93133545 C-150.97126708 270.94155118 -154.52371759 270.94612944 -158.07617188 270.95117188 C-165.05079832 270.96190788 -172.02539717 270.9789834 -179 271 Z M149 272 C148.71677145 273.33308234 148.48388963 274.67694694 148.2734375 276.0234375 C144.53957469 298.47360808 136.8626849 318.77256731 123 337 C122.40832031 337.79535156 121.81664062 338.59070313 121.20703125 339.41015625 C112.9039822 350.21267985 103.3868658 359.49286964 92 367 C90.54207031 367.98226562 90.54207031 367.98226562 89.0546875 368.984375 C72.7658197 379.51702636 55.13771259 385.79360879 36.06396484 389.05004883 C32.74687818 389.38651668 32.74687818 389.38651668 30 391 C29.90618698 392.84118029 29.88256046 394.68597641 29.88647461 396.52954102 C29.88655014 397.71068985 29.88662567 398.89183868 29.88670349 400.10877991 C29.89186478 401.3941716 29.89702606 402.67956329 29.90234375 404.00390625 C29.9037587 405.31205795 29.90517365 406.62020966 29.90663147 407.96800232 C29.9104559 411.45162859 29.92028554 414.93521339 29.93133545 418.41882324 C29.94155118 421.97126708 29.94612944 425.52371759 29.95117188 429.07617188 C29.96190788 436.05079832 29.9789834 443.02539717 30 450 C40.44444086 449.03562496 50.70560455 448.06255475 60.875 445.375 C61.87909912 445.11412598 62.88319824 444.85325195 63.91772461 444.58447266 C88.07537831 438.0853888 111.25813596 427.47192816 131 412 C131.87269531 411.33613281 132.74539063 410.67226563 133.64453125 409.98828125 C140.44453658 404.70890703 146.73338368 398.89169055 153 393 C153.95519531 392.12601563 153.95519531 392.12601563 154.9296875 391.234375 C160.4946702 385.96228613 165.05790895 379.79241972 169.69384766 373.71191406 C170.84348358 372.2051389 172.00482315 370.7073086 173.16796875 369.2109375 C192.3143537 343.91172226 205.04175307 311.50078424 208.10546875 279.9765625 C208.19324585 279.10813721 208.28102295 278.23971191 208.37145996 277.3449707 C208.58466847 275.23034978 208.79286367 273.11522436 209 271 C201.32463373 270.97687179 193.64927104 270.95908247 185.97387791 270.94818783 C182.41022578 270.94296005 178.84659743 270.93586431 175.28295898 270.92456055 C171.18993903 270.91165824 167.0969442 270.90677094 163.00390625 270.90234375 C161.71851456 270.89718246 160.43312286 270.89202118 159.10877991 270.88670349 C157.92763107 270.88662796 156.74648224 270.88655243 155.52954102 270.88647461 C154.48363297 270.884254 153.43772491 270.88203339 152.36012268 270.87974548 C150.04310705 270.73349015 150.04310705 270.73349015 149 272 Z " transform="translate(241,0)"/>
<path fill="#959595c7" d="M0 0 C10.13859394 6.1441821 17.49928386 13.97217893 22 25 C22.53560547 26.30324219 22.53560547 26.30324219 23.08203125 27.6328125 C25.99340438 38.31197692 25.48465707 52.31301414 20 62 C13.8558179 72.13859394 6.02782107 79.49928386 -5 84 C-6.30324219 84.53560547 -6.30324219 84.53560547 -7.6328125 85.08203125 C-18.31197692 87.99340438 -32.31301414 87.48465707 -42 82 C-52.13859394 75.8558179 -59.49928386 68.02782107 -64 57 C-64.35707031 56.13117188 -64.71414062 55.26234375 -65.08203125 54.3671875 C-67.99340438 43.68802308 -67.48465707 29.68698586 -62 20 C-55.8558179 9.86140606 -48.02782107 2.50071614 -37 -2 C-36.13117188 -2.35707031 -35.26234375 -2.71414062 -34.3671875 -3.08203125 C-23.68802308 -5.99340438 -9.68698586 -5.48465707 0 0 Z " transform="translate(277,215)"/>
</svg>
