<svg id="Layer_1" viewBox="0 0 512 512" xmlns="http://www.w3.org/2000/svg" data-name="Layer 1">
<path fill="#959595c7" d="M0 0 C4.55054974 1.21564686 7.28437172 4.25896701 10.5078125 7.56640625 C12.5448768 9.5462898 14.13770122 10.65148558 16.734375 11.73046875 C17.45753906 11.09818359 17.45753906 11.09818359 18.1953125 10.453125 C18.82695312 9.90527344 19.45859375 9.35742188 20.109375 8.79296875 C20.73585938 8.24769531 21.36234375 7.70242187 22.0078125 7.140625 C26.320078 3.6186163 31.41365196 4.20366449 36.734375 4.73046875 C41.18057886 6.7514705 43.81315908 9.34201423 46.03125 13.75 C47.38484117 17.56261514 47.51715342 20.77309996 46.734375 24.73046875 C43.31493348 31.37467803 38.2236481 36.65281376 32.9296875 41.828125 C32.2057077 42.54785995 31.48172791 43.26759491 30.73580933 44.00914001 C28.45068782 46.2776396 26.15529817 48.53540747 23.859375 50.79296875 C22.29618011 52.34109553 20.73367343 53.88991756 19.171875 55.43945312 C15.36728661 59.21119137 11.55423977 62.97420589 7.734375 66.73046875 C8.15082275 67.27388916 8.56727051 67.81730957 8.99633789 68.37719727 C9.5402417 69.09319092 10.08414551 69.80918457 10.64453125 70.546875 C11.184729 71.25529541 11.72492676 71.96371582 12.28149414 72.69360352 C15.57412719 77.30970796 16.33521703 81.75963265 15.50390625 87.27734375 C14.06568115 91.86214256 11.09061035 95.32219181 8.10498047 99.02246094 C6.57358034 100.93084628 5.07652244 102.86336175 3.58203125 104.80078125 C0.59612514 108.66778843 -2.40883304 112.51949401 -5.41894531 116.36767578 C-8.37490863 120.14977692 -11.31987373 123.94041233 -14.265625 127.73046875 C-15.43223528 129.2305126 -16.59890204 130.73051254 -17.765625 132.23046875 C-18.343125 132.97296875 -18.920625 133.71546875 -19.515625 134.48046875 C-74.01171875 204.546875 -74.01171875 204.546875 -75.62060547 206.60205078 C-76.78262803 208.10554035 -77.9257805 209.62370507 -79.05517578 211.15185547 C-85.74854929 220.10467183 -85.74854929 220.10467183 -92.09765625 221.234375 C-98.34453505 221.35718389 -102.41193193 220.97657367 -107.17578125 216.796875 C-107.86542969 216.11496094 -108.55507813 215.43304688 -109.265625 214.73046875 C-109.72952637 214.2804248 -110.19342773 213.83038086 -110.67138672 213.36669922 C-113.92480922 210.20685551 -117.11134426 206.98911908 -120.265625 203.73046875 C-123.1262141 205.0898396 -125.12490199 206.37567344 -127.265625 208.73046875 C-125.73951291 212.28867661 -123.60449358 214.68204948 -120.953125 217.48046875 C-110.00548055 229.51585992 -106.70313148 241.71773166 -106.265625 257.73046875 C-94.77025255 262.87839641 -83.64597601 267.30044118 -71.265625 269.73046875 C-69.61046875 270.06691406 -69.61046875 270.06691406 -67.921875 270.41015625 C-57.96918144 272.0765476 -48.05055984 271.83645519 -37.98730469 271.56933594 C-36.81973633 271.5490332 -35.65216797 271.52873047 -34.44921875 271.5078125 C-33.40306396 271.47937256 -32.35690918 271.45093262 -31.27905273 271.42163086 C-27.07590462 271.85239991 -23.74852943 273.37789084 -20.62109375 276.23046875 C-16.72949058 281.22838051 -15.92448185 284.42588086 -16.265625 290.73046875 C-17.15625 294.078125 -17.15625 294.078125 -18.515625 297.79296875 C-18.76940918 298.48688721 -19.02319336 299.18080566 -19.28466797 299.89575195 C-20.25724652 302.5157763 -21.25856134 305.12349418 -22.265625 307.73046875 C-22.72678711 308.92575195 -23.18794922 310.12103516 -23.66308594 311.35253906 C-24.96007254 314.70199437 -26.27047423 318.04599248 -27.5892334 321.38693237 C-28.1200982 322.73234916 -28.64917524 324.07847283 -29.1763916 325.42532349 C-29.93047598 327.34648994 -30.69430449 329.26349916 -31.4609375 331.1796875 C-31.90453613 332.29690186 -32.34813477 333.41411621 -32.80517578 334.56518555 C-35.08720848 339.51111567 -37.54669768 343.83822297 -42.265625 346.73046875 C-71.61236786 356.51271637 -111.00316033 344.65901843 -137.45751953 331.65283203 C-143.96357252 328.36167537 -150.24539599 324.84717603 -156.265625 320.73046875 C-160.47516287 322.46013035 -163.61706076 325.4125362 -167.015625 328.35546875 C-167.91861328 329.12890625 -167.91861328 329.12890625 -168.83984375 329.91796875 C-170.31823366 331.1851601 -171.79235671 332.4573265 -173.265625 333.73046875 C-171.81102148 341.78476389 -169.74862636 349.62252557 -167.5703125 357.5078125 C-167.21404113 358.80901674 -166.85818322 360.11033425 -166.50271606 361.41175842 C-165.19535563 366.19491104 -163.88094284 370.97611836 -162.56604004 375.75720215 C-161.44815329 379.82269847 -160.33329377 383.88899986 -159.22266006 387.95648384 C-158.70273778 389.85568898 -158.17829019 391.7536534 -157.65377808 393.65159607 C-157.33990143 394.80031693 -157.02602478 395.94903778 -156.70263672 397.13256836 C-156.42443085 398.14387314 -156.14622498 399.15517792 -155.85958862 400.1971283 C-155.265625 402.73046875 -155.265625 402.73046875 -155.265625 405.73046875 C-154.21375 406.07078125 -154.21375 406.07078125 -153.140625 406.41796875 C-148.14943958 408.6965534 -145.13719887 411.29658915 -142.328125 415.91796875 C-140.95448985 420.84689486 -140.96588913 424.7849329 -142.265625 429.73046875 C-147.28474572 438.47345323 -158.04788049 440.08943122 -167.18887329 442.59745789 C-168.40271698 442.92365616 -169.61656067 443.24985443 -170.8671875 443.5859375 C-172.15662399 443.93618338 -173.44595924 444.28680215 -174.73519897 444.63777161 C-177.41846625 445.3667905 -180.10282869 446.09157898 -182.78808594 446.81323242 C-186.21048688 447.73331822 -189.62999533 448.6636739 -193.04876137 449.5971632 C-195.7038366 450.32096667 -198.36032125 451.03948123 -201.01725388 451.75643349 C-202.88569858 452.26154561 -204.75299969 452.77088196 -206.62026978 453.28031921 C-223.19989623 457.71773605 -223.19989623 457.71773605 -228.453125 455.66796875 C-229.06542969 455.45011719 -229.67773438 455.23226563 -230.30859375 455.0078125 C-236.12093435 451.21412911 -238.36286969 445.73443291 -240.39453125 439.40625 C-240.6657077 438.59890411 -240.93688416 437.79155823 -241.21627808 436.95974731 C-241.79695627 435.2255226 -242.37157351 433.48925868 -242.94064331 431.75119019 C-243.83852215 429.01124102 -244.75393215 426.27771339 -245.67407227 423.54516602 C-248.4207426 415.37216331 -251.12096049 407.18429817 -253.79402161 398.98695374 C-254.83838044 395.79593951 -255.89711548 392.60980562 -256.95846558 389.42440796 C-257.68564543 387.2209347 -258.39008664 385.01104474 -259.09399414 382.80004883 C-261.60421876 375.13483025 -264.28519874 369.26006841 -270.265625 363.73046875 C-271.2463316 362.73197892 -272.22567175 361.7321436 -273.203125 360.73046875 C-273.88375 360.07046875 -274.564375 359.41046875 -275.265625 358.73046875 C-278.15000279 360.02346569 -280.13781921 361.38988238 -282.265625 363.73046875 C-280.36564373 368.10738895 -277.28846305 371.08428897 -274.04296875 374.51171875 C-270.80601519 378.55257506 -270.84303391 382.65937564 -271.265625 387.73046875 C-273.46788712 393.46191988 -276.94273717 398.25070669 -280.703125 403.04296875 C-285.26155151 408.9779498 -289.5817886 415.02606884 -293.765625 421.23046875 C-298.24561972 427.86155355 -302.89412829 434.30927122 -307.74609375 440.671875 C-311.5902732 445.74699905 -315.20126465 450.95589274 -318.765625 456.23046875 C-323.2427787 462.85580546 -327.88539136 469.30005453 -332.73510742 475.65649414 C-337.25579684 481.62267045 -341.47381962 487.77943769 -345.63867188 493.99804688 C-356.76649194 510.52550236 -356.76649194 510.52550236 -362.265625 512.73046875 C-367.02817661 513.57787449 -371.94834994 513.75573793 -376.4375 511.76953125 C-378.58191285 510.2365419 -380.39146502 508.58684733 -382.265625 506.73046875 C-383.14089844 505.87195313 -384.01617187 505.0134375 -384.91796875 504.12890625 C-386.83454019 502.22957433 -388.72956259 500.31087021 -390.6171875 498.3828125 C-392.7327552 496.2641245 -394.85800723 494.28654412 -397.140625 492.35546875 C-400.88105722 489.16917463 -404.31366268 485.72166906 -407.765625 482.23046875 C-411.17632559 478.78108712 -414.5618401 475.36926952 -418.265625 472.23046875 C-423.78226092 467.55075837 -428.78638245 462.30631763 -433.85351562 457.15087891 C-435.05723155 455.9400872 -436.2913095 454.75960532 -437.53125 453.5859375 C-440.52041901 450.38806525 -441.55519469 447.71222834 -441.578125 443.35546875 C-441.59488281 442.62585938 -441.61164063 441.89625 -441.62890625 441.14453125 C-440.82300574 435.7891924 -437.8439258 431.9336949 -434.10415649 428.19477844 C-432.83406487 426.91416534 -432.83406487 426.91416534 -431.53831482 425.60768127 C-430.61253128 424.68954147 -429.68674774 423.77140167 -428.73291016 422.82543945 C-427.74488939 421.83498843 -426.75751491 420.84389235 -425.77073669 419.85220337 C-423.09779096 417.16987778 -420.41556136 414.49701976 -417.73126268 411.82606149 C-414.91942881 409.02557121 -412.11534046 406.21734405 -409.31015015 403.41020203 C-404.59933071 398.69850061 -399.88257634 393.99280622 -395.16210938 389.29077148 C-389.70884536 383.85867972 -384.26446855 378.41780625 -378.82490122 372.97200137 C-373.58583177 367.72723262 -368.34110239 362.48816085 -363.09357834 357.25185204 C-360.86308807 355.02599961 -358.63448532 352.79828239 -356.40736771 350.56905556 C-353.78378645 347.94358737 -351.15524565 345.32318575 -348.52282906 342.7065773 C-347.09991721 341.28991483 -345.68187615 339.86836533 -344.26399231 338.44667053 C-343.41162491 337.60138794 -342.55925751 336.75610535 -341.68106079 335.88520813 C-340.94475748 335.15095769 -340.20845417 334.41670725 -339.44983864 333.66020679 C-335.34784521 330.03612322 -332.42422029 328.45587461 -326.953125 328.54296875 C-321.35420916 328.12683311 -318.48602985 326.47904757 -314.765625 322.30859375 C-312.45006879 318.32873151 -312.3195422 314.34474766 -311.84765625 309.828125 C-310.87937648 304.67479711 -308.0012257 302.19787248 -304.265625 298.73046875 C-303.21840199 297.6839273 -302.17578297 296.6327674 -301.13671875 295.578125 C-298.20331024 292.60437237 -295.24116896 289.66203915 -292.265625 286.73046875 C-297.49202009 280.41731532 -303.22401063 274.77373239 -309.1640625 269.13476562 C-315.76144884 262.69529545 -319.79557693 256.66883649 -320.35546875 247.30859375 C-320.09857306 239.93680442 -317.67132292 234.1669952 -312.59765625 228.84765625 C-308.56720157 225.18851649 -304.26600094 221.89273164 -299.9453125 218.5859375 C-296.45720708 215.90636359 -293.10087102 213.0967757 -289.765625 210.23046875 C-284.78458132 205.96284396 -279.68371246 201.88361655 -274.50268555 197.86206055 C-270.43573353 194.69045975 -266.49003336 191.40319026 -262.578125 188.04296875 C-242.46248978 170.87471271 -242.46248978 170.87471271 -231.32421875 171.4609375 C-222.01988148 172.67915244 -216.7992992 177.22653813 -210.265625 183.73046875 C-209.31390447 184.66807269 -208.36207983 185.60557096 -207.41015625 186.54296875 C-205.0126015 188.9236155 -202.63194805 191.31883313 -200.265625 193.73046875 C-196.776586 190.87580048 -193.45310292 187.95714306 -190.3046875 184.73046875 C-189.78358398 184.19711914 -189.26248047 183.66376953 -188.72558594 183.11425781 C-187.68292942 182.03948002 -186.64689268 180.9582336 -185.61816406 179.87011719 C-182.71722353 176.88144275 -180.34123197 174.76765421 -176.265625 173.73046875 C-174.16015625 173.88671875 -174.16015625 173.88671875 -172.078125 174.23046875 C-167.33789725 174.35017147 -165.13136569 172.44442513 -161.703125 169.29296875 C-158.38379729 165.75264634 -158.38379729 165.75264634 -156.77734375 161.30859375 C-156.83149957 159.07139426 -156.83149957 159.07139426 -157.3046875 157.03125 C-157.16441498 148.76919844 -148.13949194 142.18209454 -142.70141602 136.77807617 C-141.61473496 135.68732536 -140.52869213 134.59593839 -139.4432373 133.50396729 C-136.50599506 130.55309702 -133.55940123 127.61173677 -130.61057782 124.67244506 C-127.52144003 121.59092339 -124.43965199 118.50206516 -121.35667419 115.41438293 C-116.18123551 110.23349403 -110.99952048 105.05894577 -105.81420898 99.88793945 C-99.82141031 93.91148308 -93.83951877 87.92427276 -87.86314446 81.93139571 C-82.72629795 76.78093402 -77.58362675 71.63634312 -72.43604416 66.49661142 C-69.36383192 63.42907328 -66.29367572 60.35955114 -63.22876167 57.28471947 C-60.34876931 54.39605872 -57.46153233 51.51484022 -54.56855011 48.63919067 C-53.50858473 47.58319005 -52.45116028 46.52463185 -51.3964901 45.46334267 C-49.95592896 44.01457678 -48.50518931 42.57595303 -47.05397034 41.13786316 C-46.24522241 40.33024631 -45.43647448 39.52262945 -44.60321903 38.69053936 C-40.34457417 35.11966926 -36.11396112 34.17357109 -30.67578125 34.2734375 C-26.1507613 35.13150449 -22.81950997 37.93764519 -19.265625 40.73046875 C-17.945625 41.72046875 -16.625625 42.71046875 -15.265625 43.73046875 C-10.645625 39.11046875 -6.025625 34.49046875 -1.265625 29.73046875 C-3.02596149 26.20979577 -3.93934893 24.90833902 -6.703125 22.41796875 C-10.18752028 18.99917924 -11.99437409 16.47647216 -13.265625 11.73046875 C-12.69468259 7.98762404 -11.73990855 5.50117952 -9.765625 2.29296875 C-6.42676016 0.20617822 -3.9117425 -0.12151863 0 0 Z M-234.265625 205.73046875 C-235.11382812 206.46910156 -235.96203125 207.20773438 -236.8359375 207.96875 C-243.45413871 213.70261849 -250.15144096 219.2790632 -257.0715332 224.64477539 C-261.71975889 228.26310392 -266.21836191 232.03455053 -270.69433594 235.86279297 C-275.11060011 239.62992944 -279.63831022 243.22710123 -284.265625 246.73046875 C-282.94441672 249.66277068 -281.51924303 251.71711774 -279.2265625 253.96484375 C-278.35644531 254.82529297 -278.35644531 254.82529297 -277.46875 255.703125 C-276.86546875 256.28964844 -276.2621875 256.87617188 -275.640625 257.48046875 C-275.02960938 258.08246094 -274.41859375 258.68445313 -273.7890625 259.3046875 C-272.28573876 260.7845218 -270.77627644 262.25811551 -269.265625 263.73046875 C-263.46726604 258.91609437 -258.14280715 253.73798443 -252.83203125 248.39453125 C-251.95409409 247.51517914 -251.07615692 246.63582703 -250.1716156 245.72982788 C-247.38808088 242.94072817 -244.60805731 240.14815857 -241.828125 237.35546875 C-239.93345835 235.45521455 -238.0380287 233.55572222 -236.14257812 231.65625 C-231.51427339 227.01696271 -226.88884079 222.37482708 -222.265625 217.73046875 C-223.1920962 216.62230309 -224.12258349 215.51749447 -225.0546875 214.4140625 C-225.57240723 213.79845459 -226.09012695 213.18284668 -226.62353516 212.54858398 C-228.95878989 209.96299939 -231.52869737 207.88091189 -234.265625 205.73046875 Z M-245.265625 300.73046875 C-245.78640625 301.26671875 -246.3071875 301.80296875 -246.84375 302.35546875 C-249.5235705 305.31251206 -251.265625 307.68409742 -251.265625 311.73046875 C-249.72204062 315.66660891 -248.81722636 317.36273451 -245.265625 319.73046875 C-241.93594137 320.37303928 -240.43887651 320.61961808 -237.265625 319.73046875 C-232.29908334 316.21127725 -227.54930019 311.89940856 -224.265625 306.73046875 C-223.64174302 301.81739813 -223.50785437 299.86712469 -226.265625 295.73046875 C-229.33285669 293.68564762 -231.43154993 292.87483941 -235.1484375 293.11328125 C-239.44176742 294.36484237 -242.26688576 297.55231776 -245.265625 300.73046875 Z " transform="translate(453.265625,-0.73046875)"/>
</svg>
