<svg width="512" height="512" viewBox="0 0 512 512" fill="none" xmlns="http://www.w3.org/2000/svg">
<g clip-path="url(#clip0_923_189)">
<path d="M458.253 109.506H474.507L512.018 297.059H489.512L490.671 273.681C491.976 247.35 467.896 226.979 442.146 232.63L269.563 270.502C268.672 270.698 267.85 271.134 267.188 271.764L205.36 330.59C204.368 331.534 203.807 332.844 203.807 334.213V360.631C203.807 361.957 203.28 363.228 202.343 364.166L157.7 408.809C156.797 409.712 155.582 410.235 154.305 410.271L57.3496 412.994C50.5929 413.184 45.0128 407.758 45.0127 400.999V347.044C45.0127 306.324 40.8671 265.71 32.6406 225.829L16.2549 146.392H5C2.23867 146.392 5.15389e-05 144.153 0 141.392V124.911C7.49422e-05 123.117 0.961723 121.46 2.51953 120.57L20.7285 110.165C21.484 109.733 22.3389 109.506 23.209 109.506H445.749V87H458.253V109.506ZM120.65 232.666C104.082 232.666 90.6504 246.097 90.6504 262.666V351.152C90.6504 367.605 110.903 375.435 121.97 363.261L210.28 266.119C221.959 253.272 212.844 232.666 195.481 232.666H120.65ZM123.159 196.405H418.241V189.528H123.159L76.2705 137.639H68.7686L123.159 196.405Z" fill="#959595" fill-opacity="0.7804"/>
</g>
<defs>
<clipPath id="clip0_923_189">
<rect width="512" height="512" fill="white"/>
</clipPath>
</defs>
</svg>
