<svg width="512" height="512" viewBox="0 0 512 512" fill="none" xmlns="http://www.w3.org/2000/svg">
<path d="M302.174 205L93.6777 414.792L145.206 466.64C147.161 468.607 150.343 468.607 152.299 466.64L357.248 260.417L302.174 205Z" fill="#959595" fill-opacity="0.7804"/>
<path d="M258.901 137.708L42.1061 355.85C40.1681 357.801 40.1681 360.949 42.1061 362.9L89.7438 410.833L302.174 197.083L361.182 256.458L369.05 248.542L258.901 137.708Z" fill="#959595" fill-opacity="0.7804"/>
<path d="M85.8099 490L15 418.75L50.405 383.125L121.215 454.375L85.8099 490Z" fill="#959595" fill-opacity="0.7804"/>
<path d="M262.835 133.75L372.983 244.583L412.322 205L361.182 153.542L333.645 181.25L274.636 121.875L262.835 133.75Z" fill="#959595" fill-opacity="0.7804"/>
<path d="M333.645 173.333L278.57 117.917L313.975 82.2917L424.124 193.125L416.256 201.042L361.182 145.625L333.645 173.333Z" fill="#959595" fill-opacity="0.7804"/>
<path d="M428.058 189.167L317.909 78.3333L329.711 66.4583L388.719 125.833L417.353 97.0215C418.917 95.4477 421.463 95.4477 423.027 97.0215L471.331 145.625L428.058 189.167Z" fill="#959595" fill-opacity="0.7804"/>
<path d="M388.719 117.917L333.645 62.5L377.305 18.5685C379.26 16.6013 382.443 16.6013 384.398 18.5685L487.497 122.309C489.435 124.259 489.435 127.408 487.497 129.358L475.264 141.667L423.737 89.8185C421.781 87.8513 418.599 87.8513 416.644 89.8185L388.719 117.917Z" fill="#959595" fill-opacity="0.7804"/>
</svg>
