<svg id="Layer_1" viewBox="0 0 512 512" xmlns="http://www.w3.org/2000/svg" data-name="Layer 1">
<path d="M0 0 C13.14197504 10.94937003 23.59750268 26.82022511 25.70727539 44.12036133 C25.83875977 45.0665332 25.97024414 46.01270508 26.10571289 46.98754883 C28.13744891 65.45377174 23.74939262 84.85451797 12.42504883 99.81420898 C0.12517803 114.95217718 -16.02633321 124.74029266 -35.29272461 128.12036133 C-34.75905273 128.86157227 -34.22538086 129.6027832 -33.67553711 130.36645508 C-16.42858983 154.74492553 -3.98629139 180.99772308 3.45727539 209.93286133 C3.73909668 211.00979248 4.02091797 212.08672363 4.3112793 213.19628906 C9.36836681 233.71598773 10.22259536 254.18870255 10.15332031 275.22143555 C10.14165174 278.92883935 10.16239055 282.63531562 10.19123745 286.34259796 C10.20958735 289.23376419 10.20931287 292.12470508 10.20359993 295.01591492 C10.20344761 296.38418411 10.20941712 297.75246943 10.2218914 299.12068176 C10.32478201 312.20681907 10.32478201 312.20681907 5.70727539 317.12036133 C1.90887369 320.23553874 -2.03133651 321.45820604 -6.91772461 321.12036133 C-12.22735763 320.20490736 -15.86536991 318.03990731 -19.10522461 313.68286133 C-21.08941646 309.40118417 -21.41804493 305.33223806 -21.45043945 300.65356445 C-21.46583267 299.04402893 -21.46583267 299.04402893 -21.48153687 297.40197754 C-21.4888382 296.24685669 -21.49613953 295.09173584 -21.50366211 293.90161133 C-21.53177573 291.41592817 -21.56044036 288.93025119 -21.58959961 286.44458008 C-21.63047143 282.55737792 -21.66738158 278.67028552 -21.6940918 274.78295898 C-21.84132135 255.03135354 -22.72436923 235.76328114 -27.98022461 216.62036133 C-28.23658691 215.67225586 -28.49294922 214.72415039 -28.75708008 213.74731445 C-35.81733713 188.46311012 -47.19755979 164.89409283 -63.29272461 144.12036133 C-64.47608398 142.57348633 -64.47608398 142.57348633 -65.68334961 140.99536133 C-67.31469081 138.9746032 -69.01854497 137.01055282 -70.78453064 135.1063385 C-73.56712839 132.0676571 -75.93150167 128.84918299 -78.33424377 125.50437927 C-86.14782365 115.45799466 -93.88057816 107.70853834 -106.97164917 106.05252075 C-117.7456744 105.00562157 -128.59995486 105.30583982 -139.40481639 105.58637166 C-144.86440001 105.70332858 -150.32370944 105.68756122 -155.78431702 105.68687439 C-166.08830207 105.70523595 -176.38721304 105.84006606 -186.68953377 106.0185408 C-198.43315522 106.21618025 -210.17639853 106.28127214 -221.92141902 106.33616078 C-246.0475692 106.45183257 -270.16954735 106.73094069 -294.29272461 107.12036133 C-294.36232756 95.13287046 -294.41558825 83.1454279 -294.44816113 71.15777588 C-294.46379685 65.59103237 -294.48499703 60.02442744 -294.51904297 54.45776367 C-294.55171084 49.08259728 -294.56959337 43.70756393 -294.57735634 38.33230591 C-294.5828865 36.28465685 -294.59368553 34.23701482 -294.60991478 32.18942261 C-294.63178764 29.31468135 -294.6346874 26.44048532 -294.63330078 23.56567383 C-294.64408661 22.72481735 -294.65487244 21.88396088 -294.66598511 21.0176239 C-294.63513587 15.08180108 -293.96165387 9.11826702 -289.83972067 4.48825783 C-284.76802923 -0.06609632 -278.66949953 0.42212241 -272.21044922 0.48925781 C-271.00962204 0.48210251 -269.80879486 0.4749472 -268.57157898 0.46757507 C-265.29447294 0.45360857 -262.01839727 0.46194949 -258.74134898 0.48166537 C-255.30351438 0.49811248 -251.86572916 0.48923077 -248.4278717 0.48414612 C-242.6570231 0.47963248 -236.88649939 0.49545076 -231.11572266 0.5234375 C-224.45300606 0.55550167 -217.79087478 0.55546564 -211.12811655 0.53822273 C-204.70533246 0.52233629 -198.28276205 0.5291037 -191.85998726 0.54615974 C-189.13241416 0.55301502 -186.40501313 0.55201366 -183.67744255 0.54461479 C-179.86646123 0.53916505 -176.05647358 0.55953228 -172.24560547 0.58691406 C-170.55522156 0.57712524 -170.55522156 0.57712524 -168.83068848 0.56713867 C-160.39391016 0.67021574 -156.15917909 2.97375178 -150.23095703 8.97094727 C-149.49387009 9.71141296 -148.75678314 10.45187866 -147.99736023 11.21478271 C-147.22213516 12.00346741 -146.4469101 12.7921521 -145.64819336 13.60473633 C-144.83780106 14.4203302 -144.02740875 15.23592407 -143.19245911 16.07623291 C-140.61689429 18.66954846 -138.04815168 21.26948436 -135.48022461 23.87036133 C-132.89355355 26.48460884 -130.30544746 29.09739472 -127.71443176 31.70733643 C-126.10466096 33.32941276 -124.49756995 34.95415356 -122.89335632 36.58172607 C-122.17203018 37.30958313 -121.45070404 38.03744019 -120.70751953 38.78735352 C-120.07053635 39.43258972 -119.43355316 40.07782593 -118.77726746 40.74261475 C-117.50812005 42.23373637 -117.50812005 42.23373637 -116.29272461 42.12036133 C-116.07358398 41.32114258 -115.85444336 40.52192383 -115.62866211 39.69848633 C-110.06709859 20.43648585 -99.60125436 4.07728394 -81.93579102 -6.22094727 C-55.85256179 -20.46345339 -23.49574749 -18.43128115 0 0 Z M-77.26147461 30.33520508 C-84.28403412 39.51511868 -87.68638743 50.59253308 -86.29272461 62.12036133 C-84.38241894 72.44548451 -78.83337846 82.81091636 -70.29272461 89.12036133 C-59.38755245 95.40405753 -49.70899997 98.99683397 -37.03881836 96.47192383 C-24.93328613 93.1275383 -16.03566059 86.78759261 -9.29272461 76.12036133 C-4.14361626 65.53857055 -3.22108535 55.46836193 -6.29272461 44.12036133 C-10.96719935 31.51823011 -18.5333763 23.88946642 -30.59350586 18.21411133 C-47.17797998 11.49391921 -65.6618165 17.2855897 -77.26147461 30.33520508 Z " transform="translate(434.292724609375,14.879638671875)"/>
<path d="M0 0 C36.96 0 73.92 0 112 0 C112 27.73557692 112 27.73557692 110.625 40.375 C110.43550781 42.30472656 110.43550781 42.30472656 110.2421875 44.2734375 C109.51693884 51.35186441 108.40650943 57.96745284 107 65 C73.34 65 39.68 65 5 65 C1.49574002 42.80635346 1.49574002 42.80635346 0.8125 34.1875 C0.6897168 32.87555664 0.6897168 32.87555664 0.56445312 31.53710938 C-0.30988765 20.97889343 0 10.69108144 0 0 Z " transform="translate(156,335)"/>
<path d="M0 0 C31.68 0 63.36 0 96 0 C101.76397468 33.43105312 101.76397468 33.43105312 102.8125 46 C102.99329102 47.95873047 102.99329102 47.95873047 103.17773438 49.95703125 C103.63265907 55.00539554 104 59.92671911 104 65 C67.04 65 30.08 65 -8 65 C-5.69479354 35.03231598 -5.69479354 35.03231598 -4 24.0625 C-3.835 22.93650391 -3.67 21.81050781 -3.5 20.65039062 C-2.4719843 13.73136306 -1.25280005 6.89040026 0 0 Z " transform="translate(164,240)"/>
<path d="M0 0 C30.03 0 60.06 0 91 0 C84.00609024 29.14129068 84.00609024 29.14129068 80.625 39.75 C80.24706299 40.95100342 79.86912598 42.15200684 79.47973633 43.3894043 C75.14066512 56.98371349 70.38450415 70.23099171 64 83 C51.46 83 38.92 83 26 83 C19.07626118 67.99856589 19.07626118 67.99856589 16.81640625 61.3671875 C16.42414352 60.23809715 16.42414352 60.23809715 16.0239563 59.0861969 C15.19445819 56.68544299 14.37713117 54.28083592 13.5625 51.875 C13.28097076 51.04960724 12.99944153 50.22421448 12.7093811 49.37380981 C0 12.00921197 0 12.00921197 0 0 Z " transform="translate(167,429)"/>
<path d="M0 0 C23.76 0 47.52 0 72 0 C71.01 7.26 70.02 14.52 69 22 C68.43995084 26.49954028 67.88828417 30.995514 67.375 35.5 C67.18671631 37.13207397 67.18671631 37.13207397 66.99462891 38.79711914 C66.21273379 45.71281101 65.57634076 52.60723174 65.2109375 59.55859375 C65 62 65 62 64 65 C39.25 65 14.5 65 -11 65 C-11 56.07650515 -10.72587079 48.1198248 -9.3125 39.4375 C-9.13605957 38.32213867 -8.95961914 37.20677734 -8.77783203 36.05761719 C-6.75890252 23.78995008 -3.93136033 11.79408098 0 0 Z " transform="translate(63,240)"/>
<path d="M0 0 C23.76 0 47.52 0 72 0 C78.96714579 24.38501027 78.96714579 24.38501027 80.25 31.9375 C80.39695312 32.70771484 80.54390625 33.47792969 80.6953125 34.27148438 C82.50564588 44.45857965 83.05909134 54.65000477 84 65 C58.92 65 33.84 65 8 65 C7.21643341 61.08216705 6.71791609 57.45782072 6.38671875 53.49609375 C6.27263672 52.19478516 6.15855469 50.89347656 6.04101562 49.55273438 C5.81156741 46.89948438 5.58885505 44.24589325 5.36914062 41.59179688 C4.12868405 27.59429512 1.99917744 13.99424211 0 0 Z " transform="translate(289,240)"/>
<path d="M0 0 C25.08 0 50.16 0 76 0 C73.67413919 25.58446889 73.67413919 25.58446889 72.1875 33.1875 C72.02080811 34.07405273 71.85411621 34.96060547 71.68237305 35.87402344 C67.30670991 58.38658017 67.30670991 58.38658017 64 65 C41.56 65 19.12 65 -4 65 C-4 59.43693102 -3.94919416 54.41704258 -3.37890625 48.96484375 C-3.24806641 47.65837891 -3.11722656 46.35191406 -2.98242188 45.00585938 C-2.70999244 42.35181813 -2.43255559 39.69836503 -2.15429688 37.04492188 C-0.91920212 24.65180039 -0.52193549 12.52645167 0 0 Z " transform="translate(297,335)"/>
<path d="M0 0 C25.08 0 50.16 0 76 0 C76.99 17.82 76.99 17.82 78 36 C78.99 45.57 79.98 55.14 81 65 C58.23 65 35.46 65 12 65 C9.51134193 56.91186126 7.14790967 49.1142469 5.4375 40.875 C5.12389526 39.3753772 5.12389526 39.3753772 4.80395508 37.84545898 C2.37052502 25.64259206 0 12.47908794 0 0 Z "  transform="translate(51,335)"/>
<path d="M0 0 C20.79 0 41.58 0 63 0 C64.32 5.23875 65.64 10.4775 67 15.875 C72.82931177 38.67986171 79.6729586 60.97082537 88 83 C83.45855006 83.11647041 78.91748606 83.18734502 74.375 83.25 C73.08980469 83.28351563 71.80460937 83.31703125 70.48046875 83.3515625 C58.73686062 83.47325792 58.73686062 83.47325792 54 79 C53.38253906 78.45859375 52.76507813 77.9171875 52.12890625 77.359375 C36.87505214 61.68708599 24.11086797 44.3456512 12.875 25.625 C12.50358887 25.01479004 12.13217773 24.40458008 11.74951172 23.77587891 C7.22717591 16.0904432 3.83861465 8.15705612 0 0 Z " transform="translate(74,429)"/>
<path d="M0 0 C20.79 0 41.58 0 63 0 C59.75276202 7.79337116 56.62726868 14.96089881 52.4375 22.1875 C51.91937744 23.08605713 51.40125488 23.98461426 50.86743164 24.91040039 C45.74842408 33.65018824 40.06943507 41.89852545 34 50 C33.54802246 50.6089209 33.09604492 51.2178418 32.63037109 51.84521484 C27.33930777 58.9328057 21.68185326 65.6214983 15.6875 72.125 C15.11273926 72.75293457 14.53797852 73.38086914 13.94580078 74.02783203 C5.78020778 82.71901554 5.78020778 82.71901554 -0.00024414 83.30322266 C-3.63442698 83.39418521 -7.24112169 83.34841754 -10.875 83.25 C-12.13570313 83.23195313 -13.39640625 83.21390625 -14.6953125 83.1953125 C-17.79765614 83.14830729 -20.8984338 83.08260676 -24 83 C-23.44464014 79.18496421 -22.68050543 75.76720941 -21.28515625 72.17578125 C-20.75764771 70.78262695 -20.75764771 70.78262695 -20.21948242 69.36132812 C-19.83767822 68.35521484 -19.45587402 67.34910156 -19.0625 66.3125 C-15.12533272 55.66361388 -11.79038322 44.91572298 -8.6875 34 C-8.48126007 33.27922272 -8.27502014 32.55844543 -8.06253052 31.81582642 C-5.05404918 21.26728709 -2.51726052 10.69835719 0 0 Z " transform="translate(287,429)"/>
<path d="M0 0 C13.86 0 27.72 0 42 0 C47.15442811 13.1008381 52.21296375 26.15132966 56.5 39.5625 C56.82548828 40.57691162 57.15097656 41.59132324 57.48632812 42.63647461 C59.30446689 48.42720799 60.67235208 54.02558436 62 60 C34.94 60 7.88 60 -20 60 C-11.93696275 31.2034384 -11.93696275 31.2034384 -8.3125 21.5625 C-7.94833984 20.56669922 -7.58417969 19.57089844 -7.20898438 18.54492188 C-4.9161908 12.31228337 -2.46848418 6.17121046 0 0 Z " transform="translate(191,151)"/>
<path d="M0 0 C6.73789821 -0.43479478 13.4721441 -0.73014203 20.22094727 -0.93383789 C22.5100812 -1.01879976 24.79830677 -1.13443538 27.08422852 -1.2824707 C45.47773128 -2.4428554 45.47773128 -2.4428554 51.27297974 1.57641602 C55.28385625 5.51869858 58.16589575 10.05608244 60.87094116 14.95986938 C62.24021802 17.43405722 63.83235666 19.70669118 65.47265625 22.0078125 C66.34666071 23.37340433 67.21029661 24.74569792 68.0625 26.125 C68.53655273 26.88216309 69.01060547 27.63932617 69.49902344 28.41943359 C86 55.28085938 86 55.28085938 86 60 C63.89 60 41.78 60 19 60 C17.27599157 54.8279747 15.57038317 49.68985216 13.984375 44.48046875 C10.21553917 32.17813407 6.41865748 19.91572542 2.03222656 7.81518555 C0 2.18528669 0 2.18528669 0 0 Z " transform="translate(264,151)"/>
<path d="M0 0 C2.10073853 -0.36076355 2.10073853 -0.36076355 4.72509766 -0.34057617 C5.70596344 -0.34034958 6.68682922 -0.34012299 7.69741821 -0.33988953 C8.75891083 -0.32440567 9.82040344 -0.30892181 10.9140625 -0.29296875 C11.99883881 -0.28872391 13.08361511 -0.28447906 14.20126343 -0.28010559 C17.67609167 -0.263273 21.15034618 -0.22561189 24.625 -0.1875 C26.97655414 -0.17245911 29.32811735 -0.15876967 31.6796875 -0.14648438 C37.45332173 -0.11335454 43.22661989 -0.06310982 49 0 C48.1735379 4.38419393 46.89719954 8.51617728 45.453125 12.73046875 C44.9322055 14.27275736 44.4113753 15.81507613 43.890625 17.35742188 C43.07852831 19.75082974 42.26493174 22.14371086 41.44921875 24.53588867 C38.18961957 34.11096128 35.13936718 43.68872528 32.54766846 53.46879578 C31.09678987 58.90321013 31.09678987 58.90321013 30 60 C27.94443339 60.09413687 25.88559819 60.11742998 23.82788086 60.11352539 C22.86205833 60.11374443 22.86205833 60.11374443 21.87672424 60.1139679 C19.73939697 60.11326885 17.60215587 60.10547691 15.46484375 60.09765625 C13.98653715 60.09579204 12.50822993 60.09436815 11.02992249 60.09336853 C7.13201198 60.08954359 3.23413851 60.07971352 -0.66375732 60.06866455 C-4.63846333 60.05844992 -8.61317529 60.0538708 -12.58789062 60.04882812 C-20.391944 60.03809122 -28.19596682 60.02101509 -36 60 C-32.99769326 50.54558473 -32.99769326 50.54558473 -30.58203125 46.16796875 C-30.13674072 45.35618164 -29.6914502 44.54439453 -29.23266602 43.70800781 C-28.76401123 42.87624023 -28.29535645 42.04447266 -27.8125 41.1875 C-27.32128662 40.30803711 -26.83007324 39.42857422 -26.32397461 38.52246094 C-19.54653068 26.50956048 -11.5560065 15.56434075 -3.20166016 4.61889648 C-2.08510698 3.11465753 -1.03914548 1.55871822 0 0 Z " transform="translate(111,151)"/>
</svg>
