<svg id="Layer_1" viewBox="0 0 512 512" xmlns="http://www.w3.org/2000/svg" data-name="Layer 1" style="shape-rendering:geometricPrecision; text-rendering:geometricPrecision; image-rendering:optimizeQuality; fill-rule:evenodd; clip-rule:evenodd">
<g><path fill="#959595c7" style="opacity:0.977" d="M 177.5,20.5 C 202.851,18.5826 221.017,28.916 232,51.5C 239.925,77.0573 233.092,97.5573 211.5,113C 220.898,126.95 220.732,140.783 211,154.5C 208.106,157.361 204.939,159.861 201.5,162C 227.124,200.081 252.624,238.247 278,276.5C 294.864,308.336 294.531,340.002 277,371.5C 252,408.833 227,446.167 202,483.5C 189.463,493.573 177.796,492.573 167,480.5C 143,444.5 119,408.5 95,372.5C 77.3985,340.337 77.0652,308.004 94,275.5C 119.167,237.833 144.333,200.167 169.5,162.5C 151.812,149.059 148.479,132.726 159.5,113.5C 133.602,92.7106 129.102,68.0439 146,39.5C 154.347,29.4174 164.847,23.0841 177.5,20.5 Z M 185.5,39.5 C 208.857,43.5496 218.357,57.2163 214,80.5C 203.626,100.18 188.459,105.013 168.5,95C 153.896,82.3472 151.729,67.8472 162,51.5C 168.234,44.1579 176.068,40.1579 185.5,39.5 Z M 181.5,120.5 C 193.649,119.815 199.149,125.482 198,137.5C 193.635,146.066 187.135,148.233 178.5,144C 169.988,134.909 170.988,127.076 181.5,120.5 Z M 133.5,288.5 C 139.93,288.023 143.596,290.856 144.5,297C 142.491,302.859 140.324,308.692 138,314.5C 135.927,325.655 137.927,335.988 144,345.5C 160.248,368.994 176.248,392.66 192,416.5C 196.42,426.403 193.253,431.236 182.5,431C 180.714,430.215 179.214,429.049 178,427.5C 161.581,402.328 144.915,377.328 128,352.5C 117.061,333.688 116.728,314.688 127,295.5C 128.694,292.642 130.861,290.309 133.5,288.5 Z"/></g>
<g><path fill="#959595c7" style="opacity:0.971" d="M 317.5,20.5 C 341.763,18.5447 359.597,28.2114 371,49.5C 379.919,75.5743 373.419,96.9076 351.5,113.5C 362.524,132.712 359.191,149.046 341.5,162.5C 366.667,200.167 391.833,237.833 417,275.5C 433.935,308.004 433.601,340.337 416,372.5C 392,408.5 368,444.5 344,480.5C 336.865,489.767 327.698,492.6 316.5,489C 313.734,487.533 311.234,485.7 309,483.5C 294.455,462.24 280.288,440.74 266.5,419C 274.203,407.098 282.036,395.264 290,383.5C 310.213,349.527 312.88,314.193 298,277.5C 287.88,260.391 277.38,243.557 266.5,227C 280.818,205.344 295.151,183.677 309.5,162C 290.968,148.863 287.635,132.529 299.5,113C 277.908,97.5573 271.075,77.0573 279,51.5C 286.654,34.6747 299.487,24.3413 317.5,20.5 Z M 324.5,39.5 C 343.152,41.4849 353.485,51.8182 355.5,70.5C 353.133,88.3668 342.966,98.3668 325,100.5C 303.611,97.3985 293.944,85.0652 296,63.5C 300.553,49.4339 310.053,41.4339 324.5,39.5 Z M 320.5,120.5 C 335.421,119.9 340.588,126.567 336,140.5C 327.061,149.065 319.394,148.065 313,137.5C 311.16,129.851 313.66,124.184 320.5,120.5 Z M 322.5,214.5 C 326.192,213.971 329.358,214.971 332,217.5C 348.608,243.106 365.608,268.439 383,293.5C 394.333,313.167 394.333,332.833 383,352.5C 377.57,359.145 372.236,359.145 367,352.5C 366.333,350.167 366.333,347.833 367,345.5C 373.983,333.831 375.316,321.497 371,308.5C 353.249,280.663 335.249,252.996 317,225.5C 316.176,220.482 318.009,216.815 322.5,214.5 Z"/></g>
</svg>
