<svg id="Layer_1" viewBox="0 0 128 128" xmlns="http://www.w3.org/2000/svg" data-name="Layer 1">
<path fill="#959595c7" d="M0 0 C2.35961652 -0.0025278 4.71948188 0.03374561 7.078125 0.1015625 C8.32062012 0.11759521 9.56311523 0.13362793 10.84326172 0.15014648 C20.17431575 0.38351191 29.20142593 1.48512459 38.33496094 3.39013672 C46.70373053 5.090925 53.90314952 4.29875588 62.18701172 2.57006836 C71.14817198 0.76546561 80.07556661 0.30962174 89.203125 0.1640625 C90.43401855 0.12531006 91.66491211 0.08655762 92.93310547 0.04663086 C96.17809031 0.03602928 99.14514748 0.09423122 102.328125 0.7265625 C105.77483176 4.23201994 107.25787957 7.87373536 107.62109375 12.83203125 C106.74860967 21.45217392 103.2324177 32.32265523 96.96875 38.50390625 C88.70338735 44.66356937 80.41998245 45.40257209 70.328125 44.7265625 C65.29145802 43.63581933 60.79057113 41.57372487 57.328125 37.7265625 C54.51961219 31.65939198 52.8004105 25.2291568 51.328125 18.7265625 C49.678125 18.3965625 48.028125 18.0665625 46.328125 17.7265625 C44.15254724 20.98992914 43.70178622 23.22089027 42.953125 27.0390625 C41.68180116 32.70337664 40.59677905 37.37435351 35.65625 40.9296875 C27.84538735 45.6696127 19.12072067 45.89101515 10.27734375 44.11328125 C3.45523239 41.97134587 -1.08021955 38.96516998 -4.671875 32.7265625 C-8.55332259 24.48995574 -12.34253814 15.77714315 -9.671875 6.7265625 C-7.544839 1.3828739 -5.48876621 0.32122002 0 0 Z " transform="translate(15.671875,54.2734375)"/>
<path fill="#959595c7" d="M0 0 C2.46675889 1.5629083 4.70001865 3.28643914 6.984375 5.109375 C7.62487793 5.61355957 8.26538086 6.11774414 8.92529297 6.63720703 C12.54149268 9.4892473 16.13785159 12.36576058 19.703125 15.28125 C20.31091797 15.7772168 20.91871094 16.27318359 21.54492188 16.78417969 C22.984375 18.109375 22.984375 18.109375 23.984375 20.109375 C19.79072053 20.8339331 16.16289859 21.00098615 11.984375 20.109375 C8.66693082 17.56808758 6.07134495 14.86154001 3.359375 11.7109375 C1.21714205 9.3643468 -0.04203704 8.09242975 -3.015625 7.109375 C-6.36780711 7.41411883 -9.50251179 7.9810967 -12.765625 8.796875 C-15.015625 9.109375 -15.015625 9.109375 -18.015625 7.109375 C-17.890625 4.796875 -17.890625 4.796875 -17.015625 2.109375 C-11.95753316 -1.55774158 -5.7828835 -2.55522759 0 0 Z " transform="translate(87.015625,29.890625)"/>
<path fill="#959595c7" d="M0 0 C2.5954926 1.11849958 4.64557104 2.39698454 7 4 C6.67 5.65 6.34 7.3 6 9 C3 10 3 10 0.25 9 C-3.82445674 7.746321 -5.89515447 7.79685562 -10 9 C-13.98194767 11.83447802 -17.28169053 15.06220708 -20.25 18.9375 C-24.70362711 22.27772033 -29.62434796 21.38581235 -35 21 C-32.05844397 17.00432704 -28.76507272 14.00902631 -24.8125 11.0625 C-24.23661133 10.6308252 -23.66072266 10.19915039 -23.06738281 9.75439453 C-21.91362073 8.89438169 -20.75725954 8.03784312 -19.59814453 7.18505859 C-18.20416648 6.15139384 -16.83241875 5.08788337 -15.46484375 4.01953125 C-10.42135301 0.27471714 -6.29088736 -1.39290065 0 0 Z " transform="translate(52,29)"/>
</svg>
