
<svg id="Layer_1" viewBox="0 0 512 512" xmlns="http://www.w3.org/2000/svg" data-name="Layer 1" style="shape-rendering:geometricPrecision; text-rendering:geometricPrecision; image-rendering:optimizeQuality; fill-rule:evenodd; clip-rule:evenodd" xmlns:xlink="http://www.w3.org/1999/xlink">
<g><path fill="#959595c7" style="opacity:0.939" d="M 210.5,20.5 C 226.151,18.3935 236.317,24.7268 241,39.5C 241.469,45.1815 241.302,50.8482 240.5,56.5C 224.255,54.4493 208.089,52.116 192,49.5C 191.182,35.1891 197.349,25.5224 210.5,20.5 Z"/></g>
<g><path fill="#959595c7" tyle="opacity:0.943" d="M 287.5,20.5 C 307.383,19.5458 318.05,29.0458 319.5,49C 303.332,52.0649 286.998,54.5649 270.5,56.5C 267.054,44.3317 269.721,33.8317 278.5,25C 281.592,23.4541 284.592,21.9541 287.5,20.5 Z"/></g>
<g><path fill="#959595c7" style="opacity:0.935" d="M 148.5,59.5 C 162.721,59.3878 170.721,66.3878 172.5,80.5C 171.645,85.4835 170.978,90.4835 170.5,95.5C 156.933,93.7287 143.433,91.7287 130,89.5C 129.46,79.8556 132.293,71.3556 138.5,64C 141.815,62.1702 145.149,60.6702 148.5,59.5 Z"/></g>
<g><path fill="#959595c7" style="opacity:0.265" d="M 254.5,59.5 C 256.561,60.7514 256.894,62.4181 255.5,64.5C 254.548,62.9547 254.215,61.288 254.5,59.5 Z"/></g>
<g><path fill="#959595c7" style="opacity:0.937" d="M 355.5,59.5 C 367.621,58.819 375.454,64.1523 379,75.5C 379.652,80.077 380.485,84.577 381.5,89C 367.991,91.6692 354.324,93.8358 340.5,95.5C 338.588,87.8292 338.422,80.1625 340,72.5C 343.266,65.7209 348.433,61.3876 355.5,59.5 Z"/></g>
<g><path fill="#959595c7" style="opacity:0.888" d="M 189.5,64.5 C 198.853,65.7651 208.187,67.2651 217.5,69C 212.833,73.4936 209.166,78.6602 206.5,84.5C 200.209,83.2552 193.876,82.2552 187.5,81.5C 188.085,75.8219 188.751,70.1553 189.5,64.5 Z"/></g>
<g><path fill="#959595c7" style="opacity:0.918" d="M 319.5,64.5 C 320.693,64.9704 321.36,65.9704 321.5,67.5C 322.045,71.6935 322.711,75.8602 323.5,80C 323.095,80.9454 322.428,81.6121 321.5,82C 306.102,83.8426 290.768,86.0093 275.5,88.5C 274.221,82.8756 273.221,77.209 272.5,71.5C 288.336,69.429 304.003,67.0957 319.5,64.5 Z"/></g>
<g><path fill="#959595c7" style="opacity:0.938" d="M 238.5,75.5 C 249.117,75.6251 256.284,80.6251 260,90.5C 260.753,95.5315 261.587,100.531 262.5,105.5C 248.888,107.873 235.222,109.873 221.5,111.5C 219.58,103.837 219.414,96.1704 221,88.5C 224.691,81.0906 230.525,76.7572 238.5,75.5 Z"/></g>
<g><path fill="#959595c7" style="opacity:0.939" d="M 89.5,83.5 C 103.471,83.9727 111.138,91.1393 112.5,105C 111.972,109.866 111.305,114.699 110.5,119.5C 97.1907,117.646 83.8574,115.98 70.5,114.5C 69.2025,103.552 72.5359,94.3852 80.5,87C 83.4588,85.3957 86.4588,84.2291 89.5,83.5 Z"/></g>
<g><path fill="#959595c7" style="opacity:0.939" d="M 417.5,83.5 C 428.959,83.7975 436.126,89.4641 439,100.5C 439.829,105.137 440.329,109.804 440.5,114.5C 427.789,115.792 415.122,117.459 402.5,119.5C 401.833,119.167 401.167,118.833 400.5,118.5C 395.911,106.317 398.244,95.8171 407.5,87C 410.776,85.3077 414.109,84.141 417.5,83.5 Z"/></g>
<g><path fill="#959595c7" style="opacity:0.976" d="M 185.5,96.5 C 190.662,97.1245 195.829,97.7911 201,98.5C 202.658,98.6752 203.991,99.3418 205,100.5C 213.568,161.803 221.568,223.136 229,284.5C 221.167,278.667 213.333,272.833 205.5,267C 196.058,261.504 186.058,260.171 175.5,263C 169.893,265.719 164.393,268.553 159,271.5C 144.36,269.313 129.693,267.313 115,265.5C 108.328,265.615 105.161,269.115 105.5,276C 101.578,302.115 98.4113,328.282 96,354.5C 96.8333,356.667 98.3333,358.167 100.5,359C 136.821,364.082 173.155,369.082 209.5,374C 218.422,380.378 227.256,386.878 236,393.5C 237.985,402.05 239.152,410.716 239.5,419.5C 175.848,410.752 112.181,402.085 48.5,393.5C 52.6039,365.817 52.4372,338.151 48,310.5C 47.3333,299.5 47.3333,288.5 48,277.5C 53.0279,238.472 58.1946,199.472 63.5,160.5C 77.3368,162.102 91.0035,164.269 104.5,167C 102.399,177.046 101.232,187.213 101,197.5C 104.594,198.327 108.261,198.993 112,199.5C 113.326,199.245 114.326,198.578 115,197.5C 117.672,177.457 120.505,157.457 123.5,137.5C 124.167,137.167 124.833,136.833 125.5,136.5C 138.128,138.495 150.795,140.162 163.5,141.5C 161.967,157.562 159.967,173.562 157.5,189.5C 162.515,190.085 167.515,190.752 172.5,191.5C 176.589,159.786 180.922,128.119 185.5,96.5 Z"/></g>
<g><path fill="#959595c7" style="opacity:0.979" d="M 320.5,96.5 C 322.167,96.5 323.833,96.5 325.5,96.5C 329.74,128.183 334.074,159.85 338.5,191.5C 343.511,190.808 348.511,189.974 353.5,189C 351.047,173.546 348.713,158.046 346.5,142.5C 360.106,140.091 373.772,138.091 387.5,136.5C 390.413,157.468 393.079,178.468 395.5,199.5C 399.853,199.235 404.187,198.735 408.5,198C 409.624,197.161 410.291,195.994 410.5,194.5C 409.084,184.835 407.75,175.168 406.5,165.5C 420.218,164.244 433.884,162.577 447.5,160.5C 452.83,200.472 457.997,240.472 463,280.5C 463.667,289.167 463.667,297.833 463,306.5C 458.623,335.493 458.456,364.493 462.5,393.5C 393.511,402.915 324.511,412.249 255.5,421.5C 254.086,409.767 252.252,398.101 250,386.5C 228.976,369.975 207.809,353.642 186.5,337.5C 197.091,323.319 207.925,309.319 219,295.5C 224.833,300 230.667,304.5 236.5,309C 241.274,310.361 244.774,308.861 247,304.5C 241.197,255.906 234.697,207.406 227.5,159C 241.006,156.331 254.672,154.165 268.5,152.5C 270.665,168.486 272.832,184.486 275,200.5C 279.713,199.232 284.546,198.565 289.5,198.5C 285.219,166.532 281.219,134.532 277.5,102.5C 292.045,101.059 306.379,99.0588 320.5,96.5 Z M 391.5,265.5 C 396.535,264.502 400.702,265.835 404,269.5C 408.113,296.625 411.946,323.791 415.5,351C 415.6,354.804 413.934,357.471 410.5,359C 373.007,364.208 335.507,369.374 298,374.5C 291.49,373.853 288.49,370.186 289,363.5C 285.704,338.296 282.204,313.129 278.5,288C 279.523,282.484 282.856,279.818 288.5,280C 323.033,275.561 357.367,270.727 391.5,265.5 Z"/></g>
<g><path fill="#959595c7" style="opacity:0.916" d="M 127.5,104.5 C 140.854,106.336 154.187,108.336 167.5,110.5C 167.833,110.833 168.167,111.167 168.5,111.5C 167.425,116.434 166.758,121.434 166.5,126.5C 152.772,125.301 139.105,123.634 125.5,121.5C 126.167,115.833 126.833,110.167 127.5,104.5 Z"/></g>
<g><path fill="#959595c7" style="opacity:0.912" d="M 381.5,104.5 C 382.725,105.152 383.392,106.319 383.5,108C 383.981,112.037 384.648,116.037 385.5,120C 385.095,120.945 384.428,121.612 383.5,122C 370.781,123.603 358.114,125.436 345.5,127.5C 343.93,121.941 342.93,116.274 342.5,110.5C 355.666,108.733 368.666,106.733 381.5,104.5 Z"/></g>
<g><path fill="#959595c7" style="opacity:0.916" d="M 256.5,121.5 C 259.167,121.5 261.833,121.5 264.5,121.5C 264.88,126.373 265.547,131.206 266.5,136C 266.355,136.772 266.022,137.439 265.5,138C 252.446,139.59 239.446,141.423 226.5,143.5C 225.035,137.915 224.035,132.248 223.5,126.5C 234.67,125.096 245.67,123.429 256.5,121.5 Z"/></g>
<g><path fill="#959595c7" style="opacity:0.912" d="M 67.5,128.5 C 80.4579,130.47 93.4579,132.303 106.5,134C 107.516,134.519 108.182,135.353 108.5,136.5C 107.777,141.561 106.777,146.561 105.5,151.5C 92.1963,149.337 78.863,147.337 65.5,145.5C 66.4122,139.869 67.0789,134.202 67.5,128.5 Z"/></g>
<g><path fill="#959595c7" style="opacity:0.914" d="M 435.5,129.5 C 438.167,129.5 440.833,129.5 443.5,129.5C 443.474,134.795 444.141,139.961 445.5,145C 431.991,147.669 418.324,149.836 404.5,151.5C 403.646,145.858 402.98,140.191 402.5,134.5C 413.692,133.229 424.692,131.563 435.5,129.5 Z"/></g>
<g><path fill="#959595c7" style="opacity:0.937" d="M 180.5,276.5 C 190.942,275.393 199.608,278.727 206.5,286.5C 196.186,300.808 185.519,314.808 174.5,328.5C 155.576,315.957 153.743,301.29 169,284.5C 172.15,280.689 175.983,278.023 180.5,276.5 Z"/></g>
<g><path fill="#959595c7" style="opacity:0.943" d="M 119.5,281.5 C 129.443,282.305 139.276,283.638 149,285.5C 139.822,304.28 142.989,320.78 158.5,335C 167.167,341.667 175.833,348.333 184.5,355C 160.162,352.166 135.829,349 111.5,345.5C 114.073,324.155 116.74,302.821 119.5,281.5 Z"/></g>
<g><path fill="#959595c7" style="opacity:0.973" d="M 385.5,281.5 C 387.467,281.261 389.301,281.594 391,282.5C 394.256,303.539 396.756,324.539 398.5,345.5C 366.875,350.578 335.209,354.578 303.5,357.5C 300.056,336.414 297.39,315.414 295.5,294.5C 325.647,290.317 355.647,285.984 385.5,281.5 Z"/></g>
<g><path fill="#959595c7" style="opacity:0.973" d="M 30.5,406.5 C 94.8786,414.792 159.212,423.459 223.5,432.5C 224.647,432.818 225.481,433.484 226,434.5C 228.215,450.504 230.382,466.504 232.5,482.5C 162.628,473.892 92.9617,464.225 23.5,453.5C 25.9182,437.815 28.2515,422.149 30.5,406.5 Z"/></g>
<g><path fill="#959595c7" style="opacity:0.974" d="M 475.5,406.5 C 477.167,406.5 478.833,406.5 480.5,406.5C 482.874,422.787 484.874,439.12 486.5,455.5C 407.224,465.638 328.057,476.305 249,487.5C 245.905,471.34 243.405,455.006 241.5,438.5C 319.697,428.281 397.697,417.614 475.5,406.5 Z"/></g>
</svg>
