<svg id="Layer_1" viewBox="0 0 512 512" xmlns="http://www.w3.org/2000/svg" data-name="Layer 1" style="shape-rendering:geometricPrecision; text-rendering:geometricPrecision; image-rendering:optimizeQuality; fill-rule:evenodd; clip-rule:evenodd" xmlns:xlink="http://www.w3.org/1999/xlink">
<g><path fill="#959595c7" style="opacity:0.987" d="M 180.5,100.5 C 186.245,100.211 191.912,100.711 197.5,102C 204.802,105.651 212.136,109.318 219.5,113C 250.649,124.176 280.316,121.176 308.5,104C 327.368,96.6229 342.201,101.456 353,118.5C 360.862,135.088 366.529,152.421 370,170.5C 377.161,202.957 381.328,235.791 382.5,269C 382.616,274.275 382.116,279.442 381,284.5C 309.163,324.75 234.996,329.584 158.5,299C 147.775,294.892 137.941,289.392 129,282.5C 128.553,229.847 136.553,178.513 153,128.5C 157.966,114.791 167.132,105.457 180.5,100.5 Z M 211.5,155.5 C 220.359,158.283 229.359,160.783 238.5,163C 258.9,167.377 278.4,164.877 297,155.5C 302.258,157.179 303.424,160.346 300.5,165C 270.605,180.092 240.605,180.092 210.5,165C 207.908,161.583 208.241,158.416 211.5,155.5 Z"/></g>
<g><path fill="#959595c7" style="opacity:0.985" d="M 511.5,255.5 C 511.5,261.5 511.5,267.5 511.5,273.5C 508.693,281.394 505.193,289.061 501,296.5C 478.612,328.558 450.778,354.725 417.5,375C 381.297,393.288 342.963,404.288 302.5,408C 240.595,415.11 180.261,408.443 121.5,388C 99.6477,379.746 79.6477,368.413 61.5,354C 42.0918,335.938 24.9251,316.105 10,294.5C 5.61848,286.751 2.11848,278.751 -0.5,270.5C -0.5,264.833 -0.5,259.167 -0.5,253.5C 2.86232,242.969 9.86232,235.802 20.5,232C 25.3745,230.198 30.3745,228.865 35.5,228C 63.4337,224.989 91.1004,226.656 118.5,233C 119.122,234.569 119.456,236.236 119.5,238C 117.791,253.13 117.291,268.297 118,283.5C 119.002,287.164 120.836,290.331 123.5,293C 200.107,336.892 279.107,341.559 360.5,307C 369.94,303.114 378.94,298.447 387.5,293C 389.956,290.592 391.789,287.759 393,284.5C 393.637,267.134 393.137,249.8 391.5,232.5C 418.334,227.483 445.334,226.316 472.5,229C 486.277,230.471 497.777,236.305 507,246.5C 508.546,249.592 510.046,252.592 511.5,255.5 Z"/></g>
</svg>
