<svg id="Layer_1" viewBox="0 0 512 512" xmlns="http://www.w3.org/2000/svg" data-name="Layer 1" style="shape-rendering:geometricPrecision; text-rendering:geometricPrecision; image-rendering:optimizeQuality; fill-rule:evenodd; clip-rule:evenodd" xmlns:xlink="http://www.w3.org/1999/xlink">
<g><path fill="#959595c7" style="opacity:0.991" d="M 54.5,-0.5 C 58.8333,-0.5 63.1667,-0.5 67.5,-0.5C 159.886,48.8216 256.886,60.3216 358.5,34C 388.245,25.7029 416.579,14.2029 443.5,-0.5C 447.833,-0.5 452.167,-0.5 456.5,-0.5C 466.997,4.11527 473.497,12.1153 476,23.5C 476.167,57.6667 476.333,91.8333 476.5,126C 476.631,163.853 476.131,201.686 475,239.5C 467.352,310.767 439.686,372.767 392,425.5C 382.132,435.037 371.965,444.203 361.5,453C 337.778,470.389 313.778,487.389 289.5,504C 282.292,507.235 274.958,509.735 267.5,511.5C 259.5,511.5 251.5,511.5 243.5,511.5C 230.429,508.466 218.429,502.966 207.5,495C 188.167,481 168.833,467 149.5,453C 93.2164,406.988 57.3831,348.155 42,276.5C 39.4591,264.254 37.4591,251.921 36,239.5C 34.8691,201.686 34.3691,163.853 34.5,126C 34.6667,91.8333 34.8333,57.6667 35,23.5C 37.5027,12.1153 44.0027,4.11527 54.5,-0.5 Z M 148.5,132.5 C 183.604,131.454 205.77,147.788 215,181.5C 215.667,187.833 215.667,194.167 215,200.5C 213.431,203.128 211.098,204.795 208,205.5C 196.144,197.99 183.31,192.824 169.5,190C 156.298,188.674 143.298,189.674 130.5,193C 121.406,196.381 112.739,200.548 104.5,205.5C 98.429,203.17 95.7623,198.67 96.5,192C 99.5096,159.499 116.843,139.665 148.5,132.5 Z M 347.5,132.5 C 387.223,132.722 409.557,152.556 414.5,192C 415.238,198.67 412.571,203.17 406.5,205.5C 398.261,200.548 389.594,196.381 380.5,193C 363.174,188.334 345.841,188.334 328.5,193C 319.786,196.71 311.286,200.876 303,205.5C 300.861,204.764 298.861,203.764 297,202.5C 292.788,175.424 302.288,154.59 325.5,140C 332.578,136.364 339.911,133.864 347.5,132.5 Z M 175.5,309.5 C 188.027,315.734 201.027,320.901 214.5,325C 256.719,335.68 296.886,330.513 335,309.5C 340.546,310.544 343.379,313.878 343.5,319.5C 338.69,366.143 313.357,394.309 267.5,404C 226.531,406.937 196.364,390.437 177,354.5C 170.775,341.39 168.442,327.723 170,313.5C 171.5,311.531 173.333,310.198 175.5,309.5 Z"/></g>
</svg>
