<svg id="Layer_1" viewBox="0 0 128 128" xmlns="http://www.w3.org/2000/svg" data-name="Layer 1">
<path fill="#959595c7" d="M0 0 C6.12358045 0.55455894 10.36946611 2.49196114 15.75 5.56054688 C20.04830966 7.87760443 23.172774 8.19942367 28 8 C30.4375 9.3125 30.4375 9.3125 32 11 C32 11.99 32 12.98 32 14 C32.61488281 14.02578125 33.22976562 14.0515625 33.86328125 14.078125 C36.30240589 14.24929164 38.61215154 14.46745826 41 15 C42.0260734 16.31337396 43.02727325 17.64664105 44 19 C47.61303735 19.47608608 47.61303735 19.47608608 49.96484375 19.43359375 C53.01709082 20.2830675 54.05787591 22.55795878 56 25 C63.61609843 29.57185707 72.22309019 32.1979994 80.6875 34.7265625 C84.13760578 36.05290034 86.35703859 37.42991437 89 40 C90.09863652 43.77656303 90.42280815 45.95541516 88.9375 49.625 C83.09047629 56.79231939 76.93484407 58.95159443 68 61 C63.46061546 61.46035129 58.99899468 61.41819476 54.44140625 61.30078125 C52.51936119 61.27556145 52.51936119 61.27556145 50.55848694 61.24983215 C47.0918942 61.20276707 43.62639321 61.12861995 40.16043854 61.04798126 C37.24557211 60.98324488 34.33051537 60.93387181 31.41536522 60.88386345 C23.11931712 60.73997663 14.82560241 60.53885178 6.53149414 60.31030273 C2.63648437 60.20369699 -1.25874597 60.11459081 -5.15425968 60.02869701 C-8.20086287 59.95839047 -11.2470271 59.87544645 -14.29321098 59.78899574 C-15.73194866 59.75035977 -17.17082225 59.71645836 -18.60978889 59.68758202 C-20.5983366 59.64656494 -22.58644741 59.58580457 -24.57446289 59.52416992 C-25.69865128 59.49530197 -26.82283966 59.46643402 -27.98109436 59.43669128 C-31.63668443 58.90790221 -34.36624224 57.63375776 -37 55 C-37.28538127 50.52772963 -37.23197982 46.04276604 -37.25 41.5625 C-37.270625 40.31533203 -37.29125 39.06816406 -37.3125 37.78320312 C-37.35491377 27.69402835 -36.3611445 19.15021639 -30 11 C-29.505 10.360625 -29.01 9.72125 -28.5 9.0625 C-27 8 -27 8 -25.09765625 8.15234375 C-22.23329451 9.30982326 -21.4980553 10.86994414 -19.9375 13.5 C-17.83613536 17.25834474 -17.83613536 17.25834474 -14 19 C-12.27204648 19.06802967 -10.54164635 19.08495645 -8.8125 19.0625 C-7.91144531 19.05347656 -7.01039062 19.04445313 -6.08203125 19.03515625 C-5.05142578 19.01775391 -5.05142578 19.01775391 -4 19 C-4 18.34 -4 17.68 -4 17 C-4.515625 16.5875 -5.03125 16.175 -5.5625 15.75 C-7 14 -7 14 -7.0625 11.3125 C-5.61474085 6.79889794 -3.00096529 3.61584197 0 0 Z M14.6875 30.5625 C13.53591272 31.67005791 12.38357114 32.77683208 11.23046875 33.8828125 C10.67665527 34.42067383 10.1228418 34.95853516 9.55224609 35.51269531 C7.59260134 37.3903543 5.56037329 39.17146576 3.5 40.9375 C0.52775706 43.50672695 -2.26523209 46.17977059 -5 49 C0.07493362 49.595692 0.07493362 49.595692 4.75 47.98779297 C6.4310065 46.5462681 7.96888942 45.03723841 9.5 43.4375 C10.62157577 42.33119924 11.74396959 41.22572721 12.8671875 40.12109375 C13.40182617 39.58339355 13.93646484 39.04569336 14.48730469 38.49169922 C17.00203715 36.01187105 19.7095551 33.76753459 22.4140625 31.5 C24.195199 29.81537829 25.58133297 27.99473183 27 26 C25.9715642 24.78378526 25.9715642 24.78378526 23.83203125 24.58984375 C19.69804721 25.18855868 17.53361691 27.72603236 14.6875 30.5625 Z M33.67578125 30.5546875 C32.89589844 31.32039063 32.11601563 32.08609375 31.3125 32.875 C30.45398438 33.69871094 29.59546875 34.52242187 28.7109375 35.37109375 C27.81632812 36.23863281 26.92171875 37.10617188 26 38 C24.15162507 39.65233517 22.29770479 41.29849435 20.4375 42.9375 C17.26665176 45.62327354 17.26665176 45.62327354 15 49 C19.40508308 49.45152102 21.40286094 49.42805122 25.0625 46.8046875 C26.05835909 45.84515305 27.0371828 44.86768561 28 43.875 C29.03554222 42.86234359 30.07199632 41.85061879 31.109375 40.83984375 C31.60244141 40.34983887 32.09550781 39.85983398 32.60351562 39.35498047 C34.40205648 37.60989275 36.30818678 36.02015671 38.25 34.4375 C39.1575 33.633125 40.065 32.82875 41 32 C41 31.34 41 30.68 41 30 C37.76244307 28.91126404 36.58452732 28.60900525 33.67578125 30.5546875 Z " transform="translate(37,27)"/>
<path fill="#959595c7" d="M0 0 C0.99 0.33 1.98 0.66 3 1 C3.48648067 5.86480669 3.58235961 9.03546689 1 13.3125 C-5.7291313 20.1553631 -15.27394958 22.09121927 -24.52661133 22.22607422 C-27.10834537 22.22221823 -29.68811923 22.20697205 -32.26953125 22.1796875 C-33.68202985 22.17159342 -35.09453105 22.16394368 -36.5070343 22.15670776 C-51.40573765 22.05903438 -66.30013529 21.69585587 -81.19213867 21.25537109 C-85.01088302 21.14278834 -88.82986171 21.04332277 -92.64903545 20.94656563 C-95.6406421 20.86879512 -98.6319645 20.78265801 -101.62327003 20.6941185 C-103.03413499 20.6536712 -104.44508835 20.61618485 -105.85611534 20.58185196 C-107.80364755 20.53358171 -109.7508468 20.47239996 -111.69799805 20.41064453 C-112.79838913 20.37955597 -113.89878021 20.34846741 -115.03251648 20.31643677 C-118.06270247 19.99331374 -120.29137949 19.38469478 -123 18 C-123.9609375 15.87109375 -123.9609375 15.87109375 -124.375 13.4375 C-124.52710937 12.63183594 -124.67921875 11.82617188 -124.8359375 10.99609375 C-124.89007813 10.33738281 -124.94421875 9.67867187 -125 9 C-124.67 8.67 -124.34 8.34 -124 8 C-121.97513135 8.22792339 -119.9507319 8.46047212 -117.92825317 8.70870972 C-111.78610542 9.31970469 -105.60128594 9.3696154 -99.43359375 9.53515625 C-97.91210799 9.57834018 -96.39062881 9.62175623 -94.86915588 9.66539001 C-91.68114284 9.75597339 -88.49307109 9.8439156 -85.30493164 9.92993164 C-82.08673359 10.01690343 -78.86865132 10.10699298 -75.65063477 10.20043945 C-65.77343899 10.48724771 -55.89613364 10.74624797 -46.01699066 10.95639801 C-44.09389682 10.9979702 -42.1708772 11.04293492 -40.24786377 11.08807373 C-36.96859003 11.15902438 -33.68994912 11.20744093 -30.41015625 11.24609375 C-29.49769638 11.26769058 -28.58523651 11.28928741 -27.64512634 11.3115387 C-18.79863639 11.36046134 -9.94897513 9.73290448 -3 4 C-1.16699091 1.89424357 -1.16699091 1.89424357 0 0 Z " transform="translate(125,79)"/>
</svg>
