<?xml version="1.0" encoding="UTF-8"?>
<svg id="Layer_1" viewBox="0 0 512 512" xmlns="http://www.w3.org/2000/svg" data-name="Layer 1" style="shape-rendering:geometricPrecision; text-rendering:geometricPrecision; image-rendering:optimizeQuality; fill-rule:evenodd; clip-rule:evenodd" xmlns:xlink="http://www.w3.org/1999/xlink">
<g><path style="opacity:0.992" fill="#959595c7" d="M 174.5,1.5 C 176.476,37.2666 190.476,67.4333 216.5,92C 232.536,104.516 250.536,113.016 270.5,117.5C 271.667,231.165 271.833,344.832 271,458.5C 248.339,475.993 225.339,492.993 202,509.5C 150.214,502.054 98.3807,494.888 46.5,488C 41.4516,487.403 39.1182,484.57 39.5,479.5C 44.8875,463.505 50.3875,447.505 56,431.5C 71.7102,380.89 74.7102,329.556 65,277.5C 60.4061,254.047 52.0728,232.047 40,211.5C 39.1834,208.036 39.5167,204.702 41,201.5C 60.1652,181.862 69.6652,158.195 69.5,130.5C 68.7708,108.687 64.2708,87.6873 56,67.5C 55.0715,63.7559 55.5715,60.2559 57.5,57C 96.7313,38.7682 135.731,20.2682 174.5,1.5 Z M 244.5,168.5 C 253.85,168.365 256.517,172.532 252.5,181C 243.956,184.322 240.123,181.489 241,172.5C 241.69,170.65 242.856,169.316 244.5,168.5 Z M 244.5,224.5 C 253.85,224.365 256.517,228.532 252.5,237C 243.956,240.322 240.123,237.489 241,228.5C 241.69,226.65 242.856,225.316 244.5,224.5 Z M 244.5,280.5 C 253.85,280.365 256.517,284.532 252.5,293C 243.956,296.322 240.123,293.489 241,284.5C 241.69,282.65 242.856,281.316 244.5,280.5 Z M 244.5,336.5 C 253.85,336.365 256.517,340.532 252.5,349C 243.956,352.322 240.123,349.489 241,340.5C 241.69,338.65 242.856,337.316 244.5,336.5 Z M 244.5,392.5 C 253.85,392.365 256.517,396.532 252.5,405C 243.956,408.322 240.123,405.489 241,396.5C 241.69,394.65 242.856,393.316 244.5,392.5 Z"/></g>
<g><path style="opacity:0.974" fill="#959595c7" d="M 191.5,1.5 C 234,18.8125 276.5,18.8125 319,1.5C 319.1,47.6477 297.934,79.6477 255.5,97.5C 213.188,79.5567 191.855,47.5567 191.5,1.5 Z"/></g>
<g><path style="opacity:0.993" fill="#959595c7" d="M 295.5,511.5 C 291.5,511.5 287.5,511.5 283.5,511.5C 273.898,504.572 264.565,497.238 255.5,489.5C 264.382,481.79 273.715,474.623 283.5,468C 285.317,466.2 286.484,464.034 287,461.5C 287.667,344.833 287.667,228.167 287,111.5C 286.167,106.667 283.333,103.833 278.5,103C 305.325,86.5481 322.825,63.0481 331,32.5C 333.388,22.2837 335.055,11.9503 336,1.5C 375.212,19.8553 414.378,38.3553 453.5,57C 455.429,60.2559 455.929,63.7559 455,67.5C 444.002,93.4864 440.002,120.486 443,148.5C 445.926,169.354 454.926,187.02 470,201.5C 471.483,204.702 471.817,208.036 471,211.5C 453.122,243.474 443.122,277.807 441,314.5C 438.615,355.424 443.615,395.424 456,434.5C 461.279,449.505 466.446,464.505 471.5,479.5C 471.882,484.57 469.548,487.403 464.5,488C 407.979,495.527 351.646,503.361 295.5,511.5 Z"/></g>
</svg>
