
<svg id="Layer_1" viewBox="0 0 512 512" xmlns="http://www.w3.org/2000/svg" data-name="Layer 1" style="shape-rendering:geometricPrecision; text-rendering:geometricPrecision; image-rendering:optimizeQuality; fill-rule:evenodd; clip-rule:evenodd" xmlns:xlink="http://www.w3.org/1999/xlink">
<g><path style="opacity:0.931" fill="#959595c7" d="M 162.5,10.5 C 167.866,10.042 173.033,10.7086 178,12.5C 182.509,31.8445 190.509,49.5111 202,65.5C 224.263,88.6903 250.763,95.1903 281.5,85C 303.83,74.8827 318.663,58.0494 326,34.5C 328.333,27.1667 330.667,19.8333 333,12.5C 339.345,10.1747 345.845,9.84135 352.5,11.5C 346.982,42.0423 332.982,67.8757 310.5,89C 286.259,106.043 259.593,111.043 230.5,104C 205.649,96.155 187.149,80.655 175,57.5C 167.922,43.601 162.422,29.101 158.5,14C 159.347,12.2294 160.68,11.0627 162.5,10.5 Z"/></g>
<g><path style="opacity:0.98" fill="#959595c7" d="M -0.5,187.5 C -0.5,183.833 -0.5,180.167 -0.5,176.5C 17.3394,137.818 39.5061,101.818 66,68.5C 91.4376,49.0367 118.604,32.5367 147.5,19C 154.3,45.2905 166.3,68.7905 183.5,89.5C 137.082,117.786 107.248,158.452 94,211.5C 90.4254,224.945 88.592,238.612 88.5,252.5C 67.7939,243.649 48.4606,232.482 30.5,219C 17.9288,210.596 7.59543,200.096 -0.5,187.5 Z"/></g>
<g><path style="opacity:0.98" fill="#959595c7" d="M 511.5,176.5 C 511.5,180.167 511.5,183.833 511.5,187.5C 507.262,194.757 501.928,201.257 495.5,207C 473.846,225.125 450.179,240.292 424.5,252.5C 420.193,200.683 400.526,155.85 365.5,118C 353.823,107.153 341.157,97.6535 327.5,89.5C 344.864,69.1071 356.697,45.7737 363,19.5C 363.414,19.0426 363.914,18.7093 364.5,18.5C 393.433,32.8724 420.6,49.8724 446,69.5C 471.913,102.658 493.746,138.324 511.5,176.5 Z"/></g>
<g><path style="opacity:0.954" fill="#959595c7" d="M 193.5,21.5 C 203.624,25.4858 213.957,28.9858 224.5,32C 245.167,36.6667 265.833,36.6667 286.5,32C 297.043,28.9858 307.376,25.4858 317.5,21.5C 305.926,68.2589 276.926,85.4256 230.5,73C 218.388,67.2215 209.221,58.3881 203,46.5C 198.702,38.5759 195.536,30.2426 193.5,21.5 Z"/></g>
<g><path style="opacity:0.991" fill="#959595c7" d="M 191.5,98.5 C 193.308,98.4914 194.975,98.9914 196.5,100C 218.351,115.509 242.685,121.509 269.5,118C 286.911,115.788 302.578,109.455 316.5,99C 320.381,99.4265 324.047,100.76 327.5,103C 364.872,127.207 390.039,160.707 403,203.5C 406.775,216.269 409.442,229.269 411,242.5C 411.667,311.833 411.667,381.167 411,450.5C 410.925,456.059 409.258,461.059 406,465.5C 393.391,478.224 378.224,486.391 360.5,490C 334.863,496.097 308.863,499.431 282.5,500C 248.719,501.418 215.053,500.084 181.5,496C 159.746,493.636 139.079,487.636 119.5,478C 113.042,473.876 107.542,468.71 103,462.5C 101.173,458.719 100.173,454.719 100,450.5C 99.3333,381.5 99.3333,312.5 100,243.5C 104.949,194.104 125.449,152.604 161.5,119C 171.046,111.402 181.046,104.569 191.5,98.5 Z M 324.5,203.5 C 337.171,203.333 349.838,203.5 362.5,204C 369.262,205.763 373.762,209.93 376,216.5C 377.579,228.108 377.912,239.775 377,251.5C 376.209,258.08 373.543,263.747 369,268.5C 364.833,272.667 360.667,276.833 356.5,281C 346.999,285.876 337.665,285.542 328.5,280C 320.768,272.945 314.601,264.778 310,255.5C 309.333,242.5 309.333,229.5 310,216.5C 312.584,209.487 317.417,205.154 324.5,203.5 Z"/></g>
<g><path style="opacity:0.949" fill="#959595c7" d="M 324.5,215.5 C 336.838,215.333 349.171,215.5 361.5,216C 363.333,216.5 364.5,217.667 365,219.5C 365.667,230.5 365.667,241.5 365,252.5C 361.263,259.447 356.429,265.614 350.5,271C 344.985,273.238 339.651,272.905 334.5,270C 329.954,265.123 325.787,259.956 322,254.5C 320.424,243.225 320.091,231.892 321,220.5C 321.697,218.416 322.864,216.749 324.5,215.5 Z"/></g>
</svg>
