<svg id="Layer_1" viewBox="0 0 128 128" xmlns="http://www.w3.org/2000/svg" data-name="Layer 1">
<path fill="#959595c7" d="M0 0 C1.2375 0.7115625 1.2375 0.7115625 2.5 1.4375 C6.52795901 3.23569599 9.63173579 3.6234255 14 4 C14.66 5.65 15.32 7.3 16 9 C17.65 9 19.3 9 21 9 C21.33 7.68 21.66 6.36 22 5 C33.88 5 45.76 5 58 5 C58.495 6.98 58.495 6.98 59 9 C60.65 9 62.3 9 64 9 C64.12375 8.21625 64.2475 7.4325 64.375 6.625 C66 4 66 4 68.18359375 3.29296875 C69.95493591 2.96923162 71.73147148 2.67285889 73.51171875 2.40234375 C76.21066144 1.965937 78.52514265 1.15493343 81 0 C82.06927733 7.64747146 82.18617216 15.24406568 82.18530273 22.95410156 C82.18747451 25.09981587 82.20564554 27.24500214 82.22460938 29.390625 C82.3428453 57.44235067 82.3428453 57.44235067 74 67 C64.39842535 75.79379399 52.50135455 75.34334834 40.125 75.3125 C38.19720703 75.33666992 38.19720703 75.33666992 36.23046875 75.36132812 C25.26553897 75.36689408 14.73504214 74.8966706 6.6171875 66.8125 C1.56589675 61.15114998 0.00619564 56.37170702 -1 49 C-1.11214844 48.1853125 -1.22429688 47.370625 -1.33984375 46.53125 C-2.11059729 39.35162794 -2.10184307 32.15033108 -2.125 24.9375 C-2.12967285 23.93251465 -2.1343457 22.9275293 -2.13916016 21.89208984 C-2.10160414 4.20320829 -2.10160414 4.20320829 0 0 Z M19.5625 30.625 C16.15164692 37.99244266 16.50900842 45.33953126 19 53 C21.47410579 57.09507165 23.52699854 58.52405062 28 60 C31.97169502 60.40771575 35.9468983 60.32445507 39.9375 60.3125 C41.00935547 60.32861328 42.08121094 60.34472656 43.18554688 60.36132812 C51.06103644 60.41152605 51.06103644 60.41152605 58 57 C62.15837041 52.28718021 62.62659675 48.50279571 62.5 42.5 C62.51546875 41.76652344 62.5309375 41.03304687 62.546875 40.27734375 C62.51001673 35.12640031 61.62640578 31.901829 58 28 C52.39825358 24.62570696 46.37005043 24.53813568 40 24.625 C39.14921875 24.61339844 38.2984375 24.60179688 37.421875 24.58984375 C30.60254362 24.62122104 24.4142763 25.40001013 19.5625 30.625 Z " transform="translate(24,53)"/>
<path fill="#959595c7" d="M0 0 C0.74701172 -0.02900391 1.49402344 -0.05800781 2.26367188 -0.08789062 C7.55202695 -0.14824937 10.49031991 0.82228044 14.6875 4.3125 C16.87452362 7.30143229 17.6875 8.59194454 17.6875 12.3125 C19.33298828 12.35117187 19.33298828 12.35117187 21.01171875 12.390625 C22.46618448 12.4469269 23.92061003 12.50427377 25.375 12.5625 C26.09623047 12.57667969 26.81746094 12.59085938 27.56054688 12.60546875 C32.48050319 12.83012429 35.07891228 13.69021745 38.6875 17.3125 C43.13499496 23.76136769 42.30416362 33.5810315 41 41 C39.97369541 45.27503854 38.15748966 47.53650827 34.6875 50.3125 C31.47298731 51.91975635 28.25137464 51.36998185 24.6875 51.3125 C24.3575 49.6625 24.0275 48.0125 23.6875 46.3125 C22.0375 46.3125 20.3875 46.3125 18.6875 46.3125 C18.0275 48.2925 17.3675 50.2725 16.6875 52.3125 C5.4675 52.3125 -5.7525 52.3125 -17.3125 52.3125 C-17.9725 50.3325 -18.6325 48.3525 -19.3125 46.3125 C-20.9625 46.3125 -22.6125 46.3125 -24.3125 46.3125 C-25.3025 48.7875 -25.3025 48.7875 -26.3125 51.3125 C-31.26463111 51.60380183 -34.46984332 51.62145436 -38.3125 48.3125 C-41.19944265 42.85241282 -41.77993259 38.43359128 -41.6875 32.3125 C-41.69910156 31.54421875 -41.71070312 30.7759375 -41.72265625 29.984375 C-41.69574898 24.710551 -40.94939032 20.91842196 -38.3125 16.3125 C-34.4487281 12.98402865 -30.41782849 12.78971196 -25.5 12.625 C-24.80712891 12.59083984 -24.11425781 12.55667969 -23.40039062 12.52148438 C-21.70497151 12.43963656 -20.00876542 12.37437635 -18.3125 12.3125 C-18.03277344 11.38050781 -17.75304687 10.44851563 -17.46484375 9.48828125 C-16.09247987 5.70613944 -14.35061052 3.90600898 -11.3125 1.3125 C-7.5284909 0.05116363 -3.9446504 0.05027167 0 0 Z M-9.3125 10.3125 C-9.3125 10.9725 -9.3125 11.6325 -9.3125 12.3125 C-3.0425 12.3125 3.2275 12.3125 9.6875 12.3125 C7.20475323 8.0289654 7.20475323 8.0289654 3.65625 7.8515625 C1.93921875 7.89410156 1.93921875 7.89410156 0.1875 7.9375 C-0.9571875 7.95039062 -2.101875 7.96328125 -3.28125 7.9765625 C-6.48683623 8.09673726 -6.48683623 8.09673726 -9.3125 10.3125 Z " transform="translate(64.3125,-0.3125)"/>
<path fill="#959595c7" d="M0 0 C1.18464844 -0.02449219 2.36929688 -0.04898438 3.58984375 -0.07421875 C5.30494141 -0.08001953 5.30494141 -0.08001953 7.0546875 -0.0859375 C8.09866699 -0.09415527 9.14264648 -0.10237305 10.21826172 -0.11083984 C13.83977767 0.49446981 15.50627015 1.8549512 18.125 4.375 C19.46446058 7.53323794 19.32350241 10.90936785 19.375 14.3125 C19.41367188 15.84197266 19.41367188 15.84197266 19.453125 17.40234375 C18.97336335 21.74875586 17.1719006 24.3280994 14.125 27.375 C5.13048447 29.04065102 -4.91225749 29.29558768 -13.875 27.375 C-16.80587207 25.12048302 -17.70314288 23.89057135 -18.875 20.375 C-19.02054833 18.2533532 -19.09580412 16.12643294 -19.125 14 C-19.15078125 12.87851563 -19.1765625 11.75703125 -19.203125 10.6015625 C-18.83896428 7.02064874 -18.0312444 5.22648207 -15.875 2.375 C-11.02630633 -0.85746245 -5.69954173 0.00616167 0 0 Z " transform="translate(63.875,81.625)"/>
<path fill="#959595c7" d="M0 0 C0.01981934 0.63800537 0.03963867 1.27601074 0.06005859 1.93334961 C0.48641045 15.05014684 1.18046262 27.99825719 3 41 C-1.21987348 40.18848587 -3.47038148 39.58952619 -6.3828125 36.34765625 C-10.67034963 27.47224727 -9.99381958 13.26593934 -7 4 C-3.78807947 0 -3.78807947 0 0 0 Z " transform="translate(19,73)"/>
<path fill="#959595c7" d="M0 0 C5.82258056 3.34874717 5.82258056 3.34874717 7 7 C7.35444435 9.51255306 7.60761044 11.91345771 7.75 14.4375 C7.81030396 15.49179199 7.81030396 15.49179199 7.87182617 16.56738281 C8.55938367 32.55625264 8.55938367 32.55625264 4.29296875 38.296875 C1.52614461 40.35196074 -0.60320557 40.69120051 -4 41 C-3.87882812 40.30261719 -3.75765625 39.60523438 -3.6328125 38.88671875 C-1.58824527 26.00594518 -0.87506116 13.00211458 0 0 Z " transform="translate(110,73)"/>
</svg>
