<svg id="Layer_1" viewBox="0 0 128 128" xmlns="http://www.w3.org/2000/svg" data-name="Layer 1">
<path fill="#959595c7" d="M0 0 C1.65 0 3.3 0 5 0 C5.4125 0.86882813 5.825 1.73765625 6.25 2.6328125 C10.75603866 11.62477358 15.17063217 17.67946617 25 21 C33.27527822 22.11195393 40.2181362 21.00162456 47 16 C51.54434395 11.40668683 54.30333364 5.80820447 57 0 C58.65 0 60.3 0 62 0 C61.649375 0.886875 61.29875 1.77375 60.9375 2.6875 C59.97159547 6.10036269 59.72389293 7.71858183 61 11 C63.25458975 12.77146338 64.64405542 12.99110139 67.5 13.0625 C71.36189868 11.42119306 72.17919201 8.70905331 74 5 C74.99 5.33 75.98 5.66 77 6 C76.39472778 11.68199292 74.90091705 16.68702938 73 22.0625 C68.75715555 34.12058388 66.46409025 46.89019743 72 59 C73.5448673 61.13338818 75.25539819 63.01964119 77 65 C77 66.32 77 67.64 77 69 C76.01 69.66 75.02 70.32 74 71 C73.54368209 72.91591865 73.54368209 72.91591865 73.61181641 75.14257812 C73.59763168 76.42400696 73.59763168 76.42400696 73.5831604 77.73132324 C73.58923309 78.65529907 73.59530579 79.5792749 73.6015625 80.53125 C73.59869232 81.47810669 73.59582214 82.42496338 73.59286499 83.4005127 C73.59082141 85.40454709 73.59637177 87.4086013 73.60888672 89.41259766 C73.6249361 92.48775652 73.60904785 95.56160098 73.58984375 98.63671875 C73.59182613 100.58073208 73.59566969 102.52474459 73.6015625 104.46875 C73.59548981 105.39272583 73.58941711 106.31670166 73.5831604 107.26867676 C73.59261688 108.12296265 73.60207336 108.97724854 73.61181641 109.85742188 C73.61539658 110.987547 73.61539658 110.987547 73.61904907 112.14050293 C73.8573836 114.41321703 73.8573836 114.41321703 77 116 C77.1875 118.625 77.1875 118.625 77 121 C73.78548731 122.60725635 70.56387464 122.05748185 67 122 C66.99453156 121.12676338 66.99453156 121.12676338 66.98895264 120.23588562 C66.94719109 114.18492494 66.87789099 108.13472729 66.79248047 102.08422852 C66.7642283 99.82519151 66.74303501 97.56605486 66.72900391 95.30688477 C66.70763348 92.06214224 66.66101268 88.81860308 66.609375 85.57421875 C66.60814636 84.56163498 66.60691772 83.54905121 66.60565186 82.50578308 C66.58593323 81.56503433 66.5662146 80.62428558 66.54589844 79.6550293 C66.53701599 78.82674118 66.52813354 77.99845306 66.51898193 77.14506531 C66.16336886 74.84857012 66.16336886 74.84857012 64.19805908 73.22956848 C60.92266677 71.39735242 57.70824544 71.64365191 54.0625 71.75 C53.35931641 71.75515625 52.65613281 71.7603125 51.93164062 71.765625 C48.91939364 71.81079459 46.07764671 71.98440745 43.12109375 72.578125 C41 73 41 73 39 72 C36.38481275 71.90131369 33.80215266 71.86103035 31.1875 71.875 C30.47529297 71.87113281 29.76308594 71.86726563 29.02929688 71.86328125 C25.20686505 71.87035328 21.73242296 72.24109699 18 73 C17.01 72.505 17.01 72.505 16 72 C13.36065948 71.84918054 10.76527332 71.7686922 8.125 71.75 C7.40441406 71.729375 6.68382813 71.70875 5.94140625 71.6875 C2.86062839 71.6648055 0.51802808 71.71108759 -2.20465088 73.22956848 C-4.47922105 75.47256996 -4.51207335 76.50083998 -4.54589844 79.6550293 C-4.57547638 81.06615242 -4.57547638 81.06615242 -4.60565186 82.50578308 C-4.60749481 84.02465874 -4.60749481 84.02465874 -4.609375 85.57421875 C-4.62591125 86.61318802 -4.64244751 87.65215729 -4.65948486 88.72261047 C-4.70810857 92.04429958 -4.72936814 95.36553042 -4.75 98.6875 C-4.77814758 100.93817428 -4.80807329 103.18882707 -4.83984375 105.43945312 C-4.9138711 110.95955182 -4.96542926 116.47952087 -5 122 C-12.75 122.125 -12.75 122.125 -15 121 C-15.1875 118.625 -15.1875 118.625 -15 116 C-13.515 115.01 -13.515 115.01 -12 114 C-11.54368209 112.08408135 -11.54368209 112.08408135 -11.61181641 109.85742188 C-11.60235992 109.00313599 -11.59290344 108.1488501 -11.5831604 107.26867676 C-11.58923309 106.34470093 -11.59530579 105.4207251 -11.6015625 104.46875 C-11.59869232 103.52189331 -11.59582214 102.57503662 -11.59286499 101.5994873 C-11.59082141 99.59545291 -11.59637177 97.5913987 -11.60888672 95.58740234 C-11.6249361 92.51224348 -11.60904785 89.43839902 -11.58984375 86.36328125 C-11.59182613 84.41926792 -11.59566969 82.47525541 -11.6015625 80.53125 C-11.59245346 79.14528625 -11.59245346 79.14528625 -11.5831604 77.73132324 C-11.59261688 76.87703735 -11.60207336 76.02275146 -11.61181641 75.14257812 C-11.61420319 74.38916138 -11.61658997 73.63574463 -11.61904907 72.85949707 C-11.8573836 70.58678297 -11.8573836 70.58678297 -15 69 C-14.64031946 65.85279531 -14.21443365 64.25017259 -12.125 61.8125 C-6.71844884 54.65677053 -6.07678951 45.68426575 -7 37 C-8.45523168 28.75576903 -10.75150507 20.72270248 -14.265625 13.11328125 C-15.12411068 10.64285173 -15.12734726 8.59697446 -15 6 C-13.68 6 -12.36 6 -11 6 C-9.68 8.31 -8.36 10.62 -7 13 C-3.26512223 12.5020163 -1.18762365 12.12508244 2 10 C1.46274105 6.62294375 0.88935377 3.303314 0 0 Z M2 36 C1.68398706 38.2258864 1.68398706 38.2258864 1.625 40.8125 C1.57601562 41.68519531 1.52703125 42.55789062 1.4765625 43.45703125 C1.81016736 46.13488539 1.81016736 46.13488539 3.85693359 48.12573242 C8.45415772 50.86714066 12.55204946 50.57348658 17.8125 50.53125 C18.85897705 50.5350769 19.9054541 50.53890381 20.98364258 50.54284668 C23.19255538 50.54556438 25.40150044 50.53821322 27.61035156 50.52148438 C30.98836119 50.50007377 34.3642439 50.52129197 37.7421875 50.546875 C39.89062969 50.5442317 42.03907055 50.53910668 44.1875 50.53125 C45.19594971 50.53934692 46.20439941 50.54744385 47.2434082 50.55578613 C51.66354777 50.49677804 54.28537065 50.42774369 58.13867188 48.12133789 C60.40060612 45.54343303 60.62276362 44.32884498 60.5 40.9375 C60.4896875 40.08027344 60.479375 39.22304688 60.46875 38.33984375 C59.91517335 35.57657365 59.22480532 34.68434554 57 33 C54.18819772 32.06273257 52.42877825 31.86386924 49.51611328 31.83886719 C48.61152374 31.82925964 47.7069342 31.8196521 46.77493286 31.80975342 C45.79990814 31.80550354 44.82488342 31.80125366 43.8203125 31.796875 C42.81539764 31.79117493 41.81048279 31.78547485 40.77511597 31.77960205 C38.64842786 31.77015423 36.52172513 31.76361893 34.39501953 31.75976562 C31.14459667 31.75005852 27.89480574 31.71903215 24.64453125 31.6875 C22.57812875 31.68096994 20.51172174 31.67571948 18.4453125 31.671875 C17.47433624 31.6595282 16.50335999 31.6471814 15.50296021 31.63446045 C10.01030827 31.65255695 6.08882372 31.91117628 2 36 Z " transform="translate(33,0)"/>
<path fill="#959595c7" d="M0 0 C1.96875 1.30859375 1.96875 1.30859375 2.96875 4.30859375 C3.62875 4.30859375 4.28875 4.30859375 4.96875 4.30859375 C5.29875 3.31859375 5.62875 2.32859375 5.96875 1.30859375 C9.09746465 -0.77100825 12.28399682 -1.98856413 15.96875 -2.69140625 C19.38384158 -2.00128373 22.19413656 -0.80870807 24.96875 1.30859375 C25.46375 2.79359375 25.46375 2.79359375 25.96875 4.30859375 C26.62875 4.30859375 27.28875 4.30859375 27.96875 4.30859375 C28.29875 3.31859375 28.62875 2.32859375 28.96875 1.30859375 C32.53125 0.12109375 32.53125 0.12109375 35.96875 -0.69140625 C35.99559312 2.12115656 36.01551188 4.93346616 36.03125 7.74609375 C36.03962891 8.54853516 36.04800781 9.35097656 36.05664062 10.17773438 C36.0652643 12.22154596 36.0210315 14.26543277 35.96875 16.30859375 C34.18958533 18.08775842 31.58561701 17.4362421 29.1796875 17.43798828 C27.9417041 17.44114044 26.7037207 17.4442926 25.42822266 17.44754028 C24.06673141 17.4457505 22.70524049 17.44369955 21.34375 17.44140625 C19.95751936 17.44207934 18.57128883 17.44304941 17.18505859 17.44430542 C14.27635578 17.44578215 11.36768363 17.44362865 8.45898438 17.43896484 C4.72278402 17.43326756 0.98665548 17.43654669 -2.74954224 17.44253731 C-5.61304266 17.4461436 -8.47652593 17.44500402 -11.34002686 17.44240952 C-12.71799732 17.44174043 -14.09596932 17.44256801 -15.47393799 17.44488907 C-17.39668754 17.44741667 -19.31944252 17.44288399 -21.2421875 17.43798828 C-22.88646729 17.43679489 -22.88646729 17.43679489 -24.56396484 17.43557739 C-27.03125 17.30859375 -27.03125 17.30859375 -28.03125 16.30859375 C-28.10450168 13.44591808 -28.12363205 10.60787475 -28.09375 7.74609375 C-28.08923828 6.93978516 -28.08472656 6.13347656 -28.08007812 5.30273438 C-28.06825518 3.30465619 -28.05031914 1.30661592 -28.03125 -0.69140625 C-24.59375 0.12109375 -24.59375 0.12109375 -21.03125 1.30859375 C-20.70125 2.29859375 -20.37125 3.28859375 -20.03125 4.30859375 C-19.37125 4.30859375 -18.71125 4.30859375 -18.03125 4.30859375 C-17.70125 3.31859375 -17.37125 2.32859375 -17.03125 1.30859375 C-11.08943664 -3.22559184 -6.59112839 -2.93956189 0 0 Z " transform="translate(60.03125,110.69140625)"/>
<path fill="#959595c7" d="M0 0 C5.94 0 11.88 0 18 0 C20.2218078 4.4436156 19.22991938 10.49540825 19.25 15.375 C19.270625 16.62023437 19.29125 17.86546875 19.3125 19.1484375 C19.31765625 20.3446875 19.3228125 21.5409375 19.328125 22.7734375 C19.3374707 23.87091309 19.34681641 24.96838867 19.35644531 26.09912109 C18.95687875 29.35093609 18.33008656 30.72333098 16 33 C12.75 33.53125 12.75 33.53125 9 33.5 C7.14375 33.51546875 7.14375 33.51546875 5.25 33.53125 C2 33 2 33 0.31738281 31.35595703 C-1.37772243 28.32449565 -1.35762041 26.2371136 -1.328125 22.7734375 C-1.32296875 21.5771875 -1.3178125 20.3809375 -1.3125 19.1484375 C-1.291875 17.90320313 -1.27125 16.65796875 -1.25 15.375 C-1.24484375 14.12203125 -1.2396875 12.8690625 -1.234375 11.578125 C-1.15429258 2.30858516 -1.15429258 2.30858516 0 0 Z " transform="translate(55,75)"/>
<path fill="#959595c7" d="M0 0 C0.74886475 0.00523682 1.49772949 0.01047363 2.26928711 0.01586914 C3.07817383 0.0190918 3.88706055 0.02231445 4.72045898 0.02563477 C5.5705957 0.03401367 6.42073242 0.04239258 7.29663086 0.05102539 C8.15063477 0.05553711 9.00463867 0.06004883 9.88452148 0.06469727 C12.00108749 0.07652166 14.11761771 0.0944577 16.23413086 0.11352539 C16.28351235 4.49176456 16.31984126 8.86985685 16.34399414 13.24829102 C16.35406129 14.73822859 16.36771603 16.22814636 16.38500977 17.71801758 C16.40922739 19.85771567 16.4206065 21.99715292 16.42944336 24.13696289 C16.43991699 25.42521973 16.45039062 26.71347656 16.46118164 28.04077148 C16.23413086 31.11352539 16.23413086 31.11352539 14.23413086 33.11352539 C11.08178711 33.41430664 11.08178711 33.41430664 7.29663086 33.42602539 C6.05010742 33.4427832 4.80358398 33.45954102 3.51928711 33.47680664 C0.23413086 33.11352539 0.23413086 33.11352539 -1.45068359 32.00341797 C-3.40822403 29.19047561 -3.12060351 26.90832796 -3.09399414 23.51196289 C-3.08883789 22.21774414 -3.08368164 20.92352539 -3.07836914 19.59008789 C-3.06805664 18.91751953 -3.05774414 18.24495117 -3.04711914 17.55200195 C-3.01587622 15.48899314 -3.00613906 13.42674766 -3.00024414 11.36352539 C-2.91101156 0.18714508 -2.91101156 0.18714508 0 0 Z " transform="translate(79.765869140625,74.886474609375)"/>
<path fill="#959595c7" d="M0 0 C2.97922593 -0.02683987 5.95821295 -0.04676037 8.9375 -0.0625 C9.78763672 -0.07087891 10.63777344 -0.07925781 11.51367188 -0.08789062 C12.32255859 -0.09111328 13.13144531 -0.09433594 13.96484375 -0.09765625 C14.7137085 -0.10289307 15.46257324 -0.10812988 16.23413086 -0.11352539 C18 0 18 0 19 1 C19.24198864 5.09694108 19.2285101 9.19728432 19.24023438 13.30078125 C19.24992838 15.35978773 19.28093283 17.41779107 19.3125 19.4765625 C19.31765625 20.77078125 19.3228125 22.065 19.328125 23.3984375 C19.34214355 25.18773682 19.34214355 25.18773682 19.35644531 27.01318359 C19 30 19 30 17.68481445 31.88989258 C14.90036524 33.72453837 12.20712453 33.35645566 8.9375 33.3125 C7.68839844 33.30863281 6.43929687 33.30476563 5.15234375 33.30078125 C2 33 2 33 0 31 C-0.22705078 27.92724609 -0.22705078 27.92724609 -0.1953125 24.0234375 C-0.1924826 23.33819 -0.18965271 22.6529425 -0.18673706 21.94692993 C-0.17553281 19.75610973 -0.15042859 17.56569684 -0.125 15.375 C-0.11497048 13.8906309 -0.10584458 12.4062554 -0.09765625 10.921875 C-0.07559294 7.28111739 -0.04106176 3.64059844 0 0 Z " transform="translate(32,75)"/>
<path fill="#959595c7" d="M0 0 C16.5 0 33 0 50 0 C51.36952673 2.73905345 51.12621361 4.97087332 51 8 C50.67 8.66 50.34 9.32 50 10 C42.89755001 10.02526787 35.79511152 10.04283201 28.69262695 10.05493164 C26.27432828 10.05997349 23.85603267 10.06680678 21.43774414 10.07543945 C17.97020717 10.08751157 14.50271034 10.09322963 11.03515625 10.09765625 C9.94662857 10.10281754 8.85810089 10.10797882 7.73658752 10.11329651 C6.23514442 10.11340981 6.23514442 10.11340981 4.70336914 10.11352539 C3.37433311 10.11685631 3.37433311 10.11685631 2.01844788 10.12025452 C0 10 0 10 -1 9 C-1.23728814 2.47457627 -1.23728814 2.47457627 0 0 Z " transform="translate(39,36)"/>
<path fill="#959595c7" d="M0 0 C1.98 0 3.96 0 6 0 C6 12.87 6 25.74 6 39 C4.02 39 2.04 39 0 39 C0 26.13 0 13.26 0 0 Z " transform="translate(109,73)"/>
<path fill="#959595c7" d="M0 0 C1.98 0 3.96 0 6 0 C6 12.87 6 25.74 6 39 C4.02 39 2.04 39 0 39 C0 26.13 0 13.26 0 0 Z " transform="translate(13,73)"/>
<path fill="#959595c7" d="M0 0 C1.65 0.33 3.3 0.66 5 1 C4.49287967 4.71888239 3.88391785 7.73454239 2 11 C-0.475 10.01 -0.475 10.01 -3 9 C-2.5020163 5.26512223 -2.12508244 3.18762365 0 0 Z " transform="translate(99,0)"/>
<path fill="#959595c7" d="M0 0 C2 0.875 2 0.875 3.3125 3.1875 C4.019574 5.95151653 3.97533063 7.24160729 3 9.875 C1.68 10.205 0.36 10.535 -1 10.875 C-4 4.25 -4 4.25 -4 0.875 C-2 -0.125 -2 -0.125 0 0 Z " transform="translate(28,0.125)"/>
</svg>
