<svg id="Layer_1" viewBox="0 0 128 128" xmlns="http://www.w3.org/2000/svg" data-name="Layer 1">
<path fill="#959595c7" d="M0 0 C1.66611905 -0.042721 3.33382885 -0.04063832 5 0 C6.64201289 1.64201289 6.14778141 3.55816726 6.17578125 5.8203125 C6.69879338 31.05868859 12.36293694 51.25282398 31.03125 69.203125 C35.21217253 73.01904636 38.17385603 75.61082178 43.8125 76.8125 C49.76179915 76.4097428 53.83370432 71.85349073 58 68 C59.05574219 67.08154297 59.05574219 67.08154297 60.1328125 66.14453125 C73.0092272 54.3032793 80.58056487 36.25938662 81.37890625 18.90625 C81.44841706 16.77108776 81.50949693 14.63563578 81.5625 12.5 C81.62211728 10.34363024 81.6856917 8.18736492 81.75390625 6.03125 C81.78979858 4.61682617 81.78979858 4.61682617 81.82641602 3.17382812 C82 1 82 1 83 0 C84.66617115 -0.04063832 86.33388095 -0.042721 88 0 C92.82713284 9.65426567 89.59597174 28.53103878 86.390625 38.51953125 C79.59336883 55.5317651 70.43474519 70.6051716 55 81 C55.10944264 84.35817665 55.10944264 84.35817665 56 88 C58.32601524 90.06102121 58.32601524 90.06102121 61 92 C65.18709038 97.85916277 66.47524792 102.87128123 66 110 C64.60986756 115.98463796 61.67105744 120.98024469 57 125 C50.52063726 128.90223962 44.37585941 128.89353268 37 128 C31.30893484 125.92891253 27.35270096 121.93044258 24 117 C21.29602846 109.91816978 21.21866575 103.81919091 24.078125 96.859375 C26.03969094 92.90299624 28.35469697 90.43020202 32 88 C33.60880909 84.84069813 33.60880909 84.84069813 33 81 C30.78776855 78.75050992 28.37523334 77.00505871 25.828125 75.14453125 C11.42142863 64.22011646 1.61838801 44.72741958 -1 27 C-1.24626504 22.68305738 -1.23527729 18.38508705 -1.1875 14.0625 C-1.18685547 12.92748047 -1.18621094 11.79246094 -1.18554688 10.62304688 C-1.1407804 2.2815608 -1.1407804 2.2815608 0 0 Z M42 84 C46 85 46 85 46 85 Z M32.1875 95.4375 C28.22749671 100.076361 27.55101232 103.52089204 27.68359375 109.53125 C28.3148717 114.45677674 31.03053622 117.14594857 34.625 120.3125 C39.28139015 123.62098774 43.39531877 123.62082623 49 123 C53.98669007 120.50665497 57.49675474 117.00649051 60 112 C60.76325018 105.15577297 60.19112923 100.51464372 56 95 C48.15894044 88.22817584 39.98230682 88.68200075 32.1875 95.4375 Z " transform="translate(20,0)"/>
<path fill="#959595c7" d="M0 0 C4.40617281 2.16303029 7.1644597 4.41114924 9 9 C9.5608442 13.276437 9.49981102 16.81623706 7.8125 20.8125 C5.28549495 23.86233368 2.55081434 26.22459283 -1 28 C-7.14335649 28.51194637 -10.05853722 28.02212087 -15 24 C-17.78998999 21.59483621 -18.80328816 19.69301175 -19.23828125 15.94921875 C-19.41915946 10.43719317 -18.78759517 7.29943235 -15 3 C-10.63453818 -0.85187808 -5.54054055 -0.79911643 0 0 Z " transform="translate(69,93)"/>
</svg>
