<svg id="Layer_1" viewBox="0 0 128 128" xmlns="http://www.w3.org/2000/svg" data-name="Layer 1">
<path fill="#959595c7" d="M0 0 C18.48 0 36.96 0 56 0 C58 14 58 14 58 21 C52.125 17.125 52.125 17.125 51 16 C50.46451656 12.90409573 50.03426398 9.79878868 49.59765625 6.6875 C49.30181641 5.3571875 49.30181641 5.3571875 49 4 C48.34 3.67 47.68 3.34 47 3 C47.66 8.28 48.32 13.56 49 19 C50.65 19.66 52.3 20.32 54 21 C56.6875 22.4375 56.6875 22.4375 59 25 C59.58724976 27.0942688 59.58724976 27.0942688 60.00927734 29.66064453 C60.17184021 30.64800598 60.33440308 31.63536743 60.50189209 32.65264893 C61.45985167 39.09026405 62.3268157 45.53805391 63.1640625 51.9921875 C63.36283729 53.51150428 63.56176384 55.03080121 63.76083374 56.55007935 C64.17441466 59.71153646 64.5859726 62.87324852 64.99609375 66.03515625 C65.52101199 70.08059566 66.05137206 74.12530041 66.58326149 78.16982841 C66.99389903 81.29737886 67.40151595 84.42531736 67.80823898 87.55337906 C68.00263437 89.04539711 68.19799883 90.53728925 68.39436722 92.02904892 C68.66786177 94.10996056 68.93723837 96.19136593 69.20556641 98.27294922 C69.35941803 99.4544455 69.51326965 100.63594177 69.67178345 101.85324097 C69.95849264 104.60205034 70.06589601 107.24010332 70 110 C63.35318195 111.91735136 56.88826773 112.53791755 50 113 C45.40496232 97.32682694 41.21180995 81.56153 37.13867188 65.74536133 C36.28148418 62.41697383 35.41957284 59.08982926 34.55639839 55.76299 C33.72532167 52.55745102 32.89795719 49.3509581 32.0703125 46.14453125 C31.76102814 44.95205276 31.45174377 43.75957428 31.13308716 42.53096008 C30.85214203 41.43768906 30.5711969 40.34441803 30.28173828 39.21801758 C30.03336212 38.25543533 29.78498596 37.29285309 29.52908325 36.30110168 C29 34 29 34 29 32 C28.34 32 27.68 32 27 32 C26.80623779 32.8566626 26.61247559 33.7133252 26.4128418 34.59594727 C23.18063523 48.68421482 19.53513042 62.66899353 15.91723633 76.66186523 C14.98642119 80.26223465 14.05938063 83.86356446 13.13330555 87.4651556 C12.41516428 90.25616024 11.69491761 93.04661819 10.97403526 95.83691597 C10.63085554 97.1664302 10.28837216 98.49612438 9.94660378 99.82600212 C9.47284136 101.66833425 8.99589978 103.50984797 8.51879883 105.35131836 C8.11386955 106.91987831 8.11386955 106.91987831 7.70075989 108.52012634 C7 111 7 111 6 113 C-0.84817102 112.51358785 -7.33042073 111.64006048 -14 110 C-13.3561503 100.22408209 -12.28322689 90.52686616 -11.0390625 80.8125 C-10.94443096 80.06941589 -10.84979942 79.32633179 -10.75230026 78.56072998 C-10.25334289 74.6446503 -9.75043526 70.72910241 -9.24414062 66.81396484 C-8.72408092 62.78608759 -8.21801775 58.75657616 -7.71494484 54.72654724 C-7.32286566 51.60625823 -6.92050311 48.48735726 -6.51533127 45.3687439 C-6.32410824 43.88293394 -6.13673952 42.39662242 -5.95338821 40.90982056 C-5.69677631 38.83674281 -5.42560772 36.76605634 -5.15087891 34.6953125 C-5.00067291 33.51984863 -4.85046692 32.34438477 -4.69570923 31.13330078 C-3.96028961 27.82115432 -3.0286777 25.70856274 -1 23 C0.155 22.38125 1.31 21.7625 2.5 21.125 C5.56851062 19.14636207 6.01892774 17.93833644 7.12109375 14.34765625 C7.92208768 10.58852735 8.49686744 6.80943223 9 3 C8.01 3.495 8.01 3.495 7 4 C6.6841301 5.90691828 6.44697382 7.82716032 6.25 9.75 C5.63987712 13.91669283 5.25811077 16.52377063 1.9375 19.25 C-1 21 -1 21 -2 21 C-1.85738906 18.81228756 -1.71075539 16.62483718 -1.5625 14.4375 C-1.48128906 13.21933594 -1.40007813 12.00117188 -1.31640625 10.74609375 C-1.01267704 7.1500899 -0.51036252 3.57253765 0 0 Z " transform="translate(36,11)"/>
<path fill="#959595c7" d="M0 0 C17.82 0 35.64 0 54 0 C54 1.32 54 2.64 54 4 C36.18 4 18.36 4 0 4 C0 2.68 0 1.36 0 0 Z " transform="translate(37,4)"/>
</svg>
