<svg id="Layer_1" viewBox="0 0 512 512" xmlns="http://www.w3.org/2000/svg" data-name="Layer 1" style="shape-rendering:geometricPrecision; text-rendering:geometricPrecision; image-rendering:optimizeQuality; fill-rule:evenodd; clip-rule:evenodd" xmlns:xlink="http://www.w3.org/1999/xlink">
<g><path fill="#959595c7" style="opacity:0.978" d="M 403.5,15.5 C 406.978,15.1842 410.312,15.6842 413.5,17C 440.333,43.8333 467.167,70.6667 494,97.5C 495.483,100.702 495.817,104.036 495,107.5C 473.421,148.326 451.588,188.992 429.5,229.5C 416.072,161.914 377.405,115.414 313.5,90C 302.996,86.5407 292.329,83.7073 281.5,81.5C 322.228,59.4715 362.895,37.4715 403.5,15.5 Z"/></g>
<g><path fill="#959595c7" style="opacity:0.96" d="M 197.5,88.5 C 209.482,90.2618 221.482,92.0952 233.5,94C 268.796,91.9909 302.129,98.9909 333.5,115C 380.254,142.641 407.421,183.475 415,237.5C 414.809,260.115 417.142,282.448 422,304.5C 422.667,307.5 422.667,310.5 422,313.5C 385.833,349.667 349.667,385.833 313.5,422C 310.5,422.667 307.5,422.667 304.5,422C 295.64,419.579 286.64,417.912 277.5,417C 230.284,420.042 188.284,407.042 151.5,378C 109.535,339.191 90.3682,291.025 94,233.5C 92.8475,224.404 91.1808,215.404 89,206.5C 88.3333,203.5 88.3333,200.5 89,197.5C 125.368,161.299 161.535,124.965 197.5,88.5 Z M 252.5,119.5 C 309.683,121.247 351.516,147.247 378,197.5C 400.585,251.741 393.252,301.407 356,346.5C 310.126,391.741 257.293,402.241 197.5,378C 139.723,346.618 114.556,298.118 122,232.5C 134.76,174.406 169.927,137.906 227.5,123C 235.929,121.451 244.263,120.284 252.5,119.5 Z M 227.5,155.5 C 232.772,154.549 236.272,156.549 238,161.5C 238.679,164.55 239.512,167.55 240.5,170.5C 239.185,176.649 235.518,178.815 229.5,177C 227.667,176.5 226.5,175.333 226,173.5C 224.038,168.995 223.371,164.328 224,159.5C 225.376,158.295 226.542,156.962 227.5,155.5 Z M 277.5,155.5 C 283.31,154.889 286.643,157.389 287.5,163C 287.033,167.367 285.867,171.534 284,175.5C 277.786,179.652 273.286,178.152 270.5,171C 271.411,167.855 272.245,164.688 273,161.5C 273.804,158.854 275.304,156.854 277.5,155.5 Z M 184.5,180.5 C 187.32,180.248 189.986,180.748 192.5,182C 194.667,184.167 196.833,186.333 199,188.5C 201.54,193.097 200.707,196.93 196.5,200C 193.697,200.755 191.03,200.422 188.5,199C 186.333,196.833 184.167,194.667 182,192.5C 179.511,187.757 180.345,183.757 184.5,180.5 Z M 320.5,180.5 C 327.655,180.153 330.821,183.486 330,190.5C 327.872,193.63 325.372,196.463 322.5,199C 314.398,201.895 310.565,199.062 311,190.5C 313.696,186.639 316.863,183.306 320.5,180.5 Z M 286.5,214.5 C 293.655,214.153 296.821,217.486 296,224.5C 286.349,234.985 276.516,245.318 266.5,255.5C 275.819,265.319 285.319,274.986 295,284.5C 298.167,294.667 294.667,298.167 284.5,295C 273,283.5 261.5,272 250,260.5C 248,257.167 248,253.833 250,250.5C 262.062,238.271 274.228,226.271 286.5,214.5 Z M 159.5,223.5 C 165.109,223.402 170.442,224.569 175.5,227C 179.515,233.978 177.682,238.478 170,240.5C 165.685,239.381 161.519,237.881 157.5,236C 154.606,231.299 155.273,227.132 159.5,223.5 Z M 344.5,223.5 C 352.161,222.663 355.661,225.996 355,233.5C 353.891,235.815 352.057,237.315 349.5,238C 345.892,239.323 342.225,239.989 338.5,240C 332.503,236.697 331.503,232.364 335.5,227C 338.571,225.704 341.571,224.538 344.5,223.5 Z M 169.5,270.5 C 176.456,271.741 178.79,275.741 176.5,282.5C 171.491,286.336 165.824,287.836 159.5,287C 154.743,283.089 154.41,278.922 158.5,274.5C 162.22,272.998 165.886,271.665 169.5,270.5 Z M 339.5,270.5 C 344.636,271.325 349.469,272.991 354,275.5C 356.54,280.097 355.707,283.93 351.5,287C 345.176,287.836 339.509,286.336 334.5,282.5C 332.373,276.767 334.04,272.767 339.5,270.5 Z M 190.5,310.5 C 197.655,310.153 200.821,313.486 200,320.5C 197.872,323.63 195.372,326.463 192.5,329C 184.398,331.895 180.565,329.062 181,320.5C 183.696,316.639 186.863,313.306 190.5,310.5 Z M 314.5,310.5 C 317.32,310.248 319.986,310.748 322.5,312C 326.612,314.926 329.278,318.759 330.5,323.5C 329.72,329.398 326.387,331.565 320.5,330C 317.37,327.872 314.537,325.372 312,322.5C 309.511,317.757 310.345,313.757 314.5,310.5 Z M 277.5,332.5 C 282.372,333.016 285.205,335.683 286,340.5C 288.775,346.102 287.942,350.935 283.5,355C 278.232,356.45 274.732,354.617 273,349.5C 268.371,341.919 269.871,336.252 277.5,332.5 Z M 229.5,333.5 C 235.334,332.577 239,334.91 240.5,340.5C 239.459,344.998 237.959,349.331 236,353.5C 229.44,356.969 225.274,355.135 223.5,348C 223.688,342.232 225.688,337.399 229.5,333.5 Z"/></g>
<g><path fill="#959595c7" style="opacity:0.974" d="M 239.5,135.5 C 293.614,131.304 334.447,152.304 362,198.5C 376.47,228.002 379.47,258.669 371,290.5C 354.445,338.199 321.278,366.365 271.5,375C 220.863,379.76 181.363,361.26 153,319.5C 134.658,288.402 130.325,255.402 140,220.5C 156.79,172.873 189.957,144.54 239.5,135.5 Z M 227.5,155.5 C 226.542,156.962 225.376,158.295 224,159.5C 223.371,164.328 224.038,168.995 226,173.5C 226.5,175.333 227.667,176.5 229.5,177C 235.518,178.815 239.185,176.649 240.5,170.5C 239.512,167.55 238.679,164.55 238,161.5C 236.272,156.549 232.772,154.549 227.5,155.5 Z M 277.5,155.5 C 275.304,156.854 273.804,158.854 273,161.5C 272.245,164.688 271.411,167.855 270.5,171C 273.286,178.152 277.786,179.652 284,175.5C 285.867,171.534 287.033,167.367 287.5,163C 286.643,157.389 283.31,154.889 277.5,155.5 Z M 184.5,180.5 C 180.345,183.757 179.511,187.757 182,192.5C 184.167,194.667 186.333,196.833 188.5,199C 191.03,200.422 193.697,200.755 196.5,200C 200.707,196.93 201.54,193.097 199,188.5C 196.833,186.333 194.667,184.167 192.5,182C 189.986,180.748 187.32,180.248 184.5,180.5 Z M 320.5,180.5 C 316.863,183.306 313.696,186.639 311,190.5C 310.565,199.062 314.398,201.895 322.5,199C 325.372,196.463 327.872,193.63 330,190.5C 330.821,183.486 327.655,180.153 320.5,180.5 Z M 286.5,214.5 C 274.228,226.271 262.062,238.271 250,250.5C 248,253.833 248,257.167 250,260.5C 261.5,272 273,283.5 284.5,295C 294.667,298.167 298.167,294.667 295,284.5C 285.319,274.986 275.819,265.319 266.5,255.5C 276.516,245.318 286.349,234.985 296,224.5C 296.821,217.486 293.655,214.153 286.5,214.5 Z M 159.5,223.5 C 155.273,227.132 154.606,231.299 157.5,236C 161.519,237.881 165.685,239.381 170,240.5C 177.682,238.478 179.515,233.978 175.5,227C 170.442,224.569 165.109,223.402 159.5,223.5 Z M 344.5,223.5 C 341.571,224.538 338.571,225.704 335.5,227C 331.503,232.364 332.503,236.697 338.5,240C 342.225,239.989 345.892,239.323 349.5,238C 352.057,237.315 353.891,235.815 355,233.5C 355.661,225.996 352.161,222.663 344.5,223.5 Z M 169.5,270.5 C 165.886,271.665 162.22,272.998 158.5,274.5C 154.41,278.922 154.743,283.089 159.5,287C 165.824,287.836 171.491,286.336 176.5,282.5C 178.79,275.741 176.456,271.741 169.5,270.5 Z M 339.5,270.5 C 334.04,272.767 332.373,276.767 334.5,282.5C 339.509,286.336 345.176,287.836 351.5,287C 355.707,283.93 356.54,280.097 354,275.5C 349.469,272.991 344.636,271.325 339.5,270.5 Z M 190.5,310.5 C 186.863,313.306 183.696,316.639 181,320.5C 180.565,329.062 184.398,331.895 192.5,329C 195.372,326.463 197.872,323.63 200,320.5C 200.821,313.486 197.655,310.153 190.5,310.5 Z M 314.5,310.5 C 310.345,313.757 309.511,317.757 312,322.5C 314.537,325.372 317.37,327.872 320.5,330C 326.387,331.565 329.72,329.398 330.5,323.5C 329.278,318.759 326.612,314.926 322.5,312C 319.986,310.748 317.32,310.248 314.5,310.5 Z M 277.5,332.5 C 269.871,336.252 268.371,341.919 273,349.5C 274.732,354.617 278.232,356.45 283.5,355C 287.942,350.935 288.775,346.102 286,340.5C 285.205,335.683 282.372,333.016 277.5,332.5 Z M 229.5,333.5 C 225.688,337.399 223.688,342.232 223.5,348C 225.274,355.135 229.44,356.969 236,353.5C 237.959,349.331 239.459,344.998 240.5,340.5C 239,334.91 235.334,332.577 229.5,333.5 Z"/></g>
<g><path fill="#959595c7" style="opacity:0.978" d="M 80.5,281.5 C 89.0461,322.747 108.713,357.914 139.5,387C 165.498,409.295 195.498,423.462 229.5,429.5C 188.992,451.588 148.326,473.421 107.5,495C 104.036,495.817 100.702,495.483 97.5,494C 70.6667,467.167 43.8333,440.333 17,413.5C 16.0153,411.634 15.5153,409.634 15.5,407.5C 16.478,402.537 18.3113,397.87 21,393.5C 41.1132,356.271 60.9466,318.938 80.5,281.5 Z"/></g>
<g><path fill="#959595c7" style="opacity:0.915" d="M 409.5,346.5 C 410.586,346.62 411.253,347.287 411.5,348.5C 412.667,353.167 413.833,357.833 415,362.5C 415.837,366.295 415.504,369.961 414,373.5C 402.804,385.03 391.304,396.197 379.5,407C 370.881,407.264 362.547,405.764 354.5,402.5C 372.855,383.813 391.188,365.146 409.5,346.5 Z"/></g>
</svg>
