<svg width="25" height="25" viewBox="0 0 25 25" fill="none" xmlns="http://www.w3.org/2000/svg">
<path d="M5.17534 1.70901C5.2764 1.79679 5.36621 1.89123 5.45782 1.98882C5.65605 2.19195 5.88057 2.36349 6.10308 2.53909C6.17549 2.5964 6.17549 2.5964 6.24937 2.65486C7.47342 3.60996 8.78722 4.51213 10.1558 5.246C11.1391 5.77578 12.031 6.45944 12.8414 7.22659C12.8879 7.27052 12.9344 7.31446 12.9823 7.35972C13.3473 7.7111 13.6625 8.08981 13.9644 8.49612C13.9949 8.53659 14.0253 8.57706 14.0567 8.61876C15.681 10.854 16.0647 13.6207 15.6629 16.3069C15.4004 17.9218 14.8904 19.4632 14.2085 20.9473C14.1732 21.026 14.1378 21.1047 14.1025 21.1834C13.7715 21.9103 13.3939 22.6335 12.939 23.291C9.58144 22.8372 6.06279 21.7924 3.59057 19.361C3.52494 19.2967 3.45817 19.2335 3.39121 19.1706C3.07075 18.8643 2.80414 18.5178 2.53862 18.1641C2.50797 18.1234 2.47732 18.0828 2.44573 18.0409C0.726707 15.6706 0.163788 12.4789 0.608575 9.61716C1.06153 6.87426 2.30766 4.36958 4.08891 2.24917C4.12083 2.2111 4.12083 2.2111 4.15338 2.17227C4.73816 1.48505 4.73816 1.48505 5.17534 1.70901ZM6.4937 8.30081C6.56933 8.5186 6.68688 8.69958 6.81413 8.8898C7.43845 9.84065 8.01561 10.8212 8.56265 11.8182C8.63837 11.9561 8.71478 12.0935 8.79129 12.2309C10.0399 14.4881 11.1067 16.8355 11.9136 19.2871C11.9321 19.3433 11.9506 19.3995 11.9697 19.4574C12.3374 20.5844 12.6478 21.7298 12.8414 22.9004C12.8575 22.9004 12.8736 22.9004 12.8902 22.9004C13.0423 18.2739 10.938 13.1685 7.90972 9.71682C7.88051 9.68277 7.8513 9.64872 7.82121 9.61364C7.2387 8.92478 7.2387 8.92478 6.59136 8.30081C6.55913 8.30081 6.5269 8.30081 6.4937 8.30081Z" fill="white"/>
<path d="M22.8027 8.44726C23.8384 9.18624 24.209 11.5371 24.4066 12.7102C24.4266 12.8353 24.4451 12.9605 24.4629 13.0859C24.4679 13.1192 24.473 13.1524 24.4781 13.1867C24.5293 13.5697 24.5236 13.9575 24.5239 14.3433C24.524 14.3813 24.524 14.4193 24.524 14.4585C24.5232 15.0701 24.4905 15.6595 24.3652 16.2598C24.3576 16.2984 24.35 16.3371 24.3422 16.377C23.9087 18.5313 22.6616 20.5465 20.8385 21.7869C19.53 22.6149 18.0859 23.0625 16.5527 23.2422C16.5158 23.2466 16.4788 23.251 16.4407 23.2555C16.0862 23.2944 15.7312 23.3093 15.3748 23.3215C15.2794 23.3248 15.2794 23.3248 15.1821 23.3282C14.5959 23.3463 14.0129 23.3275 13.4277 23.291C13.4949 23.1139 13.5741 22.9505 13.6656 22.7848C13.6934 22.7341 13.7211 22.6834 13.7497 22.6312C13.7943 22.5499 13.7943 22.5499 13.8397 22.467C14.4256 21.3856 14.949 20.2842 15.3236 19.1097C15.4947 18.5761 15.6943 18.1938 16.0645 17.7734C16.131 17.6903 16.1971 17.6069 16.2628 17.5232C16.3268 17.4438 16.3909 17.3644 16.4551 17.2852C16.4885 17.2437 16.5219 17.2023 16.5564 17.1596C16.9843 16.6326 17.4252 16.1181 17.8873 15.6208C17.9874 15.5115 18.0855 15.4011 18.1828 15.2893C18.3528 15.0944 18.527 14.904 18.7042 14.7156C18.7366 14.6811 18.769 14.6467 18.8024 14.6112C19.2626 14.125 19.7394 13.6548 20.2148 13.1836C19.3813 13.6251 18.6244 14.2035 17.9308 14.8418C17.8322 14.9322 17.7318 15.0194 17.63 15.1062C17.1957 15.4851 16.7981 15.9049 16.4377 16.3544C16.3981 16.4037 16.3585 16.4531 16.3177 16.5039C16.2812 16.5502 16.2446 16.5966 16.2069 16.6443C16.176 16.6785 16.1451 16.7128 16.1133 16.748C16.0811 16.748 16.0488 16.748 16.0156 16.748C16.0198 16.7171 16.024 16.6861 16.0283 16.6543C16.0476 16.5106 16.0667 16.3669 16.0858 16.2231C16.0924 16.1745 16.099 16.1258 16.1057 16.0757C16.305 14.569 16.2652 13.0442 15.8691 11.5723C15.8362 11.4422 15.8038 11.3119 15.7715 11.1816C16.6259 10.6274 17.5625 10.3265 18.5274 10.0241C20.2536 9.48664 20.2536 9.48664 21.8885 8.72364C21.9214 8.70539 21.9543 8.68715 21.9882 8.66835C22.0755 8.61908 22.1618 8.56824 22.2481 8.51726C22.4585 8.42745 22.5755 8.41967 22.8027 8.44726Z" fill="white"/>
</svg>
