<svg width="25" height="25" viewBox="0 0 25 25" fill="none" xmlns="http://www.w3.org/2000/svg">
<path d="M10.5364 2.72654C10.6057 2.72617 10.6057 2.72617 10.6764 2.7258C10.8284 2.72509 10.9803 2.72476 11.1322 2.72449C11.2108 2.72428 11.2108 2.72428 11.2909 2.72407C11.5683 2.72334 11.8458 2.72289 12.1233 2.72267C12.4074 2.72241 12.6914 2.72124 12.9755 2.71984C13.1961 2.71893 13.4167 2.71868 13.6372 2.71861C13.7418 2.71846 13.8464 2.71807 13.951 2.71742C14.9088 2.71191 15.7899 2.81961 16.6992 3.12503C16.7317 3.13578 16.7643 3.14654 16.7978 3.15762C17.7792 3.48732 18.649 4.01407 19.4336 4.68753C19.4743 4.72215 19.5149 4.75677 19.5568 4.79243C21.0537 6.10047 21.8757 7.83274 22.2168 9.76565C15.8037 9.76565 9.39063 9.76565 2.7832 9.76565C2.9542 8.79667 2.9542 8.79667 3.10974 8.34964C3.12674 8.29998 3.14374 8.25033 3.16125 8.19917C3.87612 6.15921 5.38215 4.47128 7.32422 3.51565C8.33226 3.04384 9.41818 2.72796 10.5364 2.72654ZM7.55005 4.42508C7.44692 4.5758 7.44082 4.65473 7.4707 4.83401C7.54395 4.95608 7.54395 4.95608 7.66602 5.02933C7.8453 5.05921 7.92423 5.05311 8.07495 4.94998C8.17808 4.79925 8.18418 4.72033 8.1543 4.54105C8.08105 4.41897 8.08105 4.41897 7.95898 4.34573C7.7797 4.31585 7.70077 4.32195 7.55005 4.42508ZM5.82212 5.57836C5.78305 5.61773 5.74399 5.6571 5.70374 5.69766C5.663 5.73861 5.62226 5.77955 5.58029 5.82173C5.21731 6.19465 4.91374 6.59038 4.63867 7.03128C4.6055 7.08377 4.57233 7.13627 4.53815 7.19035C4.39306 7.43631 4.29187 7.62306 4.3457 7.91019C4.4206 8.02844 4.47725 8.05117 4.60815 8.09939C4.7814 8.10764 4.84163 8.06262 4.98047 7.95901C5.0568 7.84661 5.12306 7.73876 5.18799 7.62027C5.57538 6.9467 6.05725 6.33168 6.65569 5.83194C6.83754 5.68654 6.83754 5.68654 6.90613 5.47183C6.89662 5.31901 6.89662 5.31901 6.79932 5.20938C6.41949 4.92451 6.10132 5.30511 5.82212 5.57836Z" fill="white"/>
<path d="M2.69653 10.5343C2.73102 10.5341 2.7655 10.534 2.80103 10.5338C2.91659 10.5333 3.03214 10.5336 3.1477 10.5338C3.23139 10.5336 3.31508 10.5334 3.39877 10.5331C3.62876 10.5326 3.85875 10.5326 4.08874 10.5327C4.33678 10.5327 4.58482 10.5322 4.83287 10.5317C5.31884 10.5309 5.80482 10.5306 6.29079 10.5306C6.68581 10.5305 7.08083 10.5303 7.47585 10.53C8.59569 10.5291 9.71552 10.5287 10.8354 10.5288C10.9259 10.5288 10.9259 10.5288 11.0183 10.5288C11.109 10.5288 11.109 10.5288 11.2015 10.5288C12.1813 10.5288 13.161 10.5279 14.1407 10.5265C15.1466 10.5251 16.1525 10.5244 17.1584 10.5245C17.7231 10.5246 18.2879 10.5243 18.8527 10.5232C19.3335 10.5224 19.8144 10.5221 20.2952 10.5228C20.5406 10.5231 20.7859 10.5231 21.0312 10.5223C21.2559 10.5215 21.4805 10.5217 21.7052 10.5225C21.7864 10.5227 21.8676 10.5225 21.9487 10.5219C22.5027 10.5185 22.988 10.5556 23.4124 10.952C23.7677 11.3471 23.8531 11.7505 23.8439 12.2738C23.815 12.6183 23.6911 12.7997 23.4414 13.031C22.9623 13.4207 22.3032 13.372 21.7166 13.3144C21.3091 13.2388 20.9493 13.0561 20.5824 12.8701C19.9033 12.5286 19.1492 12.4666 18.4091 12.6465C18.1901 12.7221 17.978 12.8089 17.7656 12.9011C17.6252 12.9616 17.4833 13.0179 17.341 13.0737C17.2937 13.0926 17.2465 13.1115 17.1979 13.131C16.0779 13.5088 14.9025 13.3009 13.8531 12.8329C13.082 12.4905 12.2047 12.4538 11.4053 12.7319C11.2584 12.7889 11.1145 12.8503 10.9706 12.9145C10.8852 12.9525 10.8852 12.9525 10.798 12.9913C10.7468 13.0151 10.6955 13.0388 10.6427 13.0632C10.1472 13.2624 9.64263 13.3071 9.11342 13.3026C9.05098 13.3022 8.98855 13.3017 8.92423 13.3013C8.23724 13.2887 7.68972 13.1111 7.06595 12.8329C6.29307 12.4897 5.45338 12.4624 4.65785 12.7563C4.44992 12.8414 4.25221 12.9384 4.0536 13.0432C3.43167 13.3586 2.62392 13.4556 1.94331 13.2658C1.62266 13.1427 1.36816 12.8888 1.21432 12.5843C1.09077 12.1887 1.13014 11.7073 1.30664 11.3352C1.61376 10.8115 2.08775 10.535 2.69653 10.5343Z" fill="white"/>
<path d="M2.73438 19.9219C9.17969 19.9219 15.625 19.9219 22.2656 19.9219C22.1968 20.2659 22.1413 20.5118 21.9849 20.8099C21.9673 20.8438 21.9498 20.8777 21.9317 20.9126C21.5935 21.5503 21.0226 21.9688 20.3398 22.1963C20.0393 22.2843 19.7512 22.2863 19.4399 22.2849C19.3782 22.2852 19.3165 22.2855 19.2529 22.2858C19.0828 22.2866 18.9128 22.2865 18.7427 22.2862C18.5588 22.2861 18.3749 22.2868 18.191 22.2874C17.8312 22.2884 17.4713 22.2886 17.1115 22.2885C16.8188 22.2885 16.526 22.2887 16.2333 22.289C16.1489 22.2891 16.0644 22.2892 15.9799 22.2893C15.9169 22.2894 15.9169 22.2894 15.8525 22.2895C15.058 22.2904 14.2634 22.2904 13.4689 22.29C12.7432 22.2898 12.0175 22.2908 11.2918 22.2924C10.5455 22.294 9.79925 22.2948 9.05297 22.2946C8.63445 22.2944 8.21593 22.2947 7.79741 22.2959C7.44103 22.2969 7.08465 22.2971 6.72826 22.2962C6.54669 22.2957 6.36515 22.2957 6.18359 22.2967C5.24309 22.3016 4.47141 22.2977 3.71094 21.6797C3.67028 21.6491 3.62962 21.6185 3.58772 21.587C3.07885 21.1552 2.86097 20.5548 2.73438 19.9219Z" fill="white"/>
<path d="M13.1775 15.9851C13.3061 15.9876 13.4347 15.9898 13.5633 15.9918C13.8763 15.9971 14.1891 16.0053 14.502 16.0156C14.5115 16.0712 14.5115 16.0712 14.5212 16.1279C14.5297 16.1764 14.5383 16.2249 14.547 16.2749C14.5554 16.323 14.5638 16.3711 14.5724 16.4207C14.6478 16.7864 14.8762 17.0725 15.1833 17.2762C15.5938 17.5136 16.032 17.5586 16.498 17.4467C16.9007 17.2998 17.1843 17.0647 17.3789 16.6813C17.4354 16.5435 17.4628 16.4163 17.4871 16.2695C17.4952 16.2218 17.5033 16.174 17.5117 16.1249C17.5175 16.0888 17.5233 16.0528 17.5293 16.0156C18.183 16.0111 18.8366 16.0076 19.4903 16.0055C19.7939 16.0045 20.0974 16.0031 20.401 16.0009C20.6941 15.9988 20.9873 15.9976 21.2805 15.9971C21.3921 15.9967 21.5037 15.996 21.6153 15.995C21.7722 15.9936 21.929 15.9934 22.0858 15.9935C22.1544 15.9924 22.1544 15.9924 22.2244 15.9913C22.6857 15.9942 23.065 16.142 23.4007 16.4587C23.7616 16.855 23.8517 17.2561 23.8434 17.7849C23.8096 18.192 23.6438 18.5255 23.3398 18.7988C22.9247 19.111 22.5561 19.1549 22.0464 19.1524C21.9533 19.1525 21.9533 19.1525 21.8583 19.1526C21.6864 19.1528 21.5145 19.1525 21.3425 19.152C21.157 19.1515 20.9715 19.1517 20.786 19.1518C20.4647 19.1518 20.1433 19.1515 19.822 19.151C19.3574 19.1502 18.8929 19.1499 18.4283 19.1498C17.6745 19.1496 16.9208 19.1489 16.167 19.148C15.4349 19.1471 14.7027 19.1464 13.9705 19.146C13.9254 19.146 13.8803 19.1459 13.8338 19.1459C13.6073 19.1458 13.3809 19.1457 13.1545 19.1455C11.2761 19.1445 9.39784 19.1428 7.51953 19.1406C7.67307 18.9834 7.83397 18.854 8.01392 18.7286C8.07535 18.6853 8.13677 18.6419 8.19817 18.5986C8.23069 18.5756 8.26322 18.5527 8.29673 18.5291C8.47393 18.4036 8.64976 18.2761 8.82568 18.1488C8.90077 18.0945 8.97585 18.0402 9.05094 17.9859C9.08843 17.9588 9.12592 17.9317 9.16455 17.9038C9.27499 17.824 9.38554 17.7443 9.49612 17.6647C9.9123 17.365 10.3268 17.0632 10.7387 16.7576C10.8119 16.7034 10.8858 16.6503 10.9603 16.5979C11.0898 16.5036 11.0898 16.5036 11.2148 16.3755C11.7723 15.858 12.4618 15.9613 13.1775 15.9851Z" fill="white"/>
<path d="M6.88477 13.4766C8.20735 14.0747 9.56123 14.1822 10.9375 13.6719C11.1471 13.5875 11.3529 13.4958 11.558 13.401C12.0384 13.189 12.7501 13.1925 13.2446 13.3575C13.764 13.5926 14.1653 13.9967 14.3768 14.5264C14.44 14.6977 14.4567 14.8429 14.455 15.0237C14.4546 15.0829 14.4546 15.0829 14.4542 15.1433C14.4538 15.1734 14.4535 15.2034 14.4531 15.2344C14.3935 15.2345 14.3338 15.2347 14.2723 15.2349C12.853 15.2387 11.4336 15.2431 10.0143 15.248C9.8393 15.2487 9.66427 15.2493 9.48925 15.2499C9.45441 15.25 9.41957 15.2501 9.38367 15.2502C8.8209 15.2522 8.25814 15.2538 7.69537 15.2552C7.11712 15.2568 6.53886 15.2587 5.96061 15.2609C5.63616 15.2621 5.3117 15.2632 4.98724 15.2638C4.68137 15.2645 4.3755 15.2655 4.06963 15.267C3.95784 15.2674 3.84604 15.2677 3.73425 15.2678C3.13095 15.2684 2.55017 15.291 1.95312 15.3809C1.95312 14.9297 1.95312 14.4785 1.95312 14.0137C2.13843 14.0177 2.32373 14.0217 2.51465 14.0259C3.40823 14.0328 4.13449 13.7955 4.92401 13.3797C5.48217 13.1168 6.34637 13.2283 6.88477 13.4766Z" fill="white"/>
<path d="M4.42581 16.1417C4.9299 16.5016 5.34339 16.9782 5.75277 17.4388C5.92239 17.6273 6.09779 17.8103 6.27265 17.994C6.52566 18.2613 6.77633 18.5304 7.0226 18.8039C7.04845 18.8325 7.0743 18.861 7.10093 18.8905C7.27554 19.0858 7.27554 19.0858 7.27554 19.1406C6.64733 19.1452 6.01913 19.1486 5.39092 19.1507C5.09918 19.1518 4.80745 19.1531 4.51572 19.1554C4.23395 19.1575 3.95219 19.1587 3.67041 19.1592C3.56315 19.1595 3.45588 19.1602 3.34863 19.1613C3.19787 19.1627 3.04715 19.1629 2.89638 19.1628C2.85248 19.1635 2.80858 19.1642 2.76335 19.1649C2.30804 19.162 1.93022 19.0096 1.59946 18.6975C1.23858 18.3013 1.14847 17.9001 1.15676 17.3714C1.1902 16.9684 1.35345 16.624 1.6603 16.3574C2.35924 15.8686 3.66799 15.6705 4.42581 16.1417Z" fill="white"/>
<path d="M20.6534 13.6505C21.107 13.8855 21.6099 14.0211 22.1209 14.0184C22.1942 14.0183 22.1942 14.0183 22.2689 14.0181C22.3605 14.0174 22.3605 14.0174 22.4539 14.0167C22.6493 14.0157 22.8447 14.0147 23.046 14.0137C23.046 14.4648 23.046 14.916 23.046 15.3809C22.9398 15.3652 22.8336 15.3495 22.7242 15.3333C22.2051 15.2646 21.6858 15.2659 21.163 15.263C21.0591 15.2621 20.9551 15.2611 20.8511 15.2601C20.5801 15.2576 20.3091 15.2557 20.0381 15.2539C19.7605 15.2519 19.4829 15.2494 19.2053 15.247C18.6626 15.2423 18.1199 15.2381 17.5772 15.2344C17.5764 15.1642 17.5758 15.0939 17.5753 15.0237C17.5749 14.9846 17.5746 14.9455 17.5742 14.9052C17.5871 14.4331 17.8874 14.035 18.2152 13.722C18.9863 13.0724 19.8153 13.2153 20.6534 13.6505Z" fill="white"/>
<path d="M5.22461 16.0156C6.98096 16.0156 8.7373 16.0156 10.5469 16.0156C10.3884 16.1741 10.2344 16.3009 10.0525 16.4276C9.99099 16.471 9.92951 16.5144 9.86805 16.5579C9.83552 16.5808 9.80298 16.6038 9.76946 16.6274C9.59345 16.752 9.41859 16.8781 9.24377 17.0044C9.20733 17.0307 9.17089 17.057 9.13335 17.0841C8.81295 17.3158 8.49446 17.5501 8.17658 17.7853C7.95899 17.9462 7.74019 18.1051 7.51953 18.2617C7.34947 18.1888 7.23956 18.0915 7.10931 17.961C7.06729 17.9191 7.02527 17.8773 6.98197 17.8341C6.93705 17.7889 6.89214 17.7436 6.84586 17.697C6.79908 17.6501 6.75228 17.6033 6.70547 17.5565C6.60764 17.4586 6.50998 17.3605 6.41243 17.2623C6.28713 17.1362 6.1615 17.0104 6.03576 16.8847C5.93923 16.7881 5.84284 16.6915 5.74649 16.5948C5.67761 16.5257 5.60867 16.4566 5.53972 16.3876C5.49831 16.3459 5.45691 16.3042 5.41425 16.2612C5.37754 16.2243 5.34083 16.1874 5.303 16.1494C5.22461 16.0645 5.22461 16.0645 5.22461 16.0156Z" fill="white"/>
<path d="M17.1387 13.916C17.1292 13.9432 17.1198 13.9704 17.1101 13.9984C16.9379 14.5028 16.85 14.9723 16.8371 15.5067C16.836 15.5523 16.8348 15.5979 16.8336 15.6448C16.8315 15.7382 16.83 15.8315 16.829 15.9248C16.8185 16.2778 16.7409 16.4692 16.4795 16.7175C16.2273 16.8346 15.9961 16.8337 15.7227 16.7969C15.4801 16.6843 15.3599 16.5424 15.2344 16.3086C15.2063 16.1378 15.2051 15.9687 15.2039 15.7959C15.2012 15.6994 15.1984 15.6029 15.1953 15.5064C15.1931 15.4363 15.1931 15.4363 15.191 15.3649C15.1706 14.8745 15.0657 14.4236 14.8926 13.9648C14.9203 13.9668 14.9479 13.9688 14.9765 13.9709C15.5628 14.0109 16.1224 14.0155 16.7055 13.9391C16.8532 13.9211 16.9904 13.911 17.1387 13.916Z" fill="white"/>
</svg>
