
<svg width="512" height="512" viewBox="0 0 512 512" fill="none" xmlns="http://www.w3.org/2000/svg">

<g transform="translate(0.000000,512.000000) scale(0.100000,-0.100000)"
fill="#ffffffff" stroke="none">
<path d="M1889 4785 c-66 -21 -138 -72 -180 -129 -95 -126 -91 -307 10 -434
72 -91 211 -145 323 -124 119 22 204 82 259 184 32 60 34 68 34 163 0 89 -3
106 -28 156 -73 149 -265 233 -418 184z"/>
<path d="M3540 4461 c-492 -108 -830 -526 -830 -1026 0 -257 86 -492 250 -680
82 -94 83 -94 165 -44 243 148 529 206 805 165 166 -25 332 -88 467 -175 l62
-40 59 63 c117 126 204 283 249 455 23 84 26 116 26 256 1 141 -2 171 -26 257
-52 195 -149 360 -293 498 -134 128 -272 208 -447 256 -128 36 -361 43 -487
15z m265 -226 c16 -15 25 -36 25 -55 0 -48 -38 -80 -97 -80 -123 -1 -281 -59
-393 -145 -143 -110 -249 -322 -250 -498 0 -37 -5 -53 -25 -72 -33 -34 -78
-33 -112 1 -25 25 -26 29 -20 109 29 417 377 753 790 764 49 1 62 -3 82 -24z"/>
<path d="M683 4370 c-34 -14 -43 -42 -43 -139 l0 -91 -95 0 c-88 0 -98 -2
-120 -25 -24 -24 -31 -57 -19 -90 12 -30 60 -45 149 -45 l85 0 0 -91 c0 -50 4
-99 10 -109 15 -28 67 -43 98 -27 39 18 52 53 52 145 l0 82 90 0 c83 0 93 2
115 25 35 34 34 86 -1 114 -22 18 -41 21 -114 21 l-88 0 -4 96 c-3 91 -5 97
-31 120 -30 25 -48 28 -84 14z"/>
<path d="M944 3335 c-252 -55 -479 -250 -570 -491 -53 -141 -67 -288 -40 -426
35 -176 98 -292 230 -423 153 -152 325 -225 536 -228 58 -1 121 2 141 6 l36 7
-13 58 c-66 278 101 556 381 638 63 18 202 23 244 10 l24 -8 -6 114 c-10 211
-85 378 -236 528 -120 118 -237 183 -389 215 -83 18 -257 18 -338 0z m221
-207 c34 -30 37 -81 6 -111 -15 -16 -43 -25 -100 -33 -99 -14 -176 -50 -242
-111 -87 -81 -125 -156 -139 -276 -12 -107 -69 -147 -134 -96 -23 18 -26 28
-26 81 0 295 265 557 572 567 25 1 45 -6 63 -21z"/>
<path d="M3595 2720 c-151 -24 -343 -106 -467 -199 -269 -204 -418 -503 -418
-836 0 -485 310 -885 788 -1017 65 -18 105 -22 252 -22 160 -1 183 2 272 26
190 53 344 144 479 285 136 142 216 284 266 471 24 86 27 116 26 257 0 140 -3
172 -26 257 -80 303 -281 547 -562 684 -134 65 -261 95 -420 99 -71 2 -157 0
-190 -5z m212 -272 c24 -23 30 -66 13 -98 -12 -23 -61 -40 -118 -40 -114 0
-284 -75 -381 -169 -113 -109 -181 -250 -196 -406 -8 -86 -19 -111 -57 -124
-37 -13 -71 0 -94 34 -16 24 -16 37 -7 119 23 196 94 339 237 481 75 75 107
99 186 138 115 57 220 86 319 86 63 1 78 -2 98 -21z"/>
<path d="M1710 2326 c-119 -26 -209 -97 -262 -204 -30 -61 -33 -74 -33 -162 0
-82 4 -103 27 -152 79 -170 261 -260 433 -214 28 7 65 21 84 31 57 29 131 106
165 170 29 56 31 67 31 160 0 87 -3 107 -27 157 -53 114 -157 194 -283 217
-68 13 -64 13 -135 -3z"/>
<path d="M2039 1067 c-30 -23 -39 -56 -39 -141 l0 -86 -93 0 c-85 0 -96 -2
-115 -23 -27 -29 -28 -77 -3 -108 17 -22 29 -24 114 -27 l95 -4 4 -95 c3 -85
5 -97 27 -114 32 -26 82 -25 109 4 19 20 22 35 22 114 l0 91 96 4 c91 3 97 5
120 31 29 34 31 67 5 98 -17 22 -29 25 -118 29 l-98 5 -5 98 c-4 89 -7 101
-29 118 -26 21 -68 24 -92 6z"/>
<path d="M878 877 c-174 -49 -258 -248 -172 -407 112 -205 402 -195 506 18 31
65 31 168 -1 234 -27 55 -94 121 -147 143 -53 22 -132 27 -186 12z"/>
</g>
</svg>
