<svg width="512" height="512" viewBox="0 0 512 512" fill="none" xmlns="http://www.w3.org/2000/svg">

<g transform="translate(0.000000,512.000000) scale(0.100000,-0.100000)"
fill="#ffffffff" stroke="none">
<path d="M2462 4885 c-399 -276 -832 -465 -1282 -559 -181 -39 -352 -56 -552
-56 l-176 0 -6 -27 c-18 -90 -28 -307 -22 -483 53 -1490 591 -2646 1521 -3264
190 -127 451 -261 567 -292 55 -14 26 -24 333 121 1036 489 1694 1603 1829
3095 30 331 30 672 0 821 l-5 27 -232 5 c-241 5 -338 17 -545 63 -409 91 -819
271 -1196 524 -75 49 -137 90 -138 90 -2 -1 -45 -30 -96 -65z m224 -526 c361
-215 788 -379 1203 -464 112 -23 328 -55 367 -55 13 0 15 -17 9 -127 -37 -771
-171 -1335 -444 -1868 -227 -445 -571 -818 -973 -1056 -64 -39 -156 -88 -203
-110 l-85 -40 -113 57 c-251 127 -436 262 -642 468 -205 206 -330 372 -473
632 -223 404 -382 939 -446 1494 -13 114 -35 434 -36 522 0 25 3 26 63 33 515
55 1107 258 1552 534 44 27 85 50 91 50 7 1 65 -31 130 -70z"/>
<path d="M2450 4194 c-115 -78 -347 -197 -501 -259 -259 -104 -578 -175 -791
-175 -106 0 -103 8 -95 -255 36 -1142 431 -2000 1135 -2460 101 -66 325 -185
350 -185 9 0 12 347 12 1700 0 935 -3 1699 -7 1699 -5 -1 -51 -30 -103 -65z"/>
</g>
</svg>
