<svg width="25" height="25" viewBox="0 0 25 25" fill="none" xmlns="http://www.w3.org/2000/svg">
<path d="M20.0678 0.537103C20.229 0.662141 20.2976 0.732678 20.3272 0.933716C20.3322 1.38548 20.2344 1.81327 20.141 2.25276C20.1235 2.33738 20.106 2.422 20.0885 2.50663C20.0427 2.72771 19.9963 2.94866 19.9498 3.16958C19.9023 3.39569 19.8554 3.62194 19.8084 3.84817C19.7164 4.29083 19.6238 4.73334 19.5307 5.17578C19.6175 5.17462 19.6175 5.17462 19.7061 5.17345C19.9213 5.17079 20.1365 5.16912 20.3517 5.16773C20.4448 5.16699 20.5379 5.16599 20.6309 5.16472C20.7649 5.16294 20.8988 5.16212 21.0327 5.16147C21.0949 5.16034 21.0949 5.16034 21.1584 5.15918C21.3888 5.15911 21.5427 5.17019 21.728 5.32226C21.9262 5.53281 21.8903 5.73447 21.8842 6.01004C21.8682 6.32342 21.8356 6.63403 21.7991 6.94556C21.7909 7.01811 21.7827 7.09065 21.7745 7.16321C21.7522 7.36062 21.7295 7.55798 21.7066 7.75533C21.682 7.96891 21.6578 8.18255 21.6335 8.39618C21.586 8.81386 21.5381 9.23149 21.4901 9.64911C21.4341 10.1358 21.3785 10.6226 21.3229 11.1094C21.2238 11.9781 21.1242 12.8467 21.0245 13.7152C20.9278 14.5574 20.8313 15.3996 20.7352 16.2419C20.7263 16.3197 20.7263 16.3197 20.7172 16.3991C20.7113 16.451 20.7054 16.5028 20.6993 16.5562C20.5897 17.5162 20.4799 18.4762 20.3699 19.4362C20.331 19.7752 20.2923 20.1143 20.2536 20.4534C20.2064 20.8666 20.159 21.2798 20.1115 21.693C20.0872 21.9037 20.063 22.1144 20.039 22.3251C20.017 22.5182 19.9948 22.7112 19.9725 22.9043C19.9645 22.9739 19.9565 23.0436 19.9487 23.1132C19.8313 24.1496 19.8313 24.1496 19.6528 24.3683C19.4417 24.5318 19.274 24.519 19.0154 24.5189C18.9498 24.5192 18.9498 24.5192 18.8829 24.5194C18.7354 24.52 18.588 24.5202 18.4405 24.5204C18.3351 24.5207 18.2298 24.521 18.1244 24.5213C17.8375 24.5222 17.5505 24.5227 17.2636 24.5231C17.0845 24.5233 16.9053 24.5236 16.7262 24.524C16.166 24.5249 15.6059 24.5256 15.0457 24.526C14.3985 24.5265 13.7512 24.5277 13.104 24.5297C12.6041 24.5312 12.1043 24.5319 11.6044 24.5321C11.3057 24.5322 11.007 24.5326 10.7082 24.5339C10.4272 24.535 10.1462 24.5352 9.86518 24.5347C9.762 24.5347 9.65881 24.535 9.55564 24.5357C9.41482 24.5365 9.27405 24.5362 9.13323 24.5355C9.07192 24.5363 9.07192 24.5363 9.00936 24.5372C8.75147 24.5343 8.59982 24.4916 8.39788 24.3164C8.30331 24.1636 8.27996 24.0259 8.25977 23.8487C8.25323 23.7929 8.2467 23.737 8.23996 23.6796C8.23316 23.6182 8.22636 23.5569 8.21935 23.4937C8.21178 23.4278 8.20418 23.362 8.19655 23.2962C8.17566 23.1152 8.15524 22.9341 8.13488 22.7529C8.11285 22.5576 8.09038 22.3623 8.06797 22.167C8.02915 21.8282 7.9906 21.4893 7.95224 21.1505C7.89656 20.6587 7.84047 20.1669 7.78427 19.6751C7.69284 18.8748 7.60174 18.0745 7.51084 17.2742C7.42302 16.5009 7.33505 15.7276 7.24686 14.9544C7.24146 14.907 7.23605 14.8596 7.23048 14.8108C7.20333 14.5727 7.17618 14.3346 7.14902 14.0966C7.09584 13.6304 7.04269 13.1642 6.98954 12.6979C6.98438 12.6527 6.97922 12.6075 6.97391 12.5608C6.84836 11.4595 6.72308 10.3581 6.59792 9.25674C6.58982 9.18546 6.58171 9.11418 6.5736 9.0429C6.55402 8.8707 6.53448 8.69849 6.51506 8.52627C6.4789 8.20629 6.44212 7.88641 6.40354 7.56671C6.38498 7.41274 6.36672 7.25873 6.34847 7.10473C6.33978 7.03209 6.33096 6.95948 6.32197 6.88688C6.17289 5.68213 6.17289 5.68213 6.29847 5.41217C6.39962 5.28431 6.48563 5.22725 6.64006 5.17578C6.70722 5.17143 6.77457 5.16973 6.84187 5.16977C6.88315 5.16967 6.92443 5.16957 6.96697 5.16947C7.03501 5.16969 7.03501 5.16969 7.10442 5.1699C7.1526 5.16986 7.20078 5.16982 7.25042 5.16978C7.41259 5.1697 7.57475 5.16997 7.73692 5.17023C7.85288 5.17025 7.96883 5.17024 8.08479 5.17021C8.36745 5.1702 8.65011 5.17041 8.93277 5.17072C9.26162 5.17107 9.59048 5.17114 9.91934 5.1712C10.5058 5.1713 11.0923 5.17163 11.6788 5.17209C12.2485 5.17254 12.8183 5.17289 13.388 5.17309C13.4231 5.17311 13.4583 5.17312 13.4944 5.17313C13.6706 5.1732 13.8467 5.17326 14.0229 5.17332C15.4845 5.17382 16.946 5.17469 18.4076 5.17578C18.4108 5.14286 18.4139 5.10995 18.4171 5.07604C18.4213 5.03254 18.4256 4.98904 18.4299 4.94422C18.4341 4.90124 18.4382 4.85825 18.4424 4.81397C18.4622 4.63612 18.4948 4.46229 18.5306 4.28709C18.5379 4.25035 18.5453 4.2136 18.5528 4.17574C18.5767 4.0561 18.6009 3.93653 18.6253 3.81698C18.6423 3.73299 18.6592 3.649 18.6762 3.56501C18.7117 3.38982 18.7474 3.21467 18.7832 3.03954C18.829 2.81562 18.8739 2.59153 18.9186 2.3674C18.9533 2.19422 18.9886 2.02117 19.0241 1.84814C19.0409 1.76557 19.0575 1.68295 19.0739 1.60029C19.0968 1.48473 19.1206 1.36937 19.1446 1.25403C19.1511 1.22024 19.1577 1.18644 19.1644 1.15163C19.2186 0.897571 19.3106 0.671236 19.5294 0.518793C19.7152 0.461513 19.8831 0.482548 20.0678 0.537103ZM7.37249 6.24999C7.51409 7.61185 7.51409 7.61185 7.6633 8.97291C7.6712 9.04277 7.679 9.11265 7.68671 9.18253C7.69843 9.28873 7.71042 9.3949 7.72248 9.50107C7.72917 9.5606 7.73585 9.62013 7.74274 9.68147C7.749 9.80997 7.749 9.80997 7.81194 9.86327C7.93606 9.86805 8.05885 9.86962 8.18299 9.86915C8.24197 9.86921 8.24197 9.86921 8.30215 9.86927C8.43493 9.86935 8.56771 9.86908 8.70049 9.86882C8.79526 9.8688 8.89004 9.86881 8.98482 9.86884C9.24297 9.86885 9.50112 9.86857 9.75927 9.86823C10.0287 9.86792 10.2982 9.86789 10.5677 9.86783C11.0783 9.86768 11.589 9.86728 12.0997 9.86679C12.6809 9.86625 13.2621 9.86598 13.8433 9.86573C15.0392 9.86522 16.2351 9.86436 17.4311 9.86327C17.4773 9.64792 17.5236 9.43255 17.5698 9.21718C17.5827 9.157 17.5956 9.09682 17.6089 9.03482C17.72 8.51723 17.828 7.99906 17.9339 7.4804C17.963 7.33797 17.9923 7.19557 18.0216 7.05318C18.0403 6.96182 18.059 6.87046 18.0777 6.77909C18.0864 6.73689 18.0951 6.69469 18.104 6.65121C18.1474 6.45223 18.1474 6.45223 18.1635 6.24999C14.6025 6.24999 11.0414 6.24999 7.37249 6.24999ZM19.2865 6.24999C19.1719 6.70375 19.1719 6.70375 19.0696 7.15932C19.0579 7.21535 19.0462 7.27137 19.0341 7.32909C19.0221 7.3874 19.01 7.44571 18.9976 7.50579C18.9848 7.56736 18.972 7.62893 18.9588 7.69236C18.932 7.82135 18.9053 7.95036 18.8787 8.07938C18.8446 8.24447 18.8102 8.40951 18.7757 8.57453C18.7427 8.73297 18.7099 8.89148 18.6771 9.04998C18.6648 9.10908 18.6524 9.16818 18.6397 9.22908C18.6284 9.28387 18.6172 9.33866 18.6056 9.39512C18.5906 9.46728 18.5906 9.46728 18.5754 9.5409C18.5488 9.6786 18.5488 9.6786 18.5541 9.86327C18.8036 9.86448 19.053 9.86537 19.3025 9.86596C19.3874 9.8662 19.4723 9.86654 19.5572 9.86696C19.679 9.86755 19.8008 9.86783 19.9226 9.86804C19.9799 9.86842 19.9799 9.86842 20.0384 9.86881C20.1296 9.86882 20.2208 9.8663 20.3119 9.86327C20.4031 9.77206 20.3882 9.62015 20.4022 9.49747C20.406 9.46436 20.4098 9.43125 20.4137 9.39714C20.4264 9.28716 20.4387 9.17716 20.451 9.06715C20.4597 8.99093 20.4683 8.91472 20.477 8.83851C20.4953 8.67852 20.5134 8.51852 20.5313 8.3585C20.5544 8.15328 20.5777 7.9481 20.6011 7.74292C20.6191 7.58543 20.6369 7.42793 20.6548 7.27042C20.6634 7.19477 20.6719 7.11912 20.6805 7.04347C20.6925 6.93768 20.7044 6.83189 20.7163 6.72609C20.7231 6.66584 20.7299 6.6056 20.7369 6.54352C20.7538 6.39681 20.7538 6.39681 20.7514 6.24999C20.268 6.24999 19.7846 6.24999 19.2865 6.24999ZM17.5928 11.731C17.5441 11.75 17.5441 11.75 17.4945 11.7693C16.3649 12.1072 16.3649 12.1072 15.5268 12.793C15.4995 13.0576 15.5776 13.2478 15.6801 13.4853C15.6959 13.523 15.7117 13.5607 15.728 13.5995C15.7784 13.7195 15.8296 13.8391 15.8808 13.9587C15.9145 14.0388 15.9481 14.1188 15.9817 14.1989C16.0144 14.2764 16.0471 14.3539 16.0799 14.4314C16.0949 14.4669 16.1099 14.5024 16.1254 14.539C16.2001 14.7134 16.2772 14.8867 16.3583 15.0582C16.373 15.0894 16.3877 15.1207 16.4029 15.153C16.4581 15.2518 16.4581 15.2518 16.6102 15.3412C17.031 15.4309 17.5689 15.1054 17.9621 14.9447C18.0751 14.8987 18.1883 14.8534 18.3015 14.8081C18.3742 14.7784 18.4469 14.7487 18.5196 14.719C18.553 14.7058 18.5864 14.6925 18.6209 14.6789C18.8616 14.579 19.1163 14.4517 19.2377 14.209C19.2692 13.9273 19.1712 13.7123 19.0647 13.4581C19.0469 13.4146 19.029 13.3712 19.0106 13.3264C18.9728 13.2348 18.9348 13.1434 18.8965 13.052C18.8382 12.9126 18.7811 12.7728 18.7242 12.6328C18.6872 12.5437 18.6502 12.4546 18.6131 12.3655C18.5962 12.3239 18.5793 12.2823 18.5619 12.2394C18.4621 12.0043 18.3645 11.8368 18.1635 11.6699C17.9477 11.584 17.8031 11.6482 17.5928 11.731ZM9.72191 12.6806C9.62415 12.7782 9.52601 12.8755 9.42784 12.9727C9.36539 13.035 9.30295 13.0974 9.24054 13.1597C9.19668 13.2031 9.19668 13.2031 9.15192 13.2473C9.12484 13.2745 9.09776 13.3018 9.06986 13.3298C9.03422 13.3654 9.03422 13.3654 8.99786 13.4016C8.89219 13.5276 8.84268 13.6457 8.80986 13.8061C8.84001 13.9803 8.87258 14.02 8.98791 14.1471C9.01902 14.1815 9.05012 14.2158 9.08216 14.2513C9.32772 14.5151 9.57944 14.7726 9.83285 15.029C9.9019 15.0991 9.97064 15.1695 10.0391 15.2402C10.1388 15.3432 10.2394 15.4452 10.3403 15.547C10.3706 15.5786 10.4009 15.6102 10.4321 15.6428C10.5762 15.7863 10.6709 15.862 10.8674 15.9259C11.2347 15.9085 11.4729 15.5911 11.7176 15.3439C11.7539 15.3075 11.7903 15.2712 11.8277 15.2337C11.904 15.1573 11.9802 15.0807 12.0563 15.004C12.1731 14.8863 12.2903 14.7689 12.4076 14.6517C12.4818 14.5772 12.556 14.5028 12.6301 14.4283C12.6652 14.3931 12.7004 14.3579 12.7366 14.3217C12.7689 14.2891 12.8012 14.2565 12.8344 14.2229C12.8629 14.1942 12.8914 14.1655 12.9208 14.1359C13.0158 14.0317 13.0357 13.9722 13.0518 13.8306C13.0179 13.4781 12.7127 13.2366 12.4731 12.9995C12.4202 12.9467 12.4202 12.9467 12.3663 12.8928C12.2921 12.8187 12.2178 12.7448 12.1434 12.671C12.0292 12.5578 11.9155 12.4441 11.8017 12.3303C11.7295 12.2584 11.6573 12.1864 11.5851 12.1145C11.5509 12.0804 11.5168 12.0464 11.4816 12.0113C11.45 11.9799 11.4184 11.9486 11.3858 11.9164C11.358 11.8887 11.3302 11.8611 11.3015 11.8326C11.1646 11.7082 11.0308 11.6924 10.8476 11.697C10.4394 11.7807 10.0115 12.391 9.72191 12.6806ZM13.476 16.9922C13.3151 17.1726 13.2357 17.3888 13.1443 17.6094C13.1272 17.6505 13.11 17.6915 13.0924 17.7338C13.0563 17.8206 13.0204 17.9075 12.9847 17.9944C12.9301 18.1266 12.8745 18.2583 12.8188 18.3901C12.7838 18.4747 12.7489 18.5593 12.714 18.6439C12.6891 18.7025 12.6891 18.7025 12.6636 18.7622C12.5617 19.014 12.5101 19.2106 12.5483 19.4824C12.722 19.7296 12.9712 19.8215 13.2422 19.932C13.3071 19.9591 13.3071 19.9591 13.3733 19.9868C13.4645 20.0247 13.5559 20.0623 13.6474 20.0996C13.7868 20.1567 13.9257 20.215 14.0646 20.2735C14.1536 20.3103 14.2426 20.347 14.3316 20.3836C14.3729 20.401 14.4142 20.4184 14.4567 20.4363C14.6893 20.5301 14.8814 20.5939 15.1362 20.5566C15.4008 20.4154 15.4779 20.1799 15.584 19.9146C15.602 19.8712 15.6199 19.8277 15.6384 19.7829C15.6762 19.6912 15.7136 19.5993 15.7507 19.5074C15.8073 19.367 15.865 19.2271 15.9229 19.0872C15.9596 18.9978 15.9961 18.9085 16.0326 18.819C16.0498 18.7774 16.0669 18.7357 16.0845 18.6928C16.2413 18.3152 16.2413 18.3152 16.2195 17.9169C15.9495 17.5543 15.3514 17.4099 14.9388 17.2424C14.8335 17.1995 14.7286 17.156 14.6236 17.1125C14.5557 17.0848 14.4878 17.0572 14.4199 17.0296C14.3891 17.0167 14.3582 17.0038 14.3264 16.9906C14.0179 16.8667 13.7521 16.7697 13.476 16.9922Z" fill="white"/>
<path d="M10.2048 1.75782C10.2346 1.78117 10.2644 1.80452 10.2952 1.82858C10.9848 2.3781 11.5935 3.3304 11.7673 4.19922C11.1872 4.19922 10.6071 4.19922 10.0095 4.19922C9.91278 4.02198 9.8161 3.84473 9.71649 3.66211C9.66513 3.70542 9.61377 3.74872 9.56085 3.79334C9.51752 3.82988 9.51752 3.82988 9.4733 3.86715C9.36838 3.95641 9.36838 3.95641 9.26931 4.08116C9.09048 4.23332 8.99707 4.22769 8.76491 4.22306C8.73058 4.22272 8.69624 4.22237 8.66087 4.22202C8.55187 4.22066 8.443 4.2176 8.33404 4.21448C8.25988 4.21326 8.18572 4.21214 8.11155 4.21114C7.93035 4.20846 7.74921 4.20425 7.56805 4.19922C7.64636 4.00366 7.78393 3.87319 7.93159 3.72849C7.95747 3.70275 7.98334 3.67702 8.01 3.65051C8.09235 3.56869 8.17505 3.48723 8.25775 3.40577C8.31379 3.35022 8.3698 3.29465 8.42579 3.23906C8.5628 3.10313 8.70011 2.9675 8.83758 2.83204C8.66444 2.69008 8.5043 2.584 8.30048 2.49024C8.22646 2.45549 8.22646 2.45549 8.15094 2.42005C7.88124 2.31302 7.60124 2.23377 7.32391 2.14844C7.32391 2.8252 7.32391 3.50196 7.32391 4.19922C6.91302 4.22339 6.91302 4.22339 6.49383 4.24805C6.41327 4.26416 6.3327 4.28028 6.24969 4.29688C6.24969 3.58789 6.24969 2.87891 6.24969 2.14844C5.64224 2.32782 5.64224 2.32782 5.08392 2.57264C5.02866 2.60102 4.9734 2.62941 4.91646 2.65866C4.78279 2.72796 4.78279 2.72796 4.68719 2.83204C5.38812 3.53296 5.38812 3.53296 6.10321 4.24805C6.0081 4.43827 5.98139 4.47263 5.81634 4.58069C5.61581 4.72325 5.52542 4.8577 5.41962 5.07813C5.211 4.99773 5.07316 4.8408 4.92027 4.68426C4.89152 4.65525 4.86276 4.62625 4.83314 4.59636C4.74153 4.50388 4.65026 4.41109 4.55902 4.31824C4.46739 4.22527 4.3757 4.13236 4.28386 4.0396C4.22677 3.98192 4.16981 3.9241 4.113 3.86615C3.97443 3.72171 3.97443 3.72171 3.80829 3.61329C3.79507 3.64816 3.78185 3.68303 3.76823 3.71895C3.71023 3.85839 3.64204 3.98708 3.57025 4.11988C3.37912 4.50003 3.37912 4.50003 3.22235 5.17579C3.91522 5.17579 4.60809 5.17579 5.32196 5.17579C5.30585 5.4336 5.28973 5.69141 5.27313 5.95704C5.27313 6.05372 5.27313 6.15039 5.27313 6.25C4.59637 6.25 3.91962 6.25 3.22235 6.25C3.34778 6.80885 3.34778 6.80885 3.57025 7.30896C3.59659 7.35933 3.59659 7.35933 3.62347 7.41072C3.66822 7.49613 3.71378 7.58111 3.75946 7.66602C3.77557 7.69825 3.79169 7.73047 3.80829 7.76368C4.00826 7.68482 4.13969 7.54072 4.28627 7.38945C4.31286 7.3625 4.33944 7.33554 4.36684 7.30777C4.45148 7.22193 4.5358 7.13579 4.62006 7.04957C4.73129 6.93574 4.84285 6.82223 4.9546 6.70891C4.98019 6.68252 5.00577 6.65612 5.03213 6.62893C5.09436 6.56586 5.15912 6.50532 5.2243 6.44532C5.25653 6.44532 5.28876 6.44532 5.32196 6.44532C5.34803 6.6436 5.37322 6.84199 5.39825 7.04041C5.40565 7.09659 5.41305 7.15276 5.42067 7.21064C5.42743 7.26493 5.4342 7.31922 5.44117 7.37515C5.44756 7.42501 5.45395 7.47487 5.46054 7.52625C5.47104 7.71196 5.46697 7.84851 5.35132 7.99908C5.32294 8.02582 5.29455 8.05256 5.26531 8.08011C5.21928 8.12453 5.21928 8.12453 5.17233 8.16985C5.14013 8.19996 5.10794 8.23008 5.07477 8.26111C5.01092 8.32161 4.94726 8.38232 4.88384 8.44326C4.84135 8.48313 4.84135 8.48313 4.798 8.52379C4.72523 8.59036 4.72523 8.59036 4.73602 8.69141C4.79129 8.71904 4.84655 8.74667 4.90349 8.77514C5.14063 8.89372 5.37778 9.01229 5.61493 9.13086C5.64394 9.27226 5.64394 9.27226 5.66719 9.45988C5.67139 9.49295 5.67558 9.52601 5.67991 9.56008C5.68873 9.6302 5.69733 9.70035 5.70574 9.77053C5.71858 9.87764 5.73202 9.98467 5.74558 10.0917C5.81024 10.6104 5.81024 10.6104 5.81024 10.8398C4.72934 10.8005 3.63522 10.0909 2.91126 9.3216C2.02529 8.28478 1.54066 7.12029 1.54694 5.74952C1.54721 5.68675 1.54749 5.62398 1.54777 5.55932C1.56604 4.13243 2.17515 2.87204 3.18283 1.87107C5.11662 0.0370351 8.21361 0.0505888 10.2048 1.75782Z" fill="white"/>
</svg>
