<svg id="Layer_1" viewBox="0 0 512 512" xmlns="http://www.w3.org/2000/svg" data-name="Layer 1" style="shape-rendering:geometricPrecision; text-rendering:geometricPrecision; image-rendering:optimizeQuality; fill-rule:evenodd; clip-rule:evenodd" xmlns:xlink="http://www.w3.org/1999/xlink">
<g><path style="opacity:0.984" d="M 511.5,98.5 C 511.5,103.833 511.5,109.167 511.5,114.5C 507.279,126.55 498.946,134.384 486.5,138C 332.5,138.667 178.5,138.667 24.5,138C 12.0544,134.384 3.72111,126.55 -0.5,114.5C -0.5,108.833 -0.5,103.167 -0.5,97.5C 3.96206,84.5429 12.9621,76.7095 26.5,74C 179.167,73.3333 331.833,73.3333 484.5,74C 498.475,76.8131 507.475,84.9798 511.5,98.5 Z"/></g>
<g><path style="opacity:0.998" d="M 511.5,247.5 C 511.5,252.833 511.5,258.167 511.5,263.5C 508.015,275.818 500.015,283.651 487.5,287C 332.833,287.667 178.167,287.667 23.5,287C 10.9853,283.651 2.98533,275.818 -0.5,263.5C -0.5,258.167 -0.5,252.833 -0.5,247.5C 2.98533,235.182 10.9853,227.349 23.5,224C 178.167,223.333 332.833,223.333 487.5,224C 500.015,227.349 508.015,235.182 511.5,247.5 Z"/></g>
<g><path style="opacity:0.983" d="M 511.5,396.5 C 511.5,401.833 511.5,407.167 511.5,412.5C 507.475,426.02 498.475,434.187 484.5,437C 331.833,437.667 179.167,437.667 26.5,437C 12.9621,434.29 3.96206,426.457 -0.5,413.5C -0.5,407.833 -0.5,402.167 -0.5,396.5C 3.72956,384.441 12.0629,376.607 24.5,373C 178.5,372.333 332.5,372.333 486.5,373C 498.937,376.607 507.27,384.441 511.5,396.5 Z"/></g>
</svg>
