<svg id="Layer_1" viewBox="0 0 512 512" xmlns="http://www.w3.org/2000/svg" data-name="Layer 1" style="shape-rendering:geometricPrecision; text-rendering:geometricPrecision; image-rendering:optimizeQuality; fill-rule:evenodd; clip-rule:evenodd" xmlns:xlink="http://www.w3.org/1999/xlink">
<g><path style="opacity:0.996" d="M 172.5,-0.5 C 175.833,-0.5 179.167,-0.5 182.5,-0.5C 231.157,18.1369 279.824,18.1369 328.5,-0.5C 331.833,-0.5 335.167,-0.5 338.5,-0.5C 365.62,12.8919 392.953,26.0585 420.5,39C 445.938,54.1155 462.771,75.9488 471,104.5C 480.247,139.989 489.414,175.489 498.5,211C 498.276,215.455 496.276,218.788 492.5,221C 464.918,236.707 437.418,252.54 410,268.5C 409.667,329.5 409.333,390.5 409,451.5C 407.989,471.036 398.489,484.536 380.5,492C 348.738,502.052 316.405,508.552 283.5,511.5C 264.833,511.5 246.167,511.5 227.5,511.5C 199.185,508.834 171.185,503.667 143.5,496C 129.89,493.453 118.724,486.953 110,476.5C 104.762,469.015 102.095,460.682 102,451.5C 101.667,390.5 101.333,329.5 101,268.5C 72.1695,252.086 43.5028,235.419 15,218.5C 13.4481,216.232 12.6148,213.732 12.5,211C 21.7635,174.446 31.2635,137.946 41,101.5C 49.6995,74.4695 66.1995,53.6361 90.5,39C 118.047,26.0585 145.38,12.8919 172.5,-0.5 Z M 191.5,26.5 C 233.986,38.4714 276.486,38.4714 319,26.5C 312.206,52.2913 295.706,68.458 269.5,75C 235.907,79.6205 211.074,67.1205 195,37.5C 193.326,33.9793 192.16,30.3127 191.5,26.5 Z"/></g>
</svg>
