<?xml version="1.0" encoding="UTF-8"?>
<svg id="Layer_1" viewBox="0 0 512 512" xmlns="http://www.w3.org/2000/svg" data-name="Layer 1">
<path d="M0 0 C0.66 0 1.32 0 2 0 C7.08736861 10.9282719 12.16098272 21.86276433 17.21229553 32.80775452 C19.54167971 37.85307008 21.88210049 42.89287376 24.23924255 47.92527771 C25.48847193 50.59979277 26.72495386 53.28003923 27.95742798 55.96231079 C28.79969517 57.78479313 29.65791474 59.59987562 30.51635742 61.41479492 C31.01240479 62.50123291 31.50845215 63.5876709 32.01953125 64.70703125 C32.45370361 65.6400708 32.88787598 66.57311035 33.33520508 67.53442383 C34 70 34 70 33.41123104 71.77064705 C31.38728143 74.9679251 28.76407869 77.49287051 26.08509827 80.13522339 C25.47297326 80.74694055 24.86084825 81.35865771 24.23017401 81.98891175 C22.17516016 84.04019119 20.11309106 86.08422937 18.05102539 88.12841797 C16.57733393 89.59663476 15.10410387 91.0653148 13.63130188 92.53442383 C10.45727182 95.69873648 7.28021105 98.85996369 4.10084724 102.01891708 C-0.92575329 107.01373383 -5.94421254 112.01667589 -10.96131897 117.02102661 C-23.42518776 129.45079109 -35.89830382 141.87126513 -48.37628174 154.28686523 C-58.07119792 163.93334213 -67.7629221 173.5829719 -77.44413191 183.2432071 C-82.43129317 188.21883914 -87.42532201 193.18744195 -92.42458522 198.150913 C-95.53349018 201.24063002 -98.63612693 204.33658228 -101.7370472 207.43431091 C-103.17638316 208.86962676 -104.6183052 210.30235466 -106.06298828 211.73228836 C-108.03503109 213.68491984 -109.9975996 215.6466136 -111.95811462 217.61080933 C-112.5316541 218.17424604 -113.10519359 218.73768276 -113.69611305 219.31819332 C-116.94872281 222.60004267 -119.29300287 225.6197684 -121 230 C-120.40277505 233.80730903 -119.63170342 235.43848585 -116.75 238 C-114.03899099 239.22606541 -114.03899099 239.22606541 -111.1875 238.625 C-101.31168761 233.59027211 -93.44815152 223.58306918 -85.68945312 215.80297852 C-84.25008272 214.3633257 -82.8104914 212.92389372 -81.37069702 211.48466492 C-77.48062324 207.59487699 -73.5936314 203.70202266 -69.707201 199.80859494 C-65.63842571 195.73355084 -61.56680147 191.66135529 -57.4954834 187.58885193 C-49.79431004 179.88457564 -42.09568846 172.17775469 -34.3979888 164.47000784 C-25.63090662 155.69173226 -16.86097073 146.91631006 -8.09079838 138.14112198 C9.94263655 120.09724618 27.9724991 102.04980432 46 84 C55.51332398 87.08858907 55.51332398 87.08858907 59.4362793 88.92602539 C60.18612091 89.27422333 60.93596252 89.62242126 61.70852661 89.98117065 C62.87954422 90.53383102 62.87954422 90.53383102 64.07421875 91.09765625 C64.91322723 91.48865509 65.75223572 91.87965393 66.6166687 92.28250122 C69.30899683 93.53816203 71.99821694 94.80033277 74.6875 96.0625 C77.45417113 97.35443124 80.22165086 98.64461887 82.98918152 99.93470764 C84.80601909 100.78175903 86.62260076 101.62935955 88.43891907 102.4775238 C95.46154068 105.75568342 102.50213289 108.99130621 109.5625 112.1875 C110.45219482 112.5904126 111.34188965 112.9933252 112.25854492 113.40844727 C114.17172773 114.27370483 116.08573512 115.13713901 118 116 C116.08043346 120.30716672 113.1010098 122.60955206 109.4375 125.4375 C108.77419678 125.95900635 108.11089355 126.4805127 107.42749023 127.01782227 C101.80223231 131.42439469 96.10948732 135.74403554 90.41870117 140.06542969 C84.76170759 144.37613205 79.23684387 148.83282342 73.73413086 153.33789062 C68.17740664 157.87937147 62.51437889 162.25937111 56.80908203 166.61328125 C53.21286164 169.36989823 49.63858852 172.1548491 46.0625 174.9375 C45.29341309 175.53594727 44.52432617 176.13439453 43.73193359 176.75097656 C37.36845432 181.70648721 31.02251493 186.68399423 24.68554688 191.67333984 C21.79191173 193.95086206 18.89580677 196.22524007 16 198.5 C14.83332204 199.4166523 13.66665536 200.33331895 12.5 201.25 C5.5 206.75 -1.5 212.25 -8.5 217.75 C-9.07717773 218.2035083 -9.65435547 218.6570166 -10.24902344 219.12426758 C-11.41890016 220.04343313 -12.58882223 220.96254095 -13.75878906 221.8815918 C-16.62671157 224.13456094 -19.4939099 226.38843723 -22.359375 228.64453125 C-29.65890138 234.38952887 -36.983049 240.10203617 -44.31835938 245.80126953 C-50.66783028 250.73658931 -56.99591836 255.69850748 -63.31445312 260.67333984 C-66.20808827 262.95086206 -69.10419323 265.22524007 -72 267.5 C-73.16667796 268.4166523 -74.33334464 269.33331895 -75.5 270.25 C-82.5 275.75 -89.5 281.25 -96.5 286.75 C-97.07717773 287.2035083 -97.65435547 287.6570166 -98.24902344 288.12426758 C-99.41890016 289.04343313 -100.58882223 289.96254095 -101.75878906 290.8815918 C-104.62671157 293.13456094 -107.4939099 295.38843723 -110.359375 297.64453125 C-117.65890138 303.38952887 -124.983049 309.10203617 -132.31835938 314.80126953 C-136.97162287 318.4181604 -141.61683694 322.04489797 -146.25 325.6875 C-146.80478027 326.12312256 -147.35956055 326.55874512 -147.93115234 327.00756836 C-150.90747887 329.34660778 -153.87549939 331.69556513 -156.8359375 334.0546875 C-157.46983398 334.55782471 -158.10373047 335.06096191 -158.75683594 335.5793457 C-159.96818877 336.54105094 -161.17731825 337.50556596 -162.38378906 338.47338867 C-165.20559544 340.7096078 -167.75203627 342.37601813 -171 344 C-181.395 333.605 -181.395 333.605 -192 323 C-188.45170237 318.86031944 -185.12759179 315.00658373 -181.28515625 311.22265625 C-180.43373047 310.37896484 -179.58230469 309.53527344 -178.70507812 308.66601562 C-176.94729449 306.93421549 -175.18948212 305.20244453 -173.43164062 303.47070312 C-169.65880668 299.7320899 -165.93858924 296.00940145 -162.48828125 291.96875 C-159.86972739 288.90973486 -157.09982152 286.09799973 -154.1953125 283.30859375 C-152.95007813 282.10879883 -152.95007813 282.10879883 -151.6796875 280.88476562 C-149.96236208 279.2396519 -148.23559438 277.60434399 -146.5 275.97851562 C-141.39344267 271.30015621 -141.39344267 271.30015621 -138.8046875 265.09765625 C-138.75086716 261.83068639 -138.75086716 261.83068639 -141 259 C-143.85963999 256.6853022 -143.85963999 256.6853022 -147.32055664 257.04248047 C-151.67348053 258.17526313 -153.89316742 260.13324799 -156.87109375 263.3203125 C-157.39711685 263.85719696 -157.92313995 264.39408142 -158.46510315 264.94723511 C-160.13737639 266.65948344 -161.78780161 268.3910175 -163.4375 270.125 C-165.61855589 272.38261226 -167.80744069 274.63256823 -169.99609375 276.8828125 C-170.5245993 277.42922897 -171.05310486 277.97564545 -171.59762573 278.53862 C-174.92330521 281.95985596 -178.35888148 285.15226796 -182.00024414 288.23828125 C-186.36979578 292.08771167 -190.40348016 296.30227757 -194.5 300.4375 C-195.4178125 301.35982422 -196.335625 302.28214844 -197.28125 303.23242188 C-199.52315055 305.48599899 -201.762666 307.74189075 -204 310 C-209.25174926 305.61557474 -214.13222473 300.99157907 -218.9375 296.125 C-219.96327148 295.09246094 -219.96327148 295.09246094 -221.00976562 294.0390625 C-222.67551464 292.36166489 -224.3388622 290.68196209 -226 289 C-223.67722486 284.89693996 -220.93651741 281.23638081 -218 277.5625 C-217.00645261 276.30863956 -216.01296461 275.05473204 -215.01953125 273.80078125 C-214.262771 272.84872803 -214.262771 272.84872803 -213.49072266 271.87744141 C-211.21330503 269.00922301 -208.94982892 266.13012517 -206.6875 263.25 C-206.24212891 262.6835376 -205.79675781 262.1170752 -205.33789062 261.53344727 C-201.54233212 256.70158385 -197.7697895 251.85198171 -194 247 C-188.46549557 239.87670722 -182.9069184 232.77303308 -177.32666016 225.68554688 C-175.04913794 222.79191173 -172.77475993 219.89580677 -170.5 217 C-169.5833477 215.83332204 -168.66668105 214.66665536 -167.75 213.5 C-167.29625 212.9225 -166.8425 212.345 -166.375 211.75 C-151.25 192.5 -151.25 192.5 -149.87573242 190.75097656 C-148.95656687 189.58109984 -148.03745905 188.41117777 -147.1184082 187.24121094 C-144.86543906 184.37328843 -142.61156277 181.5060901 -140.35546875 178.640625 C-135.21573608 172.11014114 -130.09879658 165.56250641 -125 159 C-119.46549557 151.87670722 -113.9069184 144.77303308 -108.32666016 137.68554688 C-106.04913794 134.79191173 -103.77475993 131.89580677 -101.5 129 C-100.5833477 127.83332204 -99.66668105 126.66665536 -98.75 125.5 C-98.29625 124.9225 -97.8425 124.345 -97.375 123.75 C-82.25 104.5 -82.25 104.5 -80.87573242 102.75097656 C-79.95656687 101.58109984 -79.03745905 100.41117777 -78.1184082 99.24121094 C-75.86543906 96.37328843 -73.61156277 93.5060901 -71.35546875 90.640625 C-66.21573608 84.11014114 -61.09879658 77.56250641 -56 71 C-50.46549557 63.87670722 -44.9069184 56.77303308 -39.32666016 49.68554688 C-37.04913794 46.79191173 -34.77475993 43.89580677 -32.5 41 C-31.5833477 39.83332204 -30.66668105 38.66665536 -29.75 37.5 C-29.29625 36.9225 -28.8425 36.345 -28.375 35.75 C-27 34 -25.625 32.25 -24.25 30.5 C-23.7957666 29.92185547 -23.3415332 29.34371094 -22.87353516 28.74804688 C-21.96186643 27.58780015 -21.05008359 26.42764309 -20.13818359 25.26757812 C-17.76907842 22.25343215 -15.40230195 19.23749783 -13.0390625 16.21875 C-12.30719727 15.28482422 -12.30719727 15.28482422 -11.56054688 14.33203125 C-10.63662307 13.15292849 -9.71339007 11.97328392 -8.79101562 10.79296875 C-7.53412434 9.18981062 -6.26837646 7.59408057 -5 6 C-4.55108398 5.42636719 -4.10216797 4.85273438 -3.63964844 4.26171875 C-2.47232263 2.80320194 -1.2408589 1.39649204 0 0 Z " fill="#000000" transform="translate(369,25)"/>
<path d="M0 0 C0.69918061 -0.00779995 1.39836122 -0.01559991 2.11872911 -0.02363622 C4.44977335 -0.0435 6.77917464 -0.02781576 9.11022949 -0.01205444 C10.78609669 -0.01883314 12.46195645 -0.02773769 14.13780212 -0.03860474 C18.68127944 -0.06137492 23.2241883 -0.05257128 27.7676754 -0.03670931 C32.5254709 -0.02403846 37.28321818 -0.03579372 42.04101562 -0.04364014 C50.03048428 -0.05273325 58.01972173 -0.04075768 66.00915527 -0.01693726 C75.24222673 0.0102734 84.47474612 0.00145899 93.7078042 -0.02606928 C101.63921152 -0.048769 109.57045277 -0.05195622 117.50188208 -0.03887594 C122.23719168 -0.03108617 126.97224191 -0.03002678 131.70753479 -0.04655838 C136.1597836 -0.06101647 140.6113216 -0.05095728 145.06349373 -0.0220871 C146.69609968 -0.01548339 148.32876559 -0.01736179 149.96134758 -0.02840042 C152.19305297 -0.04209725 154.42249126 -0.02489496 156.65405273 0 C157.90174187 0.00188513 159.149431 0.00377026 160.43492889 0.00571251 C164.95150565 0.84349971 166.60439172 2.40530049 169.82702637 5.63491821 C170.58892822 7.94888306 170.58892822 7.94888306 170.60339355 10.34585571 C170.62230652 11.25029419 170.64121948 12.15473267 170.66070557 13.08657837 C170.64856018 14.05128052 170.63641479 15.01598267 170.62390137 16.00991821 C170.62964172 17.01200317 170.63538208 18.01408813 170.64129639 19.04653931 C170.64537212 21.16130845 170.63435042 23.27615345 170.60925293 25.39077759 C170.57712572 28.6249168 170.60895622 31.85405914 170.64733887 35.08804321 C170.64337389 37.14534589 170.63568627 39.20264547 170.62390137 41.25991821 C170.63604675 42.22462036 170.64819214 43.18932251 170.66070557 44.18325806 C170.63233612 45.53991577 170.63233612 45.53991577 170.60339355 46.92398071 C170.59862 47.71498169 170.59384644 48.50598267 170.58892822 49.32095337 C169.43067597 52.83867021 166.89458257 54.75212125 163.82702637 56.63491821 C160.43492889 57.26412392 160.43492889 57.26412392 156.65405273 57.26983643 C155.95487213 57.27763638 155.25569152 57.28543633 154.53532362 57.29347265 C152.20427939 57.31333643 149.8748781 57.29765219 147.54382324 57.28189087 C145.86795604 57.28866956 144.19209629 57.29757411 142.51625061 57.30844116 C137.97277329 57.33121134 133.42986443 57.32240771 128.88637733 57.30654573 C124.12858183 57.29387489 119.37083455 57.30563014 114.61303711 57.31347656 C106.62356846 57.32256967 98.634331 57.3105941 90.64489746 57.28677368 C81.411826 57.25956303 72.17930661 57.26837743 62.94624853 57.29590571 C55.01484122 57.31860543 47.08359997 57.32179265 39.15217066 57.30871236 C34.41686105 57.30092259 29.68181082 57.29986321 24.94651794 57.31639481 C20.49426913 57.3308529 16.04273113 57.32079371 11.59055901 57.29192352 C9.95795305 57.28531982 8.32528714 57.28719822 6.69270515 57.29823685 C4.46099976 57.31193367 2.23156147 57.29473139 0 57.26983643 C-1.24768913 57.2679513 -2.49537827 57.26606617 -3.78087616 57.26412392 C-8.29745291 56.42633671 -9.95033899 54.86453593 -13.17297363 51.63491821 C-13.93487549 49.32095337 -13.93487549 49.32095337 -13.94934082 46.92398071 C-13.96825378 46.01954224 -13.98716675 45.11510376 -14.00665283 44.18325806 C-13.99450745 43.21855591 -13.98236206 42.25385376 -13.96984863 41.25991821 C-13.97558899 40.25783325 -13.98132935 39.25574829 -13.98724365 38.22329712 C-13.99131938 36.10852798 -13.98029768 33.99368298 -13.9552002 31.87905884 C-13.92307298 28.64491963 -13.95490349 25.41577728 -13.99328613 22.18179321 C-13.98932116 20.12449053 -13.98163354 18.06719096 -13.96984863 16.00991821 C-13.98199402 15.04521606 -13.9941394 14.08051392 -14.00665283 13.08657837 C-13.98773987 12.18213989 -13.9688269 11.27770142 -13.94934082 10.34585571 C-13.94456726 9.55485474 -13.9397937 8.76385376 -13.93487549 7.94888306 C-11.79747635 1.45740856 -6.14842298 0.00928963 0 0 Z " fill="#000000" transform="translate(333.1729736328125,355.3650817871094)"/>
<path d="M0 0 C3.49100769 3.70919567 3.15235578 6.39457614 3.10039902 11.28892326 C2.9357963 15.93862952 2.44859059 20.53665714 1.93017578 25.15844727 C1.81634552 26.21168686 1.70251526 27.26492645 1.5852356 28.3500824 C1.21093926 31.79783809 0.82857815 35.24463691 0.4453125 38.69140625 C0.18085175 41.09608196 -0.08339675 43.50078102 -0.34744263 45.90550232 C-0.90019319 50.92644371 -1.45727087 55.94688304 -2.01708984 60.96704102 C-2.73560706 67.41580972 -3.44051153 73.8659871 -4.14192009 80.31663609 C-4.68282055 85.2731002 -5.23219957 90.22859672 -5.78406143 95.18385124 C-6.04776822 97.56349151 -6.30847875 99.94346573 -6.56618881 102.32376289 C-6.92576179 105.63559698 -7.29701332 108.94591458 -7.67138672 112.25610352 C-7.77640503 113.24667755 -7.88142334 114.23725159 -7.98962402 115.25784302 C-8.14520279 116.60132057 -8.14520279 116.60132057 -8.30392456 117.97193909 C-8.3905731 118.75445825 -8.47722164 119.53697741 -8.5664959 120.34320927 C-8.70955225 120.93120021 -8.8526086 121.51919115 -9 122.125 C-9.99 122.62 -9.99 122.62 -11 123.125 C-13.40330566 122.23384136 -15.68736483 121.27567706 -18.015625 120.21484375 C-19.08937378 119.73634727 -19.08937378 119.73634727 -20.18481445 119.2481842 C-22.54351781 118.19421226 -24.89677605 117.12864339 -27.25 116.0625 C-28.8705746 115.33485506 -30.49134446 114.60764486 -32.11230469 113.88085938 C-47.14881051 107.12196955 -62.09453485 100.16758219 -77 93.125 C-77 90.125 -77 90.125 -75.80534363 88.58303833 C-75.24591568 88.03630463 -74.68648773 87.48957092 -74.11010742 86.92626953 C-73.47912643 86.30197052 -72.84814545 85.67767151 -72.19804382 85.03445435 C-71.50749405 84.36566254 -70.81694427 83.69687073 -70.10546875 83.0078125 C-69.40231033 82.31364227 -68.69915192 81.61947205 -67.97468567 80.90426636 C-65.7192691 78.67895034 -63.4542832 76.46373235 -61.1875 74.25 C-58.93225531 72.04261642 -56.67932432 69.83306084 -54.43244934 67.61715698 C-53.03298526 66.23740535 -51.62861276 64.86261014 -50.21879578 63.49343872 C-45.4554723 58.80836402 -45.4554723 58.80836402 -42 53.125 C-42.12590831 49.97729226 -42.45636184 47.9547635 -44.1875 45.3125 C-47.00019084 43.46970255 -48.59676938 43.0607881 -52 43.125 C-57.81747448 46.54067254 -62.60083782 51.47342508 -67.2734375 56.2734375 C-67.92325592 56.93082916 -68.57307434 57.58822083 -69.24258423 58.26553345 C-71.29170878 60.33884556 -73.33412539 62.41856862 -75.375 64.5 C-78.08545739 67.2634922 -80.80238088 70.02038596 -83.5234375 72.7734375 C-84.14423187 73.41082855 -84.76502625 74.0482196 -85.40463257 74.70492554 C-86.89887641 76.21634791 -88.44487246 77.67629693 -90 79.125 C-90.66 79.125 -91.32 79.125 -92 79.125 C-92.4650293 78.08218872 -92.4650293 78.08218872 -92.93945312 77.01831055 C-94.45801111 73.61564651 -95.97858734 70.21388827 -97.5 66.8125 C-97.78234497 66.18095001 -98.06468994 65.54940002 -98.35559082 64.89871216 C-101.99477174 56.76328577 -105.66860876 48.64476278 -109.390625 40.546875 C-109.75438232 39.75477127 -110.11813965 38.96266754 -110.49291992 38.14656067 C-112.28433373 34.24686551 -114.07976234 30.3490896 -115.88085938 26.45385742 C-116.5404898 25.02007713 -117.20000089 23.58624193 -117.859375 22.15234375 C-118.16296936 21.49937317 -118.46656372 20.84640259 -118.77935791 20.17364502 C-121.55469163 14.12181717 -121.55469163 14.12181717 -122 11.125 C-120.47200347 9.59700347 -118.93058707 9.784747 -116.80224609 9.54917908 C-115.44397957 9.39566231 -115.44397957 9.39566231 -114.05827332 9.23904419 C-113.0567775 9.1304306 -112.05528168 9.02181702 -111.0234375 8.90991211 C-109.97460892 8.79272324 -108.92578033 8.67553436 -107.84516907 8.55479431 C-104.35559303 8.16616728 -100.86533924 7.78405117 -97.375 7.40234375 C-94.95415604 7.13497349 -92.53333931 6.86735656 -90.11254883 6.59950256 C-85.02505368 6.03763958 -79.93721436 5.4790271 -74.84912109 4.92260742 C-68.33965672 4.21045587 -61.83114466 3.48999218 -55.32287598 2.76700497 C-50.31657057 2.21186897 -45.30976263 1.66137741 -40.30279541 1.11224556 C-37.9041531 0.84858113 -35.50567238 0.58344219 -33.10736084 0.31678581 C-29.74264631 -0.05664836 -26.37729905 -0.42376866 -23.01171875 -0.78930664 C-21.53376579 -0.95526337 -21.53376579 -0.95526337 -20.0259552 -1.12457275 C-4.46865933 -2.79291208 -4.46865933 -2.79291208 0 0 Z " fill="#000000" transform="translate(507,3.875)"/>
<path d="M0 0 C1.45930435 -0.01496269 1.45930435 -0.01496269 2.9480896 -0.03022766 C4.0089679 -0.03089233 5.06984619 -0.03155701 6.16287231 -0.03224182 C7.28523285 -0.04056534 8.40759338 -0.04888885 9.56396484 -0.0574646 C13.27942356 -0.08158807 16.99470683 -0.09033941 20.7102356 -0.09693909 C23.2908941 -0.10590311 25.87155206 -0.11502491 28.45220947 -0.1242981 C33.86424372 -0.1407967 39.27620722 -0.14852296 44.68826294 -0.15138245 C50.93685037 -0.1550174 57.18494653 -0.18491199 63.43338382 -0.22678703 C69.45194179 -0.26570256 75.47022789 -0.27697576 81.48892593 -0.2781086 C84.04621165 -0.28231753 86.60349755 -0.29477857 89.16070175 -0.31562614 C92.73738203 -0.34246519 96.31270544 -0.33773608 99.88943481 -0.32521057 C101.47467957 -0.34746201 101.47467957 -0.34746201 103.09194946 -0.37016296 C107.69101192 -0.32427316 111.1056956 -0.29019547 114.81214905 2.62619019 C117.63436398 5.815201 117.91568596 7.28143768 117.91726685 11.49290466 C117.9204895 12.67239685 117.92371216 13.85188904 117.92703247 15.06712341 C117.88546021 16.90210388 117.88546021 16.90210388 117.8430481 18.77415466 C117.86528442 20.60913513 117.86528442 20.60913513 117.88796997 22.48118591 C117.79562927 32.42139076 117.79562927 32.42139076 114.80007935 35.55540466 C111.25334213 37.86052191 108.6751309 38.399664 104.53851318 38.41459656 C103.11696678 38.42316177 103.11696678 38.42316177 101.66670227 38.43190002 C100.10971367 38.43357681 100.10971367 38.43357681 98.52127075 38.43528748 C96.87943062 38.44273483 96.87943062 38.44273483 95.204422 38.45033264 C91.57614519 38.46496221 87.94791208 38.47175726 84.3196106 38.47727966 C81.80238849 38.48303001 79.28516641 38.48878776 76.76794434 38.49455261 C72.16221362 38.5037205 67.55649547 38.51002019 62.95075667 38.51304936 C56.17532827 38.51753027 49.40010159 38.53508144 42.62473452 38.56404996 C36.75304431 38.588282 30.88142137 38.59599417 25.00968552 38.59772491 C22.51299313 38.60075532 20.01630167 38.60879681 17.51964188 38.6219101 C14.02914325 38.63893608 10.53913763 38.63709862 7.0486145 38.63059998 C5.49769859 38.64442215 5.49769859 38.64442215 3.91545105 38.65852356 C-4.82903743 38.60744049 -4.82903743 38.60744049 -8.8444519 35.27415466 C-12.95077578 30.67471329 -12.28838344 25.16136976 -12.2194519 19.33665466 C-12.23105347 18.36018982 -12.24265503 17.38372498 -12.25460815 16.37767029 C-12.23272149 10.99719822 -12.06537948 6.81405936 -8.8444519 2.27415466 C-5.84014424 0.38521577 -3.51733908 0.01938211 0 0 Z " fill="#000000" transform="translate(65.84445190429688,99.72584533691406)"/>
<path d="M0 0 C5.92707277 4.91550624 11.35903664 10.2235987 16.79077148 15.67724609 C17.7570939 16.64385111 18.72363761 17.61023494 19.69038391 18.57641602 C22.29543517 21.18118213 24.89740683 23.7890045 27.49880862 26.39741468 C30.22494639 29.12983338 32.95394486 31.85939199 35.68263245 34.58926392 C40.84097527 39.75070614 45.99676519 44.9146906 51.1516276 50.07960856 C57.02393537 55.9631208 62.89910663 61.84377008 68.77451217 67.72418857 C80.8528487 79.81295796 92.92761029 91.9052919 105 104 C104.67 104.66 104.34 105.32 104 106 C103.34 106 102.68 106 102 106 C101.73058594 106.56460938 101.46117187 107.12921875 101.18359375 107.7109375 C99.93922718 110.11753423 98.52275358 112.34358601 97.0625 114.625 C94.06320241 119.55294127 92.35470389 124.4148173 91 130 C88 130 88 130 85.85047626 128.21961975 C85.01256644 127.37894455 84.17465662 126.53826935 83.31135559 125.67211914 C82.84326735 125.20659417 82.3751791 124.7410692 81.89290637 124.26143742 C80.31957271 122.69306192 78.75722957 121.11417196 77.19458008 119.53515625 C76.07164337 118.41137371 74.94804641 117.2882506 73.82383728 116.16574097 C70.76777081 113.11053758 67.72106192 110.04615215 64.67590165 106.98008347 C61.49417344 103.77964068 58.30398535 100.58765405 55.1146698 97.39477539 C49.07386258 91.34463234 43.04074528 85.28688044 37.01032704 79.22638416 C30.14567757 72.32823851 23.272539 65.43857814 16.3986603 58.54963112 C2.25628101 44.37586797 -11.87535851 30.19143809 -26 16 C-25.67 15.34 -25.34 14.68 -25 14 C-23.06640625 13.359375 -23.06640625 13.359375 -20.5625 12.75 C-15.56597118 11.35211891 -11.58009977 9.18889122 -7.2265625 6.40234375 C-5 5 -5 5 -2.7734375 4.00390625 C-0.64874764 3.06257882 -0.64874764 3.06257882 0 0 Z " fill="#000000" transform="translate(106,301)"/>
<path d="M0 0 C2.17276701 2.89702268 3.76841361 5.27126074 5.37597656 8.4296875 C6.04116302 9.73123779 6.04116302 9.73123779 6.7197876 11.05908203 C7.18866394 11.98833496 7.65754028 12.91758789 8.140625 13.875 C8.62706482 14.83647949 9.11350464 15.79795898 9.61468506 16.78857422 C10.63892877 18.81820169 11.66087017 20.84899243 12.68066406 22.88085938 C14.24707614 25.99418866 15.83033079 29.09857829 17.4140625 32.203125 C18.40730313 34.17655364 19.39952576 36.15049504 20.390625 38.125 C21.1060849 39.51887939 21.1060849 39.51887939 21.83599854 40.94091797 C22.26684753 41.80861816 22.69769653 42.67631836 23.14160156 43.5703125 C23.71760101 44.71137451 23.71760101 44.71137451 24.30523682 45.87548828 C25.13619975 48.4164843 25.00101103 49.54108231 24 52 C22.18957493 54.02225327 20.39650242 55.88637972 18.4375 57.75 C17.65729492 58.50990234 17.65729492 58.50990234 16.86132812 59.28515625 C15.58089916 60.53034405 14.29132446 61.76611502 13 63 C13.44472656 63.556875 13.88945313 64.11375 14.34765625 64.6875 C19.55189424 71.70551569 19.55189424 71.70551569 19.1875 76.3125 C18 80 18 80 15.9375 82.5 C12.15171359 84.43316753 9.09437795 85.12013313 5 84 C3.19029236 82.74617004 3.19029236 82.74617004 1.35913086 81.06958008 C0.31449173 80.11458115 0.31449173 80.11458115 -0.75125122 79.14028931 C-4.87173144 75.2185441 -8.91598908 71.22612552 -12.93359375 67.19921875 C-13.85213638 66.28163284 -14.77067902 65.36404694 -15.71705627 64.4186554 C-17.64396949 62.49320392 -19.56909375 60.56598693 -21.49291992 58.63745117 C-23.95982339 56.16480285 -26.43125536 53.69673681 -28.904006 51.22993755 C-31.27046121 48.86795286 -33.63311268 46.50217911 -35.99609375 44.13671875 C-36.88453476 43.25030197 -37.77297577 42.36388519 -38.68833923 41.4506073 C-39.50331375 40.63248062 -40.31828827 39.81435394 -41.15795898 38.97143555 C-42.23762184 37.8905793 -42.23762184 37.8905793 -43.33909607 36.78788757 C-46.18914574 33.71993867 -46.35282215 31.20360727 -46.26953125 27.0390625 C-45.81827209 23.62518884 -44.62561128 22.16612931 -42 20 C-39.26774554 19.01173775 -36.89191242 18.69910738 -34 19 C-30.6875 20.8125 -30.6875 20.8125 -28 23 C-27.01 23.66 -26.02 24.32 -25 25 C-16.75 16.75 -8.5 8.5 0 0 Z " fill="#000000" transform="translate(46,428)"/>
<path d="M0 0 C5.55406696 4.09917752 9.27639585 9.29822153 11 16 C12.15657634 24.69614472 11.19817418 31.82096818 6 39 C0.16390553 45.71150864 -6.18258412 48.54119849 -14.9375 49.375 C-22.96493309 48.97602221 -29.47414564 46.53210254 -35.30859375 40.96875 C-40.40511991 35.03653479 -42.39158368 28.21754225 -42.27734375 20.5 C-41.44031901 12.95498829 -37.75494552 5.94031852 -32 1 C-21.81754598 -5.44757706 -10.5855097 -6.01328114 0 0 Z " fill="#000000" transform="translate(89,250)"/>
<path d="M0 0 C6.62958738 4.80033392 10.69028185 10.53334776 12.22265625 18.609375 C13.19611766 26.5204628 11.53759236 33.97587505 6.66015625 40.359375 C0.69238139 46.60370528 -5.71041103 48.91451979 -14.27734375 49.234375 C-22.86745826 48.91365428 -29.27848035 46.60969072 -35.21484375 40.296875 C-40.47788961 33.36396756 -41.83204732 26.21479731 -40.77734375 17.609375 C-38.78268888 9.46453427 -34.74848628 3.88779972 -27.78125 -0.70703125 C-18.92637172 -5.37005889 -8.59905169 -4.97766244 0 0 Z " fill="#000000" transform="translate(253.77734375,415.390625)"/>
<path d="M0 0 C3.09179136 1.3761536 5.19638753 2.95158445 7.57519531 5.34814453 C8.25559875 6.02869904 8.9360022 6.70925354 9.63702393 7.41043091 C10.36008728 8.14381683 11.08315063 8.87720276 11.828125 9.6328125 C12.57713074 10.38464813 13.32613647 11.13648376 14.09783936 11.91110229 C16.4866302 14.31107901 18.86836897 16.71792009 21.25 19.125 C22.86933169 20.75436352 24.48911802 22.38327534 26.109375 24.01171875 C30.07820505 28.00258806 34.04126899 31.99911415 38 36 C36.17924329 39.93712187 33.62350502 42.63336039 30.5546875 45.640625 C30.02481232 46.16767029 29.49493713 46.69471558 28.94900513 47.23773193 C27.26232175 48.91325675 25.56880436 50.58167722 23.875 52.25 C22.72740612 53.38755851 21.58026539 54.52557436 20.43359375 55.6640625 C17.62761863 58.44803465 14.81549536 61.2256576 12 64 C9.8838794 61.3019773 8.17845929 58.62435886 6.62402344 55.5703125 C5.95883698 54.26876221 5.95883698 54.26876221 5.2802124 52.94091797 C4.81133606 52.01166504 4.34245972 51.08241211 3.859375 50.125 C3.37293518 49.16352051 2.88649536 48.20204102 2.38531494 47.21142578 C1.36107123 45.18179831 0.33912983 43.15100757 -0.68066406 41.11914062 C-2.24707614 38.00581134 -3.83033079 34.90142171 -5.4140625 31.796875 C-6.40730313 29.82344636 -7.39952576 27.84950496 -8.390625 25.875 C-9.1060849 24.48112061 -9.1060849 24.48112061 -9.83599854 23.05908203 C-10.26684753 22.19138184 -10.69769653 21.32368164 -11.14160156 20.4296875 C-11.5256012 19.66897949 -11.90960083 18.90827148 -12.30523682 18.12451172 C-13.12344159 15.62252879 -12.92555013 14.43442314 -12 12 C-10.78491211 10.44433594 -10.78491211 10.44433594 -9.27734375 8.984375 C-8.73916016 8.45585937 -8.20097656 7.92734375 -7.64648438 7.3828125 C-7.08251953 6.84398437 -6.51855469 6.30515625 -5.9375 5.75 C-5.36966797 5.19570313 -4.80183594 4.64140625 -4.21679688 4.0703125 C-2.81787531 2.70665786 -1.40980886 1.35239583 0 0 Z " fill="#000000" transform="translate(106,368)"/>
<path d="M0 0 C2.52694324 2.27934798 3.94427632 4.52298816 5.4519043 7.56323242 C5.912155 8.48396042 6.3724057 9.40468842 6.84660339 10.35331726 C7.33421646 11.34402725 7.82182953 12.33473724 8.32421875 13.35546875 C8.83048294 14.37224197 9.33674713 15.3890152 9.85835266 16.43659973 C11.47372148 19.68412726 13.0806943 22.93572847 14.6875 26.1875 C15.78135055 28.39024741 16.87574501 30.59272481 17.97070312 32.79492188 C20.65345418 38.1934976 23.32932397 43.59544148 26 49 C22.88227323 52.68458983 19.78327968 56.34675126 16.3515625 59.74609375 C15.73925781 60.35517578 15.12695312 60.96425781 14.49609375 61.59179688 C13.87863281 62.20087891 13.26117188 62.80996094 12.625 63.4375 C11.66400391 64.39172852 11.66400391 64.39172852 10.68359375 65.36523438 C9.12469121 66.91250332 7.56348584 68.45736492 6 70 C3.56568192 67.78231127 2.11555941 65.62710728 0.62402344 62.69970703 C-0.04116302 61.40288498 -0.04116302 61.40288498 -0.7197876 60.0798645 C-1.42310211 58.68294876 -1.42310211 58.68294876 -2.140625 57.2578125 C-2.62706482 56.29728973 -3.11350464 55.33676697 -3.61468506 54.34713745 C-4.6399188 52.31622827 -5.66183222 50.28364003 -6.68066406 48.24951172 C-8.24411686 45.13671319 -9.82856323 42.03520825 -11.4140625 38.93359375 C-12.40756082 36.95899231 -13.39979142 34.98375242 -14.390625 33.0078125 C-14.86759827 32.0805838 -15.34457153 31.1533551 -15.83599854 30.19802856 C-16.26684753 29.32717621 -16.69769653 28.45632385 -17.14160156 27.55908203 C-17.5256012 26.79757843 -17.90960083 26.03607483 -18.30523682 25.25149536 C-19.17229099 22.44166247 -18.86050146 20.78789606 -18 18 C-16.23413086 15.7800293 -16.23413086 15.7800293 -13.96484375 13.57421875 C-13.15595703 12.77822266 -12.34707031 11.98222656 -11.51367188 11.16210938 C-10.66353516 10.34548828 -9.81339844 9.52886719 -8.9375 8.6875 C-8.08349609 7.85154297 -7.22949219 7.01558594 -6.34960938 6.15429688 C-4.24178688 4.09357656 -2.12520151 2.04276791 0 0 Z " fill="#000000" transform="translate(79,395)"/>
<path d="M0 0 C1.32685318 -0.02398109 1.32685318 -0.02398109 2.68051147 -0.04844666 C3.63366241 -0.05380936 4.58681335 -0.05917206 5.56884766 -0.06469727 C6.55156647 -0.07372574 7.53428528 -0.08275421 8.54678345 -0.09205627 C10.62637278 -0.10656734 12.70600785 -0.11544763 14.78564453 -0.11914062 C17.96416341 -0.13103337 21.14073882 -0.18020806 24.31884766 -0.23071289 C26.33967152 -0.24017752 28.3605073 -0.24741236 30.38134766 -0.25219727 C31.80500137 -0.28149574 31.80500137 -0.28149574 33.25741577 -0.31138611 C37.90253532 -0.2796961 39.93516451 -0.21576689 43.70776367 2.71240234 C46.08995586 5.96446351 46.28695224 7.49313871 46.03759766 11.37280273 C45.35408646 14.44860313 43.86427893 16.17896307 41.60791016 18.30639648 C38.91877611 19.2027745 37.27495043 19.4499224 34.50708008 19.49926758 C33.27516182 19.52336197 33.27516182 19.52336197 32.01835632 19.54794312 C28.26786292 19.59257278 24.51754272 19.63345125 20.7668457 19.65649414 C18.79113992 19.67305169 16.815494 19.7003391 14.84008789 19.73852539 C11.98503691 19.7933981 9.13138674 19.81518287 6.27587891 19.82983398 C5.39755905 19.85250336 4.5192392 19.87517273 3.61430359 19.89852905 C-0.63346789 19.88395605 -3.51983481 19.66776043 -6.92993164 16.99243164 C-9.9885806 13.65566854 -10.47241813 11.80478033 -10.39208984 7.30639648 C-8.15754616 2.27867319 -5.51967308 0.07551747 0 0 Z " fill="#000000" transform="translate(128.39208984375,191.693603515625)"/>
<path d="M0 0 C1.23191826 -0.02409439 1.23191826 -0.02409439 2.48872375 -0.04867554 C6.23921716 -0.0933052 9.98953736 -0.13418368 13.74023438 -0.15722656 C15.71594015 -0.17378412 17.69158608 -0.20107152 19.66699219 -0.23925781 C22.52204317 -0.29413052 25.37569333 -0.3159153 28.23120117 -0.33056641 C29.10952103 -0.35323578 29.98784088 -0.37590515 30.89277649 -0.39926147 C35.14054797 -0.38468848 38.02691488 -0.16849285 41.43701172 2.50683594 C44.49566068 5.84359904 44.9794982 7.69448725 44.89916992 12.19287109 C43.31078058 15.76674712 42.18282634 17.00376681 38.89916992 19.19287109 C36.86367798 19.46702576 36.86367798 19.46702576 34.50708008 19.49926758 C33.62251129 19.51525497 32.7379425 19.53124237 31.8265686 19.54771423 C30.39684219 19.55575829 30.39684219 19.55575829 28.93823242 19.56396484 C27.46415421 19.57750755 27.46415421 19.57750755 25.96029663 19.59132385 C23.8807073 19.60583492 21.80107223 19.61471521 19.72143555 19.6184082 C16.54291667 19.63030095 13.36634126 19.67947564 10.18823242 19.72998047 C8.16740856 19.7394451 6.14657278 19.74667994 4.12573242 19.75146484 C3.17662994 19.77099716 2.22752747 19.79052948 1.24966431 19.81065369 C-3.39545524 19.77896368 -5.42808443 19.71503447 -9.20068359 16.78686523 C-11.58287579 13.53480407 -11.77987217 12.00612887 -11.53051758 8.12646484 C-10.84700638 5.05066445 -9.35719885 3.32030451 -7.10083008 1.19287109 C-4.41169603 0.29649308 -2.76787036 0.04934518 0 0 Z " fill="#000000" transform="translate(221.100830078125,44.80712890625)"/>
<path d="M0 0 C0.97988892 -0.00478363 1.95977783 -0.00956726 2.96936035 -0.01449585 C5.03704436 -0.01789191 7.10478228 -0.00871013 9.17236328 0.01220703 C12.33357702 0.03897635 15.49124018 0.01244879 18.65234375 -0.01953125 C20.66407032 -0.0162271 22.67579469 -0.00982076 24.6875 0 C25.63032837 -0.01012115 26.57315674 -0.02024231 27.54455566 -0.03067017 C32.1633498 0.05163925 34.19428642 0.15787123 37.93920898 3.07666016 C40.32981086 6.32439746 40.51937824 7.85058258 40.27734375 11.73046875 C39.59569607 14.77024896 38.04142713 16.53102294 35.84375 18.6640625 C33.56751422 19.80218039 32.27790898 19.8019959 29.7487793 19.82519531 C28.48187508 19.83960663 28.48187508 19.83960663 27.18937683 19.85430908 C26.27481216 19.85855896 25.3602475 19.86280884 24.41796875 19.8671875 C23.47822708 19.87288757 22.53848541 19.87858765 21.57026672 19.88446045 C19.57883838 19.89391724 17.58739434 19.90044712 15.59594727 19.90429688 C12.55391987 19.91399026 9.51257151 19.94500222 6.47070312 19.9765625 C4.53646235 19.98309375 2.60221673 19.98834374 0.66796875 19.9921875 C-0.24052322 20.0045343 -1.1490152 20.0168811 -2.08503723 20.02960205 C-6.91736197 20.01262163 -10.26393749 19.86966642 -14.15625 16.6640625 C-15.87082905 13.78045227 -16.16365093 12.01930712 -16.09375 8.6640625 C-13.45276204 0.21290104 -7.71862115 -0.08285852 0 0 Z " fill="#000000" transform="translate(454.15625,264.3359375)"/>
<path d="M0 0 C0.84137512 -0.01606293 1.68275024 -0.03212585 2.54962158 -0.04867554 C6.40432922 -0.09318471 10.25886482 -0.13420292 14.11376953 -0.15722656 C16.1448107 -0.17377074 18.17579401 -0.2010404 20.20654297 -0.23925781 C23.13767649 -0.29413008 26.06744488 -0.31591761 28.99902344 -0.33056641 C29.90235413 -0.35323578 30.80568481 -0.37590515 31.73638916 -0.39926147 C36.09330338 -0.38472096 39.01921699 -0.1988116 42.4934082 2.58300781 C44.97745964 5.25368164 45.72765413 6.12775367 45.60839844 9.69287109 C45.61419922 10.79115234 45.61419922 10.79115234 45.62011719 11.91162109 C44.52145872 15.49607105 42.88215677 16.89468577 39.92089844 19.19287109 C36.5362731 19.93415962 33.21886515 19.89401422 29.76464844 19.85693359 C28.29481506 19.86410904 28.29481506 19.86410904 26.79528809 19.87142944 C24.72760407 19.8748255 22.65986615 19.86564372 20.59228516 19.84472656 C17.43107142 19.81795724 14.27340826 19.84448481 11.11230469 19.87646484 C9.10057812 19.87316069 7.08885375 19.86675435 5.07714844 19.85693359 C4.13432007 19.86705475 3.1914917 19.8771759 2.22009277 19.88760376 C-2.38765089 19.80549127 -4.43088703 19.69476573 -8.17456055 16.79614258 C-10.70182874 13.34168023 -10.7397772 11.4183577 -10.51269531 7.28271484 C-9.88679876 4.26600622 -8.55719252 2.94211177 -6.07910156 1.19287109 C-3.81557629 0.06110846 -2.51479149 0.0436247 0 0 Z " fill="#000000" transform="translate(330.0791015625,474.80712890625)"/>
<path d="M0 0 C0.97988892 -0.00478363 1.95977783 -0.00956726 2.96936035 -0.01449585 C5.03704436 -0.01789191 7.10478228 -0.00871013 9.17236328 0.01220703 C12.33357702 0.03897635 15.49124018 0.01244879 18.65234375 -0.01953125 C20.66407032 -0.0162271 22.67579469 -0.00982076 24.6875 0 C25.63032837 -0.01012115 26.57315674 -0.02024231 27.54455566 -0.03067017 C32.15229932 0.05144232 34.19553547 0.16216786 37.93920898 3.06079102 C40.46634783 6.51507655 40.50741357 8.43834758 40.2734375 12.57421875 C39.6464704 15.62355872 38.3758977 16.92773265 35.84375 18.6640625 C33.15937148 19.55885534 31.57508334 19.79856198 28.81884766 19.82519531 C28.01436188 19.83480286 27.2098761 19.8444104 26.38101196 19.85430908 C25.51535614 19.85855896 24.64970032 19.86280884 23.7578125 19.8671875 C22.41691055 19.87573761 22.41691055 19.87573761 21.04891968 19.88446045 C19.15762514 19.89390506 17.26631419 19.90044229 15.375 19.90429688 C12.48668625 19.91400223 9.59908426 19.94503036 6.7109375 19.9765625 C4.87240005 19.98309286 3.03385752 19.9883432 1.1953125 19.9921875 C0.33370514 20.0045343 -0.52790222 20.0168811 -1.4156189 20.02960205 C-6.14832814 20.01208417 -9.34015459 19.78159055 -13.15625 16.6640625 C-15.26837504 13.49587494 -15.48781464 11.53186998 -15.71484375 7.796875 C-13.6216721 -0.19523493 -6.80883444 -0.07309206 0 0 Z " fill="#000000" transform="translate(24.15625,-0.6640625)"/>
</svg>
