<?xml version="1.0" standalone="no"?>
<svg id="Layer_1" viewBox="0 0 512 512" xmlns="http://www.w3.org/2000/svg" data-name="Layer 1">
<g transform="translate(0.000000,512.000000) scale(0.100000,-0.100000)" stroke="none">
<path d="M209 4947 c-18 -12 -44 -38 -56 -56 l-23 -34 0 -1970 0 -1969 21 -37
c41 -73 51 -75 274 -81 l200 -5 670 -323 c369 -177 679 -322 691 -322 11 0 29
6 40 14 18 14 19 32 24 323 l5 308 712 5 712 5 31 30 c68 64 65 36 65 605 0
502 -1 516 -21 550 -63 108 -219 108 -274 -1 -19 -36 -20 -60 -20 -464 l0
-425 -605 0 -605 0 0 1433 c0 1353 -1 1435 -18 1449 -9 9 -330 163 -712 343
-382 180 -699 332 -705 337 -5 4 579 7 1315 6 l1325 -3 5 -440 5 -440 24 -34
c52 -72 157 -88 222 -34 66 56 64 33 64 613 l0 525 -24 38 c-12 21 -40 46 -62
57 -38 20 -66 20 -1642 20 l-1604 0 -34 -23z"/>
<path d="M2630 3308 c-184 -199 -343 -374 -353 -389 -16 -24 -16 -31 -5 -52 7
-14 155 -179 328 -367 173 -189 326 -356 340 -371 37 -41 65 -45 95 -15 l25
25 0 196 0 195 948 0 c907 0 950 1 965 18 15 17 17 55 17 340 0 320 0 321 -22
336 -20 14 -128 16 -965 16 l-943 0 0 193 c0 218 -5 237 -63 237 -29 -1 -63
-34 -367 -362z"/>
</g>
</svg>
