<svg id="Layer_1" viewBox="0 0 512 512" xmlns="http://www.w3.org/2000/svg" data-name="Layer 1" style="shape-rendering:geometricPrecision; text-rendering:geometricPrecision; image-rendering:optimizeQuality; fill-rule:evenodd; clip-rule:evenodd" xmlns:xlink="http://www.w3.org/1999/xlink">
<g><path style="opacity:0.982" d="M 511.5,127.5 C 511.5,140.167 511.5,152.833 511.5,165.5C 424.833,165.5 338.167,165.5 251.5,165.5C 251.5,152.833 251.5,140.167 251.5,127.5C 289.833,127.5 328.167,127.5 366.5,127.5C 366.5,89.5 366.5,51.5 366.5,13.5C 400.5,13.5 434.5,13.5 468.5,13.5C 468.5,23.8333 468.5,34.1667 468.5,44.5C 444.833,44.5 421.167,44.5 397.5,44.5C 397.5,72.1667 397.5,99.8333 397.5,127.5C 435.5,127.5 473.5,127.5 511.5,127.5 Z"/></g>
<g><path style="opacity:0.982" d="M 153.5,194.5 C 178.836,194.333 204.169,194.5 229.5,195C 280.153,198.731 317.987,222.564 343,266.5C 352.027,284.082 356.861,302.749 357.5,322.5C 246.833,322.5 136.167,322.5 25.5,322.5C 29.4154,269.431 55.082,230.931 102.5,207C 118.9,199.816 135.9,195.649 153.5,194.5 Z M 175.5,235.5 C 186.167,235.5 196.833,235.5 207.5,235.5C 207.5,245.167 207.5,254.833 207.5,264.5C 196.833,264.5 186.167,264.5 175.5,264.5C 175.5,254.833 175.5,245.167 175.5,235.5 Z M 104.5,253.5 C 115.5,253.5 126.5,253.5 137.5,253.5C 137.5,263.167 137.5,272.833 137.5,282.5C 126.5,282.5 115.5,282.5 104.5,282.5C 104.5,272.833 104.5,263.167 104.5,253.5 Z M 245.5,253.5 C 256.167,253.5 266.833,253.5 277.5,253.5C 277.5,263.167 277.5,272.833 277.5,282.5C 266.833,282.5 256.167,282.5 245.5,282.5C 245.5,272.833 245.5,263.167 245.5,253.5 Z"/></g>
<g><path style="opacity:0.984" d="M 317.5,195.5 C 372.998,194.501 428.664,194.168 484.5,194.5C 474.899,295.509 465.232,396.509 455.5,497.5C 429.158,497.833 402.825,497.5 376.5,496.5C 381.151,488.713 384.317,480.38 386,471.5C 386.978,454.844 387.812,438.178 388.5,421.5C 413.561,401.709 419.061,377.376 405,348.5C 400.186,341.353 394.352,335.186 387.5,330C 385.866,273.556 362.533,228.723 317.5,195.5 Z"/></g>
<g><path style="opacity:0.979" d="M -0.5,383.5 C -0.5,378.833 -0.5,374.167 -0.5,369.5C 2.80465,360.493 9.13798,354.66 18.5,352C 133.5,351.333 248.5,351.333 363.5,352C 382.77,358.789 388.27,371.622 380,390.5C 376.062,395.88 370.896,399.38 364.5,401C 249.167,401.667 133.833,401.667 18.5,401C 8.75346,398.749 2.42013,392.916 -0.5,383.5 Z"/></g>
<g><path style="opacity:0.986" d="M 24.5,430.5 C 78.501,430.333 132.501,430.5 186.5,431C 208.347,452.68 230.014,474.514 251.5,496.5C 185.503,497.667 119.503,497.833 53.5,497C 36.8998,492.399 27.3998,481.566 25,464.5C 24.5001,453.172 24.3335,441.838 24.5,430.5 Z"/></g>
<g><path style="opacity:0.94" d="M 227.5,430.5 C 250.843,430.167 274.176,430.5 297.5,431.5C 286.167,443.5 274.5,455.167 262.5,466.5C 250.092,455.094 238.425,443.094 227.5,430.5 Z"/></g>
<g><path style="opacity:0.978" d="M 339.5,430.5 C 345.758,430.19 351.924,430.524 358,431.5C 358.792,444.198 358.459,456.865 357,469.5C 353.056,484.445 343.556,493.611 328.5,497C 310.167,497.667 291.833,497.667 273.5,497C 295.702,474.965 317.702,452.799 339.5,430.5 Z"/></g>
</svg>
