<?xml version="1.0" encoding="UTF-8"?>
<svg id="Layer_1" viewBox="0 0 512 512" xmlns="http://www.w3.org/2000/svg" data-name="Layer 1">
<path d="M0 0 C1.38004228 0.00747107 2.76009525 0.01315991 4.14015198 0.01715088 C7.75220626 0.03233948 11.36360536 0.07156068 14.97540283 0.1159668 C18.66905863 0.15706733 22.3628215 0.17519323 26.05664062 0.1953125 C33.28935946 0.23806336 40.52154065 0.3062301 47.75390625 0.390625 C47.75937469 1.84522377 47.75937469 1.84522377 47.76495361 3.32920837 C47.80199087 12.49476078 47.85985848 21.65997992 47.93780899 30.82527828 C47.97721764 35.53660862 48.00943843 40.24775391 48.02490234 44.95922852 C48.04011264 49.51118154 48.07463524 54.06262559 48.12221527 58.61435127 C48.13698413 60.34571455 48.14494467 62.07715052 48.1457901 63.80857658 C48.1572034 75.46866807 48.72337967 84.32834702 56.75390625 93.390625 C65.33798 99.54029715 73.78682825 100.26581786 84.046875 100.1171875 C85.48789976 100.11614674 86.92892736 100.11719586 88.36994934 100.12020874 C91.36808496 100.12003076 94.36512853 100.09947379 97.36303711 100.06298828 C101.18264461 100.01749126 105.00067116 100.01656253 108.82047558 100.03002357 C111.78821073 100.03674154 114.75559297 100.02337395 117.72326088 100.00376511 C119.13088441 99.99613587 120.53854741 99.9937332 121.94618797 99.9969368 C131.92996594 100.00073949 138.67680138 98.71027049 147.00390625 93.265625 C154.55361356 85.37274918 155.83064695 76.49357018 155.95922852 65.89477539 C155.96912811 65.18174255 155.97902771 64.46870972 155.98922729 63.73406982 C156.02054657 61.40217284 156.0454813 59.07025556 156.0703125 56.73828125 C156.09090765 55.11160281 156.11190475 53.48492941 156.13328552 51.85826111 C156.18824192 47.59553129 156.23776675 43.3327553 156.28613281 39.06994629 C156.33654195 34.71260514 156.39212626 30.35533028 156.44726562 25.99804688 C156.55452345 17.46229578 156.65603907 8.9264889 156.75390625 0.390625 C166.95055867 0.32105433 177.14715444 0.2677778 187.34399605 0.23518848 C192.07902548 0.21954568 196.81389228 0.1983327 201.54882812 0.16430664 C206.11998972 0.13166379 210.69099508 0.11376156 215.26226425 0.10599327 C217.00455051 0.10045861 218.74682842 0.0896507 220.489048 0.07343483 C222.93315224 0.05159487 225.37661435 0.04866078 227.82080078 0.05004883 C228.53793747 0.039263 229.25507416 0.02847717 229.99394226 0.0173645 C234.65594008 0.04593361 237.79629793 0.93802171 241.75390625 3.390625 C248.4364846 10.37695691 249.04973602 15.72594529 249.02133179 24.99848938 C249.0258629 26.07925835 249.03039401 27.16002733 249.03506243 28.27354687 C249.04774092 31.90156473 249.04608382 35.52943312 249.04443359 39.1574707 C249.05041668 41.75603428 249.05722172 44.35459607 249.06478882 46.95315552 C249.08139476 53.28318415 249.08689818 59.61317552 249.08801357 65.94322411 C249.08896427 71.08939974 249.09307563 76.2355631 249.09941483 81.38173485 C249.11702635 95.97612006 249.12625387 110.57047587 249.12475388 125.16487179 C249.12467397 125.95149681 249.12459405 126.73812184 249.12451172 127.54858398 C249.12442996 128.33617091 249.1243482 129.12375783 249.12426396 129.93521103 C249.12345114 142.69769584 249.1425878 155.46006262 249.17078845 168.2225133 C249.19952456 181.33086248 249.21332834 194.43915411 249.2116009 207.5475356 C249.21093723 214.90530488 249.21641914 222.26295041 249.237957 229.6206913 C249.25808424 236.54082767 249.25748764 243.46069869 249.24292374 250.38084793 C249.24083019 252.92049859 249.24556887 255.46016547 249.25764465 257.99978828 C249.27306498 261.46743703 249.26380899 264.93418063 249.24838257 268.40180969 C249.26381326 269.90839164 249.26381326 269.90839164 249.27955568 271.4454096 C249.21123183 278.3980279 247.95207364 284.15119093 242.9375 289.23046875 C242.36128906 289.59269531 241.78507812 289.95492188 241.19140625 290.328125 C240.61261719 290.70839844 240.03382813 291.08867187 239.4375 291.48046875 C235.56377832 293.57461527 232.26329187 293.51406596 227.93928528 293.51087952 C226.89413451 293.51216115 226.89413451 293.51216115 225.82786959 293.51346868 C223.48784087 293.51511877 221.14788347 293.5096098 218.80786133 293.50415039 C217.13256329 293.50386839 215.45726513 293.5040265 213.78196716 293.5045929 C209.22856024 293.50488037 204.67517954 293.49899163 200.12177873 293.49201894 C195.36517866 293.48577717 190.60857802 293.48518095 185.85197449 293.48399353 C176.8422465 293.48088265 167.83253062 293.47267252 158.82280797 293.46264404 C148.56658693 293.45147537 138.31036533 293.44597055 128.05413973 293.44094861 C106.95405515 293.43048972 85.85398146 293.41289497 64.75390625 293.390625 C64.24986857 292.10052857 63.75080699 290.80848711 63.25390625 289.515625 C62.97546875 288.79632813 62.69703125 288.07703125 62.41015625 287.3359375 C61.75390625 285.390625 61.75390625 285.390625 61.75390625 283.390625 C62.51574219 283.17148437 63.27757812 282.95234375 64.0625 282.7265625 C75.36087401 279.25664988 83.09358635 275.06171989 88.75390625 264.390625 C92.34783356 256.16872814 91.73592757 249.8850021 89.75390625 241.390625 C89.40940511 239.39251838 89.07013402 237.39340085 88.75390625 235.390625 C89.95015625 234.83375 91.14640625 234.276875 92.37890625 233.703125 C101.43515039 229.06339429 104.81256385 223.72403193 108.75390625 214.390625 C111.05351811 206.83082313 109.76054436 199.54277929 106.75390625 192.390625 C103.12513538 185.83092381 98.08657352 182.17816314 91.75390625 178.390625 C90.26890625 177.400625 90.26890625 177.400625 88.75390625 176.390625 C89.27659091 173.62786323 89.86260212 171.0645374 90.75390625 168.390625 C91.55261928 157.58835855 90.63337985 149.32393756 84.62890625 140.140625 C72.07943922 128.13678697 56.9396134 129.07675063 40.6484375 128.9765625 C38.71358947 128.95782322 36.77874938 128.93824781 34.84391785 128.9178772 C29.78556017 128.86684135 24.72717608 128.82706396 19.66870117 128.78973389 C14.49326192 128.74951396 9.31792983 128.69850424 4.14257812 128.6484375 C-5.98690358 128.55201681 -16.11644619 128.4675051 -26.24609375 128.390625 C-26.36307247 113.40437703 -26.45115288 98.41816455 -26.50515461 83.4315567 C-26.53089895 76.47244472 -26.56597644 69.51361699 -26.62329102 62.5546875 C-26.67858938 55.83733722 -26.70752656 49.12034304 -26.72047997 42.40275574 C-26.72970962 39.84152075 -26.74773304 37.28030169 -26.77474403 34.7191925 C-26.81110636 31.12819681 -26.81603578 27.53841618 -26.8137207 23.94726562 C-26.83169708 22.89134216 -26.84967346 21.8354187 -26.86819458 20.74749756 C-26.8215962 14.05576538 -25.65486991 9.53349806 -21.24609375 4.390625 C-14.94784824 -0.94517661 -7.91145838 -0.12624656 0 0 Z M140.75390625 232.390625 C137.82426407 237.04626774 138.42412886 242.00323485 138.44140625 247.328125 C138.42529297 248.31748047 138.40917969 249.30683594 138.39257812 250.32617188 C138.30498923 257.40072314 138.30498923 257.40072314 141.75390625 263.390625 C145.07644736 265.05421581 145.07644736 265.05421581 148.75390625 265.390625 C151.72918828 264.06827743 153.46302774 262.68150351 155.75390625 260.390625 C157.12928591 256.19045243 156.97547286 251.95331331 157.00390625 247.578125 C157.02453125 246.79630859 157.04515625 246.01449219 157.06640625 245.20898438 C157.10227185 239.8425946 156.28501779 236.14492697 153.75390625 231.390625 C149.18453996 228.00045001 145.0722775 229.20866724 140.75390625 232.390625 Z M176.75390625 233.390625 C174.70858028 237.48127694 175.48073075 242.70702326 175.44140625 247.203125 C175.41240234 248.29689453 175.38339844 249.39066406 175.35351562 250.51757812 C175.25680416 256.83887262 175.25680416 256.83887262 177.59375 262.5859375 C180.43590967 264.96040001 182.04546862 265.46479375 185.75390625 265.390625 C189.99598765 263.14341359 189.99598765 263.14341359 192.75390625 259.390625 C193.04990312 255.45937825 193.03193614 251.5192073 193.06640625 247.578125 C193.10991211 245.9374707 193.10991211 245.9374707 193.15429688 244.26367188 C193.24497975 237.95231452 193.24497975 237.95231452 190.94921875 232.1953125 C185.7063233 227.88531659 181.27173824 228.7399156 176.75390625 233.390625 Z M213.75390625 232.390625 C211.0758709 237.10730318 211.4223238 242.12386753 211.44140625 247.390625 C211.42529297 248.28007812 211.40917969 249.16953125 211.39257812 250.0859375 C211.38890747 255.00461988 211.52107317 258.41952475 214.75390625 262.390625 C216.96800515 264.45258718 216.96800515 264.45258718 219.75390625 265.390625 C223.60748602 264.61990905 226.34719678 263.55734799 228.75390625 260.390625 C230.1754291 256.12605646 229.97835918 252.04566815 230.00390625 247.578125 C230.02453125 246.68802734 230.04515625 245.79792969 230.06640625 244.88085938 C230.09759338 239.6219298 229.72764159 235.92719935 226.75390625 231.390625 C222.13183142 228.11044286 218.06138277 229.10334029 213.75390625 232.390625 Z " transform="translate(163.24609375,-0.390625)"/>
<path d="M0 0 C0 9.24 0 18.48 0 28 C-4.29 28.66 -8.58 29.32 -13 30 C-16.32675402 33.32675402 -16.72107514 34.44422733 -17 39 C-16.19589809 41.63160627 -15.57229378 42.64586712 -13.2326107 44.09365273 C-10.6475806 45.14306765 -8.75205248 45.25049515 -5.96572876 45.2515564 C-4.44331825 45.25963066 -4.44331825 45.25963066 -2.89015198 45.26786804 C-1.78251999 45.26374405 -0.674888 45.25962006 0.46630859 45.25537109 C2.22300117 45.26080177 2.22300117 45.26080177 4.0151825 45.26634216 C7.22396072 45.27503932 10.43262194 45.27525145 13.64140654 45.2729907 C17.00321287 45.27373909 20.36494491 45.2888066 23.72671509 45.30337524 C35.17455419 45.3503676 46.62238122 45.37433983 58.0703125 45.38085938 C64.39535699 45.38461348 70.72020326 45.40267035 77.0451628 45.43595374 C80.3900296 45.45283614 83.73422204 45.45965122 87.07917404 45.45301437 C90.81138802 45.44595656 94.54276726 45.46320145 98.27490234 45.48583984 C99.93027763 45.47358116 99.93027763 45.47358116 101.61909485 45.46107483 C107.73154667 45.52709067 111.35190206 45.90493119 116 50 C119.38570467 53.83713196 119.51291172 57.63401462 119.3515625 62.5625 C118.82577497 66.20796018 117.44465904 68.2910535 115 71 C111.06931947 73.87696107 108.28648378 74.37610308 103.453125 74.38476562 C101.49584473 74.39993225 101.49584473 74.39993225 99.49902344 74.41540527 C98.46062317 74.41307137 98.46062317 74.41307137 97.40124512 74.41069031 C95.22325494 74.4061948 93.04606981 74.42025945 90.86816406 74.43908691 C85.46114072 74.48201467 80.05413647 74.49310775 74.64697266 74.50531006 C70.07237649 74.51685365 65.49814842 74.54045689 60.92370605 74.58000183 C58.78263734 74.59354358 56.64207108 74.58940705 54.50097656 74.58459473 C52.54369629 74.59976135 52.54369629 74.59976135 50.546875 74.61523438 C48.82742676 74.61831604 48.82742676 74.61831604 47.07324219 74.62145996 C43.64419518 75.0438255 41.75633789 75.95071591 39 78 C37.57958179 80.84083641 37.68547728 82.85477278 38 86 C40.38635715 89.15340052 42.17000234 90.34318266 46 91 C48.63735763 91.09744546 51.24893876 91.14372251 53.88623047 91.1418457 C54.6769696 91.14532013 55.46770874 91.14879456 56.28240967 91.15237427 C57.99679743 91.15971615 59.71119461 91.16506988 61.42559433 91.16866493 C64.14123955 91.17584484 66.8567056 91.19152232 69.57229614 91.21000671 C77.29247604 91.26240827 85.01255616 91.31045608 92.73291016 91.32592773 C97.45800645 91.33601701 102.18264911 91.36536266 106.90756607 91.40724754 C108.70561414 91.41954612 110.50372629 91.42468089 112.30181503 91.42244911 C114.82002841 91.42009232 117.33694287 91.44228908 119.85498047 91.4699707 C120.96333755 91.46006859 120.96333755 91.46006859 122.09408569 91.44996643 C127.18759393 91.54167862 130.05771463 92.82623955 134 96 C137.38509352 99.83643932 137.51632897 103.63432308 137.34765625 108.5625 C136.82190495 112.24866644 135.51185609 114.28983949 133 117 C128.24244664 119.9644859 124.16318835 120.42031672 118.68725586 120.35302734 C117.87511124 120.35518753 117.06296661 120.35734772 116.22621155 120.35957336 C114.47147004 120.36264982 112.7167068 120.35908565 110.96198845 120.34955978 C108.1832896 120.33578103 105.4053016 120.34228179 102.62660217 120.35440063 C94.72977952 120.38531253 86.83312487 120.3804576 78.9362793 120.36035156 C74.09866373 120.34943623 69.26158468 120.36261567 64.42404366 120.39024734 C62.58327125 120.39568668 60.74244512 120.39162708 58.90171623 120.37784958 C56.32833116 120.35880554 53.75670429 120.37019526 51.18334961 120.38818359 C50.42529022 120.37484482 49.66723083 120.36150604 48.88619995 120.34776306 C44.94706124 120.40895734 43.14954364 120.88520633 39.98854065 123.31167603 C37.64071132 125.92841573 37.64071132 125.92841573 38 129.625 C39.12358047 133.505098 39.12358047 133.505098 42 136 C44.92532566 136.45464681 44.92532566 136.45464681 48.30395508 136.38476562 C49.60573196 136.39487671 50.90750885 136.40498779 52.24873352 136.41540527 C52.9443722 136.41384933 53.64001087 136.4122934 54.35672951 136.41069031 C56.53903657 136.40620995 58.72053358 136.42021883 60.90275574 136.43908691 C65.53932386 136.47587903 70.17580742 136.48957239 74.8125 136.5 C80.17636997 136.512093 85.53984615 136.53374504 90.90353966 136.58000183 C93.04732782 136.59353099 95.19061307 136.58940797 97.33442688 136.58459473 C98.64566025 136.59470581 99.95689362 136.60481689 101.30786133 136.61523438 C103.03302727 136.61831604 103.03302727 136.61831604 104.79304504 136.62145996 C110.37423161 137.28024769 114.40338732 139.73734793 118 144 C119.55237855 148.65713565 120.06611778 153.39946972 118.1640625 158.0390625 C115.13432877 162.81750161 111.46939464 164.65189946 106 166 C101.11187132 166.45346595 96.22946995 166.46532133 91.32421875 166.4765625 C89.90792882 166.49089488 88.49165269 166.50665587 87.07539368 166.52377319 C83.36948372 166.56539824 79.66365949 166.5905482 75.95758057 166.61126709 C70.00916718 166.64725217 64.06096484 166.70811789 58.11277199 166.76975632 C56.0393491 166.78880861 53.96598302 166.80056082 51.89250183 166.81118774 C50.63722183 166.82144989 49.38194183 166.83171204 48.08862305 166.84228516 C46.42938057 166.85202866 46.42938057 166.85202866 44.73661804 166.86196899 C41.90687022 166.88213391 41.90687022 166.88213391 39 168 C38.69443774 169.38864434 38.43199192 170.78681264 38.1875 172.1875 C38.03667969 172.96480469 37.88585937 173.74210938 37.73046875 174.54296875 C37.81211408 177.21305821 37.81211408 177.21305821 39.96630859 179.61816406 C44.03223318 182.81043513 46.78945459 182.66872538 51.80859375 182.56640625 C52.65293472 182.57204086 53.4972757 182.57767548 54.36720276 182.58348083 C57.05787017 182.59990297 59.74689033 182.58441796 62.4375 182.5625 C65.12438606 182.54587114 67.81018204 182.5368615 70.49708557 182.55223083 C72.16549543 182.56146383 73.8341367 182.55250322 75.50230408 182.52259827 C81.72038891 182.55172845 85.20861729 184.40112644 89.8125 188.6875 C91.68427139 192.33252849 92.11343626 195.9233845 92 200 C90.17525555 205.37285867 87.05197929 208.47401035 82 211 C79.13445524 211.1142763 76.2926717 211.16786527 73.42626953 211.17700195 C72.53817093 211.18357315 71.65007233 211.19014435 70.73506165 211.19691467 C67.78431109 211.21668434 64.83361173 211.22832347 61.8828125 211.23828125 C60.36898798 211.24439454 60.36898798 211.24439454 58.82458115 211.25063133 C53.47452752 211.27151582 48.12449967 211.28580261 42.77441406 211.29516602 C37.26910341 211.30618614 31.76420191 211.34052817 26.25903511 211.38033772 C22.01054175 211.40660472 17.76214391 211.41486718 13.51357651 211.41844749 C11.48597349 211.42329387 9.45837417 211.43485165 7.43085098 211.45348549 C-7.37775736 211.5810329 -18.97987783 210.4466023 -31.44140625 201.75390625 C-32.54209694 201.01441994 -32.54209694 201.01441994 -33.6650238 200.25999451 C-35.97331147 198.70715872 -38.26867699 197.13660662 -40.5625 195.5625 C-59.88339645 182.37942923 -75.397152 175.61520242 -99.03735352 175.48876953 C-101.076018 175.47304902 -103.11391257 175.44010037 -105.15234375 175.40625 C-106.9465979 175.39561523 -106.9465979 175.39561523 -108.77709961 175.38476562 C-113.27032904 174.8483419 -115.84333272 173.15666728 -119 170 C-119.26006222 167.9094038 -119.26006222 167.9094038 -119.27415466 165.2754364 C-119.28412979 164.27862854 -119.29410492 163.28182068 -119.30438232 162.25480652 C-119.305047 161.15711441 -119.30571167 160.0594223 -119.30639648 158.9284668 C-119.31472 157.77553131 -119.32304352 156.62259583 -119.33161926 155.4347229 C-119.35580353 151.60618761 -119.36450203 147.77782243 -119.37109375 143.94921875 C-119.37779075 141.96622978 -119.38448983 139.9832408 -119.39152867 138.00025302 C-119.41301705 131.76065973 -119.42233701 125.52112086 -119.42553711 119.28149414 C-119.42917065 112.84661833 -119.45904862 106.41222003 -119.50094169 99.97749013 C-119.53564701 94.45298461 -119.55108561 88.92863726 -119.55178314 83.40402347 C-119.55257609 80.10439909 -119.56368575 76.80537078 -119.58978081 73.50583458 C-119.61658343 69.82337082 -119.61190124 66.14222771 -119.59936523 62.4597168 C-119.61419952 61.36809738 -119.62903381 60.27647797 -119.64431763 59.15177917 C-119.57262593 51.77038152 -119.57262593 51.77038152 -116.63705444 47.8210144 C-113.5303141 45.67565903 -111.91577789 45.39717218 -108.16796875 45.43359375 C-106.48682983 45.42175049 -106.48682983 45.42175049 -104.77172852 45.40966797 C-103.58893311 45.41885254 -102.4061377 45.42803711 -101.1875 45.4375 C-80.84205395 45.11590764 -65.72586824 41.37273065 -51.08833313 26.43902588 C-49.48750849 24.78009472 -47.89860848 23.11049859 -46.3125 21.4375 C-31.74440249 6.17641921 -21.55789893 -0.5879427 0 0 Z " transform="translate(119,100)"/>
<path d="M0 0 C0 45.54 0 91.08 0 138 C-44.65576191 138.16121214 -44.65576191 138.16121214 -63.3984375 138.1953125 C-76.32916627 138.21902784 -89.25979061 138.24687613 -102.19042969 138.30175781 C-111.60862266 138.34171241 -121.02673075 138.3674534 -130.44500613 138.37635398 C-135.42876876 138.38155413 -140.41228862 138.39371711 -145.39597321 138.42292023 C-150.0942212 138.45022571 -154.79212818 138.45841461 -159.490448 138.45243073 C-161.20763761 138.45352423 -162.92483955 138.4613875 -164.64196014 138.4768219 C-178.46973073 138.59493597 -189.33522492 136.21946293 -201.125 128.75 C-201.96353516 128.23332764 -202.80207031 127.71665527 -203.66601562 127.18432617 C-205.48791858 126.06021205 -207.30650802 124.93071318 -209.12207031 123.79638672 C-213.15474003 121.27921809 -217.20680591 118.79397323 -221.25732422 116.30566406 C-224.5590735 114.2761895 -227.85763768 112.24159958 -231.15625 110.20703125 C-238.08526757 105.94003722 -245.04011565 101.71639898 -252 97.5 C-262.08399795 91.39032659 -272.13957503 85.23666891 -282.17138672 79.04150391 C-287.95370081 75.4749337 -293.7507709 71.93505129 -299.5703125 68.4296875 C-300.51919342 67.85725311 -300.51919342 67.85725311 -301.48724365 67.27325439 C-304.54318105 65.42969659 -307.60128949 63.58999176 -310.6640625 61.7578125 C-327.83613612 51.40642233 -327.83613612 51.40642233 -330 46 C-330.47584595 41.71738649 -330.27767535 39.52559976 -328.25 35.6875 C-325.26134364 32.11771602 -323.75928173 31.20168561 -319.171875 30.67578125 C-313.15312414 30.75321275 -307.60115572 33.4396537 -302.0625 35.5625 C-300.74046836 36.05956885 -299.41802711 36.55554942 -298.09521484 37.05053711 C-295.23279618 38.12381752 -292.37307228 39.20390192 -289.51513672 40.2890625 C-284.95432519 42.01981549 -280.38611246 43.7303941 -275.81640625 45.4375 C-269.20349831 47.90944805 -262.59281508 50.3872255 -255.984375 52.87109375 C-255.11529007 53.19774521 -254.24620514 53.52439667 -253.3507843 53.86094666 C-251.52868726 54.54584282 -249.70659991 55.23076475 -247.88452148 55.91571045 C-239.43962489 59.090141 -230.99412717 62.26296622 -222.54779053 65.43356323 C-219.45355395 66.59550166 -216.35982303 67.7587789 -213.26611328 68.92211914 C-209.49759249 70.33885937 -205.72619529 71.74746624 -201.95214844 73.14941406 C-198.96467382 74.25952554 -195.98873618 75.39109998 -193.02441406 76.56152344 C-179.83784124 81.61964005 -166.76894923 82.28414148 -152.7734375 82.2734375 C-151.36869407 82.28203566 -149.96395868 82.29204717 -148.55923462 82.30337524 C-142.68210335 82.34889173 -136.80503689 82.37424061 -130.92773438 82.38085938 C-127.29864023 82.38592483 -123.67007156 82.4104037 -120.04115677 82.44618607 C-118.02694934 82.46046939 -116.01262565 82.45342004 -113.99838257 82.44564819 C-102.98736989 82.56229947 -93.64480008 84.68307282 -84.125 90.3125 C-79.82926398 92.80648125 -79.82926398 92.80648125 -75 93.125 C-72.01230088 92.18593254 -72.01230088 92.18593254 -70 90.375 C-68.54364946 86.91616747 -69.08694131 84.58701629 -70 81 C-72.58461571 77.52605415 -76.64993701 75.88737687 -80.4375 74 C-81.14962646 73.64478271 -81.86175293 73.28956543 -82.59545898 72.92358398 C-88.55674257 70.04284264 -94.46161914 68.12538277 -101 67 C-102.49043823 66.74222778 -102.49043823 66.74222778 -104.01098633 66.47924805 C-108.85298992 65.79638673 -113.68915846 65.8646287 -118.5703125 65.859375 C-120.621105 65.84106269 -122.67188659 65.82149387 -124.72265625 65.80078125 C-127.93329598 65.77173237 -131.14322377 65.74999724 -134.35400391 65.74951172 C-137.46840541 65.74618183 -140.58119141 65.71168473 -143.6953125 65.671875 C-145.13295456 65.68247955 -145.13295456 65.68247955 -146.59963989 65.69329834 C-151.22112756 65.60881613 -153.33312395 65.50928802 -157.10253906 62.63061523 C-160.44579015 57.99557528 -159.83197466 53.46921047 -159 48 C-156.73551451 40.66639102 -152.41591072 35.18477222 -146 31 C-140.5764135 28.25937833 -136.37923855 27.56998381 -130.34765625 27.59375 C-129.52986191 27.58291382 -128.71206757 27.57207764 -127.86949158 27.56091309 C-125.26708115 27.52687746 -122.66510264 27.51113154 -120.0625 27.5 C-97.14271439 27.40013165 -79.78233972 24.41119606 -60.97705078 10.57006836 C-41.8848579 -3.41845804 -25.29991849 0 0 0 Z " transform="translate(421,365)"/>
<path d="M0 0 C1.20482529 -0.00953201 2.40965057 -0.01906403 3.65098572 -0.02888489 C5.5979409 -0.02751778 5.5979409 -0.02751778 7.58422852 -0.02612305 C8.93416983 -0.03001219 10.28410994 -0.03434731 11.63404846 -0.03910828 C14.46098806 -0.04656196 17.28780274 -0.04628547 20.11474609 -0.04101562 C23.7306929 -0.03522214 27.34612729 -0.05215252 30.9619894 -0.0753603 C33.74932322 -0.0901192 36.53653425 -0.09096644 39.32390022 -0.08785057 C41.30306885 -0.08861107 43.28221848 -0.1024666 45.26133728 -0.11653137 C46.46931473 -0.11030258 47.67729218 -0.10407379 48.921875 -0.09765625 C49.98236557 -0.09828568 51.04285614 -0.0989151 52.13548279 -0.0995636 C55.45611135 0.33039704 57.34176184 1.30363064 60.02563477 3.2746582 C61.40665826 6.03670518 61.16434864 8.27354543 61.17953491 11.36592102 C61.18813538 12.66563843 61.19673584 13.96535583 61.20559692 15.30445862 C61.2100323 16.75326498 61.21433064 18.20207177 61.21850586 19.65087891 C61.22640572 21.17013741 61.2346746 22.68939404 61.24328613 24.20864868 C61.26951834 29.20589401 61.28481434 34.20314777 61.29907227 39.20043945 C61.30443134 40.91960341 61.30980884 42.6387673 61.31520462 44.35793114 C61.33683456 51.5080572 61.35557209 58.65818098 61.36682701 65.80833149 C61.38307164 76.06154062 61.41626032 86.3143711 61.47322786 96.56743747 C61.51190301 103.7734412 61.53145677 110.97934354 61.53674757 118.18544835 C61.54040422 122.49106101 61.5524583 126.79626993 61.58485031 131.1017704 C61.61488883 135.15252832 61.62125822 139.20263734 61.60946655 143.25348282 C61.60924546 144.73979929 61.61757991 146.22614549 61.63512039 147.71235847 C61.65777258 149.74226081 61.64654483 151.77245678 61.63363647 153.80244446 C61.63860169 155.50616951 61.63860169 155.50616951 61.64366722 157.24431324 C60.82790381 161.24417524 59.16040583 162.74649403 56.02563477 165.2746582 C53.06628418 165.90284729 53.06628418 165.90284729 49.75415039 165.90576172 C48.50935913 165.91829483 47.26456787 165.93082794 45.98205566 165.94374084 C44.63198802 165.93147207 43.28193042 165.91805197 41.93188477 165.90356445 C40.53853165 165.90439375 39.14517863 165.90685543 37.75183105 165.91087341 C34.83645053 165.91372713 31.92184008 165.89907402 29.0065918 165.87158203 C25.27721465 165.83749824 21.54921386 165.84352053 17.81977081 165.86224461 C14.94399628 165.87283388 12.06853979 165.86385965 9.1927948 165.84885979 C7.81814011 165.84369154 6.44345202 165.84414329 5.06880188 165.85040474 C3.14486376 165.85587911 1.22090938 165.83258008 -0.70288086 165.80810547 C-1.79588501 165.80190689 -2.88888916 165.79570831 -4.01501465 165.7893219 C-7.68101824 165.15176345 -9.35421868 163.87504056 -11.97436523 161.2746582 C-13.05557914 158.03101648 -13.10554045 155.67268628 -13.11480713 152.25968933 C-13.12051727 151.00211319 -13.12622742 149.74453705 -13.1321106 148.44885254 C-13.13335594 147.05249033 -13.13448104 145.65612802 -13.13549805 144.25976562 C-13.14012667 142.79124324 -13.14515139 141.32272205 -13.15054321 139.85420227 C-13.16366513 135.86236928 -13.17011179 131.87055311 -13.17455387 127.87870193 C-13.177485 125.38458451 -13.18158989 122.89047169 -13.18605804 120.39635658 C-13.19973257 112.59234647 -13.20939939 104.78834685 -13.21325994 96.98432559 C-13.21774041 87.97667886 -13.23528796 78.9691839 -13.26426053 69.96158332 C-13.28587954 62.9984262 -13.29596434 56.03531177 -13.29730105 49.07212144 C-13.29834895 44.91359868 -13.30425335 40.7552186 -13.32212067 36.59673119 C-13.33860513 32.68395851 -13.34075512 28.7714357 -13.33198166 24.85864067 C-13.33121147 23.424363 -13.3355516 21.99007188 -13.34543991 20.55582809 C-13.35816915 18.594119 -13.35048735 16.63230942 -13.34185791 14.670578 C-13.34332447 13.57385364 -13.34479103 12.47712927 -13.34630203 11.34717083 C-12.91340592 7.7710827 -11.80232727 5.36083547 -9.97436523 2.2746582 C-6.83315478 -0.0765004 -3.84213642 0.01670502 0 0 Z " transform="translate(450.974365234375,346.725341796875)"/>
<path d="M0 0 C24.42 0 48.84 0 74 0 C74.16043524 19.01603216 74.16043524 19.01603216 74.1953125 27.12695312 C74.21921649 32.65974282 74.24748322 38.19226753 74.30175781 43.72485352 C74.34524535 48.18579829 74.36914335 52.64645886 74.37950897 57.10759926 C74.38689514 58.80886623 74.40131876 60.51011779 74.42292023 62.21126366 C74.4519937 64.59585454 74.45595448 66.97927383 74.45410156 69.36401367 C74.46848267 70.06604416 74.48286377 70.76807465 74.49768066 71.49137878 C74.46815682 75.00698775 74.05352508 76.91525136 72.15911865 79.91474915 C68.73229008 83.22433901 65.79745713 83.13127115 61.23095703 83.16113281 C60.04607697 83.17074036 58.8611969 83.1803479 57.64041138 83.19024658 C56.35915375 83.19449646 55.07789612 83.19874634 53.7578125 83.203125 C52.44215302 83.20882507 51.12649353 83.21452515 49.77096558 83.22039795 C46.98516453 83.23089719 44.19939226 83.23674692 41.41357422 83.24023438 C37.85031742 83.24571756 34.28744303 83.26974582 30.72430611 83.29820633 C27.31881558 83.32135043 23.9133776 83.32328337 20.5078125 83.328125 C18.59199875 83.3466452 18.59199875 83.3466452 16.63748169 83.36553955 C15.4462973 83.36253845 14.25511292 83.35953735 13.02783203 83.35644531 C11.98209015 83.36009094 10.93634827 83.36373657 9.85891724 83.36749268 C6.50135136 82.9359024 4.67655864 82.05685671 2 80 C-0.5955611 76.55523657 -0.26979411 72.7082554 -0.22705078 68.56933594 C-0.22734283 67.82748047 -0.22763489 67.085625 -0.22793579 66.32128906 C-0.22654533 63.87553099 -0.21099765 61.43007968 -0.1953125 58.984375 C-0.19158136 57.28615485 -0.18873486 55.58793255 -0.18673706 53.88970947 C-0.17910857 49.42462193 -0.15946681 44.95966494 -0.1373291 40.49462891 C-0.1132525 35.13484393 -0.10408596 29.77501525 -0.09242249 24.41519165 C-0.07304195 16.2767037 -0.03471399 8.13850207 0 0 Z " transform="translate(228,0)"/>
</svg>
