<svg id="Layer_1" viewBox="0 0 512 512" xmlns="http://www.w3.org/2000/svg" data-name="Layer 1" style="shape-rendering:geometricPrecision; text-rendering:geometricPrecision; image-rendering:optimizeQuality; fill-rule:evenodd; clip-rule:evenodd" xmlns:xlink="http://www.w3.org/1999/xlink">
<g><path style="opacity:0.981" d="M 237.5,-0.5 C 249.5,-0.5 261.5,-0.5 273.5,-0.5C 335.057,9.2184 378.557,42.5517 404,99.5C 410.875,117.539 414.541,136.206 415,155.5C 415.5,174.83 415.667,194.164 415.5,213.5C 392.622,209.02 369.622,205.187 346.5,202C 345.915,182.541 345.081,163.041 344,143.5C 332.737,97.0757 303.237,72.0757 255.5,68.5C 207.763,72.0757 178.263,97.0757 167,143.5C 165.919,163.041 165.085,182.541 164.5,202C 141.39,205.256 118.39,209.089 95.5,213.5C 95.3334,193.831 95.5,174.164 96,154.5C 99.2087,97.2245 124.709,53.0579 172.5,22C 192.779,10.1858 214.446,2.68579 237.5,-0.5 Z"/></g>
<g><path style="opacity:0.993" d="M 290.5,511.5 C 267.167,511.5 243.833,511.5 220.5,511.5C 164.895,507.898 110.229,498.231 56.5,482.5C 55.1667,406.5 55.1667,330.5 56.5,254.5C 189.168,215.833 321.835,215.833 454.5,254.5C 455.833,330.5 455.833,406.5 454.5,482.5C 400.774,498.231 346.107,507.897 290.5,511.5 Z M 248.5,289.5 C 277.383,288.348 295.549,301.682 303,329.5C 305.185,355.133 294.518,373.133 271,383.5C 270.5,399.83 270.333,416.163 270.5,432.5C 260.5,432.5 250.5,432.5 240.5,432.5C 240.667,416.163 240.5,399.83 240,383.5C 214.485,372.311 204.152,352.977 209,325.5C 215.405,305.922 228.572,293.922 248.5,289.5 Z"/></g>
<g><path style="opacity:0.939" d="M 250.5,318.5 C 268.14,317.64 275.974,325.973 274,343.5C 267.178,357.042 257.011,360.209 243.5,353C 235.568,344.775 234.401,335.609 240,325.5C 242.998,322.262 246.498,319.929 250.5,318.5 Z"/></g>
</svg>
