<svg id="Layer_1" viewBox="0 0 512 512" xmlns="http://www.w3.org/2000/svg" data-name="Layer 1" style="shape-rendering:geometricPrecision; text-rendering:geometricPrecision; image-rendering:optimizeQuality; fill-rule:evenodd; clip-rule:evenodd" xmlns:xlink="http://www.w3.org/1999/xlink">
<g><path style="opacity:0.988" d="M 246.5,-0.5 C 252.5,-0.5 258.5,-0.5 264.5,-0.5C 285.281,6.70437 294.781,21.371 293,43.5C 288.344,63.3201 275.844,73.9868 255.5,75.5C 228.996,72.1634 216.496,57.1634 218,30.5C 221.473,14.5308 230.973,4.19751 246.5,-0.5 Z"/></g>
<g><path style="opacity:0.994" d="M 291.5,511.5 C 286.833,511.5 282.167,511.5 277.5,511.5C 268.762,507.925 262.928,501.592 260,492.5C 259.667,424.5 259.333,356.5 259,288.5C 256.667,285.833 254.333,285.833 252,288.5C 251.667,356.5 251.333,424.5 251,492.5C 248.072,501.592 242.238,507.925 233.5,511.5C 228.833,511.5 224.167,511.5 219.5,511.5C 210.219,508.384 204.052,502.051 201,492.5C 200.667,378.167 200.333,263.833 200,149.5C 197.959,148.577 195.792,148.244 193.5,148.5C 193.667,189.168 193.5,229.835 193,270.5C 190.575,285.642 181.741,291.809 166.5,289C 158.685,286.187 154.185,280.687 153,272.5C 152.333,225.5 152.333,178.5 153,131.5C 155.489,105.317 169.655,90.1502 195.5,86C 235.5,85.3333 275.5,85.3333 315.5,86C 341.345,90.1502 355.511,105.317 358,131.5C 358.667,178.5 358.667,225.5 358,272.5C 354.446,286.205 345.612,291.705 331.5,289C 322.981,285.804 318.481,279.637 318,270.5C 317.5,229.835 317.333,189.168 317.5,148.5C 315.208,148.244 313.041,148.577 311,149.5C 310.667,263.833 310.333,378.167 310,492.5C 306.948,502.051 300.781,508.384 291.5,511.5 Z"/></g>
</svg>
