<?xml version="1.0" encoding="UTF-8"?>
<svg id="Layer_1" viewBox="0 0 512 512" xmlns="http://www.w3.org/2000/svg" data-name="Layer 1">
<path d="M0 0 C132.66 0 265.32 0 402 0 C402 14.48343935 402 14.48343935 398.58997035 18.06477618 C398.0829846 18.53048439 397.57599885 18.9961926 397.0536499 19.47601318 C396.25546526 20.28556737 396.25546526 20.28556737 395.44115567 21.11147618 C393.66937672 22.89287816 391.85568081 24.62386695 390.03808594 26.35839844 C388.75112629 27.63349155 387.46706413 28.91151474 386.1856842 30.19221497 C383.42952547 32.93443491 380.65412244 35.65489839 377.86159515 38.36006927 C373.44260761 42.64097269 369.06983572 46.96715165 364.70196533 51.30010986 C357.78632992 58.14961155 350.84037375 64.96741149 343.88104749 71.77249074 C331.42279347 83.95612502 319.01186723 96.18781228 306.61967111 108.43860078 C302.27277927 112.73331911 297.91121596 117.01239037 293.5367589 121.27902269 C290.81398746 123.93882057 288.10138618 126.608824 285.39101982 129.28125572 C284.13615949 130.51405626 282.87694364 131.74244209 281.61300087 132.96592903 C272.4534469 141.71892493 272.4534469 141.71892493 267 153 C266.69092712 153.90093384 266.38185425 154.80186768 266.06341553 155.73010254 C265.85911926 156.48239136 265.654823 157.23468018 265.44433594 158.00976562 C265.20438904 158.88097046 264.96444214 159.75217529 264.71722412 160.64978027 C264.47538391 161.55941528 264.2335437 162.46905029 263.984375 163.40625 C263.72368225 164.37099243 263.4629895 165.33573486 263.19439697 166.32971191 C262.64957565 168.35567529 262.1085898 170.38267368 261.57128906 172.41064453 C260.75131006 175.49507207 259.91151865 178.57364702 259.0703125 181.65234375 C258.54045569 183.63248886 258.0117701 185.61294781 257.484375 187.59375 C257.23443787 188.50338501 256.98450073 189.41302002 256.72698975 190.35021973 C254.96789229 197.09142656 253.8013176 203.53713974 256.125 210.25 C259.34729979 214.9760397 263.42188617 218.50343288 269 220 C275.41052462 220.45883857 281.0230814 218.94568766 287.19140625 217.296875 C288.25487778 217.01781311 289.3183493 216.73875122 290.41404724 216.45123291 C292.65503277 215.86035333 294.89484957 215.26502544 297.13354492 214.66552734 C300.55081268 213.7531205 303.97317804 212.8621013 307.39648438 211.97265625 C309.57846649 211.39451645 311.76011898 210.81513089 313.94140625 210.234375 C314.96029434 209.97066101 315.97918243 209.70694702 317.02894592 209.4352417 C317.98691574 209.17527405 318.94488556 208.9153064 319.93188477 208.64746094 C321.18594872 208.3143692 321.18594872 208.3143692 322.46534729 207.97454834 C328.83275227 205.5263455 333.29810261 200.97523161 337.98339844 196.21191406 C338.65405838 195.53833359 339.32471832 194.86475311 340.01570129 194.17076111 C341.4632964 192.71558539 342.9085774 191.25810467 344.35176849 189.7985611 C346.63319186 187.49154092 348.92086667 185.19088818 351.21026611 182.89178467 C356.06247521 178.01676859 360.90677295 173.1339375 365.75 168.25 C371.37617747 162.57668006 377.00551969 156.90657822 382.64331818 151.24480438 C384.90203567 148.97307859 387.15467147 146.69543581 389.40716553 144.4175415 C390.78254267 143.03490418 392.15819864 141.65254415 393.53417969 140.27050781 C394.16276382 139.63159103 394.79134796 138.99267426 395.4389801 138.33439636 C396.92184861 136.85116403 398.45609149 135.41958573 400 134 C400.66 134 401.32 134 402 134 C402.06959436 146.3786435 402.1228593 158.75724024 402.15543652 171.13603973 C402.17107409 176.88438339 402.19227773 182.63259291 402.22631836 188.38085938 C402.25897953 193.93108941 402.27686737 199.48119065 402.28463173 205.0315094 C402.29016308 207.14614387 402.30096445 209.2607715 402.31719017 211.37535095 C402.33905403 214.34348637 402.34196315 217.31109353 402.34057617 220.27929688 C402.35675491 221.58265991 402.35675491 221.58265991 402.3732605 222.91235352 C402.34346332 228.82812956 401.77889393 234.92594526 397.61876202 239.52794647 C392.68091942 243.8019943 389.12843563 245.24954055 382.65243721 245.25447559 C381.33841647 245.26030779 380.02439574 245.26613998 378.67055619 245.27214891 C377.20868453 245.26851555 375.74681334 245.26469117 374.28494263 245.26069641 C372.73483975 245.26371584 371.18473836 245.26760427 369.63463962 245.27228898 C365.36824339 245.28260467 361.10193086 245.2803781 356.83552766 245.27610838 C352.2369306 245.27364761 347.63835403 245.28264725 343.0397644 245.29014587 C334.02785995 245.30291316 325.01598526 245.30468403 316.00407328 245.30234561 C308.680608 245.3005645 301.35715178 245.30230765 294.03368759 245.30657005 C292.99242606 245.30716524 291.95116453 245.30776043 290.87834962 245.30837366 C288.76319815 245.30958538 286.64804667 245.31079951 284.53289519 245.31201603 C264.68440355 245.32289947 244.83592888 245.32072532 224.98743628 245.31463119 C206.82078322 245.30946175 188.65418378 245.32071676 170.48754133 245.33972941 C151.84443606 245.35909147 133.20135617 245.36736665 114.55824077 245.36360615 C104.08740467 245.36169157 93.6166142 245.36420661 83.14578629 245.37832069 C74.23153793 245.39021472 65.3173633 245.39166168 56.40311398 245.37953053 C51.85354628 245.37362781 47.30411357 245.37258074 42.75455475 245.38453293 C38.59086209 245.39534441 34.42741787 245.39234512 30.26373707 245.37827124 C28.75635757 245.3756112 27.24895889 245.37803167 25.74159814 245.38600711 C23.69416849 245.39608929 21.646669 245.3859145 19.59924507 245.37473011 C18.46149293 245.37478513 17.32374079 245.37484014 16.15151131 245.37489682 C9.96241249 244.6386553 6.03075432 241.5905813 2 237 C0.33026258 234.17769276 -0.2496091 232.13645979 -0.24609566 228.86896133 C-0.2500774 228.04911003 -0.25405914 227.22925873 -0.25816154 226.38456345 C-0.25233622 225.4898798 -0.24651089 224.59519615 -0.24050903 223.67340088 C-0.24222107 222.72081894 -0.24393311 221.768237 -0.24569702 220.78678894 C-0.24901393 217.5768593 -0.23794971 214.36713721 -0.22705078 211.15722656 C-0.22643829 208.82387168 -0.22670479 206.49051643 -0.2277813 204.15716171 C-0.22823354 197.89825097 -0.21662653 191.63941642 -0.20256042 185.38052368 C-0.19118593 179.5113297 -0.19063502 173.64215442 -0.18920898 167.77294922 C-0.17870672 150.59862269 -0.15078451 133.42431039 -0.125 116.25 C-0.08375 77.8875 -0.0425 39.525 0 0 Z M38 41 C37.74588432 44.63825863 37.74588432 44.63825863 39 48 C41.7893859 50.63578372 43.69163328 51.37527975 47.49468231 51.38031673 C48.8457774 51.39297665 48.8457774 51.39297665 50.22416735 51.40589231 C51.20976121 51.39988227 52.19535508 51.39387222 53.21081543 51.38768005 C54.26088382 51.39306559 55.31095222 51.39845113 56.39284086 51.40399987 C59.92281929 51.41834434 63.45242616 51.41115961 66.98242188 51.40405273 C69.5085124 51.40975285 72.03460035 51.41671571 74.5606842 51.42485046 C80.71641965 51.44096628 86.87201712 51.44287476 93.0277673 51.43763756 C98.03003229 51.43359839 103.0322671 51.43503639 108.03453064 51.44038582 C108.74610163 51.44113424 109.45767261 51.44188266 110.19080636 51.44265376 C111.63628631 51.44418522 113.08176625 51.44572356 114.52724618 51.44726873 C128.08594971 51.46100022 141.64459557 51.45555132 155.20329779 51.44408352 C167.61289611 51.43414832 180.02234538 51.44709555 192.43192071 51.47101771 C205.16958197 51.49538766 217.90717376 51.50502191 230.64485788 51.49836498 C237.79794556 51.49486834 244.95091856 51.49713418 252.10398865 51.51461601 C258.82795753 51.53084513 265.55159546 51.52618932 272.27557182 51.50731087 C274.74755738 51.50361024 277.21956386 51.506776 279.69153023 51.51719666 C283.05774893 51.53030697 286.42300805 51.51894691 289.78918457 51.50120544 C290.77477844 51.51081045 291.7603723 51.52041546 292.77583265 51.53031152 C298.05053615 51.53790475 298.05053615 51.53790475 302.57958221 49.08976841 C304.50112594 46.27896942 304.50112594 46.27896942 305 43 C303.35923508 39.55439366 302.21487558 38.14325038 299 36 C296.94134114 35.6976341 296.94134114 35.6976341 294.6467762 35.73993778 C293.30481782 35.7293394 293.30481782 35.7293394 291.93574917 35.7185269 C290.95181553 35.72094198 289.96788189 35.72335707 288.95413208 35.72584534 C287.90970723 35.72060866 286.86528238 35.71537198 285.78920829 35.70997661 C282.27235717 35.69491609 278.75565075 35.69427013 275.23876953 35.69360352 C272.72430168 35.68598614 270.20983617 35.67755938 267.69537354 35.66838074 C260.85245184 35.6463881 254.00958058 35.63760905 247.16662836 35.63255429 C242.89490324 35.62929882 238.62318715 35.62277729 234.35146713 35.6155529 C222.52694806 35.59598613 210.70243738 35.57958217 198.87790108 35.57667637 C198.12105577 35.5764888 197.36421046 35.57630123 196.58443045 35.57610798 C195.05008817 35.57574172 193.51574589 35.57537802 191.9814036 35.57501686 C190.83891204 35.57474265 190.83891204 35.57474265 189.67333984 35.57446289 C188.52945586 35.57419207 188.52945586 35.57419207 187.3624631 35.57391577 C175.0019549 35.57037308 162.64162081 35.54334521 150.28117301 35.505965 C137.59439531 35.46790453 124.90770406 35.44851906 112.22086799 35.44821686 C105.09619521 35.4476318 97.97173014 35.43910902 90.84711075 35.41021919 C84.14774184 35.38317884 77.4488543 35.38178107 70.7494278 35.39787483 C68.28752879 35.39969675 65.82560658 35.39293219 63.36375809 35.37705612 C60.00862323 35.35673476 56.65494969 35.36706663 53.29983521 35.38526917 C52.32036301 35.3720692 51.34089081 35.35886923 50.33173764 35.34526926 C44.56198956 35.41700935 41.50146157 35.94000939 38 41 Z M38 92 C38 95.36480076 38.33992689 97.16773391 40.4375 99.8125 C43.0925225 101.8303171 44.78559175 102.12631913 48.0583849 102.13422108 C49.33988067 102.14090784 49.33988067 102.14090784 50.64726526 102.14772969 C51.59131131 102.14754533 52.53535736 102.14736097 53.50801086 102.14717102 C54.50666221 102.15084771 55.50531356 102.1545244 56.53422707 102.1583125 C59.9021363 102.16938235 63.27001472 102.17319874 66.63793945 102.17700195 C69.04388528 102.18326404 71.44983014 102.18991061 73.85577393 102.19691467 C81.09121179 102.2161659 88.32664713 102.22674601 95.56210282 102.23564246 C98.967954 102.240024 102.37380361 102.24539114 105.77965355 102.25063133 C117.09886636 102.267644 128.41807819 102.28213886 139.73730183 102.28938007 C142.67537245 102.29129002 145.61344307 102.29321035 148.55151367 102.29516602 C149.28177174 102.29564976 150.0120298 102.2961335 150.7644169 102.2966319 C162.59793697 102.30493476 174.43135604 102.33027578 186.264832 102.36274669 C198.40916477 102.39579941 210.55344618 102.41382719 222.69782418 102.41702431 C229.51843953 102.41919103 236.33890758 102.42796317 243.15947914 102.45348549 C249.57393601 102.47743247 255.98819948 102.4810294 262.4026947 102.47072411 C264.75977649 102.47022684 267.11687103 102.47660309 269.47391319 102.49028015 C272.68661013 102.50788237 275.89834188 102.50095001 279.11103821 102.48774719 C280.51706904 102.50420106 280.51706904 102.50420106 281.95150453 102.52098733 C286.15083451 102.479192 288.408746 102.3634221 292.05556011 100.12185955 C294.34723584 97.62108076 295 96.39238609 295 93 C293.24886475 89.28738773 293.24886475 89.28738773 290 87 C288.63946811 86.90319636 287.27434512 86.867242 285.91038036 86.86298561 C285.04908305 86.85791107 284.18778574 86.85283653 283.30038851 86.84760821 C282.34856057 86.84711045 281.39673262 86.84661269 280.4160614 86.84609985 C279.40924295 86.8417176 278.40242449 86.83733535 277.36509639 86.8328203 C273.96955136 86.81939658 270.57403231 86.81324546 267.1784668 86.80712891 C264.75281658 86.79923084 262.32716755 86.79096208 259.90151978 86.78234863 C252.60676025 86.75836388 245.31199895 86.74319682 238.01721379 86.73028857 C235.95748608 86.7265774 233.89775904 86.72260411 231.83803201 86.7185359 C219.05215993 86.69330149 206.2662868 86.67124462 193.48039532 86.65880775 C190.51826155 86.65587798 187.55612782 86.65291632 184.59399414 86.64990234 C183.4896352 86.64878327 183.4896352 86.64878327 182.36296598 86.64764158 C170.43242354 86.63498398 158.50202999 86.60175594 146.57155719 86.56010051 C134.32778435 86.51770096 122.0840878 86.49411507 109.84024173 86.48888719 C102.96369708 86.48547093 96.08738517 86.47369077 89.2109127 86.44078445 C82.74390158 86.40988855 76.27718535 86.40435599 69.81010818 86.41616821 C67.43366929 86.41638979 65.05721209 86.40801593 62.68083763 86.39051437 C59.44169343 86.36795304 56.20403943 86.37605809 52.96488953 86.39199829 C52.01975374 86.3781162 51.07461796 86.36423412 50.1008417 86.34993136 C44.4007133 86.41926745 41.49526639 87.05218283 38 92 Z M40 130 C38.09298225 132.54269034 37.99412241 133.85599893 38.125 137.0625 C39.18452035 140.61946116 39.76756419 141.25029506 43 143 C45.90621452 143.29148496 48.59677538 143.40922621 51.50244141 143.38768005 C52.36874994 143.39306559 53.23505848 143.39845113 54.12761879 143.40399987 C57.03574376 143.4183282 59.94341668 143.41116373 62.8515625 143.40405273 C64.93430956 143.40975371 67.0170535 143.4167169 69.09979248 143.42485046 C74.76084556 143.44282597 80.42174401 143.44160536 86.08281708 143.43590808 C90.80477585 143.43282293 95.52670463 143.43890108 100.24865913 143.44494683 C111.38519906 143.45900454 122.52166229 143.45742005 133.65820312 143.44604492 C145.15764065 143.43455888 156.6568451 143.44864482 168.15625191 143.4754414 C178.02129831 143.49757109 187.8862714 143.50424204 197.75134087 143.49836498 C203.64688573 143.4949881 209.54228112 143.49745912 215.43780518 143.51461601 C220.97986915 143.53003982 226.52158672 143.52618036 232.06363678 143.50731087 C234.10023175 143.50361249 236.13685213 143.50676958 238.17342377 143.51719666 C240.94853934 143.53032278 243.72249383 143.5189339 246.49755859 143.50120544 C247.30805979 143.51081045 248.11856098 143.52041546 248.95362282 143.53031152 C252.53222183 143.48310389 254.57900795 143.32039997 257.46890259 141.12101841 C259.30430064 138.57845448 260 137.15267258 260 134 C258.22336478 131.30441552 256.90715555 129.45357777 254 128 C251.26301903 127.89982558 248.55134483 127.8610444 245.81399536 127.86628723 C244.95756278 127.86402167 244.1011302 127.86175612 243.21874511 127.85942191 C240.33217727 127.85306221 237.44565613 127.85391253 234.55908203 127.85473633 C232.49633727 127.85174606 230.43359307 127.84834384 228.37084961 127.84455872 C222.7551731 127.83570088 217.13951181 127.83337985 211.52382898 127.83274293 C206.84174559 127.83179523 202.15966578 127.82811851 197.47758377 127.82457083 C186.43411 127.81641942 175.39064439 127.81398722 164.34716797 127.81469727 C152.94213454 127.81529818 141.53714839 127.80474517 130.13212693 127.7889536 C120.35206031 127.77589279 110.57200917 127.77051276 100.79193389 127.77115268 C94.94558355 127.7714081 89.09927519 127.76853242 83.2529335 127.75797462 C77.75531153 127.74831821 72.25777191 127.74819754 66.76014709 127.75549126 C64.73967748 127.75654018 62.71920281 127.75415608 60.69874191 127.7481308 C57.94572068 127.74045124 55.19298666 127.74502884 52.43997192 127.75276184 C51.63588839 127.74761828 50.83180485 127.74247471 50.00335515 127.73717529 C44.68975722 127.76566926 44.68975722 127.76566926 40 130 Z M39.5124197 172.347435 C37.75751343 174.93469658 37.75751343 174.93469658 37.9375 178.0625 C39.29558685 181.8172107 40.63454904 182.87283428 44 185 C46.74619404 185.3810987 49.08551875 185.5333066 51.82545471 185.49447632 C52.99756725 185.50171956 52.99756725 185.50171956 54.19335884 185.50910914 C56.80836518 185.52036935 59.42239128 185.50306967 62.03735352 185.48583984 C63.91335312 185.48798597 65.78935142 185.49186405 67.66534424 185.49734497 C72.75826047 185.50703981 77.85082622 185.49173363 82.94370008 185.47143888 C88.27096996 185.45387528 93.59822891 185.45739282 98.92552185 185.4581604 C107.87089912 185.4562873 116.8161407 185.43892125 125.76147461 185.41162109 C136.10833226 185.38016062 146.45504134 185.36962523 156.80194336 185.3710922 C166.75079002 185.37231231 176.69958823 185.36210618 186.64842033 185.34550858 C190.88477901 185.33844195 195.12112054 185.33478194 199.35748482 185.33372116 C204.34383213 185.33171409 209.33005441 185.3195192 214.31636047 185.29938889 C216.14815442 185.29354076 217.97996276 185.29108777 219.81176567 185.29224396 C222.30848692 185.2932236 224.8048566 185.28193182 227.30152893 185.26742554 C228.02963809 185.27052274 228.75774725 185.27361995 229.50792032 185.276811 C233.15422299 185.24172552 235.94153409 185.08752236 239 183 C240.92199114 180.43734514 241.01028636 179.16801051 240.8125 175.9375 C239.93380584 172.76068267 239.66116009 171.84645306 237 170 C234.34380254 169.70099646 231.92072101 169.58664302 229.26319885 169.60559082 C228.46716513 169.59949972 227.67113141 169.59340861 226.85097545 169.58713293 C224.17467659 169.57043938 221.4988502 169.5752877 218.82250977 169.58007812 C216.90739444 169.57274149 214.99228355 169.56415645 213.07717896 169.55441284 C207.86853749 169.53214576 202.66005397 169.52926874 197.45137143 169.53116035 C193.10722978 169.53127981 188.76312189 169.52272579 184.4189896 169.51438284 C174.17277692 169.49513016 163.92664573 169.49227178 153.68041992 169.49902344 C143.10060376 169.50566646 132.52113605 169.48279353 121.94139057 169.44570971 C112.86616295 169.41505051 103.79104763 169.40364855 94.71576923 169.40754652 C89.29188263 169.40961788 83.8682671 169.40407513 78.4444294 169.37965393 C73.34470836 169.35745169 68.2455553 169.35921017 63.14583206 169.37958145 C61.27210108 169.38300305 59.39833235 169.37785318 57.52465248 169.36359787 C54.97036081 169.34550239 52.41801597 169.35808034 49.86378479 169.37854004 C49.1187476 169.36602219 48.3737104 169.35350434 47.60609633 169.34060717 C43.84099692 169.40545954 42.29320066 169.72331767 39.5124197 172.347435 Z " fill="#000000" transform="translate(11,171)"/>
<path d="M0 0 C1.31079629 -0.00507454 2.62159258 -0.01014909 3.97210997 -0.0153774 C5.43554537 -0.0159791 6.89898081 -0.01647817 8.36241627 -0.01688576 C9.91022995 -0.02089988 11.45804259 -0.02533802 13.00585395 -0.03016531 C17.27062199 -0.04214222 21.53537872 -0.04778184 25.80016029 -0.05234647 C30.39540309 -0.05829829 34.99063232 -0.06990914 39.58586597 -0.08063698 C50.68893483 -0.10516997 61.79200817 -0.11978912 72.8950958 -0.13269705 C76.03020799 -0.13640822 79.16531974 -0.14038151 82.30043149 -0.14444971 C101.76225167 -0.16968462 121.22407253 -0.19174128 140.68590546 -0.20417786 C145.19475971 -0.20710763 149.70361395 -0.21006928 154.21246815 -0.21308327 C155.33314431 -0.21382932 156.45382048 -0.21457537 157.60845653 -0.21534403 C175.76738196 -0.22800075 193.92620955 -0.26122763 212.08508923 -0.3028851 C230.72138801 -0.34528794 249.35763667 -0.36887095 267.99398357 -0.37409842 C278.46047583 -0.37751432 288.92681517 -0.38929073 299.39326 -0.42220116 C308.30603517 -0.45018008 317.21862606 -0.46121045 326.13144173 -0.4500057 C330.67932437 -0.4448136 335.22682097 -0.44774152 339.77464771 -0.47247124 C343.93923257 -0.49492808 348.10315331 -0.49425194 352.26774953 -0.47526737 C353.7731849 -0.47246233 355.27866498 -0.47809397 356.78402837 -0.4930803 C364.75309952 -0.56755497 371.66913591 -0.63151686 377.78107166 5.13701439 C389.78866173 20.22347371 382.78107166 42.5441578 382.78107166 60.13701439 C250.12107166 60.13701439 117.46107166 60.13701439 -19.21892834 60.13701439 C-19.21892834 12.13701439 -19.21892834 12.13701439 -15.21892834 5.13701439 C-10.07099389 1.14473869 -6.42473838 0.01317275 0 0 Z M20.78107166 25.13701439 C18.71187236 27.77054077 18.78176445 29.17511749 18.84357166 32.57451439 C19.98120343 36.89751509 21.15691518 38.53707604 24.78107166 41.13701439 C29.08382075 41.82852764 30.99052478 41.65258844 34.65607166 39.26201439 C37.38152057 36.53656548 37.72777035 35.7020083 38.09357166 31.82451439 C37.73231225 27.56165328 36.76115112 26.11709385 33.78107166 23.13701439 C29.01742885 20.75519298 24.81006043 22.00335646 20.78107166 25.13701439 Z M60.78107166 24.13701439 C58.2857162 27.14865029 57.78107166 28.69437919 57.78107166 32.63701439 C58.99404599 36.88242454 60.19795342 38.56651652 63.78107166 41.13701439 C68.08382075 41.82852764 69.99052478 41.65258844 73.65607166 39.26201439 C76.38152057 36.53656548 76.72777035 35.7020083 77.09357166 31.82451439 C76.73231225 27.56165328 75.76115112 26.11709385 72.78107166 23.13701439 C68.80720956 21.15008334 64.35872985 21.54629639 60.78107166 24.13701439 Z M97.78107166 27.13701439 C96.40513676 30.94106972 96.57885384 32.58357614 97.96857166 36.38701439 C99.84594544 39.23544356 100.55486523 40.21524112 103.78107166 41.13701439 C108.01730857 41.78165914 109.46438594 41.34614647 113.09357166 38.94951439 C115.83694551 36.07854176 116.78107166 35.04321646 116.78107166 31.13701439 C115.69630474 26.68947002 113.65654943 24.51514847 109.78107166 22.13701439 C104.20845338 21.06991727 101.54618129 23.1092227 97.78107166 27.13701439 Z " fill="#000000" transform="translate(30.218928337097168,95.86298561096191)"/>
<path d="M0 0 C3.14940547 1.50332688 5.29085016 3.04641953 7.75878906 5.53173828 C8.47923401 6.25233429 9.19967896 6.9729303 9.94195557 7.71536255 C10.70876648 8.49249603 11.47557739 9.26962952 12.265625 10.0703125 C13.05902283 10.86654022 13.85242065 11.66276794 14.66986084 12.48312378 C17.20130703 15.02575948 19.72570803 17.57526348 22.25 20.125 C23.96568617 21.85071753 25.68182662 23.57598355 27.3984375 25.30078125 C31.60424248 29.52863032 35.80428507 33.76213869 40 38 C38.4351929 41.75845791 36.10729996 44.13924172 33.24179077 46.99871826 C32.5103134 47.73275891 32.5103134 47.73275891 31.76405871 48.48162866 C30.13046064 50.11851832 28.48982203 51.74816182 26.84912109 53.37792969 C25.67599764 54.55048896 24.50331448 55.72348889 23.33103943 56.89689636 C20.14770597 60.08080405 16.95824013 63.25850411 13.76765013 66.43513775 C10.4341909 69.75610139 7.10638795 73.08272299 3.77798462 76.40875244 C-2.52553348 82.70605234 -8.83413287 88.99823627 -15.14456689 95.28860497 C-22.32858592 102.45027562 -29.50693228 109.61762059 -36.6848042 116.78545141 C-51.45022614 131.52996363 -66.22276892 146.26732378 -81 161 C-84.14940547 159.49667312 -86.29085016 157.95358047 -88.75878906 155.46826172 C-89.83945648 154.38736771 -89.83945648 154.38736771 -90.94195557 153.28463745 C-91.70876648 152.50750397 -92.47557739 151.73037048 -93.265625 150.9296875 C-94.05902283 150.13345978 -94.85242065 149.33723206 -95.66986084 148.51687622 C-98.20130703 145.97424052 -100.72570803 143.42473652 -103.25 140.875 C-104.96568617 139.14928247 -106.68182662 137.42401645 -108.3984375 135.69921875 C-112.60424248 131.47136968 -116.80428507 127.23786131 -121 123 C-119.4351929 119.24154209 -117.10729996 116.86075828 -114.24179077 114.00128174 C-113.75413919 113.51192131 -113.26648761 113.02256088 -112.76405871 112.51837134 C-111.13046064 110.88148168 -109.48982203 109.25183818 -107.84912109 107.62207031 C-106.67599764 106.44951104 -105.50331448 105.27651111 -104.33103943 104.10310364 C-101.14770597 100.91919595 -97.95824013 97.74149589 -94.76765013 94.56486225 C-91.4341909 91.24389861 -88.10638795 87.91727701 -84.77798462 84.59124756 C-78.47446652 78.29394766 -72.16586713 72.00176373 -65.85543311 65.71139503 C-58.67141408 58.54972438 -51.49306772 51.38237941 -44.3151958 44.21454859 C-29.54977386 29.47003637 -14.77723108 14.73267622 0 0 Z " fill="#000000" transform="translate(425,192)"/>
<path d="M0 0 C2.56498234 1.46682476 4.82021955 3.04192757 7.1171875 4.8984375 C7.77460938 5.42824219 8.43203125 5.95804688 9.109375 6.50390625 C14.60936224 11.47277885 18.39993036 17.48409887 19.59765625 24.85546875 C20.00498138 33.43131408 17.42878994 39.85168365 11.99023438 46.49755859 C9.57847564 49.10402176 7.09440406 51.6042495 4.5546875 54.0859375 C3.70455078 54.95541016 2.85441406 55.82488281 1.97851562 56.72070312 C1.15673828 57.53603516 0.33496094 58.35136719 -0.51171875 59.19140625 C-1.6265564 60.29778442 -1.6265564 60.29778442 -2.76391602 61.42651367 C-4.8828125 62.8984375 -4.8828125 62.8984375 -6.77932739 62.70010376 C-9.34363247 61.72281286 -10.70501797 60.47021284 -12.6574707 58.54370117 C-13.38114334 57.8359404 -14.10481598 57.12817963 -14.85041809 56.39897156 C-15.62036606 55.62922501 -16.39031403 54.85947845 -17.18359375 54.06640625 C-17.97936325 53.27825027 -18.77513275 52.4900943 -19.59501648 51.67805481 C-21.2739996 50.00987584 -22.94902187 48.33770229 -24.62036133 46.66186523 C-27.18892358 44.09232885 -29.77806333 41.54485328 -32.36914062 38.99804688 C-33.99609064 37.3763021 -35.62178563 35.75329709 -37.24609375 34.12890625 C-38.02616287 33.36523239 -38.80623199 32.60155853 -39.60993958 31.81474304 C-40.31785141 31.09752579 -41.02576324 30.38030853 -41.75512695 29.64135742 C-42.38481888 29.01371994 -43.0145108 28.38608246 -43.6632843 27.73942566 C-44.8828125 25.8984375 -44.8828125 25.8984375 -44.69319153 23.80465698 C-42.65849575 19.01853024 -37.88964804 15.43959942 -34.2578125 11.8359375 C-33.36707031 10.92521484 -32.47632813 10.01449219 -31.55859375 9.07617188 C-22.62341891 0.14757669 -12.8703015 -4.91792008 0 0 Z " fill="#000000" transform="translate(481.8828125,157.1015625)"/>
<path d="M0 0 C3.12265393 1.38777444 5.25298689 3.00046508 7.66699219 5.40820312 C8.36741638 6.102323 9.06784058 6.79644287 9.78948975 7.51159668 C10.90689545 8.63507507 10.90689545 8.63507507 12.046875 9.78125 C12.81807678 10.55053833 13.58927856 11.31982666 14.3838501 12.11242676 C16.01015129 13.73736827 17.63393476 15.36483299 19.25537109 16.99462891 C21.74746268 19.49745175 24.25006592 21.98940563 26.75390625 24.48046875 C28.33137112 26.05925468 29.90821577 27.63866061 31.484375 29.21875 C32.23740906 29.9677356 32.99044312 30.71672119 33.76629639 31.48840332 C34.45411194 32.18252319 35.14192749 32.87664307 35.85058594 33.59179688 C36.46029236 34.20309448 37.06999878 34.81439209 37.69818115 35.44421387 C39 37 39 37 39 39 C29.77595591 41.89855559 20.51283498 44.62309203 11.19482422 47.2019043 C9.71599537 47.61331152 8.23846935 48.0294274 6.76220703 48.44995117 C4.5942966 49.06714733 2.422813 49.66985591 0.25 50.26953125 C-0.40524658 50.45900833 -1.06049316 50.64848541 -1.7355957 50.84370422 C-5.49523839 51.86122641 -8.26100314 52.18877597 -12 51 C-12.33 50.67 -12.66 50.34 -13 50 C-12.49953443 43.89388864 -11.13882971 38.18364552 -9.53125 32.28515625 C-9.29088013 31.38880966 -9.05051025 30.49246307 -8.80285645 29.56895447 C-8.29773053 27.69005371 -7.79000145 25.81185103 -7.27978516 23.93432617 C-6.49619405 21.04848329 -5.72212246 18.16020587 -4.94921875 15.27148438 C-4.45628588 13.4425582 -3.96281567 11.61377674 -3.46875 9.78515625 C-3.23643677 8.91858902 -3.00412354 8.05202179 -2.76477051 7.15919495 C-1.11561242 1.11561242 -1.11561242 1.11561242 0 0 Z " fill="#000000" transform="translate(293,325)"/>
</svg>
