<?xml version="1.0" encoding="UTF-8"?>
<svg id="Layer_1" viewBox="0 0 512 512" xmlns="http://www.w3.org/2000/svg" data-name="Layer 1">
<path d="M0 0 C172.36 0 172.36 0 178.8125 5.5625 C181.45357808 8.75959451 181.12795587 12.21896955 181.13422108 16.16204548 C181.13867892 17.46014159 181.14313676 18.75823769 181.14772969 20.09567004 C181.14764039 21.5447625 181.14745053 22.99385495 181.14717102 24.44294739 C181.1504695 25.97568708 181.15419503 27.50842591 181.1583125 29.04116362 C181.16834225 33.26418867 181.17205085 37.48719949 181.17470181 41.71023476 C181.1786019 46.2604477 181.18818035 50.81064936 181.19691467 55.3608551 C181.21668604 66.35416375 181.22674553 77.34747333 181.23564246 88.34079531 C181.24002371 93.51476653 181.24539089 98.68873673 181.25063133 103.86270714 C181.26764325 121.05642007 181.28213863 138.25013236 181.28938007 155.44385242 C181.29129003 159.90666009 181.29321036 164.36946775 181.29516602 168.83227539 C181.29564976 169.94151372 181.2961335 171.05075205 181.2966319 172.19360366 C181.30493675 190.17280143 181.33028151 208.15193278 181.36274669 226.13110153 C181.39578886 244.57980927 181.4138262 263.02848322 181.41702431 281.47722071 C181.4191919 291.83966643 181.427977 302.20201522 181.45348549 312.56443214 C181.47515357 321.38721827 181.48326208 330.20988394 181.47351871 339.03269366 C181.46896287 343.53571952 181.47093456 348.03849664 181.49028015 352.54148865 C181.50783308 356.66271724 181.5069786 360.78351418 181.49138286 364.90474685 C181.48899478 366.3966839 181.49339224 367.88865023 181.50521151 369.38054238 C181.52027396 371.40711884 181.50830087 373.43384241 181.49498463 375.4604311 C181.49596144 376.58657426 181.49693824 377.71271742 181.49794465 378.87298614 C180.86443837 382.85130565 179.55741487 384.90011639 177 388 C127.89649864 420.73566758 59.01506399 392 0 392 C0 262.64 0 133.28 0 0 Z " fill="#000000" transform="translate(331,60)"/>
<path d="M0 0 C0 129.36 0 258.72 0 392 C-171 392 -171 392 -177 388 C-180.48759736 383.77090308 -181.50021987 380.91415417 -181.50336456 375.46881104 C-181.51379555 374.16474178 -181.52422654 372.86067253 -181.53497362 371.51708603 C-181.52632608 370.07681813 -181.51729949 368.63655247 -181.50793457 367.19628906 C-181.51254435 365.66095513 -181.51889779 364.12562562 -181.52684355 362.59030533 C-181.54354952 358.37393949 -181.53528484 354.15793556 -181.52289867 349.94156837 C-181.51385567 345.39343431 -181.52781418 340.84536287 -181.53881836 336.29724121 C-181.55661618 327.38851335 -181.55275797 318.47992019 -181.5411678 309.57118702 C-181.53213872 302.33166713 -181.5309072 295.09218503 -181.53526306 287.85266113 C-181.53587599 286.82277203 -181.53648893 285.79288292 -181.53712043 284.73178506 C-181.53839932 282.63966464 -181.53969617 280.54754423 -181.5410108 278.45542383 C-181.5524203 258.8319932 -181.53929708 239.20863728 -181.51780933 219.58521891 C-181.49993802 202.7429731 -181.50304203 185.90083757 -181.52148438 169.05859375 C-181.54288455 149.50596678 -181.55132162 129.95340532 -181.53903532 110.40076828 C-181.53776111 108.31629182 -181.53650362 106.23181535 -181.53526306 104.14733887 C-181.53433741 102.60888664 -181.53433741 102.60888664 -181.53339306 101.03935456 C-181.5299376 93.80751109 -181.53577272 86.57570912 -181.54518127 79.34387207 C-181.55639315 70.53211733 -181.55337829 61.72050513 -181.5320583 52.90876675 C-181.52153696 48.41181021 -181.51744448 43.91509144 -181.53065491 39.4181366 C-181.54256226 35.30255478 -181.53604388 31.18743145 -181.5147447 27.07189131 C-181.51027157 25.58207258 -181.51256088 24.09221523 -181.52224785 22.60242128 C-181.53439849 20.57870387 -181.51955165 18.55487812 -181.50336456 16.53118896 C-181.50271515 15.40667202 -181.50206574 14.28215508 -181.50139666 13.12356186 C-180.86348922 9.14957576 -179.554602 7.09773702 -177 4 C-127.89649864 -28.73566758 -59.01506399 0 0 0 Z " fill="#000000" transform="translate(181,60)"/>
<path d="M0 0 C4.52488127 2.14336481 6.89879323 4.46581697 9 9 C10.14896551 13.3640799 10.1407308 17.67355145 10.12863445 22.15449333 C10.13038749 22.97533824 10.13214053 23.79618315 10.13394669 24.64190215 C10.13861439 27.40417832 10.1361392 30.16640203 10.13371277 32.92868042 C10.13558035 34.92441066 10.13788084 36.92014054 10.14057809 38.91586983 C10.14670899 44.40942467 10.14656098 49.90296432 10.14538372 55.39652181 C10.14518004 61.31755258 10.15069531 67.23857844 10.15544128 73.15960693 C10.16375532 84.76320496 10.1665094 96.36679829 10.16705366 107.97039901 C10.16751304 117.39956936 10.16957053 126.82873806 10.17275429 136.25790787 C10.17365182 138.97117205 10.17454163 141.68443624 10.17542917 144.39770043 C10.17565021 145.07220653 10.17587126 145.74671262 10.17609901 146.4416583 C10.18225385 165.41619304 10.1861995 184.3907272 10.18575573 203.36526299 C10.18574015 204.08076074 10.18572457 204.7962585 10.18570852 205.53343801 C10.18562541 209.15995799 10.18552637 212.78647797 10.18542381 216.41299795 C10.18540387 217.13325066 10.18538392 217.85350338 10.18536337 218.59558194 C10.18532294 220.05210838 10.18528114 221.50863483 10.18523798 222.96516127 C10.18462513 245.62993815 10.19213334 268.29470006 10.20581055 290.95947266 C10.22116683 316.41724404 10.22977705 341.8750056 10.22884732 367.33278191 C10.22877269 370.04667481 10.22872399 372.7605677 10.22869301 375.4744606 C10.22868135 376.14270097 10.2286697 376.81094134 10.22865769 377.49943142 C10.22862881 387.59225578 10.23395113 397.68506839 10.24202538 407.77788925 C10.25111427 419.25501209 10.25331889 430.73211042 10.24651595 442.2092353 C10.24324267 448.06722521 10.24322314 453.92516805 10.2518692 459.78315353 C10.25969944 465.14340761 10.25833851 470.50357699 10.24958507 475.86382891 C10.24804239 477.8052451 10.24989494 479.7466675 10.25544515 481.68807636 C10.26248155 484.32342881 10.25723018 486.95848223 10.24888897 489.59382439 C10.25634124 490.72885168 10.25634124 490.72885168 10.26394406 491.88680881 C10.22287852 498.00862506 9.64548195 503.10136698 5.5625 507.8125 C0.490453 512.14229622 -2.54298274 512.43423039 -9.046875 512.31640625 C-13.0050156 511.89231976 -15.12311819 510.72934941 -18 508 C-22.18628831 502.37016399 -22.14697778 496.64056249 -22.12863445 489.84550667 C-22.13038749 489.02466176 -22.13214053 488.20381685 -22.13394669 487.35809785 C-22.13861439 484.59582168 -22.1361392 481.83359797 -22.13371277 479.07131958 C-22.13558035 477.07558934 -22.13788084 475.07985946 -22.14057809 473.08413017 C-22.14670899 467.59057533 -22.14656098 462.09703568 -22.14538372 456.60347819 C-22.14518004 450.68244742 -22.15069531 444.76142156 -22.15544128 438.84039307 C-22.16375532 427.23679504 -22.1665094 415.63320171 -22.16705366 404.02960099 C-22.16751304 394.60043064 -22.16957053 385.17126194 -22.17275429 375.74209213 C-22.17365182 373.02882795 -22.17454163 370.31556376 -22.17542917 367.60229957 C-22.17565021 366.92779347 -22.17587126 366.25328738 -22.17609901 365.5583417 C-22.18225385 346.58380696 -22.1861995 327.6092728 -22.18575573 308.63473701 C-22.18573236 307.56149038 -22.18573236 307.56149038 -22.18570852 306.46656199 C-22.18562541 302.84004201 -22.18552637 299.21352203 -22.18542381 295.58700205 C-22.18540387 294.86674934 -22.18538392 294.14649662 -22.18536337 293.40441806 C-22.18532294 291.94789162 -22.18528114 290.49136517 -22.18523798 289.03483873 C-22.18462513 266.37006185 -22.19213334 243.70529994 -22.20581055 221.04052734 C-22.22116683 195.58275596 -22.22977705 170.1249944 -22.22884732 144.66721809 C-22.22877269 141.95332519 -22.22872399 139.2394323 -22.22869301 136.5255394 C-22.22868135 135.85729903 -22.2286697 135.18905866 -22.22865769 134.50056858 C-22.22862881 124.40774422 -22.23395113 114.31493161 -22.24202538 104.22211075 C-22.25111427 92.74498791 -22.25331889 81.26788958 -22.24651595 69.7907647 C-22.24324267 63.93277479 -22.24322314 58.07483195 -22.2518692 52.21684647 C-22.25969944 46.85659239 -22.25833851 41.49642301 -22.24958507 36.13617109 C-22.24804239 34.1947549 -22.24989494 32.2533325 -22.25544515 30.31192364 C-22.26248155 27.67657119 -22.25723018 25.04151777 -22.24888897 22.40617561 C-22.25385715 21.64949075 -22.25882533 20.89280589 -22.26394406 20.11319119 C-22.22287852 13.99137494 -21.64548195 8.89863302 -17.5625 4.1875 C-11.82360961 -0.71155278 -7.34932676 -0.78742787 0 0 Z " fill="#000000" transform="translate(262,0)"/>
</svg>
