<?xml version="1.0" encoding="UTF-8"?>
<svg id="Layer_1" viewBox="0 0 512 512" xmlns="http://www.w3.org/2000/svg" data-name="Layer 1">
<path d="M0 0 C12.83024538 0.2759791 25.66093838 0.40210089 38.49344683 0.52087784 C64.73138965 0.76682671 90.96402884 1.18437944 117.19737267 1.72864437 C117.3481235 9.72365048 116.89705007 17.55444887 116.14784265 25.51171017 C116.03491431 26.75404197 115.92198598 27.99637377 115.80563557 29.27635199 C115.49387612 32.69476419 115.17766653 36.1127096 114.85948706 39.53052652 C114.51635455 43.22828844 114.17903882 46.92658175 113.84095788 50.62480831 C113.17876969 57.85812514 112.51119306 65.09093481 111.84167661 72.32357662 C111.29734886 78.20500489 110.75503853 84.086616 110.21415353 89.96836185 C110.13702086 90.80711661 110.05988819 91.64587136 109.98041817 92.51004292 C109.82370838 94.21424479 109.66700386 95.91844714 109.51030456 97.62264998 C108.0423518 113.58511124 106.56834324 129.54700879 105.09218596 145.50871313 C103.82733486 159.1869985 102.56740405 172.86572966 101.31114221 186.54480648 C99.85038773 202.45050435 98.38676852 218.35593415 96.91847241 234.26093775 C96.76171985 235.95899528 96.60497016 237.65705307 96.44822335 239.35511112 C96.33255286 240.60814529 96.33255286 240.60814529 96.21454559 241.88649328 C95.67287483 247.75636314 95.13321146 253.62641555 94.59431863 259.49654102 C93.936907 266.65698187 93.2762794 273.81711757 92.61162128 280.97688954 C92.27296535 284.62575856 91.9356885 288.27474026 91.60229516 291.9240942 C91.2399883 295.88938585 90.87074487 299.85400205 90.50086999 303.81859493 C90.39774912 304.9589858 90.29462825 306.09937667 90.18838251 307.27432483 C87.77786614 332.82530243 87.77786614 332.82530243 78.94737267 341.04114437 C71.84574718 346.43324725 65.13960536 348.3261975 56.31228662 348.25003719 C55.35751233 348.25768829 54.40273804 348.26533938 53.4190312 348.27322233 C50.24099414 348.29375024 47.06368871 348.28592391 43.8856051 348.27796078 C41.59835164 348.28666116 39.311104 348.29702951 37.02386498 348.30893612 C30.82537686 348.33567412 24.62713295 348.3368781 18.4285984 348.33180952 C13.24734863 348.32966704 8.06614797 348.33944475 2.88490874 348.34902036 C-10.04132548 348.37246355 -22.96740422 348.370769 -35.89364507 348.35790674 C-47.09806194 348.34757345 -58.30213078 348.37007046 -69.50647882 348.40810318 C-81.03299337 348.44692708 -92.55930235 348.46277837 -104.0858869 348.45585668 C-110.54841758 348.4522366 -117.01062956 348.45744681 -123.47310805 348.48528576 C-129.55298627 348.51049734 -135.63216985 348.50650333 -141.7120378 348.48046398 C-143.93717412 348.47574502 -146.16235974 348.48115678 -148.38743949 348.49771023 C-171.53928826 348.65746321 -171.53928826 348.65746321 -181.69637752 340.14073277 C-188.50164688 333.09888961 -190.37105984 323.53289118 -191.12342811 314.11267757 C-191.22102298 313.05274027 -191.31861785 311.99280296 -191.41917014 310.90074635 C-191.75126074 307.25726772 -192.06159227 303.61223144 -192.37293983 299.96692562 C-192.61689771 297.2494291 -192.86224027 294.53209306 -193.10954261 291.81490231 C-193.60489072 286.35497684 -194.09427711 280.89456178 -194.57819855 275.43361181 C-195.76701142 262.02784952 -197.00672712 248.62692806 -198.25086951 235.22620296 C-198.69858244 230.40100311 -199.14620746 225.57579511 -199.59382606 220.75058651 C-199.7074254 219.52625743 -199.82102474 218.30192834 -199.93806648 217.04049838 C-201.23025566 203.10837939 -202.51283048 189.17537735 -203.79481483 175.24231625 C-204.03286488 172.65538111 -204.27091598 170.06844606 -204.50896811 167.48151112 C-204.86859881 163.57331513 -205.22822276 159.66511852 -205.58781528 155.75691903 C-206.44438244 146.44818121 -207.30194414 137.13953543 -208.1600492 127.83093929 C-209.35438428 114.87496301 -210.5477907 101.91890144 -211.74043632 88.96276951 C-212.19224331 84.05486857 -212.64442161 79.14700206 -213.09690452 74.2391634 C-213.62474777 68.51348665 -214.15170526 62.78772907 -214.6779573 57.06190586 C-214.87115012 54.96150099 -215.06465685 52.86112496 -215.25849319 50.76077938 C-215.52175729 47.90758962 -215.78390799 45.05429976 -216.04576087 42.20098019 C-216.12337807 41.3626432 -216.20099526 40.52430622 -216.28096449 39.66056508 C-216.80262733 33.95696071 -216.80262733 33.95696071 -216.80262733 31.72864437 C-215.73906013 31.43800106 -214.67549293 31.14735775 -213.57969642 30.84790707 C-204.83046725 28.41458634 -196.13822228 25.87013341 -187.51948524 23.00769711 C-124.5947725 2.18060453 -65.9613611 -1.44557531 0 0 Z M-159.80262733 71.72864437 C-157.73803571 94.51166091 -155.67010601 117.29436629 -153.59601665 140.07651997 C-152.63314651 150.65404793 -151.67179945 161.23171024 -150.71400428 171.80969906 C-149.87944251 181.02664275 -149.04205732 190.24332474 -148.2012431 199.45970023 C-147.75590658 204.34224647 -147.31201043 209.22491424 -146.87149215 214.10789776 C-146.45720268 218.69964673 -146.03915195 223.29103741 -145.6181581 227.8821764 C-145.46396174 229.57116702 -145.31116439 231.26028602 -145.15983939 232.94953632 C-144.9537156 235.24820195 -144.74265537 237.5463612 -144.53030372 239.84445858 C-144.41323601 241.13312517 -144.2961683 242.42179176 -144.17555308 243.74950886 C-143.98012171 246.65086705 -143.98012171 246.65086705 -142.80262733 248.72864437 C-132.24262733 248.72864437 -121.68262733 248.72864437 -110.80262733 248.72864437 C-114.12165283 209.66381438 -117.61234431 170.61922586 -121.24513221 131.58222103 C-121.81415415 125.46349859 -122.38135801 119.34460785 -122.94857919 113.22571826 C-124.23090606 99.39314083 -125.51609285 85.56083107 -126.80262733 71.72864437 C-137.69262733 71.72864437 -148.58262733 71.72864437 -159.80262733 71.72864437 Z M-66.80262733 71.72864437 C-66.80262733 130.13864437 -66.80262733 188.54864437 -66.80262733 248.72864437 C-56.24262733 248.72864437 -45.68262733 248.72864437 -34.80262733 248.72864437 C-34.80262733 190.31864437 -34.80262733 131.90864437 -34.80262733 71.72864437 C-45.36262733 71.72864437 -55.92262733 71.72864437 -66.80262733 71.72864437 Z M19.19737267 72.72864437 C18.90383614 74.96003205 18.67474075 77.19990132 18.46969628 79.44115353 C18.40350502 80.15113493 18.33731376 80.86111633 18.2691167 81.59261233 C18.04681605 83.98906237 17.83099196 86.3860527 17.61509728 88.78308773 C17.4577005 90.49428949 17.29991039 92.20545512 17.14175439 93.91658688 C16.71213273 98.57730371 16.2881161 103.23851566 15.86511326 107.89983726 C15.42245308 112.76790779 14.97486308 117.63552499 14.52783227 122.50319576 C13.77758637 130.68020822 13.03064863 138.85751725 12.28599572 147.03504086 C11.2348226 158.57855649 10.1774324 170.12149655 9.11892712 181.66434181 C8.38733843 189.64477982 7.65724683 197.62535491 6.92743254 205.60595536 C6.7501 207.54501615 6.57272443 209.484073 6.39530659 211.42312598 C5.88957721 216.95093864 5.38477575 222.47883439 4.88150239 228.00687122 C4.72862082 229.68473262 4.57543231 231.36256609 4.42192101 233.04036999 C4.21311729 235.32322056 4.00543492 237.60617033 3.79806542 239.88915157 C3.68137474 241.169145 3.56468406 242.44913843 3.44445729 243.76791954 C3.16965101 246.56565346 3.16965101 246.56565346 3.19737267 248.72864437 C14.08737267 248.72864437 24.97737267 248.72864437 36.19737267 248.72864437 C38.28447099 225.9461067 40.3708223 203.16350102 42.45579553 180.38076878 C43.42385 169.80299729 44.39224521 159.2252572 45.36143517 148.64758968 C46.2059155 139.43098452 47.04976404 130.21432176 47.89284539 120.99758852 C48.33950951 116.11481311 48.78649576 111.23206766 49.23423791 106.34939098 C49.65525578 101.75803595 50.07543183 97.16660468 50.49494958 92.57511234 C50.64943657 90.88596321 50.80423669 89.19684268 50.95936608 87.50775242 C51.17039403 85.20952026 51.38031635 82.91118978 51.5899508 80.61283016 C51.76693505 78.67983027 51.76693505 78.67983027 51.94749475 76.70777988 C52.22523351 73.8947435 52.22523351 73.8947435 52.19737267 71.72864437 C47.65839563 71.70399045 43.11945724 71.68580648 38.58042932 71.67371273 C37.03517502 71.66867297 35.48992551 71.66184118 33.94468713 71.65320492 C31.72812239 71.64112361 29.51162049 71.63541264 27.29502892 71.63098812 C26.60022927 71.62582684 25.90542962 71.62066555 25.18957543 71.61534786 C21.91281311 71.33033972 21.91281311 71.33033972 19.19737267 72.72864437 Z " transform="translate(319.802627325058,152.27135562896729)"/>
<path d="M0 0 C7.08524897 5.35713947 9.77292828 11.13822292 11.9375 19.625 C12.19660156 20.56150391 12.45570313 21.49800781 12.72265625 22.46289062 C13.80702112 26.48192551 14.5625 29.74008862 14.5625 33.9375 C15.36534927 33.69699417 15.36534927 33.69699417 16.18441772 33.45162964 C34.16237331 28.088459 52.25277614 23.18259464 70.37792969 18.34667969 C74.43347418 17.26457433 78.48763452 16.17737666 82.54145241 15.08882332 C85.70136599 14.24091517 88.8619916 13.39568693 92.02283859 12.55126572 C93.51971155 12.15102504 95.01636193 11.74995089 96.51277542 11.34799576 C98.58933986 10.79061903 100.66684302 10.2368854 102.74462891 9.68408203 C103.92022369 9.36988312 105.09581848 9.0556842 106.30703735 8.73196411 C117.28310755 6.05336054 128.91804796 5.37030673 138.9375 11.3125 C144.64420858 14.95258161 146.29323571 19.56695676 148.0078125 25.921875 C148.22315643 26.69629944 148.43850037 27.47072388 148.66036987 28.26861572 C149.11323502 29.90480688 149.56180361 31.54219254 150.00634766 33.18066406 C150.68216128 35.66785197 151.37313577 38.15044101 152.06640625 40.6328125 C152.5061211 42.22891549 152.94495165 43.82526241 153.3828125 45.421875 C153.68906052 46.52230133 153.68906052 46.52230133 154.00149536 47.6449585 C155.2833063 52.40496352 156.32448949 57.00191364 156.5625 61.9375 C154.20725551 65.49679505 150.61906784 65.98172673 146.66601562 67.01196289 C145.61013465 67.29174673 145.61013465 67.29174673 144.53292274 67.57718277 C142.18063857 68.19791583 139.82480941 68.80392449 137.46875 69.41015625 C135.79759354 69.84827342 134.12668994 70.28735609 132.45602417 70.7273407 C128.87425791 71.66866517 125.29092788 72.60368594 121.70623779 73.53381348 C116.00141187 75.0142812 110.30041557 76.50911732 104.60009766 78.00683594 C98.78746124 79.53358591 92.97472379 81.05992602 87.16079712 82.58175659 C71.38540213 86.71185964 55.63074863 90.91532123 39.8863945 95.16201401 C36.58022324 96.05346641 33.27363226 96.94335883 29.96704102 97.83325195 C29.29408273 98.01436366 28.62112444 98.19547537 27.92777348 98.38207531 C26.5468801 98.75370213 25.16598414 99.12531934 23.78508568 99.49692726 C21.66783505 100.06674112 19.55062896 100.63672025 17.4334259 101.20671082 C-1.99707089 106.4369059 -21.43453053 111.64117224 -40.87100601 116.84909439 C-50.20833196 119.35100602 -59.5455895 121.85317295 -68.8828125 124.35546875 C-69.90755739 124.63008627 -70.93230228 124.90470379 -71.98810005 125.18764305 C-85.94325658 128.92753699 -99.89763048 132.67033535 -113.85112953 136.41640854 C-116.66149637 137.17089754 -119.47188182 137.92531722 -122.28227234 138.67971802 C-132.82920784 141.51084259 -132.82920784 141.51084259 -143.37576294 144.34338379 C-144.58348437 144.66781495 -144.58348437 144.66781495 -145.81560421 144.99880028 C-147.41271863 145.42785672 -149.00981368 145.85698529 -150.60688877 146.28618813 C-154.43265504 147.31394982 -158.25902125 148.33935775 -162.08686829 149.35934448 C-168.96293995 151.1926874 -175.83373305 153.0401591 -182.68914318 154.94955921 C-185.84900888 155.82776825 -189.01203795 156.69421273 -192.17556953 157.55911064 C-193.67004135 157.97099928 -195.1630009 158.38842029 -196.65427971 158.81172371 C-198.70413582 159.39314848 -200.75840487 159.95526892 -202.81469727 160.51342773 C-203.97703384 160.83770248 -205.13937042 161.16197723 -206.33692932 161.49607849 C-209.80202404 161.98939649 -211.41797769 161.65316776 -214.4375 159.9375 C-215.58422852 157.74536133 -215.58422852 157.74536133 -216.31640625 155.01953125 C-216.73587524 153.5190625 -216.73587524 153.5190625 -217.16381836 151.98828125 C-217.4397583 150.91964844 -217.71569824 149.85101563 -218 148.75 C-218.44388062 147.12191406 -218.44388062 147.12191406 -218.89672852 145.4609375 C-219.48688191 143.28826881 -220.06865329 141.11330422 -220.64160156 138.93603516 C-221.32070299 136.37753094 -222.03241269 133.83403302 -222.7734375 131.29296875 C-227.11880706 116.26133124 -227.11880706 116.26133124 -223.875 108.875 C-217.805146 98.10522433 -207.54334156 92.96828358 -196.06615925 89.64008522 C-191.10478718 88.26593569 -186.12662393 86.96069767 -181.14453125 85.6640625 C-178.98515672 85.09096163 -176.82611909 84.51658999 -174.66740417 83.94100952 C-169.02045067 82.43897214 -163.36912447 80.95409954 -157.7166748 79.47290039 C-151.93529947 77.9546252 -146.15827984 76.41996062 -140.38085938 74.88671875 C-129.07058145 71.88769777 -117.7556104 68.90681393 -106.4375 65.9375 C-106.7514968 64.17126507 -107.06746821 62.40538109 -107.38427734 60.63964844 C-107.56002289 59.65623474 -107.73576843 58.67282104 -107.9168396 57.65960693 C-108.46889099 54.77338224 -109.1991255 51.99564736 -110.0625 49.1875 C-112.11106034 41.81895387 -112.18904132 35.69422337 -108.4375 28.9375 C-102.39158982 21.34216724 -93.909681 19.56159546 -84.9375 17.3125 C-83.38087477 16.90592479 -81.82481691 16.49717212 -80.26928711 16.08642578 C-77.75557483 15.42378017 -75.24132823 14.76384823 -72.72459412 14.11276245 C-65.73877421 12.30273588 -58.79215039 10.3682034 -51.84765625 8.40625 C-48.62479935 7.5036893 -45.4013982 6.60310429 -42.17773438 5.70343018 C-40.0772384 5.11452153 -37.97808191 4.52081188 -35.88037109 3.92205811 C-10.59432165 -3.27460851 -10.59432165 -3.27460851 0 0 Z M-21.23120117 17.83349609 C-22.36645485 18.13591469 -22.36645485 18.13591469 -23.52464294 18.44444275 C-26.01197983 19.10917948 -28.49622426 19.78474361 -30.98046875 20.4609375 C-32.71335179 20.92746918 -34.44637091 21.39349569 -36.17951965 21.85903931 C-39.80450036 22.83452406 -43.42801669 23.81522392 -47.05053711 24.79980469 C-51.69534579 26.06192004 -56.3432063 27.3123359 -60.99216747 28.55905724 C-64.56802424 29.51912507 -68.14238782 30.4846549 -71.71630287 31.45192337 C-73.42992304 31.9151424 -75.14396127 32.3768177 -76.85841942 32.83692551 C-79.25112284 33.48008008 -81.64176556 34.13038913 -84.03198242 34.78271484 C-84.74112793 34.9718898 -85.45027344 35.16106476 -86.1809082 35.35597229 C-89.37193711 36.23454993 -91.65305794 37.08120529 -94.4375 38.9375 C-93.81601697 41.64668332 -93.19043439 44.35481127 -92.5625 47.0625 C-92.30146484 48.20332031 -92.30146484 48.20332031 -92.03515625 49.3671875 C-91.77412109 50.48867187 -91.77412109 50.48867187 -91.5078125 51.6328125 C-91.35070801 52.31359863 -91.19360352 52.99438477 -91.03173828 53.69580078 C-90.2915733 56.48799258 -89.37122519 59.20472921 -88.4375 61.9375 C-73.01194076 57.89756652 -57.58942583 53.84635297 -42.17288208 49.77215576 C-35.94420852 48.12620681 -29.71436813 46.4850999 -23.48124695 44.8560791 C-20.13049972 43.97706648 -16.78417089 43.08190542 -13.4375 42.1875 C-12.28548096 41.88972656 -11.13346191 41.59195313 -9.9465332 41.28515625 C-8.93292725 41.01058594 -7.91932129 40.73601563 -6.875 40.453125 C-6.02808594 40.22915039 -5.18117188 40.00517578 -4.30859375 39.77441406 C-3.69113281 39.49823242 -3.07367188 39.22205078 -2.4375 38.9375 C-1.35380857 35.68642572 -1.49141776 34.93648018 -2.3984375 31.77734375 C-2.62273437 30.98392578 -2.84703125 30.19050781 -3.078125 29.37304688 C-3.32046875 28.54869141 -3.5628125 27.72433594 -3.8125 26.875 C-4.04710937 26.04677734 -4.28171875 25.21855469 -4.5234375 24.36523438 C-5.71939679 20.05237119 -5.71939679 20.05237119 -7.4375 15.9375 C-12.31331627 15.70757263 -16.56569986 16.55129019 -21.23120117 17.83349609 Z " transform="translate(290.4375,13.0625)"/>
</svg>
