<?xml version="1.0" encoding="UTF-8"?>
<svg id="Layer_1" viewBox="0 0 512 512" xmlns="http://www.w3.org/2000/svg" data-name="Layer 1" style="shape-rendering:geometricPrecision; text-rendering:geometricPrecision; image-rendering:optimizeQuality; fill-rule:evenodd; clip-rule:evenodd" xmlns:xlink="http://www.w3.org/1999/xlink">
<path d="M0 0 C1.26749482 -0.00352835 1.26749482 -0.00352835 2.5605956 -0.00712797 C5.42307057 -0.01384284 8.2855004 -0.013359 11.1479826 -0.01294994 C13.20854614 -0.01624701 15.26910903 -0.01997225 17.32967108 -0.02409142 C23.01628719 -0.03413725 28.70289275 -0.03783235 34.38951647 -0.04048073 C40.51301978 -0.04437611 46.63651467 -0.0539549 52.76001263 -0.0626936 C66.85978947 -0.08154347 80.95956438 -0.09171687 95.05935028 -0.10015428 C102.02363294 -0.10435829 108.98791474 -0.10958058 115.95219667 -0.11483881 C139.78149634 -0.13272967 163.61079624 -0.14772699 187.44010162 -0.155159 C188.93654362 -0.15563376 190.43298561 -0.15610965 191.92942761 -0.15658666 C192.67154367 -0.15682303 193.41365973 -0.15705941 194.17826415 -0.15730295 C197.93832717 -0.15850417 201.69839017 -0.15971962 205.45845318 -0.16094494 C206.57775585 -0.16130516 206.57775585 -0.16130516 207.71967069 -0.16167267 C231.92228386 -0.16956849 256.12484807 -0.19300581 280.32743985 -0.22550088 C305.90283041 -0.25977657 331.4781923 -0.279508 357.05360621 -0.28280324 C359.85962849 -0.28322079 362.66565075 -0.28370036 365.47167301 -0.28422642 C366.16261814 -0.28434961 366.85356326 -0.2844728 367.56544612 -0.28459973 C378.6981963 -0.2869345 389.83088975 -0.30260981 400.96361969 -0.32306826 C412.14762876 -0.34329535 423.33157049 -0.34848417 434.51560072 -0.33929763 C440.57792666 -0.33473592 446.64006784 -0.33674741 452.70236874 -0.35605907 C458.24714049 -0.37357023 463.79159107 -0.37279167 469.33636566 -0.35716178 C471.34715256 -0.35476729 473.35796101 -0.35920353 475.36871479 -0.37099043 C478.09315502 -0.38597747 480.81643766 -0.37652889 483.54084778 -0.36076355 C484.32931374 -0.37098576 485.11777969 -0.38120796 485.93013856 -0.39173993 C489.65334878 -0.34441932 491.75963432 0.00588859 494.92283171 2.04015762 C498.76254068 5.98868263 498.26099974 9.71243464 498.2782774 15.04291248 C498.03002838 28.55726873 491.46897613 40.11840137 482.4123106 49.77484608 C468.12887367 63.51241918 451.76498619 65.36855967 432.8341856 65.75922108 C431.28989484 65.79748784 429.74562344 65.83654431 428.2013731 65.87640858 C424.45415647 65.97144575 420.70679143 66.05581395 416.9591856 66.13422108 C417.87498394 66.71647449 417.87498394 66.71647449 418.80928326 67.31049061 C420.01657085 68.09335438 420.01657085 68.09335438 421.2482481 68.89203358 C422.04440533 69.40395252 422.84056255 69.91587147 423.66084576 70.44330311 C429.39751014 74.66384034 433.55194909 81.1449464 434.9591856 88.13422108 C435.93086088 98.76866718 434.86970337 106.75504789 428.2091856 115.19672108 C422.88179445 121.39745504 417.24103295 127.31775038 411.6076231 133.23968983 C408.52531456 136.49693354 405.56343015 139.84343071 402.62471294 143.23016834 C400.16587279 146.04114671 397.62887811 148.77612798 395.0841856 151.50922108 C390.760544 156.17255331 386.48100107 160.87118284 382.23652935 165.60687733 C379.66108785 168.46504311 377.06232796 171.30132369 374.4591856 174.13422108 C371.10625443 177.78349279 367.76920203 181.44591705 364.4591856 185.13422108 C360.68381343 189.34106435 356.86938112 193.5109696 353.0451231 197.67328358 C349.42910903 201.61251678 345.85020801 205.58365488 342.2794981 209.56390858 C339.64838656 212.47850688 336.99256371 215.36952251 334.3341856 218.25922108 C329.56128772 223.45200275 324.80643222 228.66563287 320.33027935 234.11859608 C307.92439122 248.97112107 289.26200594 259.65462848 269.9591856 262.13422108 C266.12457943 262.27717688 262.29280062 262.26475209 258.45592022 262.25447559 C257.2910648 262.25533002 256.12620938 262.25618444 254.92605531 262.25706476 C251.70154943 262.25842526 248.4770839 262.25530688 245.25258279 262.2502867 C241.77208315 262.24596305 238.29158536 262.24742998 234.81108379 262.24818897 C228.7837724 262.24871299 222.75647184 262.24557891 216.72916317 262.23995113 C208.01471702 262.23181964 199.3002761 262.22921922 190.58582656 262.22796314 C176.44676749 262.22577522 162.30771419 262.21912216 148.16865826 262.20966053 C134.43493459 262.20047971 120.7012125 262.19340215 106.96748638 262.18915272 C106.12075598 262.18888999 105.27402558 262.18862727 104.40163668 262.18835659 C100.15378426 262.18705154 95.90593182 262.18578783 91.65807939 262.18454468 C56.42510966 262.17418015 21.19215062 262.15574619 -14.0408144 262.13422108 C-14.0408144 222.20422108 -14.0408144 182.27422108 -14.0408144 141.13422108 C10.7091856 141.13422108 35.4591856 141.13422108 60.9591856 141.13422108 C61.6191856 139.48422108 62.2791856 137.83422108 62.9591856 136.13422108 C63.84281105 134.62132687 64.77026827 133.13345246 65.7326231 131.66937733 C66.30045513 130.8012743 66.86828716 129.93317127 67.45332623 129.03876209 C68.07400982 128.10088856 68.69469341 127.16301502 69.3341856 126.19672108 C69.98322857 125.2105077 70.63227154 124.22429432 71.30098248 123.20819569 C72.7326123 121.03614272 74.16621842 118.86552891 75.60274029 116.69672108 C77.6845613 113.55257617 79.75570923 110.40151152 81.82554913 107.24947071 C83.59547673 104.55718676 85.37124026 101.86878717 87.14845562 99.1813097 C88.01356204 97.87144392 88.87684237 96.56037002 89.7381773 95.24802113 C102.02017755 76.55176851 102.02017755 76.55176851 111.2091856 70.69672108 C112.22496685 70.03801014 113.2407481 69.3792992 114.2873106 68.70062733 C116.9591856 67.13422108 116.9591856 67.13422108 119.9591856 66.13422108 C118.39635845 66.12875263 118.39635845 66.12875263 116.80195904 66.12317371 C106.91751229 66.08601307 97.03337103 66.02801382 87.14915752 65.95031834 C82.06922006 65.91103779 76.98945091 65.87875502 71.90938091 65.86322498 C66.9943215 65.84792923 62.07972545 65.81325922 57.16487408 65.76591206 C55.3025293 65.7512301 53.44011833 65.74318777 51.57771587 65.74233723 C32.65549663 65.72502666 15.48655234 63.38534766 1.0841856 49.82172108 C-8.21291445 39.90257274 -14.09703265 27.3066311 -14.3533144 13.69672108 C-14.39069721 12.39863514 -14.42808002 11.1005492 -14.46659565 9.76312733 C-13.97922062 5.60926124 -12.9729495 4.04459637 -10.0408144 1.13422108 C-6.87664893 -0.44786166 -3.47450443 -0.00648011 0 0 Z M257.9591856 65.13422108 C259.6091856 66.78422108 261.2591856 68.43422108 262.9591856 70.13422108 C270.18662722 78.04999047 271.61674705 83.79631503 271.3654356 94.40375233 C270.4537483 102.77549627 266.56018745 108.24166723 260.31465435 113.66156483 C253.06828763 118.19204618 246.52427269 118.55366182 238.18965435 118.50531483 C235.89603308 118.52269897 233.60241332 118.54028334 231.30879498 118.5580492 C227.72795564 118.56810154 224.14721617 118.57172133 220.56636333 118.57001209 C217.08633179 118.57360543 213.60705095 118.6010336 210.12715435 118.63031483 C209.0715884 118.6221323 208.01602245 118.61394978 206.92846966 118.60551929 C197.53973071 118.69840051 188.46691583 120.73659372 181.4591856 127.35687733 C175.84479381 134.00934676 173.57657893 140.81768119 173.6779356 149.40765858 C174.43396169 156.73691151 177.74545975 163.03898899 182.9591856 168.13422108 C191.47007802 174.70499608 200.06550039 175.44415744 210.50996685 175.43500233 C211.60455715 175.43928745 212.69914745 175.44357258 213.82690716 175.44798756 C216.13393242 175.45370877 218.44097571 175.45424748 220.74800396 175.44989491 C224.25035663 175.44674029 227.75185932 175.47020447 231.25410748 175.4955492 C233.50605955 175.49782316 235.75801386 175.49852524 238.00996685 175.49750233 C239.5605051 175.51131695 239.5605051 175.51131695 241.14236736 175.52541065 C254.63029414 175.44092457 265.79958826 171.451548 275.7716856 162.44672108 C276.99604124 161.36886953 278.22131076 160.29205524 279.44746685 159.21625233 C280.04381939 158.68983143 280.64017193 158.16341053 281.25459576 157.62103748 C283.60955797 155.56693839 286.02867852 153.59801336 288.4591856 151.63422108 C292.68710848 148.2021425 296.83450356 144.68875269 300.9591856 141.13422108 C305.94859327 136.83449395 311.00139716 132.62936699 316.1154356 128.47797108 C319.43605046 125.74120059 322.69965342 122.94319157 325.9591856 120.13422108 C330.94859327 115.83449395 336.00139716 111.62936699 341.1154356 107.47797108 C344.43605046 104.74120059 347.69965342 101.94319157 350.9591856 99.13422108 C355.94384614 94.83858488 360.98868281 90.63397814 366.10371685 86.49359608 C368.25386734 84.71700115 370.36956427 82.92012797 372.47090435 81.08734608 C378.40215855 75.9145663 384.07912442 71.02859533 390.9591856 67.13422108 C391.9491856 66.47422108 392.9391856 65.81422108 393.9591856 65.13422108 C349.0791856 65.13422108 304.1991856 65.13422108 257.9591856 65.13422108 Z " transform="translate(14.040814399719238,249.86577892303467)"/>
<path d="M0 0 C0.65389709 -0.0065712 1.30779419 -0.0131424 1.98150635 -0.01991272 C4.14945591 -0.03965136 6.3173361 -0.05131086 8.48535156 -0.0612793 C9.22624275 -0.06535482 9.96713394 -0.06943035 10.73047638 -0.07362938 C14.65364809 -0.0944948 18.57678479 -0.10879315 22.5 -0.11816406 C26.54642069 -0.12921598 30.59228955 -0.16359973 34.63851547 -0.20333576 C37.75442504 -0.22952424 40.87020374 -0.23785795 43.98621368 -0.24144554 C45.47731493 -0.24630757 46.96841049 -0.25791075 48.45940399 -0.27648354 C50.55150069 -0.30091931 52.64217831 -0.29990278 54.734375 -0.29296875 C55.92303162 -0.29883499 57.11168823 -0.30470123 58.33636475 -0.31074524 C63.1343462 0.40064629 66.26763642 2.63130455 69.43847656 6.23950195 C71.95359022 10.34310845 72.11451241 14.49594026 71.62597656 19.17700195 C69.67211736 24.5244061 66.71361369 27.63318339 61.62597656 30.17700195 C60.17749074 30.26042354 58.72526787 30.28433056 57.27441406 30.2746582 C56.42363281 30.27143555 55.57285156 30.26821289 54.69628906 30.26489258 C53.80683594 30.25651367 52.91738281 30.24813477 52.00097656 30.23950195 C51.10378906 30.23499023 50.20660156 30.23047852 49.28222656 30.22583008 C47.06344825 30.21402807 44.84470413 30.19609234 42.62597656 30.17700195 C42.62597656 35.12700195 42.62597656 40.07700195 42.62597656 45.17700195 C44.62660156 45.23887695 46.62722656 45.30075195 48.68847656 45.36450195 C87.84150804 47.57024403 126.80014157 66.72879109 155.31738281 93.0559082 C157.44093093 95.0069854 159.61273337 96.87668478 161.81347656 98.73950195 C165.82283278 102.25466317 169.23511196 106.06883906 172.62597656 110.17700195 C173.26792969 110.9344873 173.26792969 110.9344873 173.92285156 111.70727539 C200.32051202 142.9094551 214.93885652 180.61868146 218.62597656 221.17700195 C92.56597656 221.17700195 -33.49402344 221.17700195 -163.37402344 221.17700195 C-161.01979191 199.98891824 -161.01979191 199.98891824 -158.74902344 190.86450195 C-158.48814941 189.8089209 -158.22727539 188.75333984 -157.95849609 187.66577148 C-151.72057954 163.36746226 -140.94536421 139.92476194 -125.37402344 120.17700195 C-124.63667969 119.23083008 -123.89933594 118.2846582 -123.13964844 117.30981445 C-115.36254765 107.57464928 -107.09060008 98.02050358 -97.37402344 90.17700195 C-96.88595215 89.77658691 -96.39788086 89.37617187 -95.89501953 88.96362305 C-65.8758006 64.39755174 -26.89620855 45.17700195 12.62597656 45.17700195 C12.62597656 40.22700195 12.62597656 35.27700195 12.62597656 30.17700195 C11.32402344 30.2234082 10.02207031 30.26981445 8.68066406 30.31762695 C6.9541246 30.35516042 5.2275602 30.39155889 3.50097656 30.42700195 C2.64503906 30.46051758 1.78910156 30.4940332 0.90722656 30.52856445 C-4.72901906 30.61527592 -7.90710714 29.95885128 -12.37402344 26.17700195 C-15.91983379 22.14211431 -16.67762522 18.61038786 -16.58886719 13.2355957 C-16.11209369 8.66723878 -14.14839458 5.87582469 -10.81152344 2.86450195 C-6.9099452 0.16340933 -4.75136848 0.03945548 0 0 Z M-9.37402344 94.17700195 C-11.78971188 97.95807951 -11.66524739 101.56969349 -11.03027344 105.8918457 C-9.85725819 109.97645238 -7.75585739 112.64242152 -4.37402344 115.17700195 C2.75004023 118.64236069 12.08060036 117.41381279 19.62597656 116.17700195 C24.92139664 113.95392466 28.03274357 111.36346795 30.62597656 106.17700195 C31.24144951 101.91543611 31.5759126 97.87574751 29.42675781 94.0324707 C26.84837186 90.94750011 24.45212985 88.56594801 20.62597656 87.17700195 C17.99649975 86.98349067 15.50135374 86.89154027 12.87597656 86.92700195 C12.15877441 86.93449463 11.44157227 86.9419873 10.70263672 86.94970703 C2.34342772 87.11985695 -3.40432289 88.06516568 -9.37402344 94.17700195 Z M-80.37402344 127.17700195 C-81.43363281 128.14186523 -81.43363281 128.14186523 -82.51464844 129.1262207 C-91.4821854 137.52872993 -98.39720375 148.0811318 -104.49902344 158.67700195 C-104.87728271 159.32282227 -105.25554199 159.96864258 -105.64526367 160.6340332 C-107.95535851 164.78865572 -109.09608196 168.34776881 -109.37402344 173.17700195 C-107.75627927 178.38973317 -105.52485769 181.64879284 -101.37402344 185.17700195 C-96.25752219 186.88250237 -92.09724221 186.96968259 -87.24902344 184.73950195 C-82.04889025 180.10460063 -78.93364956 174.13232017 -75.43652344 168.17700195 C-72.45837803 163.17217057 -69.0818783 158.66128796 -65.37402344 154.17700195 C-64.79136719 153.44739258 -64.20871094 152.7177832 -63.60839844 151.96606445 C-56.75916874 143.76425578 -48.22554554 137.57550296 -39.24902344 131.86450195 C-34.8457635 128.98544738 -33.06553294 126.39971105 -31.49902344 121.36450195 C-31.26832534 115.48170035 -33.11880615 111.54898364 -37.06152344 107.23950195 C-52.55439281 97.59299838 -69.79925745 116.98427231 -80.37402344 127.17700195 Z " transform="translate(228.3740234375,-0.177001953125)"/>
</svg>
