<svg id="Layer_1" viewBox="0 0 512 512" xmlns="http://www.w3.org/2000/svg" data-name="Layer 1" style="shape-rendering:geometricPrecision; text-rendering:geometricPrecision; image-rendering:optimizeQuality; fill-rule:evenodd; clip-rule:evenodd" xmlns:xlink="http://www.w3.org/1999/xlink">
<g><path style="opacity:1" d="M 47.5,87.5 C 60.8333,87.5 74.1667,87.5 87.5,87.5C 87.5,92.8333 87.5,98.1667 87.5,103.5C 74.1667,103.5 60.8333,103.5 47.5,103.5C 47.5,98.1667 47.5,92.8333 47.5,87.5 Z"/></g>
<g><path style="opacity:0.981" d="M 391.5,87.5 C 398.175,87.3337 404.842,87.5004 411.5,88C 414.167,93 416.833,98 419.5,103C 410.173,103.5 400.839,103.666 391.5,103.5C 391.5,98.1667 391.5,92.8333 391.5,87.5 Z"/></g>
<g><path style="opacity:0.985" d="M 31.5,119.5 C 92.8333,119.5 154.167,119.5 215.5,119.5C 215.334,127.507 215.5,135.507 216,143.5C 216.5,148 219,150.5 223.5,151C 244.833,151.667 266.167,151.667 287.5,151C 292,150.5 294.5,148 295,143.5C 295.5,135.507 295.666,127.507 295.5,119.5C 300.833,119.5 306.167,119.5 311.5,119.5C 311.334,127.507 311.5,135.507 312,143.5C 312.5,148 315,150.5 319.5,151C 346.167,151.667 372.833,151.667 399.5,151C 404,150.5 406.5,148 407,143.5C 407.5,135.507 407.666,127.507 407.5,119.5C 413.833,119.5 420.167,119.5 426.5,119.5C 430.757,135.273 435.424,150.94 440.5,166.5C 356.167,167.833 271.833,167.833 187.5,166.5C 182.867,156.732 177.867,147.232 172.5,138C 165.987,134.781 161.987,136.614 160.5,143.5C 163.48,151.629 167.147,159.462 171.5,167C 166.136,167.829 160.802,167.663 155.5,166.5C 150.867,156.732 145.867,147.232 140.5,138C 133.987,134.781 129.987,136.614 128.5,143.5C 131.48,151.629 135.147,159.462 139.5,167C 134.136,167.829 128.802,167.663 123.5,166.5C 118.736,156.268 113.403,146.435 107.5,137C 99.3289,134.834 95.8289,138 97,146.5C 100.372,153.412 103.872,160.245 107.5,167C 102.136,167.829 96.8023,167.663 91.5,166.5C 86.7362,156.268 81.4029,146.435 75.5,137C 67.3289,134.834 63.8289,138 65,146.5C 68.3723,153.412 71.8723,160.245 75.5,167C 60.8371,167.5 46.1705,167.667 31.5,167.5C 31.5,151.5 31.5,135.5 31.5,119.5 Z"/></g>
<g><path style="opacity:1" d="M 231.5,119.5 C 247.5,119.5 263.5,119.5 279.5,119.5C 279.5,124.833 279.5,130.167 279.5,135.5C 263.5,135.5 247.5,135.5 231.5,135.5C 231.5,130.167 231.5,124.833 231.5,119.5 Z"/></g>
<g><path style="opacity:1" d="M 327.5,119.5 C 348.833,119.5 370.167,119.5 391.5,119.5C 391.5,124.833 391.5,130.167 391.5,135.5C 370.167,135.5 348.833,135.5 327.5,135.5C 327.5,130.167 327.5,124.833 327.5,119.5 Z"/></g>
<g><path style="opacity:1" d="M 31.5,183.5 C 47.5,183.5 63.5,183.5 79.5,183.5C 79.5,194.167 79.5,204.833 79.5,215.5C 63.5,215.5 47.5,215.5 31.5,215.5C 31.5,204.833 31.5,194.167 31.5,183.5 Z"/></g>
<g><path style="opacity:0.993" d="M 95.5,183.5 C 212.169,183.167 328.835,183.5 445.5,184.5C 446.639,188.898 448.305,193.064 450.5,197C 459.275,200.277 468.275,202.777 477.5,204.5C 476.576,208.941 475.242,213.275 473.5,217.5C 460.721,223.778 451.554,233.445 446,246.5C 444,253.5 444,260.5 446,267.5C 467.193,317.294 478.36,369.294 479.5,423.5C 444.5,423.5 409.5,423.5 374.5,423.5C 371.916,380.154 369.083,336.82 366,293.5C 358.843,258.677 337.676,238.511 302.5,233C 271.851,231.786 241.184,231.12 210.5,231C 203.301,222.101 196.468,212.934 190,203.5C 188.2,201.683 186.034,200.516 183.5,200C 154.169,199.5 124.835,199.333 95.5,199.5C 95.5,194.167 95.5,188.833 95.5,183.5 Z"/></g>
<g><path style="opacity:0.994" d="M 95.5,215.5 C 123.835,215.333 152.169,215.5 180.5,216C 184.045,220.923 187.712,225.756 191.5,230.5C 159.507,231.5 127.507,231.833 95.5,231.5C 95.5,226.167 95.5,220.833 95.5,215.5 Z"/></g>
<g><path style="opacity:0.996" d="M 247.5,247.5 C 252.833,247.5 258.167,247.5 263.5,247.5C 263.5,263.5 263.5,279.5 263.5,295.5C 292.833,295.5 322.167,295.5 351.5,295.5C 351.833,300.833 352.167,306.167 352.5,311.5C 318.08,311.986 283.747,311.486 249.5,310C 248.874,309.25 248.374,308.416 248,307.5C 247.5,287.503 247.333,267.503 247.5,247.5 Z"/></g>
<g><path style="opacity:0.935" d="M 311.5,250.5 C 318.134,251.983 324.134,254.817 329.5,259C 317.611,269.694 303.778,276.528 288,279.5C 282.078,280.078 279.245,277.411 279.5,271.5C 279.404,269.074 280.07,266.907 281.5,265C 287.833,262.667 294.167,260.333 300.5,258C 304.58,255.971 308.246,253.471 311.5,250.5 Z"/></g>
</svg>
