<svg id="Layer_1" viewBox="0 0 512 512" xmlns="http://www.w3.org/2000/svg" data-name="Layer 1" style="shape-rendering:geometricPrecision; text-rendering:geometricPrecision; image-rendering:optimizeQuality; fill-rule:evenodd; clip-rule:evenodd" xmlns:xlink="http://www.w3.org/1999/xlink">
<g><path style="opacity:0.992" d="M 242.5,-0.5 C 251.167,-0.5 259.833,-0.5 268.5,-0.5C 303.319,6.17685 327.819,25.8435 342,58.5C 354.2,95.1667 347.367,127.667 321.5,156C 352.833,156.333 384.167,156.667 415.5,157C 424.737,159.235 431.237,164.735 435,173.5C 453.59,275.117 471.923,376.784 490,478.5C 492.878,494.746 486.711,505.746 471.5,511.5C 327.5,511.5 183.5,511.5 39.5,511.5C 24.289,505.746 18.1224,494.746 21,478.5C 39.0766,376.784 57.4099,275.117 76,173.5C 79.7633,164.735 86.2633,159.235 95.5,157C 126.833,156.667 158.167,156.333 189.5,156C 163.633,127.667 156.8,95.1667 169,58.5C 183.181,25.8435 207.681,6.17685 242.5,-0.5 Z M 248.5,51.5 C 272.776,50.2928 288.276,61.2928 295,84.5C 296.692,108.801 285.858,124.301 262.5,131C 238.199,132.692 222.699,121.858 216,98.5C 214.489,74.1605 225.323,58.4938 248.5,51.5 Z M 305.5,281.5 C 323.491,279.45 339.324,284.117 353,295.5C 356.657,299.135 358.323,303.468 358,308.5C 354.37,317.555 348.204,319.722 339.5,315C 330.688,302.171 318.688,297.838 303.5,302C 288.827,306.827 280.994,316.993 280,332.5C 278.779,344.288 280.446,355.621 285,366.5C 294.447,380.079 307.281,384.912 323.5,381C 329.808,379.096 335.641,376.262 341,372.5C 341.499,367.177 341.666,361.844 341.5,356.5C 334.079,356.891 326.746,356.391 319.5,355C 312.833,349.667 312.833,344.333 319.5,339C 332.443,337.411 345.443,337.078 358.5,338C 360.081,338.707 361.581,339.54 363,340.5C 364.631,354.406 364.964,368.406 364,382.5C 361.718,385.568 358.884,388.068 355.5,390C 329.398,405.213 303.398,405.213 277.5,390C 259.329,372.175 252.829,350.675 258,325.5C 264.084,300.223 279.917,285.556 305.5,281.5 Z M 160.5,283.5 C 166.007,283.52 170.174,285.853 173,290.5C 173.167,305.511 173.667,320.511 174.5,335.5C 190.322,318.843 205.989,302.01 221.5,285C 226.718,283.437 232.051,283.104 237.5,284C 242.626,286.553 243.793,290.386 241,295.5C 229.755,306.075 219.255,317.242 209.5,329C 223.442,349.777 236.775,370.944 249.5,392.5C 248.627,394.413 247.627,396.247 246.5,398C 240.612,399.576 234.612,399.909 228.5,399C 226.998,398.417 225.665,397.584 224.5,396.5C 214.167,379.167 203.833,361.833 193.5,344.5C 186.483,350.683 179.983,357.35 174,364.5C 173.667,373.833 173.333,383.167 173,392.5C 165.538,402.052 158.538,401.719 152,391.5C 151.333,358.167 151.333,324.833 152,291.5C 153.773,287.56 156.606,284.893 160.5,283.5 Z"/></g>
</svg>
